<svg xmlns="http://www.w3.org/2000/svg" xmlns:xlink="http://www.w3.org/1999/xlink" width="1920" height="1080" viewBox="0 0 1920 1080"><defs><style>.a{clip-path:url(#b);}.b{fill:#b88400;}.b,.c,.d{stroke:#efe66b;}.b,.c{stroke-width:6px;}.c,.d{fill:#33341c;}.d,.e,.f{stroke-width:4px;}.e,.f,.g{fill:none;}.e{stroke:#fffffc;}.e,.f,.g,.k,.l{stroke-miterlimit:10;}.f,.g{stroke:#fff;}.g,.k{stroke-width:0.5px;}.h{fill:#ff1f17;stroke:gold;}.i,.m{fill:#fff;}.j{fill:gold;}.k{fill:#e03030;stroke:#ea996b;}.l{stroke:#5cc9e2;stroke-width:0.75px;}.m{font-size:27px;font-family:SegoeUI-Semibold, Segoe UI;font-weight:600;letter-spacing:0.061em;}</style><clipPath id="b"><rect width="1920" height="1080"/></clipPath></defs><g id="a" class="a"><rect class="i" width="1920" height="1080"/><path class="b" d="M185,490.5,21,583l5.667-251C84.333,367.333,184.5,421,188,424,172.5,445,175.667,477.833,185,490.5Z" transform="translate(709 76.75)"/><path class="c" d="M304.5,496.5C309,497.75,472,594,472,594L249,731,28.5,592.5c3-2.5,158.167-91.167,162.167-93.167C243,563,308,504.5,304.5,496.5Z" transform="translate(709 76.75)"/><path class="b" d="M314.5,426.5C314,422,476,330.333,476,330.333l5,255.917c-57.667-35.333-166.5-96.75-170-99.75C325,467,315,431,314.5,426.5Z" transform="translate(709 76.75)"/><path class="d" d="M192.667,419.25l-170-97,226.833-127S442.917,315.5,451.667,321c-8,5.75-105,63.5-142,86-10.844-3.747-61.34-21.343-61.417-20.25C222.25,384.75,199.234,404.952,192.667,419.25Z" transform="translate(719.833 76.75)"/><g transform="translate(709.205 76.75)"><path class="e" d="M247.8,543.45a87.09,87.09,0,1,0-87.09-87.09A87.091,87.091,0,0,0,247.8,543.45Z"/></g><g transform="translate(642 109.75)"><path class="f" d="M204.173,326.576c2.344,2.611,129.609,125.626,132.846,128.752" transform="matrix(0.695, 0.719, -0.719, 0.695, 408.088, -42.728)"/></g><path class="g" d="M119.13,381.39l129.85-74.97,129.85,74.97V531.33L248.98,606.3,119.13,531.33Z" transform="translate(709 76.75)"/><g transform="translate(709 76.75)"><path class="h" d="M336.593,437.514a86.517,86.517,0,0,0-2.561-10.616,90.784,90.784,0,0,0-55.2-58.119h0A90.624,90.624,0,0,0,158.4,437.359q.222-.915.462-1.827m177.726,1.982L159.35,435.66m177.243,1.854a92.076,92.076,0,0,0-23.525-42.633h0A91.934,91.934,0,0,0,265.82,369.07h0a92.218,92.218,0,0,0-55.6,6.063h0a92.355,92.355,0,0,0-40.52,35.3m166.9,27.079L169.7,410.435m-10.829,25.1.483.128m-.483-.128h0l.484.127m-.483-.128a91.134,91.134,0,0,1,10.829-25.1M159.35,435.66a90.661,90.661,0,0,1,10.77-24.96l-.424-.265h0m-13.256,44.8c.019-.552.047-1.1.076-1.664l0-.086c.08-1.36.19-2.71.33-4.07.026-.253.053-.505.082-.758q.109-.988.242-1.975l-.5-.053q-.078,1-.136,2.006c-.014.248-.028.5-.04.744h0q-.106,2.045-.155,4.1h0q-.02.878-.029,1.754Zm0,0c0,.107-.016.229-.03.36l-.1,0,0-.366Zm2.628,23.361q-.4-1.781-.717-3.577a91.92,91.92,0,0,0,19.117,37.909l.382-.323-.382.323a91.653,91.653,0,0,0,156.665-29.291c.991-2.878,1.855-5.865,2.571-8.9A90.791,90.791,0,0,1,313.5,520.887h0a90.588,90.588,0,0,1-144.2-16.3h0A90.008,90.008,0,0,1,159.068,478.6Z"/></g><g transform="translate(709 76.75)"><path class="i" d="M247.8,524.78a68.42,68.42,0,1,0-68.42-68.42A68.42,68.42,0,0,0,247.8,524.78Z"/><path class="j" d="M316.19,455.7c-.03,13.45-5.12,27.59-13.2,38.6a68.419,68.419,0,0,1-123.24-33.29q-.15-1.425-.24-2.85c-.02-.41-.05-.81-.06-1.22-.01-.23-.02-.47-.03-.7-.05-1.63-.13.69-.02.87-.15-.24.03-1.02.04-1.32.02-.46.04-.93.07-1.39.06-1.01.15-2.02.26-3.02a68.068,68.068,0,0,1,10.14-29.01A68.443,68.443,0,0,1,315.15,446.8a63.844,63.844,0,0,1,1.04,10.24c0,.49-.01,1,.01,1.49,0-.1-.01.55.02.25a28.773,28.773,0,0,0,.02-3.08,75.083,75.083,0,0,0-2.98-21.8,67.985,67.985,0,0,0-9.12-18.86,68.418,68.418,0,0,0-124.66,35.23,87.88,87.88,0,0,0,1.43,23.01,68.429,68.429,0,0,0,134.72-5.37,82.192,82.192,0,0,0,.61-10.86,16.667,16.667,0,0,0-.02-3.08c-.05-.25-.02.26-.02.25C316.17,454.7,316.19,455.2,316.19,455.7Z"/></g><g transform="translate(709 76.75)"><path class="k" d="M302.51,424.02H287.22a14.673,14.673,0,0,0-10.41,4.33l-20.69,20.79v14.62l20.8,24.37a17.369,17.369,0,0,0,13.2,6.09h12.39l-31.65-38.41Z"/><path class="l" d="M231.95,492.95a36.89,36.89,0,1,0-36.89-36.89A36.89,36.89,0,0,0,231.95,492.95Z"/><path class="j" d="M250.438,467.558a1.6,1.6,0,0,1-.243-.884V446.165c0-2.049,2.388-2.67,4.061-2.849a1.75,1.75,0,0,0,1.6-1.723v-.163a1.747,1.747,0,0,0-1.76-1.739H240.658a1.747,1.747,0,0,0-1.76,1.739v6.093a1.746,1.746,0,0,1-1.759,1.739h-8.618a1.745,1.745,0,0,1-1.76-1.754c.008-.513.008-1.172.008-2.026,0-2.36,2.278-2.834,3.944-2.865a1.74,1.74,0,0,0,1.712-1.738v-.14A1.746,1.746,0,0,0,230.666,439H210.76a1.747,1.747,0,0,0-1.76,1.739v.38a1.753,1.753,0,0,0,1.642,1.731c4.375.35,4.171,2.376,4.171,2.376s0,18.793.079,21.626c.055,1.785-2.1,2.205-3.692,2.267a1.737,1.737,0,0,0-1.674,1.731v.085a1.747,1.747,0,0,0,1.76,1.739h4.179a11.252,11.252,0,0,0,11.32-11.186v-6.016a1.747,1.747,0,0,1,1.76-1.739h8.46a1.747,1.747,0,0,1,1.76,1.739v11.372c0,2.189-2.318,2.64-4,2.678a1.739,1.739,0,0,0,.063,3.478H254.24a1.747,1.747,0,0,0,1.76-1.739v-.3a1.769,1.769,0,0,0-1.7-1.738C251.837,469.1,250.839,468.164,250.438,467.558Z"/></g><text class="m" transform="translate(893 364.75)"><tspan x="0" y="0">PROJECTS</tspan></text><text class="m" transform="translate(1100 539.75)"><tspan x="0" y="0">FUN</tspan></text><text class="m" transform="translate(901 717.75)"><tspan x="0" y="0">GALLERY</tspan></text><text class="m" transform="translate(746 539.75)"><tspan x="0" y="0">ABOUT</tspan></text></g></svg>