<svg width="748" height="874" viewBox="0 0 748 874" fill="none" xmlns="http://www.w3.org/2000/svg">
<g id="logo_cd 1">
<g clip-path="url(#clip0)">
<g id="logo cd">
<path id="bottom flap" d="M738.343 646.28L371.509 871.643L8.75499 643.789C9.0743 643.581 9.42254 643.355 9.7992 643.112C11.8529 641.788 14.7278 639.962 18.3139 637.707C25.4848 633.196 35.4831 626.976 47.4076 619.621C71.2561 604.912 102.799 585.674 134.819 566.519C166.843 547.362 199.33 528.298 225.073 513.933C237.947 506.749 249.113 500.752 257.682 496.509C261.969 494.386 265.58 492.716 268.417 491.557C270.546 490.687 272.114 490.16 273.16 489.912C294.923 516.072 318.101 529.929 340.631 535.66C363.397 541.451 385.34 538.903 404.27 532.599C423.189 526.3 439.161 516.23 450.06 506.869C455.505 502.193 459.738 497.647 462.445 493.781C463.794 491.854 464.812 490.029 465.392 488.389C465.639 487.69 465.831 486.954 465.909 486.218C467.115 486.3 468.719 486.592 470.757 487.156C473.957 488.043 477.947 489.519 482.634 491.526C492.001 495.537 503.967 501.591 517.625 509.043C544.932 523.942 578.843 544.345 611.94 564.94C645.032 585.531 677.284 606.299 701.265 621.921C713.255 629.731 723.177 636.254 730.1 640.824C733.562 643.109 736.274 644.906 738.12 646.132C738.196 646.182 738.271 646.231 738.343 646.28Z" fill="#FF9900" fill-opacity="0.78" stroke="#EFE66B" stroke-width="4"/>
<path id="top flap" d="M389.274 322.09C366.637 320.506 346.187 332.638 330.15 347.9C314.862 362.45 303.303 380.103 297.322 392.371L14.8516 219.116L10.6719 215.579L391.559 2.8182L394.205 4.49697L404.544 11.0548C413.457 16.7091 426.208 24.797 441.554 34.5315C472.248 54.0006 513.326 80.0562 554.867 106.402C632.445 155.604 711.643 205.823 727.813 216.043C706.607 231.575 653.156 264.032 596.81 297.553C572.499 312.016 547.667 326.667 524.704 340.216C492.953 358.95 464.773 375.576 446.48 386.685C444.68 385.909 442.573 384.556 440.213 382.667C437.495 380.49 434.547 377.691 431.479 374.471C425.343 368.031 418.833 360.022 412.858 352.225C406.887 344.435 401.481 336.896 397.547 331.403L397.301 331.059C395.452 328.477 393.931 326.352 392.857 324.912C392.303 324.169 391.834 323.561 391.488 323.16C391.34 322.989 391.112 322.733 390.861 322.538C390.788 322.481 390.669 322.395 390.515 322.314C390.388 322.247 390.076 322.096 389.647 322.074C389.529 322.068 389.403 322.073 389.274 322.09Z" fill="#FF9900" fill-opacity="0.78" stroke="#EFE66B" stroke-width="4"/>
<g id="top group">
<path id="top panel" d="M108.894 276.186C108.894 276.186 240.221 124.54 371.549 124.54C502.877 124.54 634.203 276.186 634.203 276.186L529.343 346.24L371.549 450.24L239.677 381.24L108.894 276.186Z" fill="#151607" stroke="#EFE66B" stroke-width="4"/>
<g id="PROJECTS">
<path d="M289.051 223.867V235H285.301V206.562H295.789C298.901 206.562 301.336 207.357 303.094 208.945C304.865 210.534 305.75 212.637 305.75 215.254C305.75 218.014 304.884 220.143 303.152 221.641C301.434 223.125 298.966 223.867 295.75 223.867H289.051ZM289.051 220.801H295.789C297.794 220.801 299.331 220.332 300.398 219.395C301.466 218.444 302 217.077 302 215.293C302 213.6 301.466 212.246 300.398 211.23C299.331 210.215 297.866 209.688 296.004 209.648H289.051V220.801ZM320.965 223.496H314.285V235H310.516V206.562H319.93C323.133 206.562 325.594 207.292 327.312 208.75C329.044 210.208 329.91 212.331 329.91 215.117C329.91 216.888 329.428 218.431 328.465 219.746C327.514 221.061 326.186 222.044 324.48 222.695L331.16 234.766V235H327.137L320.965 223.496ZM314.285 220.43H320.047C321.909 220.43 323.387 219.948 324.48 218.984C325.587 218.021 326.141 216.732 326.141 215.117C326.141 213.359 325.613 212.012 324.559 211.074C323.517 210.137 322.007 209.661 320.027 209.648H314.285V220.43ZM357.059 221.699C357.059 224.486 356.59 226.921 355.652 229.004C354.715 231.074 353.387 232.656 351.668 233.75C349.949 234.844 347.944 235.391 345.652 235.391C343.413 235.391 341.427 234.844 339.695 233.75C337.964 232.643 336.616 231.074 335.652 229.043C334.702 226.999 334.214 224.635 334.188 221.953V219.902C334.188 217.168 334.663 214.753 335.613 212.656C336.564 210.56 337.905 208.958 339.637 207.852C341.382 206.732 343.374 206.172 345.613 206.172C347.892 206.172 349.897 206.725 351.629 207.832C353.374 208.926 354.715 210.521 355.652 212.617C356.59 214.701 357.059 217.129 357.059 219.902V221.699ZM353.328 219.863C353.328 216.491 352.651 213.906 351.297 212.109C349.943 210.299 348.048 209.395 345.613 209.395C343.243 209.395 341.375 210.299 340.008 212.109C338.654 213.906 337.957 216.406 337.918 219.609V221.699C337.918 224.967 338.602 227.539 339.969 229.414C341.349 231.276 343.243 232.207 345.652 232.207C348.074 232.207 349.949 231.328 351.277 229.57C352.605 227.799 353.289 225.267 353.328 221.973V219.863ZM374.598 206.562H378.367V226.699C378.367 229.421 377.547 231.549 375.906 233.086C374.279 234.622 372.104 235.391 369.383 235.391C366.557 235.391 364.357 234.668 362.781 233.223C361.206 231.777 360.418 229.753 360.418 227.148H364.168C364.168 228.776 364.611 230.046 365.496 230.957C366.395 231.868 367.69 232.324 369.383 232.324C370.932 232.324 372.182 231.836 373.133 230.859C374.096 229.883 374.585 228.516 374.598 226.758V206.562ZM400.828 221.855H388.504V231.934H402.82V235H384.754V206.562H402.625V209.648H388.504V218.789H400.828V221.855ZM428.406 225.977C428.055 228.984 426.941 231.309 425.066 232.949C423.204 234.577 420.724 235.391 417.625 235.391C414.266 235.391 411.57 234.186 409.539 231.777C407.521 229.368 406.512 226.146 406.512 222.109V219.375C406.512 216.732 406.98 214.408 407.918 212.402C408.868 210.397 410.21 208.861 411.941 207.793C413.673 206.712 415.678 206.172 417.957 206.172C420.978 206.172 423.4 207.018 425.223 208.711C427.046 210.391 428.107 212.721 428.406 215.703H424.637C424.311 213.438 423.602 211.797 422.508 210.781C421.427 209.766 419.91 209.258 417.957 209.258C415.561 209.258 413.68 210.143 412.312 211.914C410.958 213.685 410.281 216.204 410.281 219.473V222.227C410.281 225.312 410.926 227.767 412.215 229.59C413.504 231.413 415.307 232.324 417.625 232.324C419.708 232.324 421.303 231.855 422.41 230.918C423.53 229.967 424.272 228.32 424.637 225.977H428.406ZM452.605 209.648H443.465V235H439.734V209.648H430.613V206.562H452.605V209.648ZM464.891 222.324C461.674 221.4 459.331 220.267 457.859 218.926C456.401 217.572 455.672 215.905 455.672 213.926C455.672 211.686 456.564 209.837 458.348 208.379C460.145 206.908 462.475 206.172 465.34 206.172C467.293 206.172 469.031 206.549 470.555 207.305C472.091 208.06 473.276 209.102 474.109 210.43C474.956 211.758 475.379 213.21 475.379 214.785H471.609C471.609 213.066 471.062 211.719 469.969 210.742C468.875 209.753 467.332 209.258 465.34 209.258C463.491 209.258 462.046 209.668 461.004 210.488C459.975 211.296 459.461 212.422 459.461 213.867C459.461 215.026 459.949 216.009 460.926 216.816C461.915 217.611 463.589 218.34 465.945 219.004C468.315 219.668 470.164 220.404 471.492 221.211C472.833 222.005 473.823 222.936 474.461 224.004C475.112 225.072 475.438 226.328 475.438 227.773C475.438 230.078 474.539 231.927 472.742 233.32C470.945 234.701 468.543 235.391 465.535 235.391C463.582 235.391 461.759 235.02 460.066 234.277C458.374 233.522 457.065 232.493 456.141 231.191C455.229 229.889 454.773 228.411 454.773 226.758H458.543C458.543 228.477 459.174 229.837 460.438 230.84C461.714 231.829 463.413 232.324 465.535 232.324C467.514 232.324 469.031 231.921 470.086 231.113C471.141 230.306 471.668 229.206 471.668 227.812C471.668 226.419 471.18 225.345 470.203 224.59C469.227 223.822 467.456 223.066 464.891 222.324Z" fill="white"/>
<path d="M289.051 223.867V223.367H288.551V223.867H289.051ZM289.051 235V235.5H289.551V235H289.051ZM285.301 235H284.801V235.5H285.301V235ZM285.301 206.562V206.062H284.801V206.562H285.301ZM303.094 208.945L302.759 209.316L302.76 209.318L303.094 208.945ZM303.152 221.641L303.479 222.019L303.479 222.019L303.152 221.641ZM289.051 220.801H288.551V221.301H289.051V220.801ZM300.398 219.395L300.728 219.77L300.731 219.768L300.398 219.395ZM296.004 209.648L296.014 209.148H296.004V209.648ZM289.051 209.648V209.148H288.551V209.648H289.051ZM288.551 223.867V235H289.551V223.867H288.551ZM289.051 234.5H285.301V235.5H289.051V234.5ZM285.801 235V206.562H284.801V235H285.801ZM285.301 207.062H295.789V206.062H285.301V207.062ZM295.789 207.062C298.817 207.062 301.118 207.834 302.759 209.316L303.429 208.574C301.554 206.879 298.985 206.062 295.789 206.062V207.062ZM302.76 209.318C304.414 210.801 305.25 212.763 305.25 215.254H306.25C306.25 212.511 305.315 210.267 303.428 208.573L302.76 209.318ZM305.25 215.254C305.25 217.902 304.425 219.879 302.825 221.262L303.479 222.019C305.344 220.407 306.25 218.127 306.25 215.254H305.25ZM302.826 221.262C301.229 222.641 298.896 223.367 295.75 223.367V224.367C299.037 224.367 301.638 223.609 303.479 222.019L302.826 221.262ZM295.75 223.367H289.051V224.367H295.75V223.367ZM289.051 221.301H295.789V220.301H289.051V221.301ZM295.789 221.301C297.866 221.301 299.538 220.815 300.728 219.77L300.069 219.019C299.123 219.849 297.722 220.301 295.789 220.301V221.301ZM300.731 219.768C301.931 218.7 302.5 217.181 302.5 215.293H301.5C301.5 216.972 301.002 218.188 300.066 219.021L300.731 219.768ZM302.5 215.293C302.5 213.486 301.925 211.993 300.743 210.868L300.054 211.593C301.007 212.5 301.5 213.715 301.5 215.293H302.5ZM300.743 210.868C299.563 209.746 297.967 209.19 296.014 209.149L295.993 210.148C297.765 210.185 299.098 210.684 300.054 211.593L300.743 210.868ZM296.004 209.148H289.051V210.148H296.004V209.148ZM288.551 209.648V220.801H289.551V209.648H288.551ZM320.965 223.496L321.405 223.26L321.264 222.996H320.965V223.496ZM314.285 223.496V222.996H313.785V223.496H314.285ZM314.285 235V235.5H314.785V235H314.285ZM310.516 235H310.016V235.5H310.516V235ZM310.516 206.562V206.062H310.016V206.562H310.516ZM327.312 208.75L326.989 209.131L326.99 209.132L327.312 208.75ZM328.465 219.746L328.062 219.451L328.06 219.453L328.465 219.746ZM324.48 222.695L324.302 222.228L323.764 222.434L324.043 222.937L324.48 222.695ZM331.16 234.766H331.66V234.637L331.598 234.524L331.16 234.766ZM331.16 235V235.5H331.66V235H331.16ZM327.137 235L326.696 235.236L326.838 235.5H327.137V235ZM314.285 220.43H313.785V220.93H314.285V220.43ZM324.48 218.984L324.152 218.607L324.15 218.609L324.48 218.984ZM324.559 211.074L324.224 211.446L324.226 211.448L324.559 211.074ZM320.027 209.648L320.031 209.148H320.027V209.648ZM314.285 209.648V209.148H313.785V209.648H314.285ZM320.965 222.996H314.285V223.996H320.965V222.996ZM313.785 223.496V235H314.785V223.496H313.785ZM314.285 234.5H310.516V235.5H314.285V234.5ZM311.016 235V206.562H310.016V235H311.016ZM310.516 207.062H319.93V206.062H310.516V207.062ZM319.93 207.062C323.063 207.062 325.392 207.776 326.989 209.131L327.636 208.369C325.795 206.807 323.202 206.062 319.93 206.062V207.062ZM326.99 209.132C328.584 210.474 329.41 212.441 329.41 215.117H330.41C330.41 212.22 329.505 209.942 327.635 208.368L326.99 209.132ZM329.41 215.117C329.41 216.791 328.957 218.229 328.062 219.451L328.868 220.042C329.9 218.633 330.41 216.985 330.41 215.117H329.41ZM328.06 219.453C327.173 220.68 325.929 221.607 324.302 222.228L324.659 223.162C326.444 222.481 327.856 221.443 328.87 220.039L328.06 219.453ZM324.043 222.937L330.723 235.008L331.598 234.524L324.918 222.453L324.043 222.937ZM330.66 234.766V235H331.66V234.766H330.66ZM331.16 234.5H327.137V235.5H331.16V234.5ZM327.577 234.764L321.405 223.26L320.524 223.732L326.696 235.236L327.577 234.764ZM314.285 220.93H320.047V219.93H314.285V220.93ZM320.047 220.93C321.996 220.93 323.603 220.424 324.811 219.36L324.15 218.609C323.171 219.472 321.822 219.93 320.047 219.93V220.93ZM324.809 219.361C326.036 218.293 326.641 216.86 326.641 215.117H325.641C325.641 216.603 325.138 217.749 324.152 218.607L324.809 219.361ZM326.641 215.117C326.641 213.254 326.078 211.755 324.891 210.701L324.226 211.448C325.149 212.268 325.641 213.464 325.641 215.117H326.641ZM324.893 210.703C323.729 209.655 322.082 209.162 320.031 209.148L320.024 210.148C321.931 210.161 323.305 210.619 324.224 211.446L324.893 210.703ZM320.027 209.148H314.285V210.148H320.027V209.148ZM313.785 209.648V220.43H314.785V209.648H313.785ZM355.652 229.004L356.108 229.21L356.108 229.209L355.652 229.004ZM339.695 233.75L339.426 234.171L339.428 234.173L339.695 233.75ZM335.652 229.043L335.199 229.254L335.201 229.257L335.652 229.043ZM334.188 221.953H333.687L333.688 221.958L334.188 221.953ZM339.637 207.852L339.906 208.273L339.907 208.272L339.637 207.852ZM351.629 207.832L351.36 208.253L351.363 208.256L351.629 207.832ZM355.652 212.617L355.196 212.821L355.196 212.822L355.652 212.617ZM351.297 212.109L350.897 212.409L350.898 212.41L351.297 212.109ZM340.008 212.109L339.609 211.808L339.609 211.808L340.008 212.109ZM337.918 219.609L337.418 219.603V219.609H337.918ZM339.969 229.414L339.565 229.709L339.567 229.712L339.969 229.414ZM351.277 229.57L351.676 229.872L351.677 229.87L351.277 229.57ZM353.328 221.973L353.828 221.979V221.973H353.328ZM356.559 221.699C356.559 224.43 356.099 226.792 355.196 228.799L356.108 229.209C357.08 227.049 357.559 224.541 357.559 221.699H356.559ZM355.197 228.798C354.295 230.79 353.027 232.292 351.4 233.328L351.936 234.172C353.746 233.02 355.135 231.358 356.108 229.21L355.197 228.798ZM351.4 233.328C349.771 234.365 347.861 234.891 345.652 234.891V235.891C348.027 235.891 350.128 235.323 351.936 234.172L351.4 233.328ZM345.652 234.891C343.498 234.891 341.607 234.366 339.962 233.327L339.428 234.173C341.247 235.322 343.327 235.891 345.652 235.891V234.891ZM339.965 233.329C338.319 232.277 337.031 230.783 336.104 228.829L335.201 229.257C336.2 231.365 337.608 233.009 339.426 234.171L339.965 233.329ZM336.106 228.832C335.19 226.864 334.713 224.573 334.687 221.948L333.688 221.958C333.714 224.698 334.213 227.134 335.199 229.254L336.106 228.832ZM334.688 221.953V219.902H333.688V221.953H334.688ZM334.688 219.902C334.688 217.226 335.153 214.883 336.069 212.863L335.158 212.45C334.173 214.622 333.688 217.11 333.688 219.902H334.688ZM336.069 212.863C336.984 210.844 338.265 209.321 339.906 208.273L339.367 207.43C337.545 208.595 336.143 210.276 335.158 212.45L336.069 212.863ZM339.907 208.272C341.565 207.208 343.461 206.672 345.613 206.672V205.672C343.286 205.672 341.199 206.255 339.367 207.431L339.907 208.272ZM345.613 206.672C347.807 206.672 349.717 207.203 351.36 208.253L351.898 207.411C350.077 206.247 347.977 205.672 345.613 205.672V206.672ZM351.363 208.256C353.015 209.291 354.294 210.805 355.196 212.821L356.109 212.413C355.136 210.237 353.733 208.561 351.894 207.408L351.363 208.256ZM355.196 212.822C356.099 214.829 356.559 217.185 356.559 219.902H357.559C357.559 217.073 357.08 214.572 356.108 212.412L355.196 212.822ZM356.559 219.902V221.699H357.559V219.902H356.559ZM353.828 219.863C353.828 216.434 353.141 213.726 351.696 211.808L350.898 212.41C352.161 214.087 352.828 216.548 352.828 219.863H353.828ZM351.697 211.81C350.24 209.863 348.192 208.895 345.613 208.895V209.895C347.905 209.895 349.645 210.736 350.897 212.409L351.697 211.81ZM345.613 208.895C343.095 208.895 341.075 209.867 339.609 211.808L340.407 212.411C341.675 210.732 343.392 209.895 345.613 209.895V208.895ZM339.609 211.808C338.168 213.72 337.458 216.337 337.418 219.603L338.418 219.615C338.456 216.475 339.139 214.093 340.407 212.41L339.609 211.808ZM337.418 219.609V221.699H338.418V219.609H337.418ZM337.418 221.699C337.418 225.031 338.114 227.719 339.565 229.709L340.373 229.119C339.089 227.359 338.418 224.904 338.418 221.699H337.418ZM339.567 229.712C341.046 231.707 343.092 232.707 345.652 232.707V231.707C343.395 231.707 341.652 230.845 340.37 229.116L339.567 229.712ZM345.652 232.707C348.213 232.707 350.243 231.768 351.676 229.872L350.878 229.269C349.655 230.888 347.935 231.707 345.652 231.707V232.707ZM351.677 229.87C353.093 227.982 353.788 225.33 353.828 221.979L352.828 221.967C352.79 225.204 352.117 227.617 350.877 229.27L351.677 229.87ZM353.828 221.973V219.863H352.828V221.973H353.828ZM374.598 206.562V206.062H374.098V206.562H374.598ZM378.367 206.562H378.867V206.062H378.367V206.562ZM375.906 233.086L375.564 232.721L375.563 232.722L375.906 233.086ZM360.418 227.148V226.648H359.918V227.148H360.418ZM364.168 227.148H364.668V226.648H364.168V227.148ZM365.496 230.957L365.137 231.305L365.14 231.308L365.496 230.957ZM373.133 230.859L372.777 230.508L372.775 230.511L373.133 230.859ZM374.598 226.758L375.098 226.762V226.758H374.598ZM374.598 207.062H378.367V206.062H374.598V207.062ZM377.867 206.562V226.699H378.867V206.562H377.867ZM377.867 226.699C377.867 229.314 377.083 231.299 375.564 232.721L376.248 233.451C378.01 231.8 378.867 229.527 378.867 226.699H377.867ZM375.563 232.722C374.047 234.153 372.006 234.891 369.383 234.891V235.891C372.203 235.891 374.51 235.092 376.249 233.45L375.563 232.722ZM369.383 234.891C366.641 234.891 364.576 234.191 363.119 232.854L362.443 233.591C364.137 235.145 366.473 235.891 369.383 235.891V234.891ZM363.119 232.854C361.669 231.524 360.918 229.646 360.918 227.148H359.918C359.918 229.86 360.742 232.031 362.443 233.591L363.119 232.854ZM360.418 227.648H364.168V226.648H360.418V227.648ZM363.668 227.148C363.668 228.868 364.138 230.276 365.137 231.305L365.855 230.609C365.083 229.815 364.668 228.684 364.668 227.148H363.668ZM365.14 231.308C366.16 232.343 367.601 232.824 369.383 232.824V231.824C367.779 231.824 366.629 231.394 365.852 230.606L365.14 231.308ZM369.383 232.824C371.047 232.824 372.433 232.295 373.491 231.208L372.775 230.511C371.931 231.377 370.818 231.824 369.383 231.824V232.824ZM373.489 231.211C374.567 230.117 375.084 228.611 375.098 226.762L374.098 226.754C374.085 228.42 373.625 229.648 372.777 230.508L373.489 231.211ZM375.098 226.758V206.562H374.098V226.758H375.098ZM400.828 221.855V222.355H401.328V221.855H400.828ZM388.504 221.855V221.355H388.004V221.855H388.504ZM388.504 231.934H388.004V232.434H388.504V231.934ZM402.82 231.934H403.32V231.434H402.82V231.934ZM402.82 235V235.5H403.32V235H402.82ZM384.754 235H384.254V235.5H384.754V235ZM384.754 206.562V206.062H384.254V206.562H384.754ZM402.625 206.562H403.125V206.062H402.625V206.562ZM402.625 209.648V210.148H403.125V209.648H402.625ZM388.504 209.648V209.148H388.004V209.648H388.504ZM388.504 218.789H388.004V219.289H388.504V218.789ZM400.828 218.789H401.328V218.289H400.828V218.789ZM400.828 221.355H388.504V222.355H400.828V221.355ZM388.004 221.855V231.934H389.004V221.855H388.004ZM388.504 232.434H402.82V231.434H388.504V232.434ZM402.32 231.934V235H403.32V231.934H402.32ZM402.82 234.5H384.754V235.5H402.82V234.5ZM385.254 235V206.562H384.254V235H385.254ZM384.754 207.062H402.625V206.062H384.754V207.062ZM402.125 206.562V209.648H403.125V206.562H402.125ZM402.625 209.148H388.504V210.148H402.625V209.148ZM388.004 209.648V218.789H389.004V209.648H388.004ZM388.504 219.289H400.828V218.289H388.504V219.289ZM400.328 218.789V221.855H401.328V218.789H400.328ZM428.406 225.977L428.903 226.035L428.968 225.477H428.406V225.977ZM425.066 232.949L425.395 233.326L425.396 233.326L425.066 232.949ZM409.539 231.777L409.156 232.098L409.157 232.1L409.539 231.777ZM407.918 212.402L407.466 212.188L407.465 212.191L407.918 212.402ZM411.941 207.793L412.204 208.219L412.206 208.217L411.941 207.793ZM425.223 208.711L424.882 209.077L424.884 209.079L425.223 208.711ZM428.406 215.703V216.203H428.959L428.904 215.653L428.406 215.703ZM424.637 215.703L424.142 215.774L424.203 216.203H424.637V215.703ZM422.508 210.781L422.165 211.146L422.168 211.148L422.508 210.781ZM412.312 211.914L411.917 211.609L411.915 211.61L412.312 211.914ZM422.41 230.918L422.733 231.299L422.734 231.299L422.41 230.918ZM424.637 225.977V225.477H424.208L424.143 225.9L424.637 225.977ZM427.91 225.919C427.569 228.831 426.5 231.031 424.737 232.573L425.396 233.326C427.383 231.586 428.54 229.138 428.903 226.035L427.91 225.919ZM424.737 232.573C422.988 234.102 420.635 234.891 417.625 234.891V235.891C420.813 235.891 423.421 235.052 425.395 233.326L424.737 232.573ZM417.625 234.891C414.402 234.891 411.851 233.743 409.921 231.455L409.157 232.1C411.29 234.629 414.129 235.891 417.625 235.891V234.891ZM409.922 231.456C407.999 229.16 407.012 226.062 407.012 222.109H406.012C406.012 226.229 407.043 229.577 409.156 232.098L409.922 231.456ZM407.012 222.109V219.375H406.012V222.109H407.012ZM407.012 219.375C407.012 216.791 407.47 214.541 408.371 212.614L407.465 212.191C406.491 214.274 406.012 216.673 406.012 219.375H407.012ZM408.37 212.617C409.283 210.69 410.562 209.231 412.204 208.219L411.679 207.367C409.858 208.49 408.454 210.104 407.466 212.188L408.37 212.617ZM412.206 208.217C413.849 207.192 415.761 206.672 417.957 206.672V205.672C415.596 205.672 413.497 206.233 411.677 207.369L412.206 208.217ZM417.957 206.672C420.88 206.672 423.171 207.488 424.882 209.077L425.563 208.345C423.629 206.548 421.076 205.672 417.957 205.672V206.672ZM424.884 209.079C426.599 210.659 427.619 212.866 427.909 215.753L428.904 215.653C428.595 212.576 427.492 210.122 425.561 208.343L424.884 209.079ZM428.406 215.203H424.637V216.203H428.406V215.203ZM425.132 215.632C424.798 213.311 424.06 211.54 422.848 210.415L422.168 211.148C423.143 212.053 423.824 213.564 424.142 215.774L425.132 215.632ZM422.85 210.417C421.65 209.289 419.996 208.758 417.957 208.758V209.758C419.824 209.758 421.204 210.242 422.165 211.146L422.85 210.417ZM417.957 208.758C415.419 208.758 413.386 209.705 411.917 211.609L412.708 212.22C413.973 210.581 415.703 209.758 417.957 209.758V208.758ZM411.915 211.61C410.47 213.501 409.781 216.144 409.781 219.473H410.781C410.781 216.265 411.447 213.869 412.71 212.218L411.915 211.61ZM409.781 219.473V222.227H410.781V219.473H409.781ZM409.781 222.227C409.781 225.377 410.439 227.944 411.807 229.879L412.623 229.301C411.413 227.589 410.781 225.248 410.781 222.227H409.781ZM411.807 229.879C413.194 231.84 415.152 232.824 417.625 232.824V231.824C415.462 231.824 413.814 230.986 412.623 229.301L411.807 229.879ZM417.625 232.824C419.776 232.824 421.504 232.341 422.733 231.299L422.087 230.536C421.103 231.37 419.641 231.824 417.625 231.824V232.824ZM422.734 231.299C423.987 230.236 424.758 228.447 425.131 226.053L424.143 225.9C423.786 228.193 423.073 229.699 422.087 230.537L422.734 231.299ZM424.637 226.477H428.406V225.477H424.637V226.477ZM452.605 209.648V210.148H453.105V209.648H452.605ZM443.465 209.648V209.148H442.965V209.648H443.465ZM443.465 235V235.5H443.965V235H443.465ZM439.734 235H439.234V235.5H439.734V235ZM439.734 209.648H440.234V209.148H439.734V209.648ZM430.613 209.648H430.113V210.148H430.613V209.648ZM430.613 206.562V206.062H430.113V206.562H430.613ZM452.605 206.562H453.105V206.062H452.605V206.562ZM452.605 209.148H443.465V210.148H452.605V209.148ZM442.965 209.648V235H443.965V209.648H442.965ZM443.465 234.5H439.734V235.5H443.465V234.5ZM440.234 235V209.648H439.234V235H440.234ZM439.734 209.148H430.613V210.148H439.734V209.148ZM431.113 209.648V206.562H430.113V209.648H431.113ZM430.613 207.062H452.605V206.062H430.613V207.062ZM452.105 206.562V209.648H453.105V206.562H452.105ZM464.891 222.324L465.03 221.844L465.029 221.844L464.891 222.324ZM457.859 218.926L457.519 219.292L457.523 219.295L457.859 218.926ZM458.348 208.379L458.664 208.766L458.664 208.766L458.348 208.379ZM470.555 207.305L470.333 207.753L470.334 207.753L470.555 207.305ZM474.109 210.43L473.686 210.695L473.688 210.698L474.109 210.43ZM475.379 214.785V215.285H475.879V214.785H475.379ZM471.609 214.785H471.109V215.285H471.609V214.785ZM469.969 210.742L469.633 211.113L469.636 211.115L469.969 210.742ZM461.004 210.488L461.313 210.882L461.313 210.881L461.004 210.488ZM460.926 216.816L460.607 217.202L460.613 217.206L460.926 216.816ZM465.945 219.004L465.81 219.485L465.81 219.485L465.945 219.004ZM471.492 221.211L471.232 221.638L471.237 221.641L471.492 221.211ZM474.461 224.004L474.032 224.26L474.034 224.264L474.461 224.004ZM472.742 233.32L473.047 233.717L473.049 233.715L472.742 233.32ZM460.066 234.277L459.863 234.734L459.866 234.735L460.066 234.277ZM456.141 231.191L455.731 231.478L455.733 231.481L456.141 231.191ZM454.773 226.758V226.258H454.273V226.758H454.773ZM458.543 226.758H459.043V226.258H458.543V226.758ZM460.438 230.84L460.127 231.231L460.131 231.235L460.438 230.84ZM470.203 224.59L469.894 224.983L469.897 224.985L470.203 224.59ZM465.029 221.844C461.843 220.928 459.585 219.822 458.196 218.556L457.523 219.295C459.077 220.712 461.506 221.872 464.752 222.805L465.029 221.844ZM458.2 218.559C456.843 217.299 456.172 215.765 456.172 213.926H455.172C455.172 216.045 455.96 217.844 457.519 219.292L458.2 218.559ZM456.172 213.926C456.172 211.841 456.993 210.133 458.664 208.766L458.031 207.992C456.135 209.542 455.172 211.531 455.172 213.926H456.172ZM458.664 208.766C460.353 207.383 462.563 206.672 465.34 206.672V205.672C462.388 205.672 459.936 206.432 458.031 207.992L458.664 208.766ZM465.34 206.672C467.227 206.672 468.888 207.036 470.333 207.753L470.777 206.857C469.175 206.063 467.359 205.672 465.34 205.672V206.672ZM470.334 207.753C471.795 208.472 472.906 209.453 473.686 210.695L474.533 210.164C473.646 208.75 472.387 207.648 470.775 206.856L470.334 207.753ZM473.688 210.698C474.483 211.946 474.879 213.305 474.879 214.785H475.879C475.879 213.114 475.429 211.569 474.531 210.161L473.688 210.698ZM475.379 214.285H471.609V215.285H475.379V214.285ZM472.109 214.785C472.109 212.951 471.52 211.457 470.302 210.369L469.636 211.115C470.605 211.98 471.109 213.182 471.109 214.785H472.109ZM470.304 210.371C469.09 209.273 467.412 208.758 465.34 208.758V209.758C467.252 209.758 468.66 210.232 469.633 211.113L470.304 210.371ZM465.34 208.758C463.422 208.758 461.853 209.183 460.695 210.095L461.313 210.881C462.238 210.153 463.56 209.758 465.34 209.758V208.758ZM460.695 210.095C459.532 211.008 458.961 212.287 458.961 213.867H459.961C459.961 212.557 460.419 211.583 461.313 210.882L460.695 210.095ZM458.961 213.867C458.961 215.19 459.528 216.31 460.607 217.202L461.244 216.431C460.371 215.709 459.961 214.862 459.961 213.867H458.961ZM460.613 217.206C461.684 218.066 463.437 218.817 465.81 219.485L466.081 218.523C463.74 217.863 462.147 217.156 461.239 216.426L460.613 217.206ZM465.81 219.485C468.159 220.143 469.959 220.864 471.232 221.638L471.752 220.784C470.369 219.943 468.472 219.193 466.08 218.522L465.81 219.485ZM471.237 221.641C472.525 222.404 473.446 223.28 474.032 224.26L474.89 223.747C474.2 222.592 473.142 221.607 471.747 220.781L471.237 221.641ZM474.034 224.264C474.63 225.242 474.938 226.405 474.938 227.773H475.938C475.938 226.251 475.594 224.901 474.888 223.744L474.034 224.264ZM474.938 227.773C474.938 229.926 474.109 231.628 472.436 232.925L473.049 233.715C474.97 232.226 475.938 230.23 475.938 227.773H474.938ZM472.438 232.924C470.753 234.218 468.469 234.891 465.535 234.891V235.891C468.617 235.891 471.138 235.183 473.047 233.717L472.438 232.924ZM465.535 234.891C463.647 234.891 461.893 234.532 460.267 233.819L459.866 234.735C461.625 235.507 463.517 235.891 465.535 235.891V234.891ZM460.27 233.821C458.646 233.096 457.413 232.12 456.548 230.902L455.733 231.481C456.717 232.867 458.102 233.948 459.863 234.734L460.27 233.821ZM456.55 230.905C455.7 229.69 455.273 228.313 455.273 226.758H454.273C454.273 228.51 454.758 230.088 455.731 231.478L456.55 230.905ZM454.773 227.258H458.543V226.258H454.773V227.258ZM458.043 226.758C458.043 228.618 458.735 230.127 460.127 231.231L460.748 230.448C459.614 229.547 459.043 228.336 459.043 226.758H458.043ZM460.131 231.235C461.519 232.311 463.337 232.824 465.535 232.824V231.824C463.489 231.824 461.908 231.348 460.744 230.445L460.131 231.235ZM465.535 232.824C467.573 232.824 469.214 232.41 470.39 231.51L469.782 230.716C468.848 231.431 467.456 231.824 465.535 231.824V232.824ZM470.39 231.51C471.575 230.603 472.168 229.353 472.168 227.812H471.168C471.168 229.059 470.706 230.009 469.782 230.716L470.39 231.51ZM472.168 227.812C472.168 226.287 471.625 225.057 470.509 224.194L469.897 224.985C470.734 225.633 471.168 226.551 471.168 227.812H472.168ZM470.512 224.197C469.454 223.364 467.602 222.588 465.03 221.844L464.752 222.805C467.31 223.545 468.999 224.279 469.894 224.983L470.512 224.197Z" fill="#FFF8F8"/>
</g>
</g>
<g id="bottom group">
<path id="bottom panel" d="M639.176 580.74C639.176 580.74 502.876 737.573 371.548 737.573C240.22 737.573 107.176 581.24 107.176 581.24L213.754 515.873L371.548 378.54L639.176 580.74Z" fill="#151607" stroke="#EFE66B" stroke-width="4"/>
<g id="GALLERY">
<path d="M316.994 656.575C316.03 657.955 314.683 658.99 312.951 659.68C311.232 660.357 309.227 660.696 306.935 660.696C304.618 660.696 302.56 660.155 300.763 659.075C298.967 657.981 297.573 656.431 296.584 654.426C295.607 652.421 295.106 650.097 295.08 647.453V644.973C295.08 640.689 296.076 637.369 298.068 635.012C300.073 632.655 302.886 631.477 306.506 631.477C309.474 631.477 311.864 632.239 313.674 633.762C315.483 635.272 316.59 637.421 316.994 640.207H313.244C312.541 636.444 310.301 634.563 306.525 634.563C304.012 634.563 302.105 635.448 300.802 637.219C299.513 638.977 298.862 641.529 298.849 644.875V647.2C298.849 650.39 299.579 652.929 301.037 654.817C302.495 656.692 304.468 657.629 306.955 657.629C308.361 657.629 309.592 657.473 310.646 657.16C311.701 656.848 312.573 656.321 313.263 655.578V649.192H306.681V646.145H316.994V656.575ZM338.967 652.883H327.052L324.377 660.305H320.51L331.369 631.867H334.65L345.529 660.305H341.681L338.967 652.883ZM328.185 649.797H337.853L333.01 636.496L328.185 649.797ZM353.127 657.239H366.603V660.305H349.357V631.867H353.127V657.239ZM374.65 657.239H388.127V660.305H370.881V631.867H374.65V657.239ZM408.478 647.16H396.154V657.239H410.47V660.305H392.404V631.867H410.275V634.953H396.154V644.094H408.478V647.16ZM425.568 648.801H418.888V660.305H415.119V631.867H424.533C427.736 631.867 430.197 632.597 431.916 634.055C433.648 635.513 434.513 637.636 434.513 640.422C434.513 642.193 434.032 643.736 433.068 645.051C432.118 646.366 430.789 647.349 429.084 648L435.763 660.071V660.305H431.74L425.568 648.801ZM418.888 645.735H424.65C426.512 645.735 427.99 645.253 429.084 644.289C430.191 643.326 430.744 642.037 430.744 640.422C430.744 638.664 430.217 637.317 429.162 636.379C428.12 635.442 426.61 634.966 424.631 634.953H418.888V645.735ZM447.521 646.145L454.943 631.867H459.201L449.396 649.7V660.305H445.646V649.7L435.842 631.867H440.138L447.521 646.145Z" fill="white"/>
<path d="M316.994 656.575L317.404 656.861L317.494 656.732V656.575H316.994ZM312.951 659.68L313.134 660.145L313.136 660.144L312.951 659.68ZM300.763 659.075L300.503 659.502L300.506 659.503L300.763 659.075ZM296.584 654.426L296.134 654.645L296.135 654.647L296.584 654.426ZM295.08 647.453H294.58L294.58 647.458L295.08 647.453ZM298.068 635.012L297.687 634.688L297.686 634.689L298.068 635.012ZM313.674 633.762L313.352 634.145L313.353 634.146L313.674 633.762ZM316.994 640.207V640.707H317.572L317.489 640.136L316.994 640.207ZM313.244 640.207L312.752 640.299L312.829 640.707H313.244V640.207ZM300.802 637.219L300.4 636.923L300.399 636.923L300.802 637.219ZM298.849 644.875L298.349 644.873V644.875H298.849ZM301.037 654.817L300.641 655.122L300.642 655.124L301.037 654.817ZM313.263 655.578L313.63 655.919L313.763 655.775V655.578H313.263ZM313.263 649.192H313.763V648.692H313.263V649.192ZM306.681 649.192H306.181V649.692H306.681V649.192ZM306.681 646.145V645.645H306.181V646.145H306.681ZM316.994 646.145H317.494V645.645H316.994V646.145ZM316.584 656.288C315.682 657.58 314.417 658.558 312.766 659.216L313.136 660.144C314.948 659.422 316.378 658.33 317.404 656.861L316.584 656.288ZM312.768 659.215C311.119 659.864 309.179 660.196 306.935 660.196V661.196C309.275 661.196 311.345 660.85 313.134 660.145L312.768 659.215ZM306.935 660.196C304.699 660.196 302.732 659.675 301.021 658.646L300.506 659.503C302.388 660.635 304.537 661.196 306.935 661.196V660.196ZM301.023 658.647C299.313 657.606 297.982 656.131 297.032 654.205L296.135 654.647C297.164 656.732 298.62 658.355 300.503 659.502L301.023 658.647ZM297.033 654.207C296.095 652.28 295.605 650.031 295.58 647.449L294.58 647.458C294.606 650.162 295.12 652.562 296.134 654.645L297.033 654.207ZM295.58 647.453V644.973H294.58V647.453H295.58ZM295.58 644.973C295.58 640.762 296.559 637.572 298.45 635.335L297.686 634.689C295.593 637.166 294.58 640.617 294.58 644.973H295.58ZM298.449 635.336C300.343 633.11 303.005 631.977 306.506 631.977V630.977C302.767 630.977 299.804 632.2 297.687 634.688L298.449 635.336ZM306.506 631.977C309.387 631.977 311.653 632.715 313.352 634.145L313.996 633.379C312.074 631.762 309.561 630.977 306.506 630.977V631.977ZM313.353 634.146C315.051 635.563 316.109 637.59 316.499 640.279L317.489 640.136C317.071 637.252 315.916 634.982 313.994 633.378L313.353 634.146ZM316.994 639.707H313.244V640.707H316.994V639.707ZM313.735 640.115C313.369 638.156 312.591 636.627 311.358 635.591C310.125 634.555 308.496 634.063 306.525 634.063V635.063C308.33 635.063 309.709 635.511 310.715 636.357C311.722 637.203 312.415 638.496 312.752 640.299L313.735 640.115ZM306.525 634.063C303.879 634.063 301.81 635.004 300.4 636.923L301.205 637.515C302.399 635.892 304.145 635.063 306.525 635.063V634.063ZM300.399 636.923C299.022 638.801 298.363 641.474 298.349 644.873L299.349 644.877C299.362 641.584 300.005 639.153 301.206 637.515L300.399 636.923ZM298.349 644.875V647.2H299.349V644.875H298.349ZM298.349 647.2C298.349 650.463 299.096 653.121 300.641 655.122L301.433 654.511C300.061 652.736 299.349 650.316 299.349 647.2H298.349ZM300.642 655.124C302.2 657.127 304.322 658.129 306.955 658.129V657.129C304.614 657.129 302.79 656.256 301.432 654.51L300.642 655.124ZM306.955 658.129C308.397 658.129 309.677 657.969 310.788 657.64L310.504 656.681C309.506 656.977 308.326 657.129 306.955 657.129V658.129ZM310.788 657.64C311.921 657.304 312.873 656.732 313.63 655.919L312.897 655.238C312.273 655.909 311.481 656.392 310.504 656.681L310.788 657.64ZM313.763 655.578V649.192H312.763V655.578H313.763ZM313.263 648.692H306.681V649.692H313.263V648.692ZM307.181 649.192V646.145H306.181V649.192H307.181ZM306.681 646.645H316.994V645.645H306.681V646.645ZM316.494 646.145V656.575H317.494V646.145H316.494ZM338.967 652.883L339.436 652.711L339.316 652.383H338.967V652.883ZM327.052 652.883V652.383H326.701L326.582 652.714L327.052 652.883ZM324.377 660.305V660.805H324.728L324.847 660.475L324.377 660.305ZM320.51 660.305L320.042 660.127L319.783 660.805H320.51V660.305ZM331.369 631.867V631.367H331.025L330.902 631.689L331.369 631.867ZM334.65 631.867L335.117 631.689L334.994 631.367H334.65V631.867ZM345.529 660.305V660.805H346.256L345.996 660.126L345.529 660.305ZM341.681 660.305L341.212 660.477L341.332 660.805H341.681V660.305ZM328.185 649.797L327.715 649.627L327.472 650.297H328.185V649.797ZM337.853 649.797V650.297H338.567L338.323 649.626L337.853 649.797ZM333.01 636.496L333.479 636.325L333.009 635.033L332.539 636.326L333.01 636.496ZM338.967 652.383H327.052V653.383H338.967V652.383ZM326.582 652.714L323.906 660.135L324.847 660.475L327.523 653.053L326.582 652.714ZM324.377 659.805H320.51V660.805H324.377V659.805ZM320.977 660.483L331.836 632.046L330.902 631.689L320.042 660.127L320.977 660.483ZM331.369 632.367H334.65V631.367H331.369V632.367ZM334.183 632.046L345.062 660.484L345.996 660.126L335.117 631.689L334.183 632.046ZM345.529 659.805H341.681V660.805H345.529V659.805ZM342.151 660.133L339.436 652.711L338.497 653.055L341.212 660.477L342.151 660.133ZM328.185 650.297H337.853V649.297H328.185V650.297ZM338.323 649.626L333.479 636.325L332.54 636.667L337.383 649.968L338.323 649.626ZM332.539 636.326L327.715 649.627L328.655 649.968L333.48 636.667L332.539 636.326ZM353.127 657.239H352.627V657.739H353.127V657.239ZM366.603 657.239H367.103V656.739H366.603V657.239ZM366.603 660.305V660.805H367.103V660.305H366.603ZM349.357 660.305H348.857V660.805H349.357V660.305ZM349.357 631.867V631.367H348.857V631.867H349.357ZM353.127 631.867H353.627V631.367H353.127V631.867ZM353.127 657.739H366.603V656.739H353.127V657.739ZM366.103 657.239V660.305H367.103V657.239H366.103ZM366.603 659.805H349.357V660.805H366.603V659.805ZM349.857 660.305V631.867H348.857V660.305H349.857ZM349.357 632.367H353.127V631.367H349.357V632.367ZM352.627 631.867V657.239H353.627V631.867H352.627ZM374.65 657.239H374.15V657.739H374.65V657.239ZM388.127 657.239H388.627V656.739H388.127V657.239ZM388.127 660.305V660.805H388.627V660.305H388.127ZM370.881 660.305H370.381V660.805H370.881V660.305ZM370.881 631.867V631.367H370.381V631.867H370.881ZM374.65 631.867H375.15V631.367H374.65V631.867ZM374.65 657.739H388.127V656.739H374.65V657.739ZM387.627 657.239V660.305H388.627V657.239H387.627ZM388.127 659.805H370.881V660.805H388.127V659.805ZM371.381 660.305V631.867H370.381V660.305H371.381ZM370.881 632.367H374.65V631.367H370.881V632.367ZM374.15 631.867V657.239H375.15V631.867H374.15ZM408.478 647.16V647.66H408.978V647.16H408.478ZM396.154 647.16V646.66H395.654V647.16H396.154ZM396.154 657.239H395.654V657.739H396.154V657.239ZM410.47 657.239H410.97V656.739H410.47V657.239ZM410.47 660.305V660.805H410.97V660.305H410.47ZM392.404 660.305H391.904V660.805H392.404V660.305ZM392.404 631.867V631.367H391.904V631.867H392.404ZM410.275 631.867H410.775V631.367H410.275V631.867ZM410.275 634.953V635.453H410.775V634.953H410.275ZM396.154 634.953V634.453H395.654V634.953H396.154ZM396.154 644.094H395.654V644.594H396.154V644.094ZM408.478 644.094H408.978V643.594H408.478V644.094ZM408.478 646.66H396.154V647.66H408.478V646.66ZM395.654 647.16V657.239H396.654V647.16H395.654ZM396.154 657.739H410.47V656.739H396.154V657.739ZM409.97 657.239V660.305H410.97V657.239H409.97ZM410.47 659.805H392.404V660.805H410.47V659.805ZM392.904 660.305V631.867H391.904V660.305H392.904ZM392.404 632.367H410.275V631.367H392.404V632.367ZM409.775 631.867V634.953H410.775V631.867H409.775ZM410.275 634.453H396.154V635.453H410.275V634.453ZM395.654 634.953V644.094H396.654V634.953H395.654ZM396.154 644.594H408.478V643.594H396.154V644.594ZM407.978 644.094V647.16H408.978V644.094H407.978ZM425.568 648.801L426.009 648.565L425.867 648.301H425.568V648.801ZM418.888 648.801V648.301H418.388V648.801H418.888ZM418.888 660.305V660.805H419.388V660.305H418.888ZM415.119 660.305H414.619V660.805H415.119V660.305ZM415.119 631.867V631.367H414.619V631.867H415.119ZM431.916 634.055L431.592 634.436L431.594 634.437L431.916 634.055ZM433.068 645.051L432.665 644.756L432.663 644.758L433.068 645.051ZM429.084 648L428.905 647.533L428.367 647.739L428.646 648.242L429.084 648ZM435.763 660.071H436.263V659.941L436.201 659.829L435.763 660.071ZM435.763 660.305V660.805H436.263V660.305H435.763ZM431.74 660.305L431.299 660.541L431.441 660.805H431.74V660.305ZM418.888 645.735H418.388V646.235H418.888V645.735ZM429.084 644.289L428.755 643.912L428.753 643.914L429.084 644.289ZM429.162 636.379L428.827 636.751L428.83 636.753L429.162 636.379ZM424.631 634.953L424.634 634.453H424.631V634.953ZM418.888 634.953V634.453H418.388V634.953H418.888ZM425.568 648.301H418.888V649.301H425.568V648.301ZM418.388 648.801V660.305H419.388V648.801H418.388ZM418.888 659.805H415.119V660.805H418.888V659.805ZM415.619 660.305V631.867H414.619V660.305H415.619ZM415.119 632.367H424.533V631.367H415.119V632.367ZM424.533 632.367C427.667 632.367 429.995 633.081 431.592 634.436L432.239 633.674C430.399 632.112 427.805 631.367 424.533 631.367V632.367ZM431.594 634.437C433.187 635.779 434.013 637.746 434.013 640.422H435.013C435.013 637.525 434.108 635.247 432.238 633.673L431.594 634.437ZM434.013 640.422C434.013 642.096 433.56 643.534 432.665 644.756L433.471 645.347C434.503 643.938 435.013 642.29 435.013 640.422H434.013ZM432.663 644.758C431.776 645.985 430.532 646.912 428.905 647.533L429.262 648.467C431.047 647.786 432.459 646.748 433.473 645.344L432.663 644.758ZM428.646 648.242L435.326 660.313L436.201 659.829L429.521 647.758L428.646 648.242ZM435.263 660.071V660.305H436.263V660.071H435.263ZM435.763 659.805H431.74V660.805H435.763V659.805ZM432.181 660.069L426.009 648.565L425.128 649.037L431.299 660.541L432.181 660.069ZM418.888 646.235H424.65V645.235H418.888V646.235ZM424.65 646.235C426.599 646.235 428.206 645.729 429.414 644.665L428.753 643.914C427.774 644.777 426.425 645.235 424.65 645.235V646.235ZM429.412 644.666C430.64 643.598 431.244 642.165 431.244 640.422H430.244C430.244 641.908 429.741 643.054 428.755 643.912L429.412 644.666ZM431.244 640.422C431.244 638.559 430.681 637.06 429.494 636.006L428.83 636.753C429.752 637.573 430.244 638.769 430.244 640.422H431.244ZM429.496 636.008C428.332 634.96 426.685 634.467 424.634 634.453L424.627 635.453C426.534 635.466 427.908 635.924 428.827 636.751L429.496 636.008ZM424.631 634.453H418.888V635.453H424.631V634.453ZM418.388 634.953V645.735H419.388V634.953H418.388ZM447.521 646.145L447.077 646.374L447.52 647.231L447.965 646.375L447.521 646.145ZM454.943 631.867V631.367H454.64L454.499 631.637L454.943 631.867ZM459.201 631.867L459.639 632.108L460.046 631.367H459.201V631.867ZM449.396 649.7L448.958 649.459L448.896 649.571V649.7H449.396ZM449.396 660.305V660.805H449.896V660.305H449.396ZM445.646 660.305H445.146V660.805H445.646V660.305ZM445.646 649.7H446.146V649.571L446.084 649.459L445.646 649.7ZM435.842 631.867V631.367H434.996L435.403 632.108L435.842 631.867ZM440.138 631.867L440.583 631.638L440.443 631.367H440.138V631.867ZM447.965 646.375L455.387 632.098L454.499 631.637L447.078 645.914L447.965 646.375ZM454.943 632.367H459.201V631.367H454.943V632.367ZM458.763 631.627L448.958 649.459L449.834 649.94L459.639 632.108L458.763 631.627ZM448.896 649.7V660.305H449.896V649.7H448.896ZM449.396 659.805H445.646V660.805H449.396V659.805ZM446.146 660.305V649.7H445.146V660.305H446.146ZM446.084 649.459L436.28 631.627L435.403 632.108L445.208 649.94L446.084 649.459ZM435.842 632.367H440.138V631.367H435.842V632.367ZM439.694 632.097L447.077 646.374L447.965 645.915L440.583 631.638L439.694 632.097Z" fill="white"/>
</g>
</g>
<g id="Lowest ring">
<path id="Vector 2" d="M369.991 566.904C397.497 566.904 424.385 558.748 447.255 543.466C470.126 528.185 487.951 506.465 498.477 481.053C509.003 455.64 511.757 427.678 506.391 400.7C501.025 373.723 487.779 348.943 468.33 329.493C448.88 310.044 424.1 296.798 397.123 291.432C370.145 286.066 342.183 288.82 316.77 299.346C291.358 309.872 269.638 327.697 254.357 350.568C239.075 373.438 230.919 400.326 230.919 427.832C230.919 464.716 245.572 500.089 271.653 526.17C297.734 552.251 333.107 566.904 369.991 566.904Z" fill="#FF0B0B" stroke="#0A313D" stroke-miterlimit="10"/>
</g>
<g id="right group">
<path id="right panel" d="M476.175 380.149C481.341 375.725 734.869 218.465 734.869 218.465L745.832 642.886C653.748 586.463 471.248 483.16 465.656 478.369C488.012 447.23 478.342 386.907 476.175 380.149Z" fill="#151607" stroke="#EFE66B" stroke-width="4"/>
<g id="FUN">
<path d="M609.826 445.662H597.893V458.221H594.143V429.784H611.76V432.869H597.893V442.596H609.826V445.662ZM636.272 429.784V449.119C636.259 451.802 635.412 453.996 633.733 455.701C632.066 457.407 629.8 458.364 626.936 458.573L625.94 458.612C622.828 458.612 620.347 457.772 618.498 456.092C616.649 454.412 615.712 452.101 615.686 449.159V429.784H619.397V449.041C619.397 451.099 619.963 452.7 621.096 453.846C622.229 454.979 623.843 455.545 625.94 455.545C628.062 455.545 629.683 454.979 630.803 453.846C631.936 452.713 632.502 451.118 632.502 449.061V429.784H636.272ZM664.045 458.221H660.276L645.959 436.307V458.221H642.19V429.784H645.959L660.315 451.795V429.784H664.045V458.221Z" fill="white"/>
<path d="M609.826 445.662V446.162H610.326V445.662H609.826ZM597.893 445.662V445.162H597.393V445.662H597.893ZM597.893 458.221V458.721H598.393V458.221H597.893ZM594.143 458.221H593.643V458.721H594.143V458.221ZM594.143 429.784V429.284H593.643V429.784H594.143ZM611.76 429.784H612.26V429.284H611.76V429.784ZM611.76 432.869V433.369H612.26V432.869H611.76ZM597.893 432.869V432.369H597.393V432.869H597.893ZM597.893 442.596H597.393V443.096H597.893V442.596ZM609.826 442.596H610.326V442.096H609.826V442.596ZM609.826 445.162H597.893V446.162H609.826V445.162ZM597.393 445.662V458.221H598.393V445.662H597.393ZM597.893 457.721H594.143V458.721H597.893V457.721ZM594.643 458.221V429.784H593.643V458.221H594.643ZM594.143 430.284H611.76V429.284H594.143V430.284ZM611.26 429.784V432.869H612.26V429.784H611.26ZM611.76 432.369H597.893V433.369H611.76V432.369ZM597.393 432.869V442.596H598.393V432.869H597.393ZM597.893 443.096H609.826V442.096H597.893V443.096ZM609.326 442.596V445.662H610.326V442.596H609.326ZM636.272 429.784H636.772V429.284H636.272V429.784ZM636.272 449.119L636.772 449.122V449.119H636.272ZM633.733 455.701L633.376 455.351L633.375 455.352L633.733 455.701ZM626.936 458.573L626.955 459.072L626.964 459.072L626.972 459.071L626.936 458.573ZM625.94 458.612V459.112H625.949L625.959 459.111L625.94 458.612ZM615.686 449.159H615.186L615.186 449.163L615.686 449.159ZM615.686 429.784V429.284H615.186V429.784H615.686ZM619.397 429.784H619.897V429.284H619.397V429.784ZM621.096 453.846L620.74 454.198L620.742 454.2L621.096 453.846ZM630.803 453.846L630.449 453.492L630.447 453.495L630.803 453.846ZM632.502 429.784V429.284H632.002V429.784H632.502ZM635.772 429.784V449.119H636.772V429.784H635.772ZM635.772 449.117C635.759 451.686 634.953 453.749 633.376 455.351L634.089 456.052C635.871 454.242 636.758 451.917 636.772 449.122L635.772 449.117ZM633.375 455.352C631.81 456.953 629.668 457.873 626.9 458.074L626.972 459.071C629.932 458.856 632.322 457.861 634.09 456.051L633.375 455.352ZM626.916 458.073L625.92 458.112L625.959 459.111L626.955 459.072L626.916 458.073ZM625.94 458.112C622.92 458.112 620.57 457.299 618.834 455.722L618.162 456.462C620.124 458.245 622.735 459.112 625.94 459.112V458.112ZM618.834 455.722C617.107 454.153 616.211 451.984 616.186 449.154L615.186 449.163C615.213 452.218 616.191 454.672 618.162 456.462L618.834 455.722ZM616.186 449.159V429.784H615.186V449.159H616.186ZM615.686 430.284H619.397V429.284H615.686V430.284ZM618.897 429.784V449.041H619.897V429.784H618.897ZM618.897 449.041C618.897 451.192 619.491 452.934 620.74 454.198L621.452 453.494C620.435 452.466 619.897 451.005 619.897 449.041H618.897ZM620.742 454.2C621.995 455.452 623.753 456.045 625.94 456.045V455.045C623.933 455.045 622.462 454.505 621.45 453.492L620.742 454.2ZM625.94 456.045C628.15 456.045 629.917 455.454 631.159 454.198L630.447 453.495C629.45 454.504 627.974 455.045 625.94 455.045V456.045ZM631.157 454.2C632.408 452.948 633.002 451.211 633.002 449.061H632.002C632.002 451.025 631.464 452.478 630.449 453.492L631.157 454.2ZM633.002 449.061V429.784H632.002V449.061H633.002ZM632.502 430.284H636.272V429.284H632.502V430.284ZM664.045 458.221V458.721H664.545V458.221H664.045ZM660.276 458.221L659.857 458.494L660.005 458.721H660.276V458.221ZM645.959 436.307L646.378 436.033L645.459 434.627V436.307H645.959ZM645.959 458.221V458.721H646.459V458.221H645.959ZM642.19 458.221H641.69V458.721H642.19V458.221ZM642.19 429.784V429.284H641.69V429.784H642.19ZM645.959 429.784L646.378 429.51L646.23 429.284H645.959V429.784ZM660.315 451.795L659.896 452.068L660.815 453.477V451.795H660.315ZM660.315 429.784V429.284H659.815V429.784H660.315ZM664.045 429.784H664.545V429.284H664.045V429.784ZM664.045 457.721H660.276V458.721H664.045V457.721ZM660.694 457.948L646.378 436.033L645.541 436.58L659.857 458.494L660.694 457.948ZM645.459 436.307V458.221H646.459V436.307H645.459ZM645.959 457.721H642.19V458.721H645.959V457.721ZM642.69 458.221V429.784H641.69V458.221H642.69ZM642.19 430.284H645.959V429.284H642.19V430.284ZM645.54 430.057L659.896 452.068L660.734 451.522L646.378 429.51L645.54 430.057ZM660.815 451.795V429.784H659.815V451.795H660.815ZM660.315 430.284H664.045V429.284H660.315V430.284ZM663.545 429.784V458.221H664.545V429.784H663.545Z" fill="white"/>
</g>
</g>
<g id="left group">
<path id="left panel" d="M272.973 483.105L2.10101 641.307L4.00801 218.24C126.437 286.906 264.725 364.317 270.314 369.107C245.562 402.642 258.069 462.878 272.973 483.105Z" fill="#151607" stroke="#EFE66B" stroke-width="4"/>
<g id="ABOUT">
<path d="M66.3979 443.799H54.4839L51.8081 451.221H47.9409L58.8003 422.784H62.0815L72.9604 451.221H69.1128L66.3979 443.799ZM55.6167 440.713H65.2847L60.4409 427.412L55.6167 440.713ZM76.7886 451.221V422.784H86.0854C89.1714 422.784 91.4891 423.422 93.0386 424.698C94.6011 425.974 95.3823 427.862 95.3823 430.362C95.3823 431.69 95.0047 432.868 94.2495 433.897C93.4943 434.912 92.4657 435.7 91.1636 436.26C92.7 436.69 93.911 437.51 94.7964 438.721C95.6948 439.919 96.144 441.351 96.144 443.018C96.144 445.57 95.3172 447.575 93.6636 449.034C92.0099 450.492 89.6727 451.221 86.6519 451.221H76.7886ZM80.5386 437.92V448.155H86.73C88.4748 448.155 89.8485 447.705 90.8511 446.807C91.8667 445.895 92.3745 444.645 92.3745 443.057C92.3745 439.632 90.5125 437.92 86.7886 437.92H80.5386ZM80.5386 434.912H86.2026C87.8433 434.912 89.1519 434.502 90.1284 433.682C91.118 432.862 91.6128 431.748 91.6128 430.342C91.6128 428.78 91.1571 427.647 90.2456 426.944C89.3341 426.228 87.9474 425.869 86.0854 425.869H80.5386V434.912ZM123.585 437.92C123.585 440.707 123.117 443.142 122.179 445.225C121.242 447.295 119.914 448.877 118.195 449.971C116.476 451.065 114.471 451.612 112.179 451.612C109.94 451.612 107.954 451.065 106.222 449.971C104.49 448.864 103.143 447.295 102.179 445.264C101.229 443.22 100.74 440.856 100.714 438.174V436.123C100.714 433.389 101.19 430.974 102.14 428.877C103.091 426.781 104.432 425.179 106.164 424.073C107.908 422.953 109.901 422.393 112.14 422.393C114.419 422.393 116.424 422.946 118.156 424.053C119.901 425.147 121.242 426.742 122.179 428.838C123.117 430.922 123.585 433.35 123.585 436.123V437.92ZM119.855 436.084C119.855 432.712 119.178 430.127 117.824 428.33C116.47 426.52 114.575 425.616 112.14 425.616C109.77 425.616 107.902 426.52 106.535 428.33C105.181 430.127 104.484 432.627 104.445 435.83V437.92C104.445 441.188 105.128 443.76 106.496 445.635C107.876 447.497 109.77 448.428 112.179 448.428C114.601 448.428 116.476 447.549 117.804 445.791C119.132 444.02 119.816 441.488 119.855 438.194V436.084ZM149.23 422.784V442.119C149.217 444.802 148.371 446.996 146.691 448.701C145.024 450.407 142.759 451.364 139.894 451.573L138.898 451.612C135.786 451.612 133.306 450.772 131.457 449.092C129.608 447.412 128.67 445.101 128.644 442.159V422.784H132.355V442.041C132.355 444.099 132.921 445.7 134.054 446.846C135.187 447.979 136.802 448.545 138.898 448.545C141.02 448.545 142.641 447.979 143.761 446.846C144.894 445.713 145.46 444.118 145.46 442.061V422.784H149.23ZM174.796 425.869H165.656V451.221H161.925V425.869H152.804V422.784H174.796V425.869Z" fill="white"/>
<path d="M66.3979 443.799L66.8675 443.627L66.7475 443.299H66.3979V443.799ZM54.4839 443.799V443.299H54.1326L54.0135 443.63L54.4839 443.799ZM51.8081 451.221V451.721H52.1593L52.2785 451.391L51.8081 451.221ZM47.9409 451.221L47.4738 451.043L47.2148 451.721H47.9409V451.221ZM58.8003 422.784V422.284H58.456L58.3332 422.605L58.8003 422.784ZM62.0815 422.784L62.5485 422.605L62.4256 422.284H62.0815V422.784ZM72.9604 451.221V451.721H73.6871L73.4274 451.042L72.9604 451.221ZM69.1128 451.221L68.6432 451.393L68.7633 451.721H69.1128V451.221ZM55.6167 440.713L55.1467 440.543L54.9035 441.213H55.6167V440.713ZM65.2847 440.713V441.213H65.9989L65.7545 440.542L65.2847 440.713ZM60.4409 427.412L60.9107 427.241L60.44 425.949L59.9709 427.242L60.4409 427.412ZM66.3979 443.299H54.4839V444.299H66.3979V443.299ZM54.0135 443.63L51.3377 451.051L52.2785 451.391L54.9543 443.969L54.0135 443.63ZM51.8081 450.721H47.9409V451.721H51.8081V450.721ZM48.408 451.399L59.2674 422.962L58.3332 422.605L47.4738 451.043L48.408 451.399ZM58.8003 423.284H62.0815V422.284H58.8003V423.284ZM61.6145 422.962L72.4935 451.4L73.4274 451.042L62.5485 422.605L61.6145 422.962ZM72.9604 450.721H69.1128V451.721H72.9604V450.721ZM69.5824 451.049L66.8675 443.627L65.9284 443.971L68.6432 451.393L69.5824 451.049ZM55.6167 441.213H65.2847V440.213H55.6167V441.213ZM65.7545 440.542L60.9107 427.241L59.9711 427.584L64.8149 440.884L65.7545 440.542ZM59.9709 427.242L55.1467 440.543L56.0867 440.884L60.911 427.583L59.9709 427.242ZM76.7886 451.221H76.2886V451.721H76.7886V451.221ZM76.7886 422.784V422.284H76.2886V422.784H76.7886ZM93.0386 424.698L92.7207 425.084L92.7223 425.085L93.0386 424.698ZM94.2495 433.897L94.6507 434.195L94.6526 434.193L94.2495 433.897ZM91.1636 436.26L90.9661 435.801L89.665 436.36L91.0289 436.742L91.1636 436.26ZM94.7964 438.721L94.3927 439.016L94.3964 439.021L94.7964 438.721ZM93.6636 449.034L93.3329 448.659L93.6636 449.034ZM80.5386 437.92V437.42H80.0386V437.92H80.5386ZM80.5386 448.155H80.0386V448.655H80.5386V448.155ZM90.8511 446.807L91.1848 447.179L91.185 447.179L90.8511 446.807ZM80.5386 434.912H80.0386V435.412H80.5386V434.912ZM90.1284 433.682L89.8093 433.297L89.8068 433.299L90.1284 433.682ZM90.2456 426.944L89.9367 427.337L89.9402 427.34L90.2456 426.944ZM80.5386 425.869V425.369H80.0386V425.869H80.5386ZM77.2886 451.221V422.784H76.2886V451.221H77.2886ZM76.7886 423.284H86.0854V422.284H76.7886V423.284ZM86.0854 423.284C89.1147 423.284 91.2978 423.912 92.7207 425.084L93.3564 424.312C91.6804 422.931 89.228 422.284 86.0854 422.284V423.284ZM92.7223 425.085C94.1411 426.244 94.8823 427.972 94.8823 430.362H95.8823C95.8823 427.751 95.061 425.704 93.3548 424.31L92.7223 425.085ZM94.8823 430.362C94.8823 431.588 94.536 432.662 93.8465 433.601L94.6526 434.193C95.4734 433.075 95.8823 431.792 95.8823 430.362H94.8823ZM93.8483 433.598C93.1517 434.535 92.1972 435.271 90.9661 435.801L91.3611 436.719C92.7342 436.129 93.8369 435.29 94.6507 434.195L93.8483 433.598ZM91.0289 436.742C92.4647 437.143 93.5779 437.902 94.3928 439.016L95.2 438.426C94.244 437.118 92.9354 436.236 91.2982 435.779L91.0289 436.742ZM94.3964 439.021C95.2226 440.123 95.644 441.447 95.644 443.018H96.644C96.644 441.256 96.1671 439.715 95.1964 438.421L94.3964 439.021ZM95.644 443.018C95.644 445.451 94.8615 447.31 93.3329 448.659L93.9943 449.409C95.773 447.84 96.644 445.688 96.644 443.018H95.644ZM93.3329 448.659C91.7996 450.011 89.5962 450.721 86.6519 450.721V451.721C89.7492 451.721 92.2203 450.973 93.9943 449.409L93.3329 448.659ZM86.6519 450.721H76.7886V451.721H86.6519V450.721ZM80.0386 437.92V448.155H81.0386V437.92H80.0386ZM80.5386 448.655H86.73V447.655H80.5386V448.655ZM86.73 448.655C88.5605 448.655 90.0659 448.182 91.1848 447.179L90.5174 446.435C89.631 447.229 88.389 447.655 86.73 447.655V448.655ZM91.185 447.179C92.324 446.157 92.8745 444.762 92.8745 443.057H91.8745C91.8745 444.529 91.4094 445.634 90.5171 446.435L91.185 447.179ZM92.8745 443.057C92.8745 441.256 92.3831 439.817 91.3165 438.836C90.2578 437.863 88.7177 437.42 86.7886 437.42V438.42C88.5834 438.42 89.8363 438.834 90.6396 439.572C91.435 440.304 91.8745 441.433 91.8745 443.057H92.8745ZM86.7886 437.42H80.5386V438.42H86.7886V437.42ZM80.5386 435.412H86.2026V434.412H80.5386V435.412ZM86.2026 435.412C87.9265 435.412 89.3602 434.98 90.45 434.065L89.8068 433.299C88.9436 434.024 87.76 434.412 86.2026 434.412V435.412ZM90.4475 434.067C91.5634 433.142 92.1128 431.881 92.1128 430.342H91.1128C91.1128 431.615 90.6726 432.581 89.8093 433.297L90.4475 434.067ZM92.1128 430.342C92.1128 428.684 91.6256 427.377 90.551 426.548L89.9402 427.34C90.6885 427.917 91.1128 428.875 91.1128 430.342H92.1128ZM90.5545 426.551C89.5156 425.734 87.9963 425.369 86.0854 425.369V426.369C87.8985 426.369 89.1526 426.721 89.9367 427.337L90.5545 426.551ZM86.0854 425.369H80.5386V426.369H86.0854V425.369ZM80.0386 425.869V434.912H81.0386V425.869H80.0386ZM122.179 445.225L122.635 445.431L122.635 445.43L122.179 445.225ZM106.222 449.971L105.953 450.392L105.955 450.394L106.222 449.971ZM102.179 445.264L101.726 445.475L101.727 445.478L102.179 445.264ZM100.714 438.174H100.214L100.214 438.179L100.714 438.174ZM106.164 424.073L106.433 424.494L106.434 424.493L106.164 424.073ZM118.156 424.053L117.886 424.474L117.89 424.477L118.156 424.053ZM122.179 428.838L121.723 429.042L121.723 429.043L122.179 428.838ZM117.824 428.33L117.423 428.63L117.424 428.631L117.824 428.33ZM106.535 428.33L106.136 428.029L106.135 428.029L106.535 428.33ZM104.445 435.83L103.945 435.824V435.83H104.445ZM106.496 445.635L106.092 445.93L106.094 445.933L106.496 445.635ZM117.804 445.791L118.203 446.093L118.204 446.091L117.804 445.791ZM119.855 438.194L120.355 438.2V438.194H119.855ZM123.085 437.92C123.085 440.651 122.626 443.013 121.723 445.02L122.635 445.43C123.607 443.27 124.085 440.762 124.085 437.92H123.085ZM121.724 445.019C120.822 447.011 119.554 448.513 117.926 449.549L118.463 450.393C120.273 449.241 121.662 447.579 122.635 445.431L121.724 445.019ZM117.926 449.549C116.298 450.586 114.388 451.112 112.179 451.112V452.112C114.554 452.112 116.655 451.544 118.463 450.393L117.926 449.549ZM112.179 451.112C110.025 451.112 108.134 450.587 106.489 449.548L105.955 450.394C107.774 451.543 109.854 452.112 112.179 452.112V451.112ZM106.491 449.55C104.846 448.498 103.558 447.004 102.631 445.05L101.727 445.478C102.727 447.586 104.135 449.23 105.953 450.392L106.491 449.55ZM102.633 445.053C101.717 443.085 101.24 440.794 101.214 438.169L100.214 438.179C100.241 440.919 100.74 443.355 101.726 445.475L102.633 445.053ZM101.214 438.174V436.123H100.214V438.174H101.214ZM101.214 436.123C101.214 433.447 101.679 431.104 102.596 429.084L101.685 428.671C100.7 430.843 100.214 433.331 100.214 436.123H101.214ZM102.596 429.084C103.511 427.065 104.792 425.542 106.433 424.494L105.894 423.651C104.071 424.816 102.67 426.497 101.685 428.671L102.596 429.084ZM106.434 424.493C108.091 423.429 109.988 422.893 112.14 422.893V421.893C109.813 421.893 107.725 422.476 105.894 423.652L106.434 424.493ZM112.14 422.893C114.334 422.893 116.244 423.424 117.887 424.474L118.425 423.632C116.604 422.468 114.503 421.893 112.14 421.893V422.893ZM117.89 424.477C119.542 425.512 120.821 427.026 121.723 429.042L122.636 428.634C121.663 426.458 120.26 424.782 118.421 423.629L117.89 424.477ZM121.723 429.043C122.626 431.05 123.085 433.406 123.085 436.123H124.085C124.085 433.294 123.607 430.793 122.635 428.633L121.723 429.043ZM123.085 436.123V437.92H124.085V436.123H123.085ZM120.355 436.084C120.355 432.655 119.668 429.947 118.223 428.029L117.424 428.631C118.688 430.308 119.355 432.769 119.355 436.084H120.355ZM118.224 428.031C116.767 426.084 114.718 425.116 112.14 425.116V426.116C114.432 426.116 116.172 426.957 117.423 428.63L118.224 428.031ZM112.14 425.116C109.622 425.116 107.602 426.088 106.136 428.029L106.934 428.632C108.201 426.953 109.919 426.116 112.14 426.116V425.116ZM106.135 428.029C104.695 429.941 103.985 432.558 103.945 435.824L104.945 435.836C104.983 432.696 105.666 430.314 106.934 428.631L106.135 428.029ZM103.945 435.83V437.92H104.945V435.83H103.945ZM103.945 437.92C103.945 441.252 104.641 443.94 106.092 445.93L106.9 445.34C105.616 443.58 104.945 441.125 104.945 437.92H103.945ZM106.094 445.933C107.573 447.928 109.619 448.928 112.179 448.928V447.928C109.921 447.928 108.179 447.066 106.897 445.337L106.094 445.933ZM112.179 448.928C114.74 448.928 116.77 447.989 118.203 446.093L117.405 445.49C116.182 447.109 114.462 447.928 112.179 447.928V448.928ZM118.204 446.091C119.62 444.203 120.315 441.551 120.355 438.2L119.355 438.188C119.317 441.425 118.644 443.838 117.404 445.491L118.204 446.091ZM120.355 438.194V436.084H119.355V438.194H120.355ZM149.23 422.784H149.73V422.284H149.23V422.784ZM149.23 442.119L149.73 442.122V442.119H149.23ZM146.691 448.701L146.335 448.351L146.333 448.352L146.691 448.701ZM139.894 451.573L139.914 452.072L139.922 452.072L139.93 452.071L139.894 451.573ZM138.898 451.612V452.112H138.908L138.918 452.111L138.898 451.612ZM128.644 442.159H128.144L128.144 442.163L128.644 442.159ZM128.644 422.784V422.284H128.144V422.784H128.644ZM132.355 422.784H132.855V422.284H132.355V422.784ZM134.054 446.846L133.699 447.198L133.701 447.2L134.054 446.846ZM143.761 446.846L143.408 446.492L143.406 446.495L143.761 446.846ZM145.46 422.784V422.284H144.96V422.784H145.46ZM148.73 422.784V442.119H149.73V422.784H148.73ZM148.73 442.117C148.718 444.686 147.911 446.749 146.335 448.351L147.047 449.052C148.83 447.242 149.716 444.917 149.73 442.122L148.73 442.117ZM146.333 448.352C144.769 449.953 142.627 450.873 139.858 451.074L139.93 452.071C142.891 451.856 145.28 450.861 147.049 449.051L146.333 448.352ZM139.874 451.073L138.878 451.112L138.918 452.111L139.914 452.072L139.874 451.073ZM138.898 451.112C135.878 451.112 133.529 450.299 131.793 448.722L131.12 449.462C133.082 451.245 135.693 452.112 138.898 452.112V451.112ZM131.793 448.722C130.065 447.153 129.169 444.984 129.144 442.154L128.144 442.163C128.171 445.218 129.15 447.672 131.12 449.462L131.793 448.722ZM129.144 442.159V422.784H128.144V442.159H129.144ZM128.644 423.284H132.355V422.284H128.644V423.284ZM131.855 422.784V442.041H132.855V422.784H131.855ZM131.855 442.041C131.855 444.192 132.45 445.934 133.699 447.198L134.41 446.494C133.393 445.466 132.855 444.005 132.855 442.041H131.855ZM133.701 447.2C134.954 448.452 136.712 449.045 138.898 449.045V448.045C136.892 448.045 135.42 447.505 134.408 446.492L133.701 447.2ZM138.898 449.045C141.108 449.045 142.875 448.454 144.117 447.198L143.406 446.495C142.408 447.504 140.933 448.045 138.898 448.045V449.045ZM144.115 447.2C145.366 445.948 145.96 444.211 145.96 442.061H144.96C144.96 444.025 144.422 445.478 143.408 446.492L144.115 447.2ZM145.96 442.061V422.784H144.96V442.061H145.96ZM145.46 423.284H149.23V422.284H145.46V423.284ZM174.796 425.869V426.369H175.296V425.869H174.796ZM165.656 425.869V425.369H165.156V425.869H165.656ZM165.656 451.221V451.721H166.156V451.221H165.656ZM161.925 451.221H161.425V451.721H161.925V451.221ZM161.925 425.869H162.425V425.369H161.925V425.869ZM152.804 425.869H152.304V426.369H152.804V425.869ZM152.804 422.784V422.284H152.304V422.784H152.804ZM174.796 422.784H175.296V422.284H174.796V422.784ZM174.796 425.369H165.656V426.369H174.796V425.369ZM165.156 425.869V451.221H166.156V425.869H165.156ZM165.656 450.721H161.925V451.721H165.656V450.721ZM162.425 451.221V425.869H161.425V451.221H162.425ZM161.925 425.369H152.804V426.369H161.925V425.369ZM153.304 425.869V422.784H152.304V425.869H153.304ZM152.804 423.284H174.796V422.284H152.804V423.284ZM174.296 422.784V425.869H175.296V422.784H174.296Z" fill="white"/>
</g>
</g>
<g id="cross">
<path id="hori" d="M369.984 281.344C369.587 286.933 369.59 569.579 369.594 576.764" stroke="#07383A" stroke-miterlimit="10"/>
<path id="verti" d="M517.411 426.743C511.816 426.441 229.209 431.241 222.025 431.367" stroke="#07383A" stroke-miterlimit="10"/>
</g>
<g id="2n_dring">
<g id="yellow ring">
<path d="M466.451 407.128C465.761 403.19 464.822 399.299 463.641 395.479C459.1 380.923 451.278 367.603 440.778 356.546C430.277 345.489 417.379 336.991 403.076 331.705C389.484 326.7 374.963 324.724 360.528 325.917C346.093 327.109 332.093 331.44 319.506 338.608C306.92 345.775 296.051 355.605 287.66 367.411C279.269 379.217 273.558 392.714 270.927 406.957C271.09 406.29 271.259 405.624 271.434 404.957L466.451 407.128ZM466.452 407.132C462.201 389.504 453.285 373.346 440.638 360.351C426.57 345.948 408.514 336.085 388.793 332.029C368.257 327.877 346.938 330.201 327.779 338.682C309.447 346.901 293.971 360.382 283.318 377.415L466.452 407.132ZM271.436 404.953C273.99 395.229 277.996 385.945 283.318 377.415L271.436 404.953ZM271.965 405.094C274.506 395.423 278.49 386.19 283.783 377.706L283.318 377.415L271.965 405.094ZM268.772 426.579C268.793 425.973 268.824 425.368 268.855 424.753V424.659C268.943 423.167 269.063 421.685 269.217 420.193C269.246 419.915 269.275 419.639 269.307 419.361C269.387 418.638 269.476 417.915 269.573 417.194L269.027 417.136C268.97 417.869 268.92 418.603 268.878 419.336C268.863 419.608 268.847 419.88 268.834 420.152C268.756 421.647 268.699 423.146 268.664 424.647C268.65 425.289 268.639 425.931 268.632 426.572L268.772 426.579ZM268.772 426.579C268.772 426.696 268.754 426.83 268.739 426.979H268.633C268.633 426.846 268.633 426.712 268.633 426.579H268.772ZM271.656 452.213C271.366 450.91 271.104 449.602 270.869 448.288C274.519 463.602 281.703 477.848 291.846 489.888C303.316 503.464 318.178 513.758 334.919 519.722C351.66 525.686 369.683 527.107 387.153 523.841C404.622 520.575 420.914 512.738 434.37 501.128C447.825 489.518 457.964 474.55 463.754 457.747C464.841 454.589 465.789 451.311 466.575 447.981C463.168 466.969 454.321 484.559 441.109 498.616C430.522 509.88 417.453 518.519 402.942 523.847C388.431 529.175 372.877 531.045 357.517 529.309C342.156 527.572 327.412 522.277 314.457 513.844C301.501 505.411 290.691 494.073 282.885 480.73C277.681 471.868 273.893 462.248 271.656 452.217V452.213Z" fill="#FFE017"/>
<path d="M466.452 407.132L271.964 405.098M466.452 407.132C462.201 389.504 453.285 373.346 440.638 360.351C426.57 345.948 408.514 336.085 388.793 332.029C368.257 327.877 346.938 330.201 327.779 338.682C309.447 346.901 293.971 360.382 283.318 377.415M466.452 407.132L283.318 377.415M283.318 377.415L466.453 407.129M283.318 377.415C277.996 385.945 273.99 395.229 271.436 404.953L283.318 377.415ZM283.318 377.415L283.783 377.706C278.49 386.19 274.506 395.423 271.965 405.094M283.318 377.415L271.965 405.094M271.965 405.094L271.435 404.954L271.966 405.093M268.772 426.579C268.793 425.973 268.824 425.368 268.855 424.753V424.659C268.943 423.167 269.063 421.685 269.217 420.193C269.246 419.915 269.275 419.639 269.307 419.361C269.387 418.638 269.476 417.915 269.573 417.194L269.027 417.136C268.97 417.869 268.92 418.603 268.878 419.336C268.863 419.608 268.847 419.88 268.834 420.152C268.756 421.647 268.699 423.146 268.664 424.647C268.65 425.289 268.639 425.931 268.632 426.572L268.772 426.579ZM268.772 426.579C268.772 426.696 268.754 426.83 268.739 426.979H268.633C268.633 426.846 268.633 426.712 268.633 426.579H268.772ZM291.846 489.888C281.703 477.848 274.519 463.602 270.869 448.288C271.104 449.602 271.366 450.91 271.656 452.213V452.217C273.893 462.248 277.681 471.868 282.885 480.73C290.691 494.073 301.501 505.411 314.457 513.844C327.412 522.277 342.156 527.572 357.517 529.309C372.877 531.045 388.431 529.175 402.942 523.847C417.453 518.519 430.522 509.88 441.109 498.616C454.321 484.559 463.168 466.969 466.575 447.981C465.789 451.311 464.841 454.589 463.754 457.747C457.964 474.55 447.825 489.518 434.37 501.128C420.914 512.738 404.622 520.575 387.153 523.841C369.683 527.107 351.66 525.686 334.919 519.722C318.178 513.758 303.316 503.464 291.846 489.888ZM291.846 489.888L292.265 489.534M466.451 407.128C465.761 403.19 464.822 399.299 463.641 395.479C459.1 380.923 451.278 367.603 440.778 356.546C430.277 345.489 417.379 336.991 403.076 331.705C389.484 326.7 374.963 324.724 360.528 325.917C346.093 327.109 332.093 331.44 319.506 338.608C306.92 345.775 296.051 355.605 287.66 367.411C279.269 379.217 273.558 392.714 270.927 406.957C271.09 406.29 271.259 405.624 271.434 404.957L466.451 407.128Z" stroke="#05FF00"/>
</g>
</g>
<g id="1st_ring">
<path id="white circle" d="M368.019 502.885C382.868 502.885 397.383 498.482 409.73 490.232C422.076 481.983 431.699 470.257 437.381 456.539C443.064 442.82 444.55 427.725 441.653 413.161C438.757 398.598 431.606 385.22 421.106 374.721C410.607 364.221 397.229 357.07 382.666 354.174C368.102 351.277 353.007 352.764 339.288 358.446C325.57 364.128 313.844 373.751 305.595 386.097C297.345 398.444 292.942 412.959 292.942 427.808C292.942 447.72 300.852 466.816 314.932 480.895C329.011 494.975 348.107 502.885 368.019 502.885Z" fill="white"/>
<path id="fire ring" d="M442.964 427.084C442.931 441.823 437.353 457.319 428.499 469.384C419.552 481.597 407.118 490.815 392.832 495.827C378.546 500.838 363.077 501.407 348.462 497.459C333.846 493.511 320.768 485.231 310.948 473.708C301.128 462.185 295.027 447.96 293.446 432.903C293.337 431.862 293.249 430.821 293.183 429.78C293.161 429.331 293.128 428.892 293.117 428.443C293.106 428.191 293.095 427.928 293.084 427.676C293.029 425.89 292.942 428.432 293.062 428.629C292.898 428.366 293.095 427.511 293.106 427.182C293.128 426.682 293.15 426.163 293.183 425.659C293.249 424.552 293.347 423.445 293.468 422.35C294.7 411.044 298.501 400.17 304.58 390.559C312.649 377.773 324.395 367.724 338.276 361.73C352.157 355.737 367.525 354.079 382.365 356.974C397.205 359.869 410.824 367.181 421.434 377.952C432.045 388.723 439.153 402.449 441.825 417.331C442.506 421.035 442.888 424.788 442.965 428.553C442.965 429.09 442.954 429.653 442.976 430.186C442.976 430.076 442.965 430.786 442.998 430.46C443.066 429.336 443.073 428.21 443.02 427.085C443.11 419.004 442.01 410.955 439.754 403.195C437.511 395.831 434.139 388.859 429.76 382.527C420.876 369.636 408.179 359.849 393.45 354.54C378.722 349.231 362.701 348.666 347.635 352.924C332.569 357.182 319.214 366.049 309.443 378.282C299.672 390.515 293.976 405.5 293.153 421.134C292.566 429.572 293.093 438.05 294.72 446.35C298.442 463.609 308.134 479 322.09 489.815C336.045 500.63 353.369 506.174 371.011 505.47C388.652 504.767 405.479 497.862 418.53 485.971C431.58 474.08 440.016 457.965 442.353 440.465C442.839 436.517 443.062 432.542 443.022 428.565C443.119 427.442 443.111 426.312 443 425.19C442.945 424.916 442.978 425.475 442.978 425.464C442.942 425.988 442.964 426.536 442.964 427.084Z" fill="#FF9900"/>
</g>
<g id="leters">
<path id="K" d="M429.051 392.322H412.274C410.151 392.322 408.048 392.741 406.088 393.556C404.128 394.372 402.348 395.567 400.851 397.073L378.151 419.886V435.928L400.975 462.669C402.763 464.763 404.984 466.445 407.484 467.598C409.985 468.752 412.705 469.35 415.459 469.351H429.059L394.322 427.202L429.051 392.322Z" fill="#E03030" stroke="#EA996B" stroke-width="0.5" stroke-miterlimit="10"/>
<path id="letterr circle" d="M351.626 467.958C359.632 467.958 367.458 465.584 374.115 461.136C380.772 456.688 385.96 450.366 389.024 442.97C392.088 435.573 392.889 427.434 391.327 419.582C389.765 411.73 385.91 404.517 380.249 398.856C374.588 393.195 367.375 389.34 359.523 387.778C351.671 386.216 343.532 387.018 336.135 390.081C328.739 393.145 322.417 398.333 317.969 404.99C313.521 411.647 311.147 419.473 311.147 427.479C311.147 438.215 315.412 448.511 323.003 456.102C330.594 463.693 340.89 467.958 351.626 467.958Z" fill="black" stroke="#5CC9E2" stroke-width="0.75" stroke-miterlimit="10"/>
<path id="JH" d="M371.913 440.096C371.731 439.806 371.638 439.468 371.646 439.126V416.626C371.646 414.378 374.266 413.696 376.102 413.5C376.576 413.458 377.018 413.241 377.341 412.891C377.664 412.542 377.846 412.085 377.852 411.609V411.43C377.851 411.178 377.8 410.928 377.702 410.696C377.604 410.463 377.462 410.253 377.282 410.075C377.103 409.898 376.89 409.758 376.657 409.663C376.423 409.568 376.173 409.52 375.921 409.522H361.181C360.929 409.52 360.679 409.568 360.445 409.663C360.212 409.758 359.999 409.898 359.82 410.075C359.64 410.253 359.498 410.463 359.4 410.696C359.302 410.928 359.251 411.178 359.25 411.43V418.116C359.249 418.368 359.198 418.618 359.101 418.85C359.003 419.082 358.86 419.293 358.681 419.471C358.502 419.648 358.289 419.788 358.056 419.883C357.822 419.978 357.572 420.026 357.32 420.024H347.863C347.609 420.026 347.358 419.978 347.123 419.882C346.888 419.786 346.675 419.644 346.495 419.465C346.315 419.286 346.173 419.073 346.076 418.839C345.98 418.604 345.931 418.353 345.932 418.099C345.941 417.536 345.941 416.813 345.941 415.876C345.941 413.286 348.441 412.766 350.269 412.732C350.77 412.724 351.247 412.519 351.599 412.163C351.95 411.806 352.147 411.326 352.148 410.825V410.671C352.147 410.419 352.096 410.169 351.999 409.937C351.901 409.705 351.758 409.494 351.579 409.316C351.4 409.139 351.187 408.999 350.954 408.904C350.72 408.809 350.47 408.761 350.218 408.763H328.374C328.122 408.761 327.872 408.809 327.639 408.904C327.406 408.998 327.193 409.138 327.014 409.315C326.835 409.492 326.692 409.702 326.594 409.934C326.496 410.166 326.445 410.415 326.443 410.667V411.084C326.448 411.569 326.636 412.035 326.97 412.387C327.304 412.74 327.759 412.953 328.243 412.984C333.043 413.368 332.82 415.591 332.82 415.591C332.82 415.591 332.82 436.212 332.907 439.321C332.967 441.28 330.607 441.741 328.856 441.809C328.364 441.827 327.897 442.035 327.555 442.389C327.212 442.743 327.02 443.216 327.019 443.709V443.802C327.02 444.054 327.071 444.304 327.169 444.536C327.267 444.769 327.409 444.979 327.589 445.157C327.768 445.334 327.981 445.474 328.214 445.569C328.448 445.664 328.698 445.712 328.95 445.71H333.536C335.158 445.72 336.765 445.41 338.267 444.798C339.769 444.187 341.135 443.285 342.289 442.146C343.442 441.006 344.36 439.65 344.989 438.156C345.619 436.661 345.947 435.058 345.957 433.436V426.836C345.958 426.584 346.009 426.334 346.107 426.102C346.205 425.869 346.347 425.659 346.527 425.481C346.706 425.304 346.919 425.164 347.152 425.069C347.386 424.974 347.636 424.926 347.888 424.928H357.171C357.423 424.926 357.673 424.974 357.907 425.069C358.14 425.164 358.353 425.304 358.532 425.481C358.712 425.659 358.854 425.869 358.952 426.102C359.05 426.334 359.101 426.584 359.102 426.836V439.314C359.102 441.714 356.558 442.214 354.714 442.253C354.217 442.275 353.749 442.491 353.408 442.853C353.068 443.216 352.882 443.697 352.891 444.195C352.9 444.692 353.103 445.166 353.456 445.516C353.81 445.866 354.286 446.065 354.783 446.069H376.083C376.335 446.071 376.585 446.023 376.819 445.928C377.052 445.833 377.265 445.693 377.444 445.516C377.624 445.338 377.766 445.128 377.864 444.895C377.962 444.663 378.013 444.413 378.014 444.161V443.829C378.006 443.334 377.808 442.86 377.462 442.505C377.116 442.151 376.647 441.942 376.152 441.922C373.443 441.782 372.353 440.759 371.913 440.096Z" fill="#FFD700"/>
</g>
</g>
</g>
</g>
<defs>
<clipPath id="clip0">
<rect y="-3" width="747.927" height="880.529" fill="white"/>
</clipPath>
</defs>
</svg>
