<svg xmlns="http://www.w3.org/2000/svg" viewBox="0 0 498.9 708.7"><style>.a{font-size:40px;letter-spacing:30;}</style><style type="text/css">  
	.st0{fill:#B5C1C6;}
	.st1{font-family:&#39;MrsEavesRoman&#39;;}
	.st2{font-size:21.0669px;}
	.st3{fill:#525556;}
	.st4{font-size:21.3295px;}
	.st5{fill:#9FAAAA;}
	.st6{font-family:&#39;Neou-Bold&#39;;}
	.st7{font-size:33.0607px;}
	.st8{fill:none;stroke:#FFFFFF;stroke-miterlimit:10;}
	.st9{display:none;fill:#262526;stroke:#3A3F44;stroke-width:0.5;stroke-miterlimit:10;}
	.st10{display:none;stroke:#FFFFFF;stroke-miterlimit:10;}
	.st11{display:none;}
	.st12{display:inline;fill:#FFFFFF;stroke:#FFFFFF;stroke-width:2;stroke-miterlimit:10;}
	.st13{fill:none;stroke:#FFFFFF;stroke-width:0.5;stroke-miterlimit:10;}
	.st14{fill:#868687;}
	.st15{fill:#4A484A;}
	.st16{fill:#353535;}
	.st17{fill:#FFFFFF;}
	.st18{fill:none;stroke:#939598;stroke-miterlimit:10;}
	.st19{fill:none;stroke:#000000;stroke-width:9;stroke-miterlimit:10;}
	.st20{fill:#D1D3D4;}
	.st21{font-family:&#39;SouvenirStd-Light&#39;;}
	.st22{font-size:52.2916px;}
	.st23{font-family:&#39;TabarraShadow&#39;;}
	.st24{font-size:75.9473px;}
	.st25{letter-spacing:1.02;}
	.st26{fill:none;}
	.st27{font-size:70.9671px;}
	.st28{fill:none;stroke:#FFFFFF;stroke-width:0.25;stroke-miterlimit:10;}
</style><text transform="matrix(1 0 0 1 143.8379 83.4121)" class="st0 st1 st2">  FRONTEND DEVELOPER</text><text transform="matrix(1 0 0 1 227.873 39.3013)" class="st3 st1 st4">  2020</text><text transform="matrix(1 0 0 1 55.3145 126.5273)" class="st5 st6 st7">  OMPHALUS HARKIE KUA</text><polyline class="st8" points="476.6 326 250.8 456.4 24.9 326 "/><polygon class="st9" points="3.6 299.4 249.5 157.4 495.4 299.4 495.4 583.3 249.5 725.3 3.6 583.3 "/><polygon class="st10" points="23.6 311 249.5 180.5 475.4 311 475.4 571.8 249.5 702.2 23.6 571.8 "/><g class="st11"><line class="st12" x1="355.2" y1="501.4" x2="139.3" y2="381.1"/><line class="st12" x1="356.1" y1="382.5" x2="138.8" y2="500.3"/></g><polygon class="st13" points="119.1 381.4 249 306.4 378.8 381.4 378.8 531.3 249 606.3 119.1 531.3 "/><polygon class="st14" points="345.7 353.7 345.7 248.7 344.9 248.7 248.9 300.9 "/><polygon class="st14" points="248.9 300.9 152.9 248.7 152.3 248.6 152.3 353.6 "/><rect x="345.7" y="248.8" class="st15" width="18.7" height="104.9"/><rect x="364.4" y="248.8" class="st16" width="131" height="104.9"/><rect x="133.6" y="248.8" class="st15" width="18.7" height="104.9"/><rect x="3.3" y="248.8" class="st16" width="130.3" height="104.9"/><circle class="st17" cx="247.8" cy="456.4" r="87.1"/><path d="M255.9 486.8v-3.2 -14.8 -11.7c0 0 0-18 0-26.1 0-1.5 0-2.7 0-3.4 0-4.1 7.2-3.7 7.2-3.7v-4.6h-21.6v31.8H226c0 0 0.1-18.7 0.1-23.5 0-4.8 7.2-3.5 7.2-3.5v-4.8h-29.8v4.9c7.7-0.1 7.4 3.1 7.4 3.1s0 56 0.1 59.6c0.1 3.7-6.8 2.9-6.8 2.9v4.6h22v-37.6h15.3c0 0 0 25.2 0 29.7s-7.2 3.3-7.2 3.3v4.6h29.2v-4.9C256.6 490.1 255.9 486.8 255.9 486.8z"/><polygon points="294.7 435.8 276.8 435.8 255.9 456.8 255.9 469 277.7 494.5 294.7 494.5 268.2 462.3 "/><circle class="st18" cx="247.5" cy="456.4" r="91.1"/><circle class="st19" cx="247.8" cy="456.4" r="68.4"/><line class="st8" x1="322.7" y1="499.9" x2="476.6" y2="588.7"/><line class="st8" x1="24.9" y1="588.7" x2="183.3" y2="497.3"/><text transform="matrix(1 0 0 1 224.4932 663.375)" class="st20 st21 st22">   &amp; </text><text transform="matrix(0.9833 0 0 1 383.6279 328.5283)" class="st20 st23 st24 st25">  UI</text><text transform="matrix(0.9833 0 0 1 8.1787 328.5283)" class="st20 st23 st24 st25">  UX</text><path class="st26" d="M413.7 364.2v171.3"/><text><textPath xlink:href="#SVGID_x5F_1_x5F_" startOffset="1.221%"><tspan class="st20 st21" class="a">  Designer</tspan></textPath></text><path class="st26" d="M272.6 658.3l146.3-89.1"/><text><textPath xlink:href="#SVGID_x5F_2_x5F_" startOffset="1.221%"><tspan class="st20 st21" class="a">  Grafix</tspan></textPath></text><path class="st26" d="M61 372.7v171.3"/><text><textPath xlink:href="#SVGID_x5F_3_x5F_" startOffset="0%"><tspan class="st20 st21" class="a">  Developer</tspan></textPath></text><path class="st26" d="M72.7 572.2l148.5 85.4"/><text><textPath xlink:href="#SVGID_x5F_4_x5F_" startOffset="0%"><tspan class="st20 st21" class="a">  Web</tspan></textPath></text><text transform="matrix(1 0 0 1 215.9512 274.7686)" class="st20 st21 st27">   &amp; </text><line class="st28" x1="276.8" y1="39.3" x2="310.6" y2="39.3"/><line class="st28" x1="188.5" y1="39.3" x2="222.3" y2="39.3"/></svg>