<?xml version="1.0" encoding="utf-8"?>
<!-- Generator: Adobe Illustrator 24.0.1, SVG Export Plug-In . SVG Version: 6.00 Build 0)  -->
<svg version="1.1" id="Layer_1" xmlns="http://www.w3.org/2000/svg" xmlns:xlink="http://www.w3.org/1999/xlink" x="0px" y="0px"
	 viewBox="0 0 498.9 708.66" style="enable-background:new 0 0 498.9 708.66;" xml:space="preserve">
<style type="text/css">
	.st0{fill:#B5C1C6;}
	.st1{font-family:'MrsEavesRoman';}
	.st2{font-size:21.0669px;}
	.st3{fill:#525556;}
	.st4{font-size:21.3295px;}
	.st5{fill:#9FAAAA;}
	.st6{font-family:'Neou-Bold';}
	.st7{font-size:33.0607px;}
	.st8{fill:none;stroke:#FFFFFF;stroke-miterlimit:10;}
	.st9{display:none;fill:#262526;stroke:#3A3F44;stroke-width:0.5;stroke-miterlimit:10;}
	.st10{display:none;stroke:#FFFFFF;stroke-miterlimit:10;}
	.st11{display:none;}
	.st12{display:inline;fill:#FFFFFF;stroke:#FFFFFF;stroke-width:2;stroke-miterlimit:10;}
	.st13{fill:none;stroke:#FFFFFF;stroke-width:0.5;stroke-miterlimit:10;}
	.st14{fill:#868687;}
	.st15{fill:#4A484A;}
	.st16{fill:#353535;}
	.st17{fill:#FFFFFF;}
	.st18{fill:none;stroke:#939598;stroke-miterlimit:10;}
	.st19{fill:none;stroke:#000000;stroke-width:9;stroke-miterlimit:10;}
	.st20{fill:#D1D3D4;}
	.st21{font-family:'SouvenirStd-Light';}
	.st22{font-size:52.2916px;}
	.st23{font-family:'TabarraShadow';}
	.st24{font-size:75.9473px;}
	.st25{letter-spacing:1.02;}
	.st26{fill:none;}
	.st27{font-size:70.9671px;}
	.st28{fill:none;stroke:#FFFFFF;stroke-width:0.25;stroke-miterlimit:10;}
</style>
<g>
	<text transform="matrix(1 0 0 1 143.8379 83.4121)" class="st0 st1 st2">FRONTEND DEVELOPER</text>
</g>
<g>
	<text transform="matrix(1 0 0 1 227.873 39.3013)" class="st3 st1 st4">2020</text>
</g>
<g>
	<text transform="matrix(1 0 0 1 55.3145 126.5273)" class="st5 st6 st7">OMPHALUS HARKIE KUA</text>
</g>
<polyline class="st8" points="476.62,325.95 250.75,456.36 24.87,325.95 "/>
<polygon class="st9" points="3.59,299.39 249.5,157.41 495.41,299.39 495.41,583.34 249.5,725.32 3.59,583.34 "/>
<polygon class="st10" points="23.62,310.95 249.5,180.54 475.38,310.95 475.38,571.77 249.5,702.18 23.62,571.77 "/>
<g class="st11">
	<line class="st12" x1="355.2" y1="501.39" x2="139.26" y2="381.13"/>
	<line class="st12" x1="356.13" y1="382.47" x2="138.84" y2="500.26"/>
</g>
<polygon class="st13" points="119.13,381.39 248.98,306.42 378.83,381.39 378.83,531.33 248.98,606.3 119.13,531.33 "/>
<g>
	<g>
		<polygon class="st14" points="345.73,353.67 345.73,248.65 344.9,248.65 248.91,300.93 		"/>
		<g>
			<polygon class="st14" points="248.91,300.93 152.93,248.65 152.28,248.55 152.28,353.57 			"/>
		</g>
	</g>
	<rect x="345.73" y="248.8" class="st15" width="18.69" height="104.87"/>
	<rect x="364.42" y="248.8" class="st16" width="130.99" height="104.87"/>
	<rect x="133.59" y="248.8" class="st15" width="18.69" height="104.87"/>
	<rect x="3.33" y="248.8" class="st16" width="130.26" height="104.87"/>
</g>
<circle class="st17" cx="247.8" cy="456.36" r="87.09"/>
<path d="M255.92,486.75v-3.17v-14.76v-11.68c0,0,0-17.99,0-26.13c0-1.54,0-2.73,0-3.37c0-4.07,7.19-3.75,7.19-3.75v-4.59h-21.58
	v31.8H226c0,0,0.1-18.66,0.1-23.46c0-4.8,7.19-3.54,7.19-3.54v-4.8h-29.82v4.9c7.71-0.1,7.4,3.13,7.4,3.13s0,55.98,0.1,59.63
	c0.1,3.65-6.83,2.87-6.83,2.87v4.64h21.97v-37.58h15.25c0,0,0,25.24,0,29.66s-7.25,3.34-7.25,3.34v4.59h29.19v-4.9
	C256.55,490.09,255.92,486.75,255.92,486.75z"/>
<polygon points="294.71,435.76 276.82,435.76 255.91,456.77 255.91,469 277.65,494.47 294.71,494.47 268.23,462.34 "/>
<circle class="st18" cx="247.49" cy="456.36" r="91.1"/>
<circle class="st19" cx="247.8" cy="456.36" r="68.42"/>
<line class="st8" x1="322.65" y1="499.85" x2="476.62" y2="588.74"/>
<line class="st8" x1="24.87" y1="588.74" x2="183.34" y2="497.25"/>
<g>
	<text transform="matrix(1 0 0 1 224.4932 663.375)" class="st20 st21 st22"> &amp; </text>
</g>
<g>
	<text transform="matrix(0.9833 0 0 1 383.6279 328.5283)" class="st20 st23 st24 st25">UI</text>
</g>
<g>
	<text transform="matrix(0.9833 0 0 1 8.1787 328.5283)" class="st20 st23 st24 st25">UX</text>
</g>
<g>
	<path id="SVGID_x5F_1_x5F_" class="st26" d="M413.66,364.2v171.32"/>
	<text>	<textPath  xlink:href="#SVGID_x5F_1_x5F_" startOffset="1.221%">
<tspan  class="st20 st21" style="font-size:35.1936px; letter-spacing:25.42;">Designer</tspan>	</textPath>
</text>
</g>
<g>
	<path id="SVGID_x5F_2_x5F_" class="st26" d="M272.56,658.3l146.34-89.08"/>
	<text>	<textPath  xlink:href="#SVGID_x5F_2_x5F_" startOffset="1.221%">
<tspan  class="st20 st21" style="font-size:35.1937px; letter-spacing:25.42;">Grafix</tspan>	</textPath>
</text>
</g>
<g>
<path id="SVGID_x5F_3_x5F_" class="st26" d="M61,372.73v171.32"/>
	<text>	<textPath  xlink:href="#SVGID_x5F_3_x5F_" startOffset="0%">
<tspan  class="st20 st21" style="font-size:35.1936px; letter-spacing:25.42;">Developer</tspan>	</textPath>
</text>
</g>
<g>
<path id="SVGID_x5F_4_x5F_" class="st26" d="M72.67,572.16l148.54,85.35"/>
	<a class="svg" xlink:href="about.html">
		<text>
			<textPath xlink:href="#SVGID_x5F_4_x5F_" startOffset="0%">
				<tspan  class="st20 st21" style="font-size:35.1937px; letter-spacing:25.42;">Web</tspan>	
			</textPath>
		</text>
	</a>
</g>
<g>
	<text transform="matrix(1 0 0 1 215.9512 274.7686)" class="st20 st21 st27"> &amp; </text>
</g>
<line class="st28" x1="276.79" y1="39.3" x2="310.64" y2="39.3"/>
<line class="st28" x1="188.45" y1="39.3" x2="222.31" y2="39.3"/>
</svg>
