<?xml version="1.0" encoding="utf-8"?>
<!-- Generator: Adobe Illustrator 24.0.1, SVG Export Plug-In . SVG Version: 6.00 Build 0)  -->
<svg version="1.1" id="Layer_1" xmlns="http://www.w3.org/2000/svg" xmlns:xlink="http://www.w3.org/1999/xlink" x="0px" y="0px"
	 viewBox="0 0 498.9 708.66" style="enable-background:new 0 0 498.9 708.66;" xml:space="preserve">
<style type="text/css">
	.st0{fill:#B5C1C6;}
	.st1{font-family:'MrsEavesRoman';}
	.st2{font-size:21.0669px;}
	.st3{fill:none;stroke:#FFFFFF;stroke-miterlimit:10;}
	.st4{fill:none;stroke:#939598;stroke-width:0.25;stroke-miterlimit:10;}
	.st5{fill:#525556;}
	.st6{font-size:21.3295px;}
	.st7{fill:#5CC9E2;}
	.st8{font-family:'Neou-Bold';}
	.st9{font-size:33.0607px;}
	.st10{display:none;fill:#262526;stroke:#3A3F44;stroke-width:0.5;stroke-miterlimit:10;}
	.st11{display:none;stroke:#FFFFFF;stroke-miterlimit:10;}
	.st12{display:none;}
	.st13{display:inline;fill:#FFFFFF;stroke:#FFFFFF;stroke-width:2;stroke-miterlimit:10;}
	.st14{fill:none;stroke:#FFFFFF;stroke-width:0.5;stroke-miterlimit:10;}
	.st15{fill:#868687;}
	.st16{fill:#353535;}
	.st17{fill:#FFFFFF;}
	.st18{fill:#98AFB7;}
	.st19{fill:#D1D3D4;}
	.st20{font-family:'TabarraShadow';}
	.st21{font-size:68.7057px;}
	.st22{letter-spacing:1.02;}
	.st23{font-size:69.5164px;}
	.st24{display:none;fill:none;stroke:#FFFFFF;stroke-width:0.25;stroke-miterlimit:10;}
	.st25{fill:#5CC9E2;stroke:#000000;stroke-width:0.5;stroke-miterlimit:10;}
	.st26{stroke:#5CC9E2;stroke-width:0.75;stroke-miterlimit:10;}
</style>
<g>
	<text transform="matrix(1 0 0 1 143.8379 83.4121)" class="st0 st1 st2">FRONTEND DEVELOPER</text>
</g>
<g id="frame1">
	<polyline class="st3" points="476.62,325.95 250.75,456.36 24.87,325.95 	"/>
	<circle class="st4" cx="247.8" cy="456.36" r="87.09"/>
	<line class="st3" x1="322.65" y1="499.85" x2="476.62" y2="588.74"/>
	<line class="st3" x1="24.87" y1="588.74" x2="183.34" y2="497.25"/>
</g>
<g>
	<text transform="matrix(1 0 0 1 227.873 39.3013)" class="st5 st1 st6">2020</text>
</g>
<g>
	<text transform="matrix(1 0 0 1 55.3145 126.5273)" class="st7 st8 st9">OMPHALUS HARKIE KUA</text>
</g>
<polygon class="st10" points="3.59,299.39 249.5,157.41 495.41,299.39 495.41,583.34 249.5,725.32 3.59,583.34 "/>
<polygon class="st11" points="23.62,310.95 249.5,180.54 475.38,310.95 475.38,571.77 249.5,702.18 23.62,571.77 "/>
<g class="st12">
	<line class="st13" x1="355.2" y1="501.39" x2="139.26" y2="381.13"/>
	<line class="st13" x1="356.13" y1="382.47" x2="138.84" y2="500.26"/>
</g>
<polygon id="hexagon" class="st14" points="119.13,381.39 248.98,306.42 378.83,381.39 378.83,531.33 248.98,606.3 119.13,531.33 
	"/>
<g id="head">
	<g>
		<polygon class="st15" points="345.73,353.67 345.73,248.65 344.9,248.65 248.91,300.93 		"/>
		<g>
			<polygon class="st15" points="248.91,300.93 152.93,248.65 152.28,248.55 152.28,353.57 			"/>
		</g>
	</g>
	<rect id="rightpanel" x="345.73" y="248.8" class="st7" width="18.69" height="104.87"/>
	<rect id="rightsquare" x="364.42" y="248.8" class="st16" width="130.99" height="104.87"/>
	<rect id="leftpanel" x="133.59" y="248.8" class="st7" width="18.69" height="104.87"/>
	<rect id="leftsquare" x="3.33" y="248.8" class="st16" width="130.26" height="104.87"/>
</g>
<g class="st12">
</g>
<g id="ring2">
	<g>
		<path class="st7" d="M338.56,455.7c-0.02,9.09-1.86,18.95-4.9,27.78c-2.94,8.56-7.17,16.66-12.5,23.97
			c-10.68,14.66-25.72,25.99-42.8,32.14c-17.68,6.37-37.27,7.08-55.37,2.04c-17.54-4.88-33.4-15.12-45.14-29.02
			c-11.89-14.08-19.31-31.67-21.06-50.02c-0.11-1.18-0.2-2.37-0.27-3.55c-0.03-0.58-0.06-1.16-0.08-1.75
			c-0.01-0.29-0.02-0.58-0.03-0.88c-0.01-0.27-0.01-0.54-0.02-0.8c0,0.5,0,1,0,1.49c-0.17-0.46,0.03-1.34,0.05-1.86
			c0.02-0.58,0.05-1.16,0.08-1.75c0.08-1.36,0.19-2.71,0.33-4.07c0.48-4.64,1.31-9.25,2.5-13.76c2.31-8.8,5.95-17.24,10.77-24.96
			c9.59-15.37,23.75-27.73,40.3-35.11c17.25-7.69,36.8-9.79,55.3-6.03c17.8,3.62,34.31,12.67,46.99,25.67
			c12.78,13.11,21.45,30,24.56,48.05c0.77,4.47,1.29,9.46,1.3,13.72c0,0.49-0.01,1,0.01,1.49c0-0.1-0.01,0.55,0.02,0.25
			c0.11-1,0.02-2.08,0.02-3.08c-0.02-9.82-1.19-19.5-4.11-28.91c-2.76-8.87-6.88-17.29-12.19-24.92
			c-10.62-15.25-25.87-27.09-43.31-33.52c-18.16-6.7-38.38-7.39-56.97-1.99c-17.9,5.2-33.97,15.99-45.63,30.52
			c-11.81,14.72-18.8,32.96-19.87,51.8c-0.57,10.04-0.15,20.24,2.04,30.07c2.04,9.18,5.53,18.02,10.29,26.13
			c9.36,15.96,23.58,28.89,40.37,36.67c17.54,8.13,37.56,10.42,56.5,6.58c18.34-3.72,35.3-13.23,48.12-26.86
			c12.89-13.69,21.34-31.28,23.89-49.92c0.65-4.76,0.87-9.54,0.88-14.34c0-0.98,0.17-2.12-0.02-3.08c-0.05-0.25-0.02,0.26-0.02,0.25
			C338.54,454.7,338.56,455.2,338.56,455.7z"/>
	</g>
</g>
<g id="ring1">
	<circle class="st17" cx="247.8" cy="456.36" r="68.42"/>
	<g>
		<path class="st18" d="M316.19,455.7c-0.03,13.45-5.12,27.59-13.2,38.6c-7.99,10.89-19.19,19.31-31.9,23.92
			c-13.29,4.81-28.03,5.36-41.65,1.58c-13.06-3.63-24.89-11.21-33.69-21.52c-8.94-10.47-14.58-23.57-16-37.27
			c-0.1-0.95-0.18-1.9-0.24-2.85c-0.02-0.41-0.05-0.81-0.06-1.22c-0.01-0.23-0.02-0.47-0.03-0.7c-0.05-1.63-0.13,0.69-0.02,0.87
			c-0.15-0.24,0.03-1.02,0.04-1.32c0.02-0.46,0.04-0.93,0.07-1.39c0.06-1.01,0.15-2.02,0.26-3.02c0.38-3.45,1.01-6.86,1.91-10.21
			c1.77-6.64,4.56-12.99,8.23-18.8c7.21-11.4,17.78-20.56,30.11-26.05c12.9-5.74,27.52-7.31,41.35-4.52
			c13.34,2.69,25.73,9.44,35.26,19.16c9.59,9.77,16.11,22.36,18.52,35.84c0.59,3.31,1.03,7.16,1.04,10.24c0,0.49-0.01,1,0.01,1.49
			c0-0.1-0.01,0.55,0.02,0.25c0.11-1,0.02-2.08,0.02-3.08c-0.02-7.41-0.82-14.69-2.98-21.8c-2.04-6.71-5.13-13.09-9.12-18.86
			c-7.96-11.52-19.43-20.48-32.57-25.35c-13.68-5.07-28.92-5.6-42.93-1.52c-13.49,3.93-25.59,12.08-34.34,23.05
			c-8.87,11.11-14.07,24.86-14.82,39.05c-0.41,7.67-0.18,15.48,1.43,23.01c1.49,6.96,4.09,13.68,7.65,19.84
			c7.01,12.1,17.73,21.92,30.41,27.82c13.21,6.15,28.3,7.88,42.58,4.97c13.82-2.82,26.59-10.01,36.22-20.3
			c9.69-10.35,16-23.64,17.86-37.7c0.48-3.61,0.61-7.23,0.61-10.86c0-0.98,0.17-2.12-0.02-3.08c-0.05-0.25-0.02,0.26-0.02,0.25
			C316.17,454.7,316.19,455.2,316.19,455.7z"/>
	</g>
</g>
<g>
	<g>
		<path class="st19" d="M261.36,663.38c-0.97-0.97-1.89-1.94-3.21-3.37c-2.96,2.75-6.27,3.93-10.05,3.93
			c-6.68,0-10.56-4.49-10.56-9.64c0-4.69,2.8-7.9,6.73-10.05v-0.15c-1.78-2.24-2.86-4.74-2.86-7.19c0-4.18,3.01-8.46,8.72-8.46
			c4.28,0,7.6,2.86,7.6,7.29c0,3.62-2.09,6.48-7.55,9.18v0.15c2.91,3.37,6.17,7.14,8.36,9.59c1.58-2.4,2.65-5.71,3.32-10.05h4.08
			c-0.92,5.41-2.4,9.69-4.95,12.7c1.84,1.94,3.62,3.88,5.66,6.07H261.36z M255.96,657.46c-2.04-2.24-5.86-6.43-9.69-10.81
			c-1.84,1.17-4.44,3.37-4.44,6.99c0,3.93,2.91,6.94,7.04,6.94C251.83,660.57,254.33,659.24,255.96,657.46z M245.51,636.5
			c0,2.45,1.12,4.33,2.6,6.17c3.47-1.99,5.71-3.82,5.71-6.73c0-2.09-1.17-4.44-3.98-4.44C246.98,631.5,245.51,633.85,245.51,636.5z"
			/>
	</g>
</g>
<g>
	<text transform="matrix(0.9833 0 0 1 387.5879 326.3442)" class="st19 st20 st21 st22">UI</text>
</g>
<a id="designer" xlink:href="https://google.com" >
	<g>
		<g>
			<path class="st19" d="M437.06,384.81c0.28,1.83,0.49,4.01,0.49,6.4c0,4.33-1.02,7.41-2.96,9.45c-1.94,2.08-4.68,3.29-8.52,3.29
				c-3.87,0-7.04-1.18-9.22-3.36c-2.22-2.18-3.41-5.78-3.41-10.31c0-2.15,0.11-3.94,0.28-5.47H437.06z M416.09,387.82
				c-0.14,0.76-0.18,1.87-0.18,3.05c0,6.44,3.66,9.93,10.06,9.93c5.59,0.04,9.15-3.08,9.15-9.45c0-1.56-0.14-2.73-0.32-3.53H416.09z
				"/>
			<path class="st19" d="M421.61,410.46c-4.19,0.07-5.91,2.7-5.91,5.75c0,2.18,0.39,3.5,0.88,4.64l-2.22,0.52
				c-0.49-1.07-1.06-2.91-1.06-5.57c0-5.16,3.45-8.24,8.58-8.24c5.14,0,9.18,2.98,9.18,7.86c0,5.47-4.89,6.92-8.02,6.92
				c-0.63,0-1.13-0.07-1.44-0.1V410.46z M423.83,419.39c1.97,0.04,5.03-0.8,5.03-4.22c0-3.08-2.88-4.43-5.03-4.67V419.39z"/>
			<path class="st19" d="M416.83,426.55c-0.6,0.9-1.23,2.49-1.23,4.01c0,2.21,1.13,3.25,2.53,3.25c1.48,0,2.29-0.87,3.13-3.12
				c1.09-3.01,2.78-4.43,4.82-4.43c2.74,0,5,2.18,5,5.78c0,1.7-0.49,3.18-1.05,4.12l-2.25-0.76c0.42-0.66,0.98-1.87,0.98-3.43
				c0-1.8-1.06-2.8-2.32-2.8c-1.41,0-2.04,1-2.88,3.18c-1.13,2.91-2.6,4.4-5.14,4.4c-2.99,0-5.1-2.28-5.1-6.26
				c0-1.83,0.46-3.53,1.16-4.71L416.83,426.55z"/>
			<path class="st19" d="M413.66,441.54h17.03v3.04h-17.03V441.54z M435.48,444.93c-1.06,0.03-1.9-0.73-1.9-1.94
				c0-1.07,0.84-1.83,1.9-1.83c1.09,0,1.94,0.8,1.94,1.9C437.41,444.2,436.57,444.93,435.48,444.93z"/>
			<path class="st19" d="M430.69,464.91c-1.23-0.07-2.6-0.14-4.68-0.14h-9.89c-3.91,0-6.3-0.76-7.78-2.39
				c-1.55-1.63-2.04-3.98-2.04-6.09c0-2.01,0.49-4.22,1.41-5.57l2.36,0.76c-0.7,1.11-1.34,2.84-1.34,4.91c0,3.11,1.65,5.4,5.95,5.4
				h1.9v-0.07c-1.58-0.93-2.85-2.73-2.85-5.33c0-4.15,3.59-7.13,8.3-7.13c5.77,0,9.04,3.7,9.04,7.54c0,2.91-1.55,4.5-2.96,5.23v0.07
				l2.57,0.14V464.91z M423.97,461.77c0.53,0,0.99-0.04,1.41-0.17c1.79-0.55,3.27-2.04,3.27-4.26c0-2.91-2.5-4.98-6.44-4.98
				c-3.34,0-6.12,1.66-6.12,4.95c0,1.87,1.2,3.56,3.17,4.22c0.53,0.17,1.13,0.24,1.65,0.24H423.97z"/>
			<path class="st19" d="M426.08,470.5c1.76,0,3.2-0.03,4.61-0.14v2.7l-2.81,0.17v0.07c1.62,0.83,3.2,2.77,3.2,5.54
				c0,2.32-1.41,5.92-7.25,5.92h-10.17v-3.04h9.82c2.74,0,5.03-1,5.03-3.88c0-2.01-1.44-3.56-3.17-4.08
				c-0.39-0.14-0.91-0.21-1.44-0.21h-10.24v-3.04H426.08z"/>
			<path class="st19" d="M421.61,492.28c-4.19,0.07-5.91,2.7-5.91,5.75c0,2.18,0.39,3.5,0.88,4.64l-2.22,0.52
				c-0.49-1.07-1.06-2.91-1.06-5.57c0-5.16,3.45-8.24,8.58-8.24c5.14,0,9.18,2.98,9.18,7.86c0,5.47-4.89,6.92-8.02,6.92
				c-0.63,0-1.13-0.07-1.44-0.1V492.28z M423.83,501.21c1.97,0.04,5.03-0.8,5.03-4.22c0-3.08-2.88-4.43-5.03-4.67V501.21z"/>
			<path class="st19" d="M425.38,508.79c2.01,0,3.73-0.04,5.31-0.14v2.67l-3.34,0.1v0.14c2.29,0.76,3.73,2.6,3.73,4.64
				c0,0.35-0.04,0.59-0.11,0.87h-2.92c0.07-0.31,0.11-0.62,0.11-1.04c0-2.15-1.65-3.67-3.98-4.08c-0.42-0.07-0.91-0.14-1.44-0.14
				h-9.08v-3.01H425.38z"/>
		</g>
	</g>
</a>
<g>
	<text transform="matrix(0.9833 0 0 1 13.6001 326.5884)" class="st19 st20 st23 st22">UX</text>
</g>
<a id="grafix" xlink:href="https://www.facebook.com" >
	<g>
		<g>
			<path class="st19" d="M325.13,625.07c-0.9,1.12-2.75,3.2-5.44,4.84c-3.02,1.84-5.97,2.57-9.08,1.86
				c-2.74-0.64-5.45-2.7-7.37-5.85c-3.65-6.06-2.26-12.96,4.42-17.03c2.31-1.4,4.42-1.99,5.53-2.09l0.68,2.51
				c-1.36,0.17-2.92,0.58-4.93,1.81c-4.85,2.95-6.15,7.94-3.05,13.02c3.13,5.14,8.02,6.32,12.66,3.5c1.68-1.03,2.69-1.97,3.1-2.63
				l-3.68-6.04l-4.05,2.46l-1.28-2.1l6.56-4L325.13,625.07z"/>
			<path class="st19" d="M324.16,613.18c-1.04-1.71-1.97-3.17-2.88-4.47l2.28-1.39l1.83,2.8l0.12-0.07
				c-0.54-2.35,0.28-4.54,2.02-5.6c0.3-0.18,0.52-0.28,0.79-0.36l1.52,2.49c-0.3,0.1-0.59,0.23-0.94,0.45
				c-1.83,1.12-2.27,3.32-1.42,5.52c0.16,0.4,0.36,0.85,0.63,1.3l4.72,7.75l-2.57,1.57L324.16,613.18z"/>
			<path class="st19" d="M348.42,612.13l-1.32-1.71l-0.09,0.05c-0.1,1.63-1.02,3.59-3.06,4.83c-2.9,1.76-5.64,0.59-6.92-1.51
				c-2.14-3.52-0.24-7.31,5.31-10.65l-0.18-0.3c-0.73-1.2-2.37-3.17-5.3-1.39c-1.33,0.81-2.46,2.08-3.07,3.35l-1.65-1.38
				c0.71-1.5,2.11-3.06,3.91-4.15c4.38-2.66,7.29-0.27,9.06,2.64l3.31,5.44c0.77,1.26,1.58,2.46,2.36,3.34L348.42,612.13z
				 M343.52,604.94c-2.87,1.67-5.79,4.14-4.07,6.97c1.04,1.71,2.66,1.84,3.99,1.03c1.86-1.13,2.31-3.06,1.98-4.54
				c-0.08-0.32-0.2-0.66-0.36-0.93L343.52,604.94z"/>
			<path class="st19" d="M355.76,607.66l-7.63-12.53l-2.01,1.22l-1.23-2.01l2.01-1.22l-0.48-0.78c-2.34-3.85-1.64-7.69,2.38-10.14
				c1.33-0.81,3.15-1.34,4.22-1.25l0.49,2.46c-0.9-0.07-2.26,0.22-3.53,0.99c-2.75,1.67-2.36,4.11-0.95,6.43l0.44,0.72l8.31-5.06
				l8.85,14.55l-2.57,1.57l-7.63-12.53l-5.73,3.49l7.63,12.53L355.76,607.66z"/>
			<path class="st19" d="M364.05,582.68l3.94,1.88c1.03,0.49,1.93,0.97,2.89,1.49l0.09-0.05c-0.06-1.16-0.04-2.2-0.04-3.27
				l0.13-4.32l2.81-1.71l-0.6,10l9.6,4.46l-2.96,1.8l-4.09-2c-1.07-0.5-2.04-1.02-3.07-1.59l-0.06,0.04
				c0.06,1.16,0.03,2.25,0.03,3.44l-0.07,4.54l-2.87,1.75l0.57-10.52l-9.18-4.17L364.05,582.68z"/>
		</g>
	</g>
</a>
<a id="developer" xlink:href="https://www.google.com" >
	<g>
		<g>
			<path class="st19" d="M84.4,382.09c0.28,1.83,0.49,4.01,0.49,6.4c0,4.33-1.02,7.41-2.96,9.45c-1.94,2.08-4.68,3.29-8.52,3.29
				c-3.87,0-7.04-1.18-9.22-3.36c-2.22-2.18-3.41-5.78-3.41-10.31c0-2.15,0.11-3.94,0.28-5.47H84.4z M63.43,385.1
				c-0.14,0.76-0.18,1.87-0.18,3.05c0,6.44,3.66,9.93,10.06,9.93c5.59,0.04,9.15-3.08,9.15-9.45c0-1.56-0.14-2.73-0.32-3.53H63.43z"
				/>
			<path class="st19" d="M68.95,407.75c-4.19,0.07-5.91,2.7-5.91,5.75c0,2.18,0.39,3.5,0.88,4.64l-2.22,0.52
				c-0.49-1.07-1.06-2.91-1.06-5.57c0-5.16,3.45-8.24,8.59-8.24s9.18,2.98,9.18,7.86c0,5.47-4.89,6.92-8.02,6.92
				c-0.63,0-1.13-0.07-1.44-0.1V407.75z M71.17,416.68c1.97,0.04,5.03-0.8,5.03-4.22c0-3.08-2.89-4.43-5.03-4.67V416.68z"/>
			<path class="st19" d="M78.03,425.43l-9.57,3.29c-1.55,0.55-2.96,1-4.36,1.35v0.1c1.41,0.38,2.81,0.87,4.36,1.42l9.57,3.25v3.18
				L61,431.45v-2.91l17.03-6.37V425.43z"/>
			<path class="st19" d="M68.95,443.12c-4.19,0.07-5.91,2.7-5.91,5.75c0,2.18,0.39,3.5,0.88,4.64l-2.22,0.52
				c-0.49-1.07-1.06-2.91-1.06-5.57c0-5.16,3.45-8.24,8.59-8.24s9.18,2.98,9.18,7.86c0,5.47-4.89,6.92-8.02,6.92
				c-0.63,0-1.13-0.07-1.44-0.1V443.12z M71.17,452.04c1.97,0.04,5.03-0.8,5.03-4.22c0-3.08-2.89-4.43-5.03-4.67V452.04z"/>
			<path class="st19" d="M85.98,459.63v3.04H61v-3.04H85.98z"/>
			<path class="st19" d="M69.66,483.82c-6.3,0-9.04-4.29-9.04-8.34c0-4.53,3.38-8.03,8.76-8.03c5.7,0,9.04,3.67,9.04,8.31
				C78.42,480.56,74.87,483.82,69.66,483.82z M69.48,470.53c-3.73,0-6.54,2.11-6.54,5.09c0,2.91,2.78,5.09,6.62,5.09
				c2.89,0,6.54-1.42,6.54-5.02C76.1,472.08,72.72,470.53,69.48,470.53z"/>
			<path class="st19" d="M72.47,488.52c2.18,0,3.94-0.07,5.56-0.14v2.73l-2.92,0.14v0.07c2.08,1.25,3.31,3.22,3.31,5.95
				c0,4.05-3.48,7.09-8.66,7.09c-6.12,0-9.15-3.67-9.15-7.61c0-2.21,0.99-4.15,2.67-5.16v-0.07h-9.25v-3.01H72.47z M67.93,491.54
				c-0.46,0-0.88,0.07-1.27,0.14c-2.15,0.55-3.62,2.39-3.62,4.57c0,3.22,2.67,5.09,6.58,5.09c3.41,0,6.33-1.76,6.33-4.98
				c0-2.08-1.51-4.01-3.84-4.6c-0.39-0.1-0.84-0.21-1.27-0.21H67.93z"/>
			<path class="st19" d="M68.95,510.78c-4.19,0.07-5.91,2.7-5.91,5.75c0,2.18,0.39,3.5,0.88,4.64l-2.22,0.52
				c-0.49-1.07-1.06-2.91-1.06-5.57c0-5.16,3.45-8.24,8.59-8.24s9.18,2.98,9.18,7.86c0,5.47-4.89,6.92-8.02,6.92
				c-0.63,0-1.13-0.07-1.44-0.1V510.78z M71.17,519.71c1.97,0.04,5.03-0.8,5.03-4.22c0-3.08-2.89-4.43-5.03-4.67V519.71z"/>
			<path class="st19" d="M72.72,527.3c2.01,0,3.73-0.03,5.31-0.14v2.67l-3.34,0.1v0.14c2.29,0.76,3.73,2.6,3.73,4.64
				c0,0.35-0.04,0.59-0.11,0.86h-2.92c0.07-0.31,0.11-0.62,0.11-1.04c0-2.15-1.65-3.67-3.98-4.08c-0.42-0.07-0.92-0.14-1.44-0.14H61
				v-3.01H72.72z"/>
		</g>
	</g>
</a>
<a id="web" xlink:href="https://www.facebook.com" >
	<g>
		<g>
			<path class="st19" d="M122.99,601.07l6.68-23.51l2.76,1.59l-3.58,11.78c-0.87,2.91-1.81,5.78-2.58,7.97l0.06,0.04
				c1.5-1.86,3.54-3.93,5.75-6.19l8.66-8.82l2.73,1.57l-3.53,11.85c-0.83,2.77-1.69,5.52-2.64,7.86l0.06,0.03
				c1.72-2.02,3.6-3.98,5.71-6.18l8.63-8.84l2.67,1.54l-17.55,17.27l-2.73-1.57l3.6-12.17c0.88-2.99,1.61-5.24,2.54-7.47l-0.06-0.03
				c-1.54,1.84-3.14,3.59-5.42,5.82l-9.03,9.05L122.99,601.07z"/>
			<path class="st19" d="M150.18,607.52c-2.03,3.67-0.6,6.47,2.04,7.99c1.89,1.09,3.22,1.41,4.46,1.55l-0.65,2.18
				c-1.17-0.11-3.05-0.53-5.36-1.86c-4.47-2.57-5.42-7.09-2.86-11.55c2.56-4.45,7.16-6.48,11.39-4.05c4.74,2.72,3.56,7.69,2,10.4
				c-0.32,0.55-0.62,0.94-0.81,1.2L150.18,607.52z M159.02,610.04c1.01-1.69,1.82-4.76-1.15-6.47c-2.67-1.53-5.28,0.29-6.56,2.04
				L159.02,610.04z"/>
			<path class="st19" d="M160.41,622.57c0.64-0.97,1.56-2.43,2.31-3.74l10.26-17.85l2.61,1.5l-5.33,9.27l0.06,0.03
				c1.88-1.11,4.17-1.21,6.51,0.13c3.6,2.07,4.4,6.59,1.79,11.05c-3.03,5.28-7.81,6.02-11.05,4.16c-2.1-1.21-3.31-3-3.27-5.57
				l-0.09-0.05l-1.52,2.37L160.41,622.57z M166.54,618.22c-0.19,0.34-0.33,0.71-0.44,1.05c-0.56,2.15,0.24,4.31,2.16,5.42
				c2.76,1.59,5.73,0.25,7.67-3.14c1.7-2.96,1.65-6.35-1.17-7.97c-1.8-1.03-4.2-0.75-5.91,0.98c-0.24,0.27-0.54,0.58-0.78,1.01
				L166.54,618.22z"/>
		</g>
	</g>
</a>
<g>
	<g>
		<path class="st19" d="M265.17,276.77c-1.24-1.23-2.41-2.47-4.1-4.29c-3.77,3.51-8,5-12.81,5c-8.52,0-13.46-5.72-13.46-12.29
			c0-5.98,3.58-10.08,8.58-12.81v-0.19c-2.27-2.86-3.64-6.05-3.64-9.17c0-5.33,3.84-10.79,11.12-10.79c5.46,0,9.69,3.64,9.69,9.3
			c0,4.62-2.67,8.26-9.62,11.7v0.19c3.71,4.29,7.87,9.1,10.66,12.22c2.01-3.06,3.38-7.28,4.22-12.81h5.2
			c-1.17,6.89-3.05,12.35-6.3,16.19c2.34,2.47,4.62,4.94,7.21,7.74H265.17z M258.28,269.23c-2.6-2.86-7.48-8.19-12.35-13.78
			c-2.34,1.5-5.66,4.29-5.66,8.91c0,5.01,3.71,8.84,8.97,8.84C253.02,273.19,256.2,271.5,258.28,269.23z M244.96,242.51
			c0,3.12,1.43,5.53,3.32,7.87c4.42-2.54,7.28-4.88,7.28-8.58c0-2.67-1.5-5.66-5.07-5.66C246.84,236.14,244.96,239.13,244.96,242.51
			z"/>
	</g>
</g>
<line class="st24" x1="276.79" y1="39.3" x2="310.64" y2="39.3"/>
<line class="st24" x1="188.45" y1="39.3" x2="222.31" y2="39.3"/>
<g id="icon">
	<path id="K" class="st25" d="M302.51,424.02h-15.29c-3.91,0-7.66,1.56-10.41,4.33l-20.69,20.79v14.62l20.8,24.37
		c3.3,3.86,8.12,6.09,13.2,6.09h12.39l-31.65-38.41L302.51,424.02z"/>
	<circle class="st26" cx="231.95" cy="456.06" r="36.89"/>
	<path id="JH" class="st17" d="M255.23,470.68c-0.22-0.34-0.31-0.74-0.31-1.14v-2.73v-1.98v-11.68c0,0,0,1.48,0-6.66
		c0-1.54,0-2.73,0-3.37c0-2.64,3.04-3.44,5.17-3.67c1.15-0.12,2.03-1.07,2.03-2.22v-0.21c0-1.24-1-2.24-2.24-2.24h-17.1
		c-1.24,0-2.24,1-2.24,2.24v7.85c0,1.24-1,2.24-2.24,2.24h-10.97c-1.25,0-2.25-1.01-2.24-2.26c0.01-0.66,0.01-1.51,0.01-2.61
		c0-3.04,2.9-3.65,5.02-3.69c1.21-0.02,2.18-1.02,2.18-2.24v-0.18c0-1.24-1-2.24-2.24-2.24h-25.34c-1.24,0-2.24,1-2.24,2.24v0.49
		c0,1.18,0.92,2.14,2.09,2.23c5.57,0.45,5.31,3.06,5.31,3.06s0,24.21,0.1,27.86c0.07,2.3-2.67,2.84-4.7,2.92
		c-1.2,0.05-2.13,1.04-2.13,2.23v0.11c0,1.24,1,2.24,2.24,2.24h5.32c7.96,0,14.41-6.45,14.41-14.41v-7.75c0-1.24,1-2.24,2.24-2.24
		h10.77c1.24,0,2.24,1,2.24,2.24v14.65c0,2.82-2.95,3.4-5.09,3.45c-1.21,0.03-2.16,1.03-2.16,2.24v0c0,1.24,1,2.24,2.24,2.24h24.71
		c1.24,0,2.24-1,2.24-2.24v-0.39c0-1.2-0.96-2.17-2.16-2.24C257.01,472.66,255.74,471.46,255.23,470.68z"/>
</g>
</svg>
