<svg width="499" height="709" viewBox="0 0 499 709" fill="none" xmlns="http://www.w3.org/2000/svg">
<g id="newSVG_frame">
<g clip-path="url(#clip0)">
<path id="bcg_shield" d="M-1 183.619L251.849 34L498 173.568V478.381L251.849 628L-1 478.381V183.619Z" fill="#939598" fill-opacity="0.15"/>
<g id="top_pieces">
<path id="TOP2" d="M252.282 259.482L252.282 61.4802L482.237 192.894C479.193 195.431 312.372 293.477 308.313 295.506C301.965 275.284 268.164 257.839 252.282 259.482Z" fill="#C4C4C4" stroke="#EAF6FF" stroke-width="4"/>
<path id="TOP1" d="M192.518 296.908L21.5285 195.938L249.785 60.3541C250.421 64.2656 252.2 256.864 251.883 261.391C225.499 259.362 199.182 282.399 192.518 296.908Z" fill="#C4C4C4" stroke="#EAF6FF" stroke-width="4"/>
</g>
<g id="contactButtom">
<g id="contact_block" filter="url(#filter0_d)">
<path d="M309.641 297.218L479.924 200.475L479.924 464.872C421.474 429.079 311.669 366.103 308.121 363.064C322.311 347.362 319.102 310.049 309.641 297.218Z" fill="#C4C4C4"/>
<path d="M309.641 297.218L479.924 200.475L479.924 464.872C421.474 429.079 311.669 366.103 308.121 363.064C322.311 347.362 319.102 310.049 309.641 297.218Z" stroke="#EAF6FF" stroke-width="4"/>
</g>
<path id="contact" d="M420.71 288.797C418.755 288.569 417.245 287.845 416.178 286.626C415.12 285.416 414.591 283.804 414.591 281.789C414.591 279.606 415.374 277.854 416.94 276.534C418.506 275.222 420.6 274.566 423.224 274.566L425.001 274.566C426.719 274.566 428.23 274.87 429.534 275.48C430.837 276.098 431.836 276.969 432.53 278.095C433.232 279.221 433.583 280.524 433.583 282.005C433.583 283.969 433.033 285.543 431.933 286.728C430.841 287.913 429.326 288.603 427.388 288.797L427.388 286.347C428.861 286.135 429.927 285.674 430.587 284.963C431.247 284.261 431.578 283.275 431.578 282.005C431.578 280.448 431.002 279.225 429.851 278.336C428.7 277.456 427.062 277.016 424.938 277.016L423.148 277.016C421.142 277.016 419.547 277.435 418.362 278.273C417.177 279.111 416.584 280.283 416.584 281.789C416.584 283.144 416.889 284.18 417.498 284.9C418.116 285.628 419.187 286.11 420.71 286.347L420.71 288.797ZM423.491 306.355C421.679 306.355 420.097 306.05 418.743 305.441C417.397 304.831 416.369 303.968 415.658 302.851C414.947 301.734 414.591 300.43 414.591 298.941C414.591 297.485 414.947 296.194 415.658 295.069C416.377 293.943 417.397 293.067 418.717 292.441C420.046 291.823 421.582 291.506 423.326 291.489L424.659 291.489C426.436 291.489 428.006 291.798 429.369 292.415C430.731 293.033 431.772 293.905 432.492 295.031C433.219 296.165 433.583 297.46 433.583 298.915C433.583 300.397 433.224 301.7 432.504 302.826C431.793 303.96 430.757 304.831 429.394 305.441C428.04 306.05 426.461 306.355 424.659 306.355L423.491 306.355ZM424.684 303.93C426.876 303.93 428.556 303.49 429.724 302.61C430.9 301.73 431.489 300.498 431.489 298.915C431.489 297.375 430.9 296.161 429.724 295.272C428.556 294.392 426.931 293.939 424.849 293.913L423.491 293.913C421.366 293.913 419.695 294.358 418.476 295.246C417.266 296.144 416.661 297.375 416.661 298.941C416.661 300.515 417.232 301.734 418.374 302.597C419.525 303.46 421.172 303.905 423.313 303.93L424.684 303.93ZM414.845 324.217L414.845 321.767L429.089 312.461L414.845 312.461L414.845 310.011L433.329 310.011L433.329 312.461L419.022 321.792L433.329 321.792L433.329 324.217L414.845 324.217ZM431.324 340.937L431.324 334.995L414.845 334.995L414.845 332.571L431.324 332.571L431.324 326.642L433.329 326.642L433.329 340.937L431.324 340.937ZM419.669 352.87L419.669 345.126L414.845 343.387L414.845 340.873L433.329 347.932L433.329 350.065L414.845 357.136L414.845 354.635L419.669 352.87ZM421.675 345.863L421.675 352.147L430.321 348.998L421.675 345.863ZM420.71 373.069C418.755 372.84 417.245 372.117 416.178 370.898C415.12 369.688 414.591 368.075 414.591 366.061C414.591 363.877 415.374 362.125 416.94 360.805C418.506 359.493 420.6 358.837 423.224 358.837L425.001 358.837C426.719 358.837 428.23 359.142 429.534 359.751C430.837 360.369 431.836 361.241 432.53 362.367C433.232 363.492 433.583 364.796 433.583 366.277C433.583 368.24 433.033 369.815 431.933 370.999C430.841 372.184 429.326 372.874 427.388 373.069L427.388 370.619C428.861 370.407 429.927 369.946 430.587 369.235C431.247 368.532 431.578 367.546 431.578 366.277C431.578 364.719 431.002 363.496 429.851 362.608C428.7 361.728 427.062 361.287 424.938 361.287L423.148 361.287C421.142 361.287 419.547 361.706 418.362 362.544C417.177 363.382 416.584 364.554 416.584 366.061C416.584 367.415 416.889 368.452 417.498 369.171C418.116 369.899 419.187 370.382 420.71 370.619L420.71 373.069ZM431.324 388.798L431.324 382.857L414.845 382.857L414.845 380.432L431.324 380.432L431.324 374.503L433.329 374.503L433.329 388.798L431.324 388.798Z" fill="white"/>
</g>
<g id="aboutButton">
<g id="about_block" filter="url(#filter1_d)">
<path d="M308.313 362.989L479.303 463.959L251.047 599.543C250.411 595.632 248.632 403.033 248.949 398.506C275.333 400.536 301.65 377.498 308.313 362.989Z" fill="#C4C4C4"/>
<path d="M308.313 362.989L479.303 463.959L251.047 599.543C250.411 595.632 248.632 403.033 248.949 398.506C275.333 400.536 301.65 377.498 308.313 362.989Z" stroke="#EAF6FF" stroke-width="4"/>
</g>
<path id="about" d="M319.39 505.633L313.207 509.244L314.084 513.716L311.201 515.399L307.908 495.917L310.396 494.463L325.759 506.897L322.865 508.587L319.39 505.633ZM312.679 506.553L317.306 503.851L311.125 498.58L312.679 506.553ZM327.579 505.834L318.257 489.872L323.727 486.677C325.532 485.623 327.117 485.182 328.483 485.355C329.848 485.528 330.949 486.331 331.786 487.763C332.212 488.494 332.399 489.267 332.346 490.082C332.293 490.898 331.98 491.688 331.408 492.453C332.407 492.184 333.33 492.237 334.178 492.614C335.029 492.98 335.719 493.616 336.248 494.522C337.123 496.021 337.313 497.453 336.818 498.821C336.33 500.184 335.191 501.388 333.4 502.434L327.579 505.834ZM326.146 497.012L329.059 502L332.14 500.2C333.009 499.692 333.563 499.08 333.801 498.363C334.039 497.646 333.933 496.903 333.485 496.136C332.516 494.477 331.173 494.124 329.457 495.078L326.146 497.012ZM324.955 494.973L327.674 493.385C328.536 492.881 329.095 492.295 329.351 491.626C329.611 490.945 329.531 490.247 329.113 489.53C328.652 488.741 328.092 488.303 327.434 488.217C326.784 488.127 325.983 488.359 325.033 488.914L322.336 490.489L324.955 494.973ZM350.063 482.558C350.977 484.121 351.509 485.653 351.659 487.153C351.806 488.646 351.56 490.004 350.923 491.229C350.289 492.443 349.318 493.431 348.01 494.195C346.716 494.951 345.378 495.311 343.995 495.276C342.615 495.229 341.306 494.783 340.067 493.938C338.836 493.089 337.771 491.903 336.872 490.38L336.347 489.481C335.437 487.924 334.909 486.39 334.761 484.879C334.621 483.363 334.868 481.998 335.502 480.785C336.139 479.56 337.108 478.568 338.409 477.808C339.71 477.048 341.045 476.69 342.413 476.734C343.784 476.766 345.088 477.211 346.323 478.067C347.554 478.916 348.628 480.117 349.544 481.67L350.063 482.558ZM346.803 483.344C345.77 481.576 344.642 480.416 343.419 479.866C342.203 479.312 340.982 479.393 339.754 480.11C338.555 480.81 337.891 481.83 337.762 483.17C337.636 484.498 338.068 486.025 339.056 487.751L339.594 488.672C340.618 490.426 341.75 491.583 342.989 492.144C344.235 492.7 345.465 492.624 346.678 491.915C347.906 491.198 348.575 490.18 348.687 488.86C348.805 487.536 348.34 485.975 347.29 484.177L346.803 483.344ZM359.596 465.728L365.826 476.394C366.816 478.09 367.057 479.753 366.549 481.383C366.043 483.001 364.888 484.337 363.083 485.392C361.256 486.459 359.521 486.82 357.879 486.475C356.233 486.124 354.904 485.082 353.892 483.35L347.669 472.694L350.432 471.081L356.668 481.758C357.291 482.825 358.037 483.482 358.907 483.729C359.776 483.976 360.737 483.792 361.79 483.177C363.924 481.931 364.333 480.182 363.019 477.931L356.834 467.341L359.596 465.728ZM375.406 459.493L370.429 462.4L378.445 476.125L375.693 477.732L367.677 464.007L362.744 466.889L361.438 464.652L374.1 457.257L375.406 459.493Z" fill="white"/>
</g>
<g id="galleryButton">
<g id="gallery_block" filter="url(#filter2_d)">
<path d="M186.02 360.736L16.9493 461.989V193.317C74.6402 228.739 188 297 188 297C173.994 312.539 176.683 348.037 186.02 360.736Z" fill="#C4C4C4"/>
<path d="M186.02 360.736L16.9493 461.989V193.317C74.6402 228.739 188 297 188 297C173.994 312.539 176.683 348.037 186.02 360.736Z" stroke="#EAF6FF" stroke-width="4"/>
</g>
<path id="gallery" d="M65.2188 291.537C64.3217 290.91 63.6489 290.034 63.2003 288.909C62.7602 287.791 62.5401 286.488 62.5401 284.998C62.5401 283.492 62.8914 282.155 63.5938 280.987C64.3048 279.819 65.3119 278.913 66.6153 278.27C67.9187 277.635 69.4295 277.309 71.1476 277.292L72.7599 277.292C75.5444 277.292 77.7026 277.94 79.2345 279.235C80.7664 280.538 81.5323 282.366 81.5323 284.719C81.5323 286.649 81.0372 288.202 80.047 289.378C79.0652 290.555 77.6687 291.274 75.8575 291.537L75.8575 289.099C78.3035 288.642 79.5265 287.186 79.5265 284.732C79.5265 283.098 78.9509 281.859 77.7999 281.012C76.6573 280.174 74.9985 279.751 72.8233 279.743L71.3126 279.743C69.239 279.743 67.5886 280.217 66.3614 281.165C65.1427 282.112 64.5333 283.395 64.5333 285.011C64.5333 285.925 64.6349 286.725 64.838 287.411C65.0411 288.096 65.3839 288.663 65.8663 289.112L70.0177 289.112L70.0177 284.833L71.9981 284.833L71.9981 291.537L65.2188 291.537ZM67.6183 305.819L67.6183 298.075L62.794 296.335L62.794 293.822L81.2784 300.88L81.2784 303.013L62.794 310.084L62.794 307.583L67.6183 305.819ZM69.6241 298.811L69.6241 305.095L78.2696 301.947L69.6241 298.811ZM64.7872 315.023L64.7872 323.783L62.794 323.783L62.794 312.573L81.2784 312.573L81.2784 315.023L64.7872 315.023ZM64.7872 329.013L64.7872 337.773L62.794 337.773L62.794 326.563L81.2784 326.563L81.2784 329.013L64.7872 329.013ZM71.338 351.001L71.338 342.991L64.7872 342.991L64.7872 352.296L62.794 352.296L62.794 340.553L81.2784 340.553L81.2784 352.169L79.2725 352.169L79.2725 342.991L73.3311 342.991L73.3311 351.001L71.338 351.001ZM70.2716 362.11L70.2716 357.768L62.794 357.768L62.794 355.318L81.2784 355.318L81.2784 361.437C81.2784 363.519 80.8044 365.119 79.8565 366.236C78.9086 367.361 77.5291 367.924 75.7179 367.924C74.5668 367.924 73.5639 367.611 72.7091 366.985C71.8543 366.367 71.2153 365.504 70.7921 364.395L62.9464 368.737L62.794 368.737L62.794 366.122L70.2716 362.11ZM72.2647 357.768L72.2647 361.513C72.2647 362.723 72.5779 363.684 73.2042 364.395C73.8305 365.114 74.6684 365.474 75.7179 365.474C76.8604 365.474 77.7364 365.131 78.3458 364.446C78.9552 363.769 79.2641 362.787 79.2725 361.5L79.2725 357.768L72.2647 357.768ZM71.9981 376.379L81.2784 381.204L81.2784 383.971L69.6876 377.598L62.794 377.598L62.794 375.161L69.6876 375.161L81.2784 368.788L81.2784 371.581L71.9981 376.379Z" fill="white"/>
</g>
<g id="projectsButton">
<g id="projects_block" filter="url(#filter3_d)">
<path d="M247.535 395.411L247.535 598.417L17.5797 467.003C20.624 464.466 185.018 364.003 189.077 361.974C195.426 382.196 231.653 397.053 247.535 395.411Z" fill="#C4C4C4"/>
<path d="M247.535 395.411L247.535 598.417L17.5797 467.003C20.624 464.466 185.018 364.003 189.077 361.974C195.426 382.196 231.653 397.053 247.535 395.411Z" stroke="#EAF6FF" stroke-width="4"/>
</g>
<path id="projects" d="M103.277 458.511L99.5899 464.738L97.4925 463.496L106.909 447.591L112.776 451.064C114.516 452.094 115.615 453.345 116.072 454.815C116.537 456.29 116.336 457.76 115.469 459.224C114.555 460.768 113.366 461.672 111.901 461.936C110.448 462.197 108.822 461.795 107.024 460.73L103.277 458.511ZM104.292 456.796L108.061 459.028C109.182 459.692 110.197 459.938 111.105 459.767C112.017 459.589 112.768 459.001 113.359 458.004C113.919 457.057 114.069 456.123 113.808 455.201C113.547 454.279 112.903 453.499 111.874 452.861L107.985 450.558L104.292 456.796ZM121.25 468.872L117.514 466.66L113.704 473.094L111.596 471.846L121.013 455.94L126.278 459.058C128.07 460.119 129.205 461.341 129.683 462.726C130.169 464.115 129.95 465.589 129.028 467.148C128.441 468.138 127.661 468.842 126.686 469.258C125.719 469.679 124.651 469.789 123.481 469.588L123.22 478.551L123.143 478.683L120.892 477.35L121.25 468.872ZM118.529 464.945L121.752 466.853C122.793 467.469 123.779 467.689 124.71 467.513C125.648 467.34 126.385 466.802 126.919 465.899C127.501 464.916 127.653 463.988 127.373 463.114C127.101 462.245 126.414 461.479 125.311 460.816L122.099 458.915L118.529 464.945ZM142.033 479.819C141.11 481.378 140.042 482.584 138.827 483.439C137.617 484.287 136.351 484.732 135.027 484.774C133.704 484.817 132.401 484.459 131.119 483.7C129.867 482.958 128.937 481.995 128.331 480.81C127.728 479.617 127.494 478.293 127.628 476.838C127.773 475.38 128.283 473.896 129.156 472.388L129.835 471.241C130.741 469.711 131.807 468.518 133.032 467.66C134.258 466.802 135.539 466.35 136.874 466.305C138.221 466.256 139.52 466.603 140.773 467.344C142.047 468.099 142.986 469.072 143.588 470.265C144.202 471.454 144.424 472.791 144.254 474.274C144.088 475.749 143.546 477.263 142.628 478.814L142.033 479.819ZM140.554 477.557C141.671 475.671 142.148 474.001 141.986 472.547C141.828 471.087 141.068 469.953 139.706 469.147C138.38 468.362 137.036 468.25 135.672 468.809C134.319 469.366 133.102 470.533 132.019 472.312L131.327 473.481C130.245 475.309 129.776 476.974 129.919 478.475C130.075 479.974 130.826 481.122 132.173 481.919C133.528 482.721 134.868 482.851 136.193 482.307C137.522 481.757 138.743 480.566 139.856 478.737L140.554 477.557ZM156.855 477.161L158.964 478.409L152.295 489.672C151.394 491.194 150.231 492.113 148.804 492.429C147.385 492.75 145.914 492.459 144.392 491.558C142.812 490.623 141.82 489.49 141.418 488.16C141.015 486.829 141.245 485.436 142.107 483.98L144.205 485.221C143.666 486.132 143.493 486.988 143.686 487.791C143.887 488.599 144.461 489.283 145.408 489.843C146.274 490.356 147.135 490.497 147.99 490.266C148.852 490.038 149.578 489.435 150.168 488.457L156.855 477.161ZM166.462 494.401L159.569 490.32L156.232 495.956L164.239 500.697L163.224 502.412L153.119 496.43L162.536 480.524L172.532 486.442L171.51 488.168L163.611 483.492L160.585 488.604L167.478 492.686L166.462 494.401ZM180.523 505.838C179.33 507.404 177.938 508.335 176.346 508.632C174.765 508.926 173.109 508.56 171.375 507.533C169.496 506.421 168.388 504.855 168.049 502.835C167.718 500.819 168.221 498.682 169.557 496.425L170.463 494.895C171.338 493.417 172.37 492.272 173.558 491.461C174.754 490.654 176.013 490.239 177.335 490.215C178.662 490.184 179.962 490.546 181.237 491.301C182.926 492.301 184.001 493.576 184.46 495.127C184.923 496.67 184.745 498.325 183.925 500.092L181.816 498.844C182.385 497.469 182.531 496.316 182.256 495.386C181.987 494.46 181.307 493.673 180.215 493.027C178.875 492.233 177.529 492.105 176.178 492.643C174.834 493.185 173.621 494.37 172.539 496.198L171.627 497.739C170.605 499.465 170.153 501.051 170.27 502.497C170.387 503.944 171.094 505.051 172.391 505.818C173.556 506.508 174.603 506.774 175.533 506.616C176.474 506.455 177.434 505.78 178.414 504.59L180.523 505.838ZM199.465 504.719L194.352 501.692L185.957 515.872L183.871 514.636L192.266 500.457L187.164 497.436L188.186 495.71L200.487 502.993L199.465 504.719ZM202.139 515.877C200.646 514.295 199.71 512.885 199.332 511.648C198.964 510.407 199.108 509.234 199.764 508.127C200.505 506.874 201.616 506.135 203.097 505.91C204.589 505.682 206.137 506.043 207.739 506.991C208.831 507.638 209.679 508.425 210.281 509.352C210.89 510.283 211.208 511.258 211.234 512.277C211.268 513.3 211.023 514.252 210.502 515.133L208.393 513.885C208.963 512.924 209.103 511.989 208.815 511.08C208.53 510.165 207.831 509.377 206.717 508.717C205.683 508.105 204.739 507.856 203.884 507.97C203.042 508.08 202.381 508.54 201.902 509.349C201.519 509.997 201.466 510.708 201.745 511.483C202.036 512.255 202.73 513.217 203.828 514.369C204.934 515.525 205.724 516.549 206.2 517.44C206.687 518.329 206.932 519.177 206.936 519.985C206.946 520.798 206.712 521.609 206.234 522.417C205.47 523.706 204.356 524.443 202.889 524.627C201.427 524.804 199.855 524.395 198.173 523.399C197.08 522.752 196.183 521.941 195.482 520.965C194.786 519.982 194.394 518.973 194.308 517.939C194.23 516.909 194.464 515.931 195.012 515.006L197.12 516.255C196.551 517.216 196.454 518.186 196.828 519.165C197.214 520.141 198.001 520.981 199.188 521.683C200.295 522.339 201.277 522.615 202.134 522.513C202.992 522.411 203.651 521.97 204.112 521.191C204.574 520.412 204.656 519.649 204.36 518.903C204.068 518.15 203.328 517.141 202.139 515.877Z" fill="white"/>
</g>
<path id="Ring2" d="M168.903 283.733L168.856 283.704L168.903 283.733ZM168.903 283.733C178.635 268.136 193.004 255.594 209.799 248.105C227.304 240.301 247.143 238.17 265.916 241.986C283.979 245.659 300.733 254.843 313.6 268.035C318.838 273.408 323.395 279.406 327.175 285.855C325.425 282.507 323.463 279.268 321.301 276.161L168.903 283.733ZM228.486 239.538C240.413 236.989 252.833 236.89 264.792 239.221C252.795 237.002 240.417 237.13 228.486 239.538ZM240.485 422.221C246.802 422.675 253.162 422.503 259.445 421.708C253.159 422.542 246.795 422.71 240.485 422.221Z" fill="#DAA520" stroke="#FFD700" stroke-width="5"/>
<g id="ring1">
<path id="Vector" d="M304 330C304 360.897 278.735 386 247.5 386C216.265 386 191 360.897 191 330C191 299.103 216.265 274 247.5 274C278.735 274 304 299.103 304 330Z" fill="#E03030" stroke="black" stroke-width="8"/>
<path id="Vector_2" d="M317.132 329.398C317.101 343.047 311.936 357.396 303.737 368.569C295.629 379.62 284.263 388.164 271.365 392.842C257.879 397.723 242.921 398.281 229.1 394.446C215.847 390.762 203.842 383.07 194.912 372.608C185.84 361.983 180.117 348.689 178.676 334.787C178.574 333.823 178.493 332.859 178.432 331.895C178.412 331.479 178.381 331.073 178.371 330.657C178.361 330.423 178.351 330.18 178.341 329.946C178.29 328.292 178.209 330.647 178.32 330.829C178.168 330.586 178.351 329.794 178.361 329.49C178.381 329.023 178.402 328.546 178.432 328.079C178.493 327.054 178.584 326.029 178.696 325.015C179.081 321.514 179.721 318.053 180.634 314.654C182.43 307.916 185.261 301.472 188.986 295.576C196.302 284.007 207.028 274.712 219.541 269.141C232.631 263.316 247.467 261.723 261.502 264.554C275.039 267.284 287.612 274.134 297.283 283.997C307.014 293.912 313.631 306.688 316.076 320.367C316.675 323.726 317.122 327.633 317.132 330.758C317.132 331.255 317.122 331.773 317.142 332.27C317.142 332.169 317.132 332.828 317.162 332.524C317.274 331.509 317.182 330.413 317.182 329.398C317.162 321.879 316.35 314.491 314.158 307.276C312.088 300.467 308.953 293.993 304.904 288.138C296.826 276.447 285.187 267.355 271.852 262.413C257.97 257.268 242.505 256.73 228.288 260.87C214.599 264.859 202.32 273.129 193.441 284.261C184.439 295.535 179.163 309.488 178.402 323.888C177.985 331.671 178.219 339.597 179.853 347.238C181.365 354.301 184.003 361.12 187.616 367.371C194.729 379.65 205.608 389.615 218.475 395.602C231.88 401.843 247.193 403.599 261.684 400.646C275.708 397.784 288.667 390.488 298.439 380.046C308.273 369.543 314.676 356.057 316.563 341.789C317.051 338.125 317.182 334.452 317.182 330.768C317.182 329.774 317.355 328.617 317.162 327.643C317.111 327.389 317.142 327.907 317.142 327.897C317.111 328.384 317.132 328.891 317.132 329.398Z" fill="white"/>
</g>
<g id="icon">
<path id="K" d="M303.25 297.25H287.734C283.766 297.25 279.96 298.833 277.17 301.644L256.174 322.741V337.577L277.281 362.308C280.63 366.225 285.521 368.488 290.676 368.488H303.25L271.132 329.51L303.25 297.25Z" fill="white" stroke="#EA996B" stroke-width="0.5" stroke-miterlimit="10"/>
<path id="JH" d="M250.408 341.432C250.233 341.164 250.161 340.849 250.161 340.534V338.384V336.824V327.623C250.161 327.623 250.161 328.789 250.161 322.377C250.161 321.164 250.161 320.226 250.161 319.722C250.161 317.643 252.585 317.013 254.283 316.831C255.199 316.737 255.901 315.988 255.901 315.083V314.917C255.901 313.94 255.104 313.153 254.115 313.153H240.484C239.495 313.153 238.698 313.94 238.698 314.917V321.101C238.698 322.078 237.901 322.865 236.912 322.865H228.167C227.171 322.865 226.374 322.07 226.382 321.085C226.39 320.565 226.39 319.896 226.39 319.029C226.39 316.634 228.701 316.154 230.391 316.122C231.356 316.107 232.129 315.319 232.129 314.358V314.216C232.129 313.239 231.332 312.452 230.344 312.452H210.143C209.155 312.452 208.358 313.239 208.358 314.216V314.602C208.358 315.532 209.091 316.288 210.024 316.359C214.464 316.713 214.257 318.769 214.257 318.769C214.257 318.769 214.257 337.84 214.336 340.715C214.392 342.527 212.208 342.952 210.59 343.015C209.633 343.055 208.892 343.835 208.892 344.772V344.859C208.892 345.835 209.689 346.623 210.678 346.623H214.918C221.264 346.623 226.406 341.542 226.406 335.272V329.167C226.406 328.19 227.203 327.403 228.191 327.403H236.777C237.765 327.403 238.562 328.19 238.562 329.167V340.707C238.562 342.929 236.211 343.386 234.505 343.425C233.54 343.449 232.783 344.236 232.783 345.19C232.783 346.166 233.58 346.954 234.569 346.954H254.267C255.255 346.954 256.052 346.166 256.052 345.19V344.882C256.052 343.937 255.287 343.173 254.33 343.118C251.827 342.992 250.815 342.046 250.408 341.432Z" fill="#FFD700"/>
</g>
<path id="hexagon" d="M117 254.25L249 178L381 254.25V406.75L249 483L117 406.75V254.25Z" stroke="white" stroke-width="0.5" stroke-miterlimit="10"/>
<g id="WB">
<g id="head">
<g id="Group">
<path id="Vector_3" d="M346.393 119.789H346.608V225.019L249.903 172.341L346.393 119.789Z" fill="#FFD700" stroke="#DAA520"/>
<g id="Group_2">
<path id="Vector_4" d="M247.812 172.341L151.3 224.917V119.771L247.812 172.341Z" fill="#FFD700" stroke="#DAA520"/>
</g>
</g>
<path id="rightpanel" d="M366.074 119.441H347.108V225.861H366.074V119.441Z" fill="#E03030"/>
<path id="rightsquare" d="M499 119.441H366.074V225.861H499V119.441Z" fill="#353535"/>
<path id="leftpanel" d="M150.8 119.441H131.833V225.861H150.8V119.441Z" fill="#E03030"/>
<path id="leftsquare" d="M131.833 119.441H-0.35144V225.861H131.833V119.441Z" fill="#353535"/>
</g>
<path id="WEB" d="M53.6928 174.993L56.3724 160.829H60.4603L56.0443 180.735H51.9154L48.6752 167.419L45.4349 180.735H41.306L36.89 160.829H40.9779L43.6713 174.966L46.9525 160.829H50.4252L53.6928 174.993ZM74.6654 172.108H66.7904V177.44H76.0326V180.735H62.6889L62.6889 160.829H76.0053V164.151H66.7904V168.895H74.6654V172.108ZM78.4389 180.735V160.829H85.4115C87.8269 160.829 89.6589 161.294 90.9076 162.223C92.1563 163.144 92.7806 164.497 92.7806 166.284C92.7806 167.259 92.53 168.12 92.0287 168.868C91.5274 169.606 90.8301 170.148 89.9369 170.495C90.9577 170.75 91.7598 171.265 92.3431 172.04C92.9356 172.815 93.2318 173.762 93.2318 174.884C93.2318 176.798 92.6211 178.247 91.3998 179.231C90.1784 180.216 88.4375 180.717 86.1771 180.735H78.4389ZM82.5404 172.067V177.44H86.0541C87.0202 177.44 87.7722 177.212 88.3099 176.757C88.8568 176.292 89.1303 175.654 89.1303 174.842C89.1303 173.02 88.1869 172.094 86.3002 172.067H82.5404ZM82.5404 169.169H85.5756C87.6446 169.132 88.6791 168.307 88.6791 166.694C88.6791 165.792 88.4148 165.145 87.8861 164.753C87.3666 164.352 86.5417 164.151 85.4115 164.151H82.5404V169.169Z" fill="white"/>
<path id="GFX" d="M419.462 178.219C418.724 179.104 417.68 179.792 416.331 180.284C414.982 180.767 413.488 181.009 411.847 181.009C410.124 181.009 408.611 180.635 407.308 179.887C406.014 179.131 405.011 178.037 404.3 176.606C403.598 175.175 403.238 173.494 403.22 171.561V170.208C403.22 168.221 403.553 166.503 404.218 165.053C404.893 163.595 405.859 162.483 407.117 161.717C408.383 160.943 409.865 160.555 411.56 160.555C413.921 160.555 415.766 161.12 417.097 162.251C418.428 163.372 419.216 165.008 419.462 167.159H415.47C415.288 166.02 414.882 165.186 414.253 164.657C413.633 164.128 412.777 163.864 411.683 163.864C410.288 163.864 409.227 164.388 408.497 165.436C407.768 166.484 407.399 168.043 407.39 170.112V171.384C407.39 173.471 407.786 175.048 408.579 176.114C409.372 177.18 410.534 177.714 412.066 177.714C413.606 177.714 414.704 177.385 415.361 176.729V173.298H411.628V170.276H419.462V178.219ZM434.775 172.6H426.9V180.735H422.798V160.829H435.759V164.151H426.9V169.292H434.775V172.6ZM445.261 167.692L448.993 160.829L453.71 160.829L447.913 170.7L453.861 180.735H449.089L445.261 173.762L441.433 180.735H436.661L442.609 170.7L436.812 160.829H441.529L445.261 167.692Z" fill="white"/>
</g>
</g>
</g>
<defs>
<filter id="filter0_d" x="301.26" y="197.038" width="184.663" height="279.404" filterUnits="userSpaceOnUse" color-interpolation-filters="sRGB">
<feFlood flood-opacity="0" result="BackgroundImageFix"/>
<feColorMatrix in="SourceAlpha" type="matrix" values="0 0 0 0 0 0 0 0 0 0 0 0 0 0 0 0 0 0 127 0"/>
<feOffset dy="4"/>
<feGaussianBlur stdDeviation="2"/>
<feColorMatrix type="matrix" values="0 0 0 0 0.0886458 0 0 0 0 0.166942 0 0 0 0 0.191667 0 0 0 0.25 0"/>
<feBlend mode="normal" in2="BackgroundImageFix" result="effect1_dropShadow"/>
<feBlend mode="normal" in="SourceGraphic" in2="effect1_dropShadow" result="shape"/>
</filter>
<filter id="filter1_d" x="242.911" y="360.139" width="244.317" height="250.623" filterUnits="userSpaceOnUse" color-interpolation-filters="sRGB">
<feFlood flood-opacity="0" result="BackgroundImageFix"/>
<feColorMatrix in="SourceAlpha" type="matrix" values="0 0 0 0 0 0 0 0 0 0 0 0 0 0 0 0 0 0 127 0"/>
<feOffset dy="4"/>
<feGaussianBlur stdDeviation="2"/>
<feColorMatrix type="matrix" values="0 0 0 0 0.0886458 0 0 0 0 0.166942 0 0 0 0 0.191667 0 0 0 0.25 0"/>
<feBlend mode="normal" in2="BackgroundImageFix" result="effect1_dropShadow"/>
<feBlend mode="normal" in="SourceGraphic" in2="effect1_dropShadow" result="shape"/>
</filter>
<filter id="filter2_d" x="10.9493" y="189.743" width="184.16" height="283.775" filterUnits="userSpaceOnUse" color-interpolation-filters="sRGB">
<feFlood flood-opacity="0" result="BackgroundImageFix"/>
<feColorMatrix in="SourceAlpha" type="matrix" values="0 0 0 0 0 0 0 0 0 0 0 0 0 0 0 0 0 0 127 0"/>
<feOffset dy="4"/>
<feGaussianBlur stdDeviation="2"/>
<feColorMatrix type="matrix" values="0 0 0 0 0.0886458 0 0 0 0 0.166942 0 0 0 0 0.191667 0 0 0 0.25 0"/>
<feBlend mode="normal" in2="BackgroundImageFix" result="effect1_dropShadow"/>
<feBlend mode="normal" in="SourceGraphic" in2="effect1_dropShadow" result="shape"/>
</filter>
<filter id="filter3_d" x="10.0867" y="359.135" width="243.448" height="250.728" filterUnits="userSpaceOnUse" color-interpolation-filters="sRGB">
<feFlood flood-opacity="0" result="BackgroundImageFix"/>
<feColorMatrix in="SourceAlpha" type="matrix" values="0 0 0 0 0 0 0 0 0 0 0 0 0 0 0 0 0 0 127 0"/>
<feOffset dy="4"/>
<feGaussianBlur stdDeviation="2"/>
<feColorMatrix type="matrix" values="0 0 0 0 0 0 0 0 0 0 0 0 0 0 0 0 0 0 0.25 0"/>
<feBlend mode="normal" in2="BackgroundImageFix" result="effect1_dropShadow"/>
<feBlend mode="normal" in="SourceGraphic" in2="effect1_dropShadow" result="shape"/>
</filter>
<clipPath id="clip0">
<rect width="498.9" height="708.66" fill="white"/>
</clipPath>
</defs>
</svg>
