<svg width="748" height="874" viewBox="0 0 748 874" fill="none" xmlns="http://www.w3.org/2000/svg">
<g id="logo_cd 1">
<g clip-path="url(#clip0)">
<g id="logo cd">
<g id="bottom flap">
<mask id="path-2-inside-1" fill="white">
<path d="M463.723 484.331C490.676 478.74 742.056 646.346 742.056 646.346L371.497 873.997L5.09705 643.853C10.082 639.699 253.676 489.239 273.97 487.753C360.932 593.552 469.539 497.625 463.723 484.331Z"/>
</mask>
<path d="M463.723 484.331C490.676 478.74 742.056 646.346 742.056 646.346L371.497 873.997L5.09705 643.853C10.082 639.699 253.676 489.239 273.97 487.753C360.932 593.552 469.539 497.625 463.723 484.331Z" fill="#FF9900" fill-opacity="0.78" stroke="#EFE66B" stroke-width="8" mask="url(#path-2-inside-1)"/>
</g>
<g id="top flap">
<mask id="path-3-inside-2" fill="white">
<path d="M298.176 395.241L13.676 220.741L7.17603 215.241L391.624 0.490997C391.624 0.490997 716.556 206.612 731.343 215.906C692.343 245.573 509.204 350.882 446.676 388.906C428.35 382.573 389.641 322.266 389.512 324.113C345.574 320.734 309.274 371.077 298.176 395.241Z"/>
</mask>
<path d="M298.176 395.241L13.676 220.741L7.17603 215.241L391.624 0.490997C391.624 0.490997 716.556 206.612 731.343 215.906C692.343 245.573 509.204 350.882 446.676 388.906C428.35 382.573 389.641 322.266 389.512 324.113C345.574 320.734 309.274 371.077 298.176 395.241Z" fill="#FF9900" fill-opacity="0.78" stroke="#EFE66B" stroke-width="8" mask="url(#path-3-inside-2)"/>
</g>
<g id="top group">
<path id="top panel" d="M108.894 276.186C108.894 276.186 240.221 124.54 371.549 124.54C502.877 124.54 634.203 276.186 634.203 276.186L529.343 346.24L371.549 450.24L239.677 381.24L108.894 276.186Z" fill="#151607" stroke="#EFE66B" stroke-width="4"/>
<text id="PROJECTS" fill="white" stroke="#FFF8F8" xml:space="preserve" style="white-space: pre" font-family="Roboto" font-size="40" letter-spacing="0em"><tspan x="282" y="235.172">PROJECTS</tspan></text>
</g>
<g id="bottom group">
<path id="bottom panel" d="M639.176 580.74C639.176 580.74 502.876 737.573 371.548 737.573C240.22 737.573 107.176 581.24 107.176 581.24L213.754 515.873L371.548 378.54L639.176 580.74Z" fill="#151607" stroke="#EFE66B" stroke-width="4"/>
<text id="GALLERY" fill="white" stroke="white" xml:space="preserve" style="white-space: pre" font-family="Roboto" font-size="40" letter-spacing="0em"><tspan x="292.697" y="660.477">GALLERY</tspan></text>
</g>
<g id="Lowest ring">
<path id="Vector 2" d="M369.991 566.904C397.497 566.904 424.385 558.748 447.255 543.466C470.126 528.185 487.951 506.465 498.477 481.053C509.003 455.64 511.757 427.678 506.391 400.7C501.025 373.723 487.779 348.943 468.33 329.493C448.88 310.044 424.1 296.798 397.123 291.432C370.145 286.066 342.183 288.82 316.77 299.346C291.358 309.872 269.638 327.697 254.357 350.568C239.075 373.438 230.919 400.326 230.919 427.832C230.919 464.716 245.572 500.089 271.653 526.17C297.734 552.251 333.107 566.904 369.991 566.904Z" fill="#FF0B0B" stroke="#0A313D" stroke-miterlimit="10"/>
</g>
<g id="right group">
<path id="right panel" d="M476.175 380.149C481.341 375.725 734.869 218.465 734.869 218.465L745.832 642.886C653.748 586.463 471.248 483.16 465.656 478.369C488.012 447.23 478.342 386.907 476.175 380.149Z" fill="#151607" stroke="#EFE66B" stroke-width="4"/>
<text id="FUN" fill="white" stroke="white" xml:space="preserve" style="white-space: pre" font-family="Roboto" font-size="40" letter-spacing="0em"><tspan x="590.842" y="458.393">FUN</tspan></text>
</g>
<g id="left group">
<path id="left panel" d="M272.973 483.105L2.10101 641.307L4.00801 218.24C126.437 286.906 264.725 364.317 270.314 369.107C245.562 402.642 258.069 462.878 272.973 483.105Z" fill="#151607" stroke="#EFE66B" stroke-width="4"/>
<text id="ABOUT" fill="white" stroke="white" xml:space="preserve" style="white-space: pre" font-family="Roboto" font-size="40" letter-spacing="0em"><tspan x="47.394" y="451.393">ABOUT</tspan></text>
</g>
<g id="cross">
<path id="hori" d="M369.984 281.344C369.587 286.933 369.59 569.579 369.594 576.764" stroke="#07383A" stroke-miterlimit="10"/>
<path id="verti" d="M517.411 426.743C511.816 426.441 229.209 431.241 222.025 431.367" stroke="#07383A" stroke-miterlimit="10"/>
</g>
<g id="2n_dring">
<g id="yellow ring">
<path d="M466.451 407.128C465.761 403.19 464.822 399.299 463.641 395.479C459.1 380.923 451.278 367.603 440.778 356.546C430.277 345.489 417.379 336.991 403.076 331.705C389.484 326.7 374.963 324.724 360.528 325.917C346.093 327.109 332.093 331.44 319.506 338.608C306.92 345.775 296.051 355.605 287.66 367.411C279.269 379.217 273.558 392.714 270.927 406.957C271.09 406.29 271.259 405.624 271.434 404.957L466.451 407.128ZM466.452 407.132C462.201 389.504 453.285 373.346 440.638 360.351C426.57 345.948 408.514 336.085 388.793 332.029C368.257 327.877 346.938 330.201 327.779 338.682C309.447 346.901 293.971 360.382 283.318 377.415L466.452 407.132ZM271.436 404.953C273.99 395.229 277.996 385.945 283.318 377.415L271.436 404.953ZM271.965 405.094C274.506 395.423 278.49 386.19 283.783 377.706L283.318 377.415L271.965 405.094ZM268.772 426.579C268.793 425.973 268.824 425.368 268.855 424.753V424.659C268.943 423.167 269.063 421.685 269.217 420.193C269.246 419.915 269.275 419.639 269.307 419.361C269.387 418.638 269.476 417.915 269.573 417.194L269.027 417.136C268.97 417.869 268.92 418.603 268.878 419.336C268.863 419.608 268.847 419.88 268.834 420.152C268.756 421.647 268.699 423.146 268.664 424.647C268.65 425.289 268.639 425.931 268.632 426.572L268.772 426.579ZM268.772 426.579C268.772 426.696 268.754 426.83 268.739 426.979H268.633C268.633 426.846 268.633 426.712 268.633 426.579H268.772ZM271.656 452.213C271.366 450.91 271.104 449.602 270.869 448.288C274.519 463.602 281.703 477.848 291.846 489.888C303.316 503.464 318.178 513.758 334.919 519.722C351.66 525.686 369.683 527.107 387.153 523.841C404.622 520.575 420.914 512.738 434.37 501.128C447.825 489.518 457.964 474.55 463.754 457.747C464.841 454.589 465.789 451.311 466.575 447.981C463.168 466.969 454.321 484.559 441.109 498.616C430.522 509.88 417.453 518.519 402.942 523.847C388.431 529.175 372.877 531.045 357.517 529.309C342.156 527.572 327.412 522.277 314.457 513.844C301.501 505.411 290.691 494.073 282.885 480.73C277.681 471.868 273.893 462.248 271.656 452.217V452.213Z" fill="#FFE017"/>
<path d="M466.452 407.132L271.964 405.098M466.452 407.132C462.201 389.504 453.285 373.346 440.638 360.351C426.57 345.948 408.514 336.085 388.793 332.029C368.257 327.877 346.938 330.201 327.779 338.682C309.447 346.901 293.971 360.382 283.318 377.415M466.452 407.132L283.318 377.415M283.318 377.415L466.453 407.129M283.318 377.415C277.996 385.945 273.99 395.229 271.436 404.953L283.318 377.415ZM283.318 377.415L283.783 377.706C278.49 386.19 274.506 395.423 271.965 405.094M283.318 377.415L271.965 405.094M271.965 405.094L271.435 404.954L271.966 405.093M268.772 426.579C268.793 425.973 268.824 425.368 268.855 424.753V424.659C268.943 423.167 269.063 421.685 269.217 420.193C269.246 419.915 269.275 419.639 269.307 419.361C269.387 418.638 269.476 417.915 269.573 417.194L269.027 417.136C268.97 417.869 268.92 418.603 268.878 419.336C268.863 419.608 268.847 419.88 268.834 420.152C268.756 421.647 268.699 423.146 268.664 424.647C268.65 425.289 268.639 425.931 268.632 426.572L268.772 426.579ZM268.772 426.579C268.772 426.696 268.754 426.83 268.739 426.979H268.633C268.633 426.846 268.633 426.712 268.633 426.579H268.772ZM291.846 489.888C281.703 477.848 274.519 463.602 270.869 448.288C271.104 449.602 271.366 450.91 271.656 452.213V452.217C273.893 462.248 277.681 471.868 282.885 480.73C290.691 494.073 301.501 505.411 314.457 513.844C327.412 522.277 342.156 527.572 357.517 529.309C372.877 531.045 388.431 529.175 402.942 523.847C417.453 518.519 430.522 509.88 441.109 498.616C454.321 484.559 463.168 466.969 466.575 447.981C465.789 451.311 464.841 454.589 463.754 457.747C457.964 474.55 447.825 489.518 434.37 501.128C420.914 512.738 404.622 520.575 387.153 523.841C369.683 527.107 351.66 525.686 334.919 519.722C318.178 513.758 303.316 503.464 291.846 489.888ZM291.846 489.888L292.265 489.534M466.451 407.128C465.761 403.19 464.822 399.299 463.641 395.479C459.1 380.923 451.278 367.603 440.778 356.546C430.277 345.489 417.379 336.991 403.076 331.705C389.484 326.7 374.963 324.724 360.528 325.917C346.093 327.109 332.093 331.44 319.506 338.608C306.92 345.775 296.051 355.605 287.66 367.411C279.269 379.217 273.558 392.714 270.927 406.957C271.09 406.29 271.259 405.624 271.434 404.957L466.451 407.128Z" stroke="#05FF00"/>
</g>
</g>
<g id="1st_ring">
<path id="white circle" d="M368.019 502.885C382.868 502.885 397.383 498.482 409.73 490.232C422.076 481.983 431.699 470.257 437.381 456.539C443.064 442.82 444.55 427.725 441.653 413.161C438.757 398.598 431.606 385.22 421.106 374.721C410.607 364.221 397.229 357.07 382.666 354.174C368.102 351.277 353.007 352.764 339.288 358.446C325.57 364.128 313.844 373.751 305.595 386.097C297.345 398.444 292.942 412.959 292.942 427.808C292.942 447.72 300.852 466.816 314.932 480.895C329.011 494.975 348.107 502.885 368.019 502.885Z" fill="white"/>
<path id="fire ring" d="M442.964 427.084C442.931 441.823 437.353 457.319 428.499 469.384C419.552 481.597 407.118 490.815 392.832 495.827C378.546 500.838 363.077 501.407 348.462 497.459C333.846 493.511 320.768 485.231 310.948 473.708C301.128 462.185 295.027 447.96 293.446 432.903C293.337 431.862 293.249 430.821 293.183 429.78C293.161 429.331 293.128 428.892 293.117 428.443C293.106 428.191 293.095 427.928 293.084 427.676C293.029 425.89 292.942 428.432 293.062 428.629C292.898 428.366 293.095 427.511 293.106 427.182C293.128 426.682 293.15 426.163 293.183 425.659C293.249 424.552 293.347 423.445 293.468 422.35C294.7 411.044 298.501 400.17 304.58 390.559C312.649 377.773 324.395 367.724 338.276 361.73C352.157 355.737 367.525 354.079 382.365 356.974C397.205 359.869 410.824 367.181 421.434 377.952C432.045 388.723 439.153 402.449 441.825 417.331C442.506 421.035 442.888 424.788 442.965 428.553C442.965 429.09 442.954 429.653 442.976 430.186C442.976 430.076 442.965 430.786 442.998 430.46C443.066 429.336 443.073 428.21 443.02 427.085C443.11 419.004 442.01 410.955 439.754 403.195C437.511 395.831 434.139 388.859 429.76 382.527C420.876 369.636 408.179 359.849 393.45 354.54C378.722 349.231 362.701 348.666 347.635 352.924C332.569 357.182 319.214 366.049 309.443 378.282C299.672 390.515 293.976 405.5 293.153 421.134C292.566 429.572 293.093 438.05 294.72 446.35C298.442 463.609 308.134 479 322.09 489.815C336.045 500.63 353.369 506.174 371.011 505.47C388.652 504.767 405.479 497.862 418.53 485.971C431.58 474.08 440.016 457.965 442.353 440.465C442.839 436.517 443.062 432.542 443.022 428.565C443.119 427.442 443.111 426.312 443 425.19C442.945 424.916 442.978 425.475 442.978 425.464C442.942 425.988 442.964 426.536 442.964 427.084Z" fill="#FF9900"/>
</g>
<g id="leters">
<path id="K" d="M429.051 392.322H412.274C410.151 392.322 408.048 392.741 406.088 393.556C404.128 394.372 402.348 395.567 400.851 397.073L378.151 419.886V435.928L400.975 462.669C402.763 464.763 404.984 466.445 407.484 467.598C409.985 468.752 412.705 469.35 415.459 469.351H429.059L394.322 427.202L429.051 392.322Z" fill="#E03030" stroke="#EA996B" stroke-width="0.5" stroke-miterlimit="10"/>
<path id="letterr circle" d="M351.626 467.958C359.632 467.958 367.458 465.584 374.115 461.136C380.772 456.688 385.96 450.366 389.024 442.97C392.088 435.573 392.889 427.434 391.327 419.582C389.765 411.73 385.91 404.517 380.249 398.856C374.588 393.195 367.375 389.34 359.523 387.778C351.671 386.216 343.532 387.018 336.135 390.081C328.739 393.145 322.417 398.333 317.969 404.99C313.521 411.647 311.147 419.473 311.147 427.479C311.147 438.215 315.412 448.511 323.003 456.102C330.594 463.693 340.89 467.958 351.626 467.958Z" fill="black" stroke="#5CC9E2" stroke-width="0.75" stroke-miterlimit="10"/>
<path id="JH" d="M371.913 440.096C371.731 439.806 371.638 439.468 371.646 439.126V416.626C371.646 414.378 374.266 413.696 376.102 413.5C376.576 413.458 377.018 413.241 377.341 412.891C377.664 412.542 377.846 412.085 377.852 411.609V411.43C377.851 411.178 377.8 410.928 377.702 410.696C377.604 410.463 377.462 410.253 377.282 410.075C377.103 409.898 376.89 409.758 376.657 409.663C376.423 409.568 376.173 409.52 375.921 409.522H361.181C360.929 409.52 360.679 409.568 360.445 409.663C360.212 409.758 359.999 409.898 359.82 410.075C359.64 410.253 359.498 410.463 359.4 410.696C359.302 410.928 359.251 411.178 359.25 411.43V418.116C359.249 418.368 359.198 418.618 359.101 418.85C359.003 419.082 358.86 419.293 358.681 419.471C358.502 419.648 358.289 419.788 358.056 419.883C357.822 419.978 357.572 420.026 357.32 420.024H347.863C347.609 420.026 347.358 419.978 347.123 419.882C346.888 419.786 346.675 419.644 346.495 419.465C346.315 419.286 346.173 419.073 346.076 418.839C345.98 418.604 345.931 418.353 345.932 418.099C345.941 417.536 345.941 416.813 345.941 415.876C345.941 413.286 348.441 412.766 350.269 412.732C350.77 412.724 351.247 412.519 351.599 412.163C351.95 411.806 352.147 411.326 352.148 410.825V410.671C352.147 410.419 352.096 410.169 351.999 409.937C351.901 409.705 351.758 409.494 351.579 409.316C351.4 409.139 351.187 408.999 350.954 408.904C350.72 408.809 350.47 408.761 350.218 408.763H328.374C328.122 408.761 327.872 408.809 327.639 408.904C327.406 408.998 327.193 409.138 327.014 409.315C326.835 409.492 326.692 409.702 326.594 409.934C326.496 410.166 326.445 410.415 326.443 410.667V411.084C326.448 411.569 326.636 412.035 326.97 412.387C327.304 412.74 327.759 412.953 328.243 412.984C333.043 413.368 332.82 415.591 332.82 415.591C332.82 415.591 332.82 436.212 332.907 439.321C332.967 441.28 330.607 441.741 328.856 441.809C328.364 441.827 327.897 442.035 327.555 442.389C327.212 442.743 327.02 443.216 327.019 443.709V443.802C327.02 444.054 327.071 444.304 327.169 444.536C327.267 444.769 327.409 444.979 327.589 445.157C327.768 445.334 327.981 445.474 328.214 445.569C328.448 445.664 328.698 445.712 328.95 445.71H333.536C335.158 445.72 336.765 445.41 338.267 444.798C339.769 444.187 341.135 443.285 342.289 442.146C343.442 441.006 344.36 439.65 344.989 438.156C345.619 436.661 345.947 435.058 345.957 433.436V426.836C345.958 426.584 346.009 426.334 346.107 426.102C346.205 425.869 346.347 425.659 346.527 425.481C346.706 425.304 346.919 425.164 347.152 425.069C347.386 424.974 347.636 424.926 347.888 424.928H357.171C357.423 424.926 357.673 424.974 357.907 425.069C358.14 425.164 358.353 425.304 358.532 425.481C358.712 425.659 358.854 425.869 358.952 426.102C359.05 426.334 359.101 426.584 359.102 426.836V439.314C359.102 441.714 356.558 442.214 354.714 442.253C354.217 442.275 353.749 442.491 353.408 442.853C353.068 443.216 352.882 443.697 352.891 444.195C352.9 444.692 353.103 445.166 353.456 445.516C353.81 445.866 354.286 446.065 354.783 446.069H376.083C376.335 446.071 376.585 446.023 376.819 445.928C377.052 445.833 377.265 445.693 377.444 445.516C377.624 445.338 377.766 445.128 377.864 444.895C377.962 444.663 378.013 444.413 378.014 444.161V443.829C378.006 443.334 377.808 442.86 377.462 442.505C377.116 442.151 376.647 441.942 376.152 441.922C373.443 441.782 372.353 440.759 371.913 440.096Z" fill="#FFD700"/>
</g>
</g>
</g>
</g>
<defs>
<clipPath id="clip0">
<rect y="-3" width="747.927" height="880.529" fill="white"/>
</clipPath>
</defs>
</svg>
