<svg xmlns="http://www.w3.org/2000/svg" width="747.927" height="880.529" viewBox="0 0 747.927 880.529">
  <defs>
    <style>
      .cls-1 {
        fill: rgba(57,170,183,0.42);
        stroke-width: 6px;
      }

      .cls-1, .cls-2 {
        stroke: #efe66b;
      }

      .cls-2 {
        fill: #151607;
        stroke-width: 4px;
      }

      .cls-3, .cls-7 {
        fill: #fff;
      }

      .cls-3 {
        stroke: rgba(0,0,0,0);
        font-size: 37px;
        font-family: SegoeUI-Semibold, Segoe UI;
        font-weight: 600;
        letter-spacing: 0.061em;
      }

      .cls-10, .cls-3, .cls-4, .cls-5, .cls-9 {
        stroke-miterlimit: 10;
      }

      .cls-4 {
        fill: #051001;
        stroke: #0a313d;
      }

      .cls-5 {
        fill: none;
        stroke: #07383a;
      }

      .cls-6 {
        fill: #ffe017;
        stroke: red;
      }

      .cls-8 {
        fill: #f90;
      }

      .cls-9 {
        fill: #e03030;
        stroke: #ea996b;
        stroke-width: 0.5px;
      }

      .cls-10 {
        stroke: #5cc9e2;
        stroke-width: 0.75px;
      }

      .cls-11 {
        fill: gold;
      }
    </style>
  </defs>
  <g id="logo_cd" transform="translate(-585.324 -98.76)">
    <path id="bottom_flap" class="cls-1" d="M487.126,496.5c26.953-5.591,278.333,162.015,278.333,162.015L394.9,886.166,28.5,656.022c4.985-4.154,248.579-154.614,268.873-156.1C384.335,605.721,492.942,509.794,487.126,496.5Z" transform="translate(561.921 89.591)"/>
    <path id="top_flap" class="cls-1" d="M312.552,590,28.052,415.5l-6.5-5.5L406,195.25S730.932,401.371,745.719,410.665c-39,29.667-222.139,134.976-284.667,173-18.326-6.333-57.035-66.64-57.164-64.793C359.95,515.493,323.65,565.836,312.552,590Z" transform="translate(570.948 -92.999)"/>
    <g id="top_group">
      <path id="top_panel" class="cls-2" d="M119.13,458.066S250.457,306.42,381.785,306.42,644.439,458.066,644.439,458.066L539.579,528.12l-157.794,104-131.872-69Z" transform="translate(575.088 -80.12)"/>
      <text id="projectsMe" class="cls-3" transform="translate(866.897 351.008)"><tspan x="0" y="0">PROJECTS</tspan></text>
    </g>
    <g id="bottom_group">
      <path id="bottom_panel" class="cls-2" d="M114.157,463.253S250.457,306.42,381.785,306.42,646.157,462.753,646.157,462.753L539.579,528.12,381.785,665.453Z" transform="translate(1338.657 1145.753) rotate(180)"/>
      <text id="galleryMe" class="cls-3" transform="translate(878.021 737.065)"><tspan x="0" y="0">GALLERY</tspan></text>
    </g>
    <g id="Lowest_ring" transform="translate(816.243 390.52)">
      <path id="Vector_2" class="cls-4" d="M299.782,647.414A139.072,139.072,0,1,0,160.71,508.342,139.073,139.073,0,0,0,299.782,647.414Z" transform="translate(-160.71 -369.27)"/>
    </g>
    <g id="right_group">
      <path id="right_panel" class="cls-2" d="M317.627,486.934c5.166-4.424,258.694-161.684,258.694-161.684l10.963,424.421C495.2,693.248,312.7,589.945,307.108,585.154,329.464,554.015,319.794,493.692,317.627,486.934Z" transform="translate(743.872 -5.025)"/>
      <text id="funMe" class="cls-3" transform="translate(1176.166 534.981)"><tspan x="0" y="0">FUN</tspan></text>
    </g>
    <g id="left_group">
      <path id="left_panel" class="cls-2" d="M289.072,589.088,18.2,747.29l1.907-423.067C142.536,392.889,280.824,470.3,286.413,475.09,261.661,508.625,274.168,568.861,289.072,589.088Z" transform="translate(569.225 -4.223)"/>
      <text id="aboutMe" class="cls-3" transform="translate(632.718 527.981)"><tspan x="0" y="0">ABOUT</tspan></text>
    </g>
    <g id="cross" transform="translate(807.411 382.104)">
      <path id="hori" class="cls-5" d="M0,0C3.743,4.17,206.97,200.609,212.139,205.6" transform="matrix(0.695, 0.719, -0.719, 0.695, 147.897, 1)"/>
      <path id="verti" class="cls-5" d="M0,0C3.743,4.17,206.97,200.609,212.139,205.6" transform="translate(295.324 146.399) rotate(135)"/>
    </g>
    <g id="_2n_dring" data-name="2n_dring" transform="translate(853.955 427.368)">
      <path id="yellow_ring" class="cls-6" d="M354.133,444.742a94.939,94.939,0,0,0-2.81-11.649,99.616,99.616,0,0,0-60.565-63.774h0a99.441,99.441,0,0,0-132.149,75.252q.244-1,.507-2m195.018,2.175-194.488-2.034m194.488,2.034a101.035,101.035,0,0,0-25.814-46.781h0a100.88,100.88,0,0,0-51.845-28.322h0a101.19,101.19,0,0,0-61.014,6.653h0A101.34,101.34,0,0,0,171,415.029m183.135,29.714L171,415.029m-11.883,27.539.53.14m-.53-.14s0,0,0,0l.531.139m-.53-.14A100,100,0,0,1,171,415.029m-11.353,27.679a99.483,99.483,0,0,1,11.818-27.388l-.465-.291h0m-14.546,49.164c.021-.606.052-1.211.083-1.826l0-.094c.088-1.492.208-2.974.362-4.466.029-.278.058-.554.09-.832q.12-1.085.266-2.167l-.546-.058q-.086,1.1-.149,2.2c-.015.272-.031.544-.044.816h0q-.117,2.243-.17,4.495h0q-.021.963-.032,1.925Zm0,0c0,.117-.018.251-.033.4l-.106,0q0-.2,0-.4Zm2.884,25.634q-.435-1.954-.787-3.925a100.863,100.863,0,0,0,20.977,41.6l.419-.354-.419.354a100.571,100.571,0,0,0,171.908-32.141c1.087-3.158,2.035-6.436,2.821-9.766a99.623,99.623,0,0,1-25.466,50.635h0a99.4,99.4,0,0,1-158.224-17.886h0a98.765,98.765,0,0,1-11.229-28.513Z" transform="translate(-156.313 -363.222)"/>
    </g>
    <g id="_1st_ring" data-name="1st_ring" transform="translate(879.181 451.765)">
      <path id="white_circle" class="cls-7" d="M254.457,538.094a75.077,75.077,0,1,0-75.077-75.077A75.077,75.077,0,0,0,254.457,538.094Z" transform="translate(-179.295 -385.214)"/>
      <path id="fire_ring" class="cls-8" d="M329.311,462.433c-.033,14.739-5.611,30.235-14.465,42.3a74.978,74.978,0,0,1-135.053-36.481q-.164-1.562-.263-3.123c-.022-.449-.055-.888-.066-1.337-.011-.252-.022-.515-.033-.767-.055-1.786-.142.756-.022.953-.164-.263.033-1.118.044-1.447.022-.5.044-1.019.077-1.523.066-1.107.164-2.214.285-3.309a74.591,74.591,0,0,1,11.112-31.791A75,75,0,0,1,328.172,452.68a69.961,69.961,0,0,1,1.14,11.222c0,.537-.011,1.1.011,1.633,0-.11-.011.6.022.274a31.521,31.521,0,0,0,.022-3.375,82.283,82.283,0,0,0-3.266-23.89,74.5,74.5,0,0,0-9.994-20.668A74.976,74.976,0,0,0,179.5,456.483a96.3,96.3,0,0,0,1.567,25.216A74.989,74.989,0,0,0,328.7,475.814a90.068,90.068,0,0,0,.669-11.9,18.267,18.267,0,0,0-.022-3.375c-.055-.274-.022.285-.022.274C329.289,461.337,329.311,461.885,329.311,462.433Z" transform="translate(-179.204 -385.354)"/>
    </g>
    <g id="leters" transform="translate(896.471 488.76)">
      <path id="K" class="cls-9" d="M307.023,424.02H290.246a16.1,16.1,0,0,0-11.423,4.751l-22.7,22.813v16.042l22.824,26.741a19.059,19.059,0,0,0,14.484,6.682h13.6L272.294,458.9Z" transform="translate(-189.119 -418.698)"/>
      <path id="letterr_circle" class="cls-10" d="M235.539,500.128a40.479,40.479,0,1,0-40.479-40.479A40.479,40.479,0,0,0,235.539,500.128Z" transform="translate(-195.06 -419.17)"/>
      <path id="JH" class="cls-11" d="M254.47,470.337a1.752,1.752,0,0,1-.267-.97v-22.5c0-2.248,2.62-2.93,4.456-3.126a1.921,1.921,0,0,0,1.75-1.891v-.179a1.917,1.917,0,0,0-1.931-1.908h-14.74a1.917,1.917,0,0,0-1.931,1.908v6.686a1.916,1.916,0,0,1-1.93,1.908H230.42a1.915,1.915,0,0,1-1.931-1.925c.009-.563.009-1.286.009-2.223,0-2.59,2.5-3.11,4.328-3.144a1.91,1.91,0,0,0,1.879-1.907v-.154a1.916,1.916,0,0,0-1.93-1.908H210.931A1.917,1.917,0,0,0,209,440.908v.417a1.924,1.924,0,0,0,1.8,1.9c4.8.384,4.577,2.607,4.577,2.607s0,20.621.087,23.73c.06,1.959-2.3,2.42-4.051,2.488a1.906,1.906,0,0,0-1.837,1.9v.093a1.917,1.917,0,0,0,1.931,1.908h4.586a12.347,12.347,0,0,0,12.421-12.274v-6.6a1.917,1.917,0,0,1,1.931-1.908h9.283a1.917,1.917,0,0,1,1.931,1.908v12.478c0,2.4-2.544,2.9-4.388,2.939a1.909,1.909,0,0,0,.069,3.816h21.3a1.917,1.917,0,0,0,1.931-1.908v-.332a1.941,1.941,0,0,0-1.862-1.907C256,472.023,254.91,471,254.47,470.337Z" transform="translate(-193.704 -417.241)"/>
    </g>
  </g>
</svg>
