<svg xmlns="http://www.w3.org/2000/svg" viewBox="0 0 498.9 708.7"><style type="text/css">  
	.st0{fill:#B5C1C6;}
	.st1{font-family:&#39;MrsEavesRoman&#39;;}
	.st2{font-size:21.0669px;}
	.st3{fill:#525556;}
	.st4{font-size:21.3295px;}
	.st5{fill:#9FAAAA;}
	.st6{font-family:&#39;Neou-Bold&#39;;}
	.st7{font-size:33.0607px;}
	.st8{fill:none;stroke:#FFFFFF;stroke-miterlimit:10;}
	.st9{display:none;fill:#262526;stroke:#3A3F44;stroke-width:0.5;stroke-miterlimit:10;}
	.st10{display:none;stroke:#FFFFFF;stroke-miterlimit:10;}
	.st11{display:none;}
	.st12{display:inline;fill:#FFFFFF;stroke:#FFFFFF;stroke-width:2;stroke-miterlimit:10;}
	.st13{fill:none;stroke:#FFFFFF;stroke-width:0.5;stroke-miterlimit:10;}
	.st14{fill:#868687;}
	.st15{fill:#4A484A;}
	.st16{fill:#353535;}
	.st17{fill:#FFFFFF;}
	.st18{fill:none;stroke:#939598;stroke-miterlimit:10;}
	.st19{fill:none;stroke:#000000;stroke-width:9;stroke-miterlimit:10;}
	.st20{fill:#D1D3D4;}
	.st21{font-family:&#39;SouvenirStd-Light&#39;;}
	.st22{font-size:52.2916px;}
	.st23{font-family:&#39;TabarraShadow&#39;;}
	.st24{font-size:75.9473px;}
	.st25{letter-spacing:1.02;}
	.st26{font-size:70.9671px;}
	.st27{fill:none;stroke:#FFFFFF;stroke-width:0.25;stroke-miterlimit:10;}
</style><text transform="matrix(1 0 0 1 143.8379 83.4121)" class="st0 st1 st2">  FRONTEND DEVELOPER</text><text transform="matrix(1 0 0 1 227.873 39.3013)" class="st3 st1 st4">  2020</text><text transform="matrix(1 0 0 1 55.3145 126.5273)" class="st5 st6 st7">  OMPHALUS HARKIE KUA</text><polyline class="st8" points="476.6 326 250.8 456.4 24.9 326 "/><polygon class="st9" points="3.6 299.4 249.5 157.4 495.4 299.4 495.4 583.3 249.5 725.3 3.6 583.3 "/><polygon class="st10" points="23.6 311 249.5 180.5 475.4 311 475.4 571.8 249.5 702.2 23.6 571.8 "/><g class="st11"><line class="st12" x1="355.2" y1="501.4" x2="139.3" y2="381.1"/><line class="st12" x1="356.1" y1="382.5" x2="138.8" y2="500.3"/></g><polygon class="st13" points="119.1 381.4 249 306.4 378.8 381.4 378.8 531.3 249 606.3 119.1 531.3 "/><polygon class="st14" points="345.7 353.7 345.7 248.7 344.9 248.7 248.9 300.9 "/><polygon class="st14" points="248.9 300.9 152.9 248.7 152.3 248.6 152.3 353.6 "/><rect x="345.7" y="248.8" class="st15" width="18.7" height="104.9"/><rect x="364.4" y="248.8" class="st16" width="131" height="104.9"/><rect x="133.6" y="248.8" class="st15" width="18.7" height="104.9"/><rect x="3.3" y="248.8" class="st16" width="130.3" height="104.9"/><circle class="st17" cx="247.8" cy="456.4" r="87.1"/><path d="M255.9 486.8v-3.2 -14.8 -11.7c0 0 0-18 0-26.1 0-1.5 0-2.7 0-3.4 0-4.1 7.2-3.7 7.2-3.7v-4.6h-21.6v31.8H226c0 0 0.1-18.7 0.1-23.5 0-4.8 7.2-3.5 7.2-3.5v-4.8h-29.8v4.9c7.7-0.1 7.4 3.1 7.4 3.1s0 56 0.1 59.6c0.1 3.7-6.8 2.9-6.8 2.9v4.6h22v-37.6h15.3c0 0 0 25.2 0 29.7s-7.2 3.3-7.2 3.3v4.6h29.2v-4.9C256.6 490.1 255.9 486.8 255.9 486.8z"/><polygon points="294.7 435.8 276.8 435.8 255.9 456.8 255.9 469 277.7 494.5 294.7 494.5 268.2 462.3 "/><circle class="st18" cx="247.5" cy="456.4" r="91.1"/><circle class="st19" cx="247.8" cy="456.4" r="68.4"/><line class="st8" x1="322.7" y1="499.9" x2="476.6" y2="588.7"/><line class="st8" x1="24.9" y1="588.7" x2="183.3" y2="497.3"/><text transform="matrix(1 0 0 1 224.4932 663.375)" class="st20 st21 st22">   &amp; </text><text transform="matrix(0.9833 0 0 1 383.6279 328.5283)" class="st20 st23 st24 st25">  UI</text><text transform="matrix(0.9833 0 0 1 8.1787 328.5283)" class="st20 st23 st24 st25">  UX</text><path class="st20" d="M437.1 384.8c0.3 1.8 0.5 4 0.5 6.4 0 4.3-1 7.4-3 9.5 -1.9 2.1-4.7 3.3-8.5 3.3 -3.9 0-7-1.2-9.2-3.4 -2.2-2.2-3.4-5.8-3.4-10.3 0-2.1 0.1-3.9 0.3-5.5H437.1zM416.1 387.8c-0.1 0.8-0.2 1.9-0.2 3.1 0 6.4 3.7 9.9 10.1 9.9 5.6 0 9.2-3.1 9.2-9.4 0-1.6-0.1-2.7-0.3-3.5H416.1z"/><path class="st20" d="M421.6 410.5c-4.2 0.1-5.9 2.7-5.9 5.8 0 2.2 0.4 3.5 0.9 4.6l-2.2 0.5c-0.5-1.1-1.1-2.9-1.1-5.6 0-5.2 3.5-8.2 8.6-8.2 5.1 0 9.2 3 9.2 7.9 0 5.5-4.9 6.9-8 6.9 -0.6 0-1.1-0.1-1.4-0.1V410.5zM423.8 419.4c2 0 5-0.8 5-4.2 0-3.1-2.9-4.4-5-4.7V419.4z"/><path class="st20" d="M416.8 426.6c-0.6 0.9-1.2 2.5-1.2 4 0 2.2 1.1 3.3 2.5 3.3 1.5 0 2.3-0.9 3.1-3.1 1.1-3 2.8-4.4 4.8-4.4 2.7 0 5 2.2 5 5.8 0 1.7-0.5 3.2-1 4.1l-2.2-0.8c0.4-0.7 1-1.9 1-3.4 0-1.8-1.1-2.8-2.3-2.8 -1.4 0-2 1-2.9 3.2 -1.1 2.9-2.6 4.4-5.1 4.4 -3 0-5.1-2.3-5.1-6.3 0-1.8 0.5-3.5 1.2-4.7L416.8 426.6z"/><path class="st20" d="M413.7 441.5h17v3h-17V441.5zM435.5 444.9c-1.1 0-1.9-0.7-1.9-1.9 0-1.1 0.8-1.8 1.9-1.8 1.1 0 1.9 0.8 1.9 1.9C437.4 444.2 436.6 444.9 435.5 444.9z"/><path class="st20" d="M430.7 464.9c-1.2-0.1-2.6-0.1-4.7-0.1h-9.9c-3.9 0-6.3-0.8-7.8-2.4 -1.5-1.6-2-4-2-6.1 0-2 0.5-4.2 1.4-5.6l2.4 0.8c-0.7 1.1-1.3 2.8-1.3 4.9 0 3.1 1.7 5.4 6 5.4h1.9v-0.1c-1.6-0.9-2.8-2.7-2.8-5.3 0-4.1 3.6-7.1 8.3-7.1 5.8 0 9 3.7 9 7.5 0 2.9-1.5 4.5-3 5.2v0.1l2.6 0.1V464.9zM424 461.8c0.5 0 1 0 1.4-0.2 1.8-0.5 3.3-2 3.3-4.3 0-2.9-2.5-5-6.4-5 -3.3 0-6.1 1.7-6.1 5 0 1.9 1.2 3.6 3.2 4.2 0.5 0.2 1.1 0.2 1.7 0.2H424z"/><path class="st20" d="M426.1 470.5c1.8 0 3.2 0 4.6-0.1v2.7l-2.8 0.2v0.1c1.6 0.8 3.2 2.8 3.2 5.5 0 2.3-1.4 5.9-7.2 5.9h-10.2v-3h9.8c2.7 0 5-1 5-3.9 0-2-1.4-3.6-3.2-4.1 -0.4-0.1-0.9-0.2-1.4-0.2h-10.2v-3H426.1z"/><path class="st20" d="M421.6 492.3c-4.2 0.1-5.9 2.7-5.9 5.8 0 2.2 0.4 3.5 0.9 4.6l-2.2 0.5c-0.5-1.1-1.1-2.9-1.1-5.6 0-5.2 3.5-8.2 8.6-8.2 5.1 0 9.2 3 9.2 7.9 0 5.5-4.9 6.9-8 6.9 -0.6 0-1.1-0.1-1.4-0.1V492.3zM423.8 501.2c2 0 5-0.8 5-4.2 0-3.1-2.9-4.4-5-4.7V501.2z"/><path class="st20" d="M425.4 508.8c2 0 3.7 0 5.3-0.1v2.7l-3.3 0.1v0.1c2.3 0.8 3.7 2.6 3.7 4.6 0 0.4 0 0.6-0.1 0.9h-2.9c0.1-0.3 0.1-0.6 0.1-1 0-2.1-1.6-3.7-4-4.1 -0.4-0.1-0.9-0.1-1.4-0.1h-9.1v-3H425.4z"/><path class="st20" d="M325.1 625.1c-0.9 1.1-2.7 3.2-5.4 4.8 -3 1.8-6 2.6-9.1 1.9 -2.7-0.6-5.4-2.7-7.4-5.8 -3.6-6.1-2.3-13 4.4-17 2.3-1.4 4.4-2 5.5-2.1l0.7 2.5c-1.4 0.2-2.9 0.6-4.9 1.8 -4.8 3-6.1 7.9-3 13 3.1 5.1 8 6.3 12.7 3.5 1.7-1 2.7-2 3.1-2.6l-3.7-6 -4 2.5 -1.3-2.1 6.6-4L325.1 625.1z"/><path class="st20" d="M324.2 613.2c-1-1.7-2-3.2-2.9-4.5l2.3-1.4 1.8 2.8 0.1-0.1c-0.5-2.3 0.3-4.5 2-5.6 0.3-0.2 0.5-0.3 0.8-0.4l1.5 2.5c-0.3 0.1-0.6 0.2-0.9 0.5 -1.8 1.1-2.3 3.3-1.4 5.5 0.2 0.4 0.4 0.9 0.6 1.3l4.7 7.8 -2.6 1.6L324.2 613.2z"/><path class="st20" d="M348.4 612.1l-1.3-1.7 -0.1 0.1c-0.1 1.6-1 3.6-3.1 4.8 -2.9 1.8-5.6 0.6-6.9-1.5 -2.1-3.5-0.2-7.3 5.3-10.6l-0.2-0.3c-0.7-1.2-2.4-3.2-5.3-1.4 -1.3 0.8-2.5 2.1-3.1 3.4l-1.6-1.4c0.7-1.5 2.1-3.1 3.9-4.1 4.4-2.7 7.3-0.3 9.1 2.6l3.3 5.4c0.8 1.3 1.6 2.5 2.4 3.3L348.4 612.1zM343.5 604.9c-2.9 1.7-5.8 4.1-4.1 7 1 1.7 2.7 1.8 4 1 1.9-1.1 2.3-3.1 2-4.5 -0.1-0.3-0.2-0.7-0.4-0.9L343.5 604.9z"/><path class="st20" d="M355.8 607.7l-7.6-12.5 -2 1.2 -1.2-2 2-1.2 -0.5-0.8c-2.3-3.8-1.6-7.7 2.4-10.1 1.3-0.8 3.2-1.3 4.2-1.2l0.5 2.5c-0.9-0.1-2.3 0.2-3.5 1 -2.7 1.7-2.4 4.1-0.9 6.4l0.4 0.7 8.3-5.1 8.9 14.6 -2.6 1.6 -7.6-12.5 -5.7 3.5 7.6 12.5L355.8 607.7z"/><path class="st20" d="M364.1 582.7l3.9 1.9c1 0.5 1.9 1 2.9 1.5l0.1 0c-0.1-1.2 0-2.2 0-3.3l0.1-4.3 2.8-1.7 -0.6 10 9.6 4.5 -3 1.8 -4.1-2c-1.1-0.5-2-1-3.1-1.6l-0.1 0c0.1 1.2 0 2.3 0 3.4l-0.1 4.5 -2.9 1.8 0.6-10.5 -9.2-4.2L364.1 582.7z"/><path class="st20" d="M84.4 382.1c0.3 1.8 0.5 4 0.5 6.4 0 4.3-1 7.4-3 9.5 -1.9 2.1-4.7 3.3-8.5 3.3 -3.9 0-7-1.2-9.2-3.4 -2.2-2.2-3.4-5.8-3.4-10.3 0-2.1 0.1-3.9 0.3-5.5H84.4zM63.4 385.1c-0.1 0.8-0.2 1.9-0.2 3.1 0 6.4 3.7 9.9 10.1 9.9 5.6 0 9.2-3.1 9.2-9.4 0-1.6-0.1-2.7-0.3-3.5H63.4z"/><path class="st20" d="M69 407.8c-4.2 0.1-5.9 2.7-5.9 5.8 0 2.2 0.4 3.5 0.9 4.6l-2.2 0.5c-0.5-1.1-1.1-2.9-1.1-5.6 0-5.2 3.5-8.2 8.6-8.2s9.2 3 9.2 7.9c0 5.5-4.9 6.9-8 6.9 -0.6 0-1.1-0.1-1.4-0.1V407.8zM71.2 416.7c2 0 5-0.8 5-4.2 0-3.1-2.9-4.4-5-4.7V416.7z"/><path class="st20" d="M78 425.4l-9.6 3.3c-1.5 0.6-3 1-4.4 1.4v0.1c1.4 0.4 2.8 0.9 4.4 1.4l9.6 3.3v3.2L61 431.5v-2.9l17-6.4V425.4z"/><path class="st20" d="M69 443.1c-4.2 0.1-5.9 2.7-5.9 5.8 0 2.2 0.4 3.5 0.9 4.6l-2.2 0.5c-0.5-1.1-1.1-2.9-1.1-5.6 0-5.2 3.5-8.2 8.6-8.2s9.2 3 9.2 7.9c0 5.5-4.9 6.9-8 6.9 -0.6 0-1.1-0.1-1.4-0.1V443.1zM71.2 452c2 0 5-0.8 5-4.2 0-3.1-2.9-4.4-5-4.7V452z"/><path class="st20" d="M86 459.6v3H61v-3H86z"/><path class="st20" d="M69.7 483.8c-6.3 0-9-4.3-9-8.3 0-4.5 3.4-8 8.8-8 5.7 0 9 3.7 9 8.3C78.4 480.6 74.9 483.8 69.7 483.8zM69.5 470.5c-3.7 0-6.5 2.1-6.5 5.1 0 2.9 2.8 5.1 6.6 5.1 2.9 0 6.5-1.4 6.5-5C76.1 472.1 72.7 470.5 69.5 470.5z"/><path class="st20" d="M72.5 488.5c2.2 0 3.9-0.1 5.6-0.1v2.7l-2.9 0.1v0.1c2.1 1.3 3.3 3.2 3.3 6 0 4.1-3.5 7.1-8.7 7.1 -6.1 0-9.1-3.7-9.1-7.6 0-2.2 1-4.1 2.7-5.2v-0.1h-9.2v-3H72.5zM67.9 491.5c-0.5 0-0.9 0.1-1.3 0.1 -2.1 0.6-3.6 2.4-3.6 4.6 0 3.2 2.7 5.1 6.6 5.1 3.4 0 6.3-1.8 6.3-5 0-2.1-1.5-4-3.8-4.6 -0.4-0.1-0.8-0.2-1.3-0.2H67.9z"/><path class="st20" d="M69 510.8c-4.2 0.1-5.9 2.7-5.9 5.8 0 2.2 0.4 3.5 0.9 4.6l-2.2 0.5c-0.5-1.1-1.1-2.9-1.1-5.6 0-5.2 3.5-8.2 8.6-8.2s9.2 3 9.2 7.9c0 5.5-4.9 6.9-8 6.9 -0.6 0-1.1-0.1-1.4-0.1V510.8zM71.2 519.7c2 0 5-0.8 5-4.2 0-3.1-2.9-4.4-5-4.7V519.7z"/><path class="st20" d="M72.7 527.3c2 0 3.7 0 5.3-0.1v2.7l-3.3 0.1v0.1c2.3 0.8 3.7 2.6 3.7 4.6 0 0.4 0 0.6-0.1 0.9h-2.9c0.1-0.3 0.1-0.6 0.1-1 0-2.1-1.6-3.7-4-4.1 -0.4-0.1-0.9-0.1-1.4-0.1H61v-3H72.7z"/><path class="st20" d="M123 601.1l6.7-23.5 2.8 1.6 -3.6 11.8c-0.9 2.9-1.8 5.8-2.6 8l0.1 0c1.5-1.9 3.5-3.9 5.8-6.2l8.7-8.8 2.7 1.6 -3.5 11.9c-0.8 2.8-1.7 5.5-2.6 7.9l0.1 0c1.7-2 3.6-4 5.7-6.2l8.6-8.8 2.7 1.5 -17.5 17.3 -2.7-1.6 3.6-12.2c0.9-3 1.6-5.2 2.5-7.5l-0.1 0c-1.5 1.8-3.1 3.6-5.4 5.8l-9 9.1L123 601.1z"/><path class="st20" d="M150.2 607.5c-2 3.7-0.6 6.5 2 8 1.9 1.1 3.2 1.4 4.5 1.6l-0.6 2.2c-1.2-0.1-3-0.5-5.4-1.9 -4.5-2.6-5.4-7.1-2.9-11.5 2.6-4.4 7.2-6.5 11.4-4 4.7 2.7 3.6 7.7 2 10.4 -0.3 0.6-0.6 0.9-0.8 1.2L150.2 607.5zM159 610c1-1.7 1.8-4.8-1.1-6.5 -2.7-1.5-5.3 0.3-6.6 2L159 610z"/><path class="st20" d="M160.4 622.6c0.6-1 1.6-2.4 2.3-3.7l10.3-17.8 2.6 1.5 -5.3 9.3 0.1 0c1.9-1.1 4.2-1.2 6.5 0.1 3.6 2.1 4.4 6.6 1.8 11.1 -3 5.3-7.8 6-11 4.2 -2.1-1.2-3.3-3-3.3-5.6l-0.1 0 -1.5 2.4L160.4 622.6zM166.5 618.2c-0.2 0.3-0.3 0.7-0.4 1.1 -0.6 2.2 0.2 4.3 2.2 5.4 2.8 1.6 5.7 0.3 7.7-3.1 1.7-3 1.7-6.3-1.2-8 -1.8-1-4.2-0.7-5.9 1 -0.2 0.3-0.5 0.6-0.8 1L166.5 618.2z"/><text transform="matrix(1 0 0 1 215.9512 274.7686)" class="st20 st21 st26">   &amp; </text><line class="st27" x1="276.8" y1="39.3" x2="310.6" y2="39.3"/><line class="st27" x1="188.5" y1="39.3" x2="222.3" y2="39.3"/></svg>