<svg width="499" height="785" viewBox="0 0 499 785" fill="none" xmlns="http://www.w3.org/2000/svg">
<g id="newSVG_frame">
<g clip-path="url(#clip0)">
<g id="CONNECT" filter="url(#filter0_d)">
<path d="M308.5 424L476.5 328.5L476.5 589.5C418.833 554.167 310.5 492 307 489C321 473.5 317.833 436.667 308.5 424Z" fill="#C4C4C4"/>
<path d="M308.5 424L476.5 328.5L476.5 589.5C418.833 554.167 310.5 492 307 489C321 473.5 317.833 436.667 308.5 424Z" stroke="#EAF6FF" stroke-width="4"/>
</g>
<g id="LIFE" filter="url(#filter1_d)">
<path d="M188 489.5L19 590.5V322.5C76.6667 357.833 185 420 188.5 423C174.5 438.5 178.667 476.833 188 489.5Z" fill="#C4C4C4"/>
<path d="M188 489.5L19 590.5V322.5C76.6667 357.833 185 420 188.5 423C174.5 438.5 178.667 476.833 188 489.5Z" stroke="#EAF6FF" stroke-width="4"/>
</g>
<g id="PRO" filter="url(#filter2_d)">
<path d="M247.607 522.95L247.607 723L21 593.5C24 591 186 492 190 490C196.256 509.927 231.956 524.568 247.607 522.95Z" fill="#C4C4C4"/>
<path d="M247.607 522.95L247.607 723L21 593.5C24 591 186 492 190 490C196.256 509.927 231.956 524.568 247.607 522.95Z" stroke="#EAF6FF" stroke-width="4"/>
</g>
<path id="TOP2" d="M252.285 389L252.285 193.882L478.891 323.382C475.891 325.882 311.5 422.5 307.5 424.5C301.244 404.572 267.935 387.382 252.285 389Z" fill="#C4C4C4" stroke="#F0EDED"/>
<g id="ABOUT" filter="url(#filter3_d)">
<path d="M307.5 491L476 590.5L251.068 724.11C250.441 720.255 248.688 530.461 249 526C275 528 300.934 505.298 307.5 491Z" fill="#C4C4C4"/>
<path d="M307.5 491L476 590.5L251.068 724.11C250.441 720.255 248.688 530.461 249 526C275 528 300.934 505.298 307.5 491Z" stroke="#EAF6FF" stroke-width="4"/>
</g>
<path id="TOP1" d="M193.391 425.882L24.8913 326.382L249.824 192.772C250.45 196.627 252.204 386.421 251.891 390.882C225.891 388.882 199.958 411.584 193.391 425.882Z" fill="#C4C4C4" stroke="#F0EDED"/>
<g id="web-dev">
<path id="FRONTEND DEVELOPER" d="M153.836 75.7309H147.551V82.3452H145.576V67.368H154.855V68.9932H147.551V74.116H153.836V75.7309ZM162.714 76.2864H159.196V82.3452H157.21V67.368H162.169C163.856 67.368 165.152 67.752 166.057 68.5201C166.969 69.2881 167.425 70.4059 167.425 71.8735C167.425 72.8061 167.171 73.6188 166.664 74.3114C166.163 75.004 165.464 75.5218 164.565 75.8647L168.083 82.2218V82.3452H165.964L162.714 76.2864ZM159.196 74.6714H162.23C163.211 74.6714 163.989 74.4177 164.565 73.9102C165.148 73.4028 165.44 72.7238 165.44 71.8735C165.44 70.9477 165.162 70.2379 164.606 69.7442C164.058 69.2504 163.262 69.0001 162.22 68.9932H159.196V74.6714ZM181.723 75.3401C181.723 76.8076 181.476 78.09 180.983 79.1872C180.489 80.2776 179.789 81.1108 178.884 81.6869C177.979 82.2629 176.923 82.5509 175.716 82.5509C174.536 82.5509 173.491 82.2629 172.579 81.6869C171.667 81.104 170.957 80.2776 170.449 79.2078C169.949 78.1311 169.691 76.8865 169.678 75.4738V74.3937C169.678 72.9536 169.928 71.6815 170.429 70.5774C170.929 69.4733 171.636 68.6298 172.548 68.0469C173.467 67.4571 174.516 67.1622 175.695 67.1622C176.896 67.1622 177.952 67.4537 178.864 68.0366C179.783 68.6126 180.489 69.4527 180.983 70.5568C181.476 71.654 181.723 72.933 181.723 74.3937V75.3401ZM179.759 74.3731C179.759 72.597 179.402 71.2357 178.689 70.2894C177.976 69.3361 176.978 68.8595 175.695 68.8595C174.447 68.8595 173.463 69.3361 172.743 70.2894C172.03 71.2357 171.663 72.5524 171.643 74.2394V75.3401C171.643 77.0613 172.003 78.4157 172.723 79.4033C173.45 80.3839 174.447 80.8742 175.716 80.8742C176.992 80.8742 177.979 80.4113 178.679 79.4855C179.378 78.5529 179.738 77.2191 179.759 75.4841V74.3731ZM196.197 82.3452H194.211L186.671 70.8037V82.3452H184.686V67.368H186.671L194.232 78.9609V67.368H196.197V82.3452ZM209.744 68.9932H204.93V82.3452H202.965V68.9932H198.161V67.368H209.744V68.9932ZM220.432 75.4224H213.941V80.7302H221.481V82.3452H211.966V67.368H221.378V68.9932H213.941V73.8074H220.432V75.4224ZM235.45 82.3452H233.465L225.925 70.8037V82.3452H223.939V67.368H225.925L233.485 78.9609V67.368H235.45V82.3452ZM238.958 82.3452V67.368H243.186C244.489 67.368 245.641 67.656 246.642 68.232C247.643 68.8081 248.415 69.6276 248.956 70.6905C249.505 71.7535 249.783 72.9741 249.79 74.3525V75.3092C249.79 76.7219 249.515 77.9597 248.967 79.0227C248.425 80.0856 247.647 80.9017 246.632 81.4709C245.624 82.04 244.447 82.3315 243.103 82.3452H238.958ZM240.933 68.9932V80.7302H243.011C244.533 80.7302 245.716 80.257 246.56 79.3107C247.41 78.3643 247.835 77.0168 247.835 75.2681V74.3937C247.835 72.693 247.434 71.3729 246.632 70.4334C245.836 69.487 244.705 69.007 243.237 68.9932H240.933ZM258.009 82.3452V67.368H262.236C263.539 67.368 264.691 67.656 265.693 68.232C266.694 68.8081 267.465 69.6276 268.007 70.6905C268.556 71.7535 268.833 72.9741 268.84 74.3525V75.3092C268.84 76.7219 268.566 77.9597 268.017 79.0227C267.476 80.0856 266.697 80.9017 265.682 81.4709C264.674 82.04 263.498 82.3315 262.154 82.3452H258.009ZM259.984 68.9932V80.7302H262.061C263.584 80.7302 264.767 80.257 265.61 79.3107C266.461 78.3643 266.886 77.0168 266.886 75.2681V74.3937C266.886 72.693 266.485 71.3729 265.682 70.4334C264.887 69.487 263.755 69.007 262.288 68.9932H259.984ZM280.3 75.4224H273.809V80.7302H281.349V82.3452H271.834V67.368H281.246V68.9932H273.809V73.8074H280.3V75.4224ZM288.765 79.7221L293.045 67.368H295.205L289.65 82.3452H287.901L282.357 67.368H284.507L288.765 79.7221ZM305.687 75.4224H299.196V80.7302H306.736V82.3452H297.221V67.368H306.633V68.9932H299.196V73.8074H305.687V75.4224ZM311.18 80.7302H318.278V82.3452H309.195V67.368H311.18V80.7302ZM331.372 75.3401C331.372 76.8076 331.126 78.09 330.632 79.1872C330.138 80.2776 329.439 81.1108 328.533 81.6869C327.628 82.2629 326.572 82.5509 325.365 82.5509C324.186 82.5509 323.14 82.2629 322.228 81.6869C321.316 81.104 320.606 80.2776 320.098 79.2078C319.598 78.1311 319.341 76.8865 319.327 75.4738V74.3937C319.327 72.9536 319.577 71.6815 320.078 70.5774C320.578 69.4733 321.285 68.6298 322.197 68.0469C323.116 67.4571 324.165 67.1622 325.344 67.1622C326.545 67.1622 327.601 67.4537 328.513 68.0366C329.432 68.6126 330.138 69.4527 330.632 70.5568C331.126 71.654 331.372 72.933 331.372 74.3937V75.3401ZM329.408 74.3731C329.408 72.597 329.051 71.2357 328.338 70.2894C327.625 69.3361 326.627 68.8595 325.344 68.8595C324.096 68.8595 323.112 69.3361 322.392 70.2894C321.679 71.2357 321.312 72.5524 321.292 74.2394V75.3401C321.292 77.0613 321.652 78.4157 322.372 79.4033C323.099 80.3839 324.096 80.8742 325.365 80.8742C326.641 80.8742 327.628 80.4113 328.328 79.4855C329.027 78.5529 329.387 77.2191 329.408 75.4841V74.3731ZM336.31 76.4819V82.3452H334.335V67.368H339.859C341.498 67.368 342.78 67.7863 343.706 68.6229C344.639 69.4596 345.105 70.5671 345.105 71.9455C345.105 73.3993 344.649 74.5206 343.737 75.3092C342.832 76.091 341.532 76.4819 339.838 76.4819H336.31ZM336.31 74.8669H339.859C340.915 74.8669 341.724 74.62 342.286 74.1262C342.849 73.6256 343.13 72.9056 343.13 71.9661C343.13 71.0746 342.849 70.3614 342.286 69.8265C341.724 69.2916 340.953 69.0138 339.972 68.9932H336.31V74.8669ZM356.091 75.4224H349.6V80.7302H357.14V82.3452H347.625V67.368H357.037V68.9932H349.6V73.8074H356.091V75.4224ZM365.092 76.2864H361.574V82.3452H359.588V67.368H364.547C366.234 67.368 367.53 67.752 368.435 68.5201C369.347 69.2881 369.803 70.4059 369.803 71.8735C369.803 72.8061 369.549 73.6188 369.042 74.3114C368.541 75.004 367.842 75.5218 366.943 75.8647L370.461 82.2218V82.3452H368.342L365.092 76.2864ZM361.574 74.6714H364.608C365.589 74.6714 366.367 74.4177 366.943 73.9102C367.526 73.4028 367.818 72.7238 367.818 71.8735C367.818 70.9477 367.54 70.2379 366.985 69.7442C366.436 69.2504 365.64 69.0001 364.598 68.9932H361.574V74.6714Z" fill="#B5C1C6"/>
</g>
<g id="frame1">
<path id="Vector" d="M476.62 325.95L250.75 456.36L24.87 325.95" stroke="white" stroke-miterlimit="10"/>
<path id="Vector_2" d="M247.8 543.45C295.898 543.45 334.89 504.458 334.89 456.36C334.89 408.262 295.898 369.27 247.8 369.27C199.702 369.27 160.71 408.262 160.71 456.36C160.71 504.458 199.702 543.45 247.8 543.45Z" stroke="#939598" stroke-width="0.25" stroke-miterlimit="10"/>
<path id="Vector_3" d="M322.65 499.85L476.62 588.74" stroke="white" stroke-miterlimit="10"/>
<path id="Vector_4" d="M173.65 412.85L327.62 501.74" stroke="white" stroke-miterlimit="10"/>
<path id="Vector_5" d="M24.87 588.74L189.5 489" stroke="white" stroke-miterlimit="10"/>
</g>
<g id="2020">
<path id="2020_2" d="M239.069 37.9718H229.133V36.5866L234.382 30.7543C235.16 29.8726 235.695 29.1574 235.986 28.6089C236.285 28.0534 236.434 27.4806 236.434 26.8905C236.434 26.0989 236.194 25.4497 235.715 24.9429C235.236 24.436 234.597 24.1826 233.799 24.1826C232.841 24.1826 232.094 24.4569 231.56 25.0054C231.032 25.547 230.768 26.3038 230.768 27.2758H228.842C228.842 25.8802 229.289 24.752 230.185 23.891C231.088 23.03 232.292 22.5996 233.799 22.5996C235.208 22.5996 236.323 22.971 237.142 23.7139C237.961 24.4499 238.371 25.4324 238.371 26.6613C238.371 28.1541 237.42 29.9316 235.517 31.9937L231.456 36.3992H239.069V37.9718ZM250.619 31.5042C250.619 33.7608 250.234 35.4375 249.463 36.5346C248.692 37.6316 247.488 38.1801 245.849 38.1801C244.231 38.1801 243.033 37.6455 242.256 36.5762C241.478 35.5 241.075 33.8961 241.048 31.7646V29.1921C241.048 26.9634 241.433 25.3074 242.204 24.2243C242.974 23.1411 244.183 22.5996 245.828 22.5996C247.46 22.5996 248.661 23.1238 249.432 24.1722C250.202 25.2137 250.598 26.8245 250.619 29.0047V31.5042ZM248.692 28.8693C248.692 27.2376 248.463 26.0503 248.005 25.3074C247.547 24.5575 246.821 24.1826 245.828 24.1826C244.842 24.1826 244.124 24.5541 243.672 25.297C243.221 26.0399 242.988 27.1821 242.974 28.7235V31.8062C242.974 33.4448 243.211 34.6564 243.683 35.441C244.162 36.2186 244.884 36.6075 245.849 36.6075C246.8 36.6075 247.505 36.2395 247.963 35.5035C248.428 34.7675 248.671 33.608 248.692 32.025V28.8693ZM263.023 37.9718H253.087V36.5866L258.336 30.7543C259.114 29.8726 259.649 29.1574 259.94 28.6089C260.239 28.0534 260.388 27.4806 260.388 26.8905C260.388 26.0989 260.148 25.4497 259.669 24.9429C259.19 24.436 258.552 24.1826 257.753 24.1826C256.795 24.1826 256.048 24.4569 255.514 25.0054C254.986 25.547 254.722 26.3038 254.722 27.2758H252.796C252.796 25.8802 253.243 24.752 254.139 23.891C255.042 23.03 256.246 22.5996 257.753 22.5996C259.163 22.5996 260.277 22.971 261.096 23.7139C261.915 24.4499 262.325 25.4324 262.325 26.6613C262.325 28.1541 261.374 29.9316 259.471 31.9937L255.41 36.3992H263.023V37.9718ZM274.573 31.5042C274.573 33.7608 274.188 35.4375 273.417 36.5346C272.646 37.6316 271.442 38.1801 269.803 38.1801C268.185 38.1801 266.988 37.6455 266.21 36.5762C265.432 35.5 265.03 33.8961 265.002 31.7646V29.1921C265.002 26.9634 265.387 25.3074 266.158 24.2243C266.928 23.1411 268.137 22.5996 269.782 22.5996C271.414 22.5996 272.615 23.1238 273.386 24.1722C274.156 25.2137 274.552 26.8245 274.573 29.0047V31.5042ZM272.646 28.8693C272.646 27.2376 272.417 26.0503 271.959 25.3074C271.501 24.5575 270.775 24.1826 269.782 24.1826C268.796 24.1826 268.078 24.5541 267.626 25.297C267.175 26.0399 266.942 27.1821 266.928 28.7235V31.8062C266.928 33.4448 267.165 34.6564 267.637 35.441C268.116 36.2186 268.838 36.6075 269.803 36.6075C270.754 36.6075 271.459 36.2395 271.917 35.5035C272.382 34.7675 272.625 33.608 272.646 32.025V28.8693Z" fill="#525556"/>
</g>
<path id="hexagon" d="M119.13 381.39L248.98 306.42L378.83 381.39V531.33L248.98 606.3L119.13 531.33V381.39Z" stroke="white" stroke-width="0.5" stroke-miterlimit="10"/>
<g id="head">
<g id="Group">
<path id="Vector_6" d="M345.027 249.15H345.23V352.828L249.955 300.93L345.027 249.15Z" fill="#FFD700" stroke="#DAA520"/>
<g id="Group_2">
<path id="Vector_7" d="M247.865 300.93L152.78 352.728V249.138L247.865 300.93Z" fill="#FFD700" stroke="#DAA520"/>
</g>
</g>
<path id="rightpanel" d="M364.42 248.8H345.73V353.67H364.42V248.8Z" fill="#E03030"/>
<path id="rightsquare" d="M495.41 248.8H364.42V353.67H495.41V248.8Z" fill="#353535"/>
<path id="leftpanel" d="M152.28 248.8H133.59V353.67H152.28V248.8Z" fill="#E03030"/>
<path id="leftsquare" d="M133.59 248.8H3.32999V353.67H133.59V248.8Z" fill="#353535"/>
</g>
<g id="ring2">
<g id="Group_3">
<path id="Vector_8" d="M336.593 437.514C335.962 433.941 335.119 430.4 334.032 426.898C331.288 418.077 327.19 409.704 321.91 402.116C311.348 386.949 296.18 375.173 278.837 368.779L278.837 368.779C260.778 362.116 240.667 361.43 222.179 366.8C204.379 371.971 188.396 382.702 176.8 397.153C167.439 408.821 161.122 422.713 158.405 437.359C158.553 436.749 158.706 436.14 158.867 435.532M336.593 437.514L159.35 435.66M336.593 437.514C332.757 421.517 324.567 406.677 313.068 394.881L313.068 394.881C300.318 381.81 283.719 372.71 265.82 369.07L265.82 369.07C247.218 365.289 227.562 367.401 210.216 375.133L210.216 375.133C193.575 382.554 179.338 394.981 169.696 410.435M336.593 437.514L169.696 410.435M158.867 435.532L159.35 435.66M158.867 435.532C158.867 435.533 158.866 435.533 158.866 435.533L159.35 435.66M158.867 435.532C161.189 426.684 164.849 418.198 169.696 410.435M159.35 435.66C161.66 426.86 165.3 418.42 170.12 410.7L169.696 410.435C169.696 410.435 169.696 410.435 169.696 410.435M156.44 455.24C156.459 454.688 156.487 454.136 156.516 453.576L156.52 453.49C156.6 452.13 156.71 450.78 156.85 449.42C156.876 449.167 156.903 448.915 156.932 448.662C157.005 448.003 157.086 447.345 157.174 446.687L156.676 446.634C156.624 447.302 156.578 447.971 156.54 448.64C156.526 448.888 156.512 449.136 156.5 449.384C156.5 449.384 156.5 449.384 156.5 449.384C156.429 450.747 156.377 452.113 156.345 453.48C156.345 453.48 156.345 453.481 156.345 453.481C156.332 454.066 156.322 454.65 156.316 455.235L156.44 455.24ZM156.44 455.24C156.436 455.347 156.424 455.469 156.41 455.6L156.313 455.602C156.314 455.48 156.315 455.358 156.316 455.236L156.44 455.24ZM159.068 478.601C158.804 477.414 158.565 476.221 158.351 475.024C161.662 488.919 168.22 501.981 177.468 512.933L177.85 512.61L177.468 512.933C189.272 526.909 205.218 537.205 222.856 542.112C241.055 547.179 260.752 546.466 278.529 540.06C295.704 533.876 310.826 522.485 321.564 507.745C326.923 500.394 331.177 492.25 334.133 483.642C335.124 480.764 335.988 477.777 336.704 474.742C333.639 491.973 325.505 508.133 313.496 520.887L313.496 520.887C300.746 534.443 283.878 543.901 265.641 547.6C246.804 551.419 226.893 549.141 209.45 541.056C192.753 533.319 178.61 520.459 169.301 504.587L169.301 504.587C164.567 496.521 161.097 487.73 159.068 478.602L159.068 478.601Z" fill="#DAA520" stroke="#FFD700"/>
</g>
</g>
<g id="ring1">
<path id="Vector_9" d="M247.8 524.78C285.587 524.78 316.22 494.147 316.22 456.36C316.22 418.573 285.587 387.94 247.8 387.94C210.013 387.94 179.38 418.573 179.38 456.36C179.38 494.147 210.013 524.78 247.8 524.78Z" fill="white"/>
<g id="Group_4">
<path id="Vector_10" d="M316.19 455.7C316.16 469.15 311.07 483.29 302.99 494.3C295 505.19 283.8 513.61 271.09 518.22C257.8 523.03 243.06 523.58 229.44 519.8C216.38 516.17 204.55 508.59 195.75 498.28C186.81 487.81 181.17 474.71 179.75 461.01C179.65 460.06 179.57 459.11 179.51 458.16C179.49 457.75 179.46 457.35 179.45 456.94C179.44 456.71 179.43 456.47 179.42 456.24C179.37 454.61 179.29 456.93 179.4 457.11C179.25 456.87 179.43 456.09 179.44 455.79C179.46 455.33 179.48 454.86 179.51 454.4C179.57 453.39 179.66 452.38 179.77 451.38C180.15 447.93 180.78 444.52 181.68 441.17C183.45 434.53 186.24 428.18 189.91 422.37C197.12 410.97 207.69 401.81 220.02 396.32C232.92 390.58 247.54 389.01 261.37 391.8C274.71 394.49 287.1 401.24 296.63 410.96C306.22 420.73 312.74 433.32 315.15 446.8C315.74 450.11 316.18 453.96 316.19 457.04C316.19 457.53 316.18 458.04 316.2 458.53C316.2 458.43 316.19 459.08 316.22 458.78C316.33 457.78 316.24 456.7 316.24 455.7C316.22 448.29 315.42 441.01 313.26 433.9C311.22 427.19 308.13 420.81 304.14 415.04C296.18 403.52 284.71 394.56 271.57 389.69C257.89 384.62 242.65 384.09 228.64 388.17C215.15 392.1 203.05 400.25 194.3 411.22C185.43 422.33 180.23 436.08 179.48 450.27C179.07 457.94 179.3 465.75 180.91 473.28C182.4 480.24 185 486.96 188.56 493.12C195.57 505.22 206.29 515.04 218.97 520.94C232.18 527.09 247.27 528.82 261.55 525.91C275.37 523.09 288.14 515.9 297.77 505.61C307.46 495.26 313.77 481.97 315.63 467.91C316.11 464.3 316.24 460.68 316.24 457.05C316.24 456.07 316.41 454.93 316.22 453.97C316.17 453.72 316.2 454.23 316.2 454.22C316.17 454.7 316.19 455.2 316.19 455.7Z" fill="#FFD700"/>
</g>
</g>
<g id="icon">
<path id="K" d="M302.51 424.02H287.22C283.31 424.02 279.56 425.58 276.81 428.35L256.12 449.14V463.76L276.92 488.13C280.22 491.99 285.04 494.22 290.12 494.22H302.51L270.86 455.81L302.51 424.02Z" fill="#E03030" stroke="#EA996B" stroke-width="0.5" stroke-miterlimit="10"/>
<path id="Vector_11" d="M231.95 492.95C252.324 492.95 268.84 476.434 268.84 456.06C268.84 435.686 252.324 419.17 231.95 419.17C211.576 419.17 195.06 435.686 195.06 456.06C195.06 476.434 211.576 492.95 231.95 492.95Z" fill="black" stroke="#5CC9E2" stroke-width="0.75" stroke-miterlimit="10"/>
<path id="JH" d="M250.438 467.558C250.265 467.295 250.195 466.984 250.195 466.674V464.554V463.017V453.951C250.195 453.951 250.195 455.1 250.195 448.781C250.195 447.585 250.195 446.662 250.195 446.165C250.195 444.116 252.583 443.495 254.256 443.316C255.159 443.223 255.851 442.485 255.851 441.593V441.43C255.851 440.467 255.065 439.691 254.091 439.691H240.658C239.684 439.691 238.898 440.467 238.898 441.43V447.523C238.898 448.486 238.113 449.262 237.139 449.262H228.521C227.539 449.262 226.754 448.478 226.761 447.508C226.769 446.995 226.769 446.336 226.769 445.482C226.769 443.122 229.047 442.648 230.713 442.617C231.663 442.602 232.425 441.826 232.425 440.879V440.739C232.425 439.776 231.64 439 230.666 439H210.76C209.786 439 209 439.776 209 440.739V441.119C209 442.035 209.723 442.78 210.642 442.85C215.017 443.2 214.813 445.226 214.813 445.226C214.813 445.226 214.813 464.019 214.892 466.852C214.947 468.637 212.794 469.057 211.2 469.119C210.257 469.158 209.526 469.926 209.526 470.85V470.935C209.526 471.898 210.312 472.674 211.286 472.674H215.465C221.718 472.674 226.785 467.667 226.785 461.488V455.472C226.785 454.51 227.571 453.733 228.545 453.733H237.005C237.979 453.733 238.765 454.51 238.765 455.472V466.844C238.765 469.033 236.447 469.484 234.766 469.522C233.816 469.546 233.07 470.322 233.07 471.261C233.07 472.224 233.855 473 234.829 473H254.24C255.214 473 256 472.224 256 471.261V470.958C256 470.027 255.246 469.274 254.303 469.22C251.837 469.095 250.839 468.164 250.438 467.558Z" fill="#FFD700"/>
</g>
<path id="WEB" d="M53.3477 309.617L56.793 291.406H62.0488L56.3711 317H51.0625L46.8965 299.879L42.7305 317H37.4219L31.7441 291.406H37L40.4629 309.582L44.6816 291.406H49.1465L53.3477 309.617ZM80.3125 305.908H70.1875V312.764H82.0703V317H64.9141V291.406H82.0352V295.678H70.1875V301.777H80.3125V305.908ZM85.1641 317V291.406H94.1289C97.2344 291.406 99.5898 292.004 101.195 293.199C102.801 294.383 103.604 296.123 103.604 298.42C103.604 299.674 103.281 300.781 102.637 301.742C101.992 302.691 101.096 303.389 99.9473 303.834C101.26 304.162 102.291 304.824 103.041 305.82C103.803 306.816 104.184 308.035 104.184 309.477C104.184 311.938 103.398 313.801 101.828 315.066C100.258 316.332 98.0195 316.977 95.1133 317H85.1641ZM90.4375 305.855V312.764H94.9551C96.1973 312.764 97.1641 312.471 97.8555 311.885C98.5586 311.287 98.9102 310.467 98.9102 309.424C98.9102 307.08 97.6973 305.891 95.2715 305.855H90.4375ZM90.4375 302.129H94.3398C97 302.082 98.3301 301.021 98.3301 298.947C98.3301 297.787 97.9902 296.955 97.3105 296.451C96.6426 295.936 95.582 295.678 94.1289 295.678H90.4375V302.129Z" fill="white"/>
<path id="GFX" d="M414.461 313.766C413.512 314.902 412.17 315.787 410.436 316.42C408.701 317.041 406.779 317.352 404.67 317.352C402.455 317.352 400.51 316.871 398.834 315.91C397.17 314.938 395.881 313.531 394.967 311.691C394.064 309.852 393.602 307.689 393.578 305.205V303.465C393.578 300.91 394.006 298.701 394.861 296.838C395.729 294.963 396.971 293.533 398.588 292.549C400.217 291.553 402.121 291.055 404.301 291.055C407.336 291.055 409.709 291.781 411.42 293.234C413.131 294.676 414.145 296.779 414.461 299.545H409.328C409.094 298.08 408.572 297.008 407.764 296.328C406.967 295.648 405.865 295.309 404.459 295.309C402.666 295.309 401.301 295.982 400.363 297.33C399.426 298.678 398.951 300.682 398.939 303.342V304.977C398.939 307.66 399.449 309.688 400.469 311.059C401.488 312.43 402.982 313.115 404.951 313.115C406.932 313.115 408.344 312.693 409.188 311.85V307.438H404.389V303.553H414.461V313.766ZM434.148 306.541H424.023V317H418.75V291.406H435.414V295.678H424.023V302.287H434.148V306.541ZM447.631 300.23L452.43 291.406H458.494L451.041 304.098L458.688 317H452.553L447.631 308.035L442.709 317H436.574L444.221 304.098L436.768 291.406H442.832L447.631 300.23Z" fill="white"/>
<path id="OMPHALUS KUA" d="M131.544 121.104C131.544 123.764 131.074 126.096 130.134 128.1C129.194 130.104 127.845 131.65 126.089 132.738C124.345 133.827 122.341 134.371 120.077 134.371C117.838 134.371 115.84 133.833 114.084 132.757C112.327 131.681 110.967 130.147 110.002 128.155C109.037 126.151 108.549 123.851 108.536 121.253V119.917C108.536 117.257 109.012 114.92 109.965 112.903C110.93 110.875 112.284 109.322 114.028 108.246C115.785 107.158 117.789 106.613 120.04 106.613C122.291 106.613 124.289 107.158 126.033 108.246C127.79 109.322 129.144 110.875 130.097 112.903C131.062 114.92 131.544 117.251 131.544 119.898V121.104ZM125.903 119.88C125.903 117.047 125.396 114.895 124.382 113.423C123.368 111.951 121.92 111.215 120.04 111.215C118.172 111.215 116.731 111.945 115.717 113.404C114.702 114.852 114.189 116.979 114.177 119.787V121.104C114.177 123.863 114.684 126.003 115.698 127.524C116.713 129.046 118.172 129.807 120.077 129.807C121.945 129.807 123.38 129.077 124.382 127.617C125.384 126.145 125.891 124.005 125.903 121.197V119.88ZM142.862 106.984L149.802 126.578L156.704 106.984H164.015V134H158.43V126.615L158.986 113.868L151.694 134H147.872L140.599 113.887L141.155 126.615V134H135.589V106.984H142.862ZM174.442 124.481V134H168.876V106.984H179.415C181.444 106.984 183.225 107.355 184.759 108.098C186.305 108.84 187.493 109.897 188.321 111.271C189.15 112.631 189.564 114.184 189.564 115.928C189.564 118.575 188.655 120.665 186.837 122.199C185.031 123.721 182.526 124.481 179.322 124.481H174.442ZM174.442 119.973H179.415C180.887 119.973 182.007 119.626 182.773 118.934C183.553 118.241 183.942 117.251 183.942 115.965C183.942 114.641 183.553 113.571 182.773 112.755C181.994 111.938 180.918 111.518 179.545 111.493H174.442V119.973ZM215.393 134H209.826V122.422H198.972V134H193.405V106.984H198.972V117.932H209.826V106.984H215.393V134ZM235.858 128.434H226.099L224.243 134H218.324L228.381 106.984H233.539L243.651 134H237.732L235.858 128.434ZM227.602 123.925H234.355L230.96 113.812L227.602 123.925ZM251.741 129.528H263.561V134L246.175 134V106.984H251.741V129.528ZM286.772 106.984V124.778C286.772 127.735 285.845 130.073 283.989 131.792C282.146 133.511 279.623 134.371 276.419 134.371C273.265 134.371 270.76 133.536 268.904 131.866C267.049 130.196 266.103 127.902 266.065 124.982V106.984H271.632V124.815C271.632 126.584 272.052 127.877 272.894 128.693C273.747 129.497 274.922 129.899 276.419 129.899C279.549 129.899 281.138 128.254 281.188 124.964V106.984H286.772ZM305.346 126.912C305.346 125.861 304.975 125.057 304.232 124.5C303.49 123.931 302.154 123.337 300.225 122.719C298.295 122.088 296.767 121.469 295.642 120.863C292.574 119.206 291.04 116.973 291.04 114.165C291.04 112.705 291.448 111.407 292.265 110.269C293.093 109.118 294.275 108.221 295.809 107.578C297.355 106.935 299.087 106.613 301.004 106.613C302.934 106.613 304.653 106.966 306.162 107.671C307.671 108.364 308.84 109.347 309.669 110.621C310.51 111.895 310.931 113.342 310.931 114.963H305.364C305.364 113.726 304.975 112.767 304.195 112.087C303.416 111.394 302.321 111.048 300.911 111.048C299.55 111.048 298.493 111.339 297.738 111.92C296.984 112.489 296.606 113.243 296.606 114.184C296.606 115.062 297.046 115.798 297.924 116.392C298.814 116.985 300.119 117.542 301.839 118.062C305.006 119.014 307.312 120.195 308.76 121.605C310.207 123.016 310.931 124.772 310.931 126.875C310.931 129.213 310.046 131.05 308.277 132.386C306.508 133.709 304.127 134.371 301.134 134.371C299.056 134.371 297.163 133.994 295.456 133.239C293.749 132.472 292.444 131.427 291.541 130.104C290.65 128.78 290.205 127.246 290.205 125.502H295.79C295.79 128.483 297.571 129.974 301.134 129.974C302.457 129.974 303.49 129.708 304.232 129.176C304.975 128.632 305.346 127.877 305.346 126.912ZM332.64 123.164L329.745 126.281V134H324.179V106.984L329.745 106.984V119.23L332.194 115.872L339.078 106.984H345.925L336.332 118.989L346.203 134H339.579L332.64 123.164ZM368.747 106.984V124.778C368.747 127.735 367.819 130.073 365.964 131.792C364.121 133.511 361.597 134.371 358.394 134.371C355.239 134.371 352.734 133.536 350.879 131.866C349.023 130.196 348.077 127.902 348.04 124.982V106.984H353.606V124.815C353.606 126.584 354.027 127.877 354.868 128.693C355.722 129.497 356.897 129.899 358.394 129.899C361.523 129.899 363.113 128.254 363.162 124.964V106.984H368.747ZM388.155 128.434H378.396L376.54 134H370.621L380.678 106.984H385.836L395.948 134H390.029L388.155 128.434ZM379.898 123.925H386.652L383.257 113.812L379.898 123.925Z" fill="white"/>
<g id="projectsButton">
<path id="projects" d="M105.031 584.158L101.344 590.385L99.2467 589.143L108.664 573.237L114.53 576.71C116.271 577.741 117.369 578.991 117.827 580.462C118.291 581.937 118.09 583.406 117.223 584.87C116.309 586.414 115.12 587.318 113.655 587.582C112.203 587.843 110.577 587.441 108.778 586.376L105.031 584.158ZM106.046 582.443L109.815 584.674C110.937 585.338 111.951 585.585 112.859 585.414C113.771 585.236 114.522 584.648 115.113 583.65C115.673 582.703 115.823 581.769 115.562 580.848C115.301 579.926 114.657 579.146 113.628 578.507L109.739 576.205L106.046 582.443ZM123.004 594.518L119.268 592.307L115.458 598.741L113.35 597.493L122.767 581.587L128.032 584.704C129.824 585.765 130.959 586.988 131.437 588.373C131.923 589.762 131.705 591.236 130.782 592.794C130.195 593.785 129.415 594.488 128.441 594.905C127.474 595.325 126.405 595.435 125.235 595.235L124.975 604.198L124.897 604.329L122.647 602.997L123.004 594.518ZM120.283 590.591L123.506 592.499C124.547 593.116 125.533 593.336 126.464 593.159C127.402 592.987 128.139 592.449 128.673 591.546C129.256 590.563 129.407 589.634 129.127 588.761C128.855 587.891 128.168 587.125 127.065 586.463L123.853 584.561L120.283 590.591ZM143.787 605.466C142.864 607.024 141.796 608.231 140.582 609.086C139.372 609.933 138.105 610.378 136.781 610.421C135.458 610.464 134.155 610.105 132.873 609.347C131.621 608.605 130.691 607.641 130.085 606.456C129.483 605.264 129.248 603.94 129.382 602.485C129.527 601.026 130.037 599.543 130.911 598.034L131.59 596.887C132.495 595.358 133.561 594.164 134.787 593.306C136.013 592.448 137.293 591.997 138.628 591.951C139.975 591.903 141.275 592.249 142.527 592.991C143.802 593.745 144.74 594.719 145.342 595.911C145.956 597.101 146.178 598.437 146.008 599.92C145.842 601.396 145.3 602.909 144.382 604.461L143.787 605.466ZM142.308 603.203C143.425 601.317 143.902 599.647 143.74 598.194C143.582 596.733 142.822 595.6 141.46 594.793C140.135 594.009 138.79 593.896 137.426 594.456C136.073 595.012 134.856 596.18 133.773 597.958L133.081 599.127C131.999 600.955 131.53 602.62 131.674 604.122C131.829 605.62 132.58 606.768 133.928 607.566C135.282 608.368 136.622 608.497 137.947 607.954C139.276 607.403 140.497 606.213 141.61 604.383L142.308 603.203ZM158.61 602.807L160.718 604.056L154.05 615.319C153.149 616.841 151.985 617.76 150.558 618.076C149.139 618.396 147.669 618.106 146.146 617.205C144.566 616.269 143.575 615.136 143.172 613.806C142.769 612.476 142.999 611.083 143.862 609.626L145.959 610.868C145.42 611.778 145.247 612.635 145.441 613.438C145.641 614.245 146.215 614.929 147.162 615.49C148.029 616.003 148.889 616.144 149.744 615.912C150.607 615.685 151.333 615.082 151.922 614.103L158.61 602.807ZM168.217 620.047L161.323 615.966L157.986 621.603L165.994 626.344L164.978 628.059L154.873 622.076L164.29 606.171L174.286 612.088L173.264 613.814L165.366 609.138L162.339 614.251L169.232 618.332L168.217 620.047ZM182.277 631.485C181.084 633.05 179.692 633.982 178.1 634.279C176.52 634.572 174.863 634.206 173.129 633.18C171.25 632.067 170.142 630.501 169.803 628.481C169.472 626.466 169.975 624.329 171.312 622.071L172.217 620.542C173.092 619.063 174.124 617.919 175.313 617.108C176.508 616.301 177.767 615.885 179.089 615.862C180.416 615.831 181.716 616.193 182.991 616.947C184.68 617.947 185.755 619.223 186.214 620.773C186.677 622.316 186.499 623.971 185.679 625.738L183.571 624.49C184.139 623.115 184.285 621.962 184.01 621.032C183.742 620.106 183.061 619.32 181.969 618.673C180.629 617.88 179.283 617.752 177.932 618.29C176.588 618.832 175.375 620.017 174.293 621.845L173.381 623.385C172.359 625.111 171.907 626.697 172.024 628.144C172.142 629.59 172.849 630.697 174.145 631.465C175.31 632.155 176.357 632.421 177.287 632.263C178.228 632.102 179.189 631.426 180.169 630.236L182.277 631.485ZM201.219 630.365L196.107 627.338L187.712 641.518L185.625 640.283L194.02 626.103L188.918 623.083L189.94 621.357L202.241 628.639L201.219 630.365ZM203.893 641.523C202.4 639.941 201.465 638.531 201.086 637.294C200.718 636.054 200.863 634.88 201.518 633.773C202.26 632.52 203.371 631.782 204.851 631.557C206.344 631.329 207.891 631.689 209.493 632.638C210.586 633.284 211.433 634.071 212.035 634.998C212.644 635.929 212.962 636.904 212.988 637.923C213.022 638.946 212.778 639.898 212.256 640.78L210.148 639.531C210.717 638.57 210.857 637.635 210.569 636.727C210.285 635.811 209.586 635.023 208.471 634.364C207.437 633.751 206.493 633.502 205.639 633.616C204.796 633.727 204.135 634.187 203.657 634.995C203.273 635.643 203.22 636.355 203.499 637.13C203.79 637.902 204.484 638.864 205.583 640.015C206.688 641.172 207.479 642.195 207.954 643.087C208.441 643.975 208.686 644.823 208.69 645.632C208.7 646.445 208.466 647.255 207.988 648.064C207.225 649.353 206.11 650.089 204.643 650.274C203.181 650.451 201.609 650.041 199.927 649.045C198.834 648.398 197.938 647.587 197.237 646.611C196.54 645.629 196.149 644.62 196.063 643.585C195.984 642.555 196.219 641.578 196.766 640.653L198.875 641.901C198.305 642.862 198.208 643.833 198.582 644.812C198.968 645.788 199.755 646.627 200.942 647.33C202.049 647.985 203.031 648.262 203.889 648.16C204.746 648.057 205.405 647.617 205.866 646.837C206.328 646.058 206.41 645.296 206.114 644.55C205.822 643.797 205.082 642.788 203.893 641.523Z" fill="white"/>
</g>
<g id="contactButtom">
<path id="contact" d="M424.135 501.121C426.09 501.35 427.601 502.073 428.667 503.292C429.725 504.502 430.254 506.115 430.254 508.129C430.254 510.312 429.471 512.064 427.905 513.385C426.34 514.697 424.245 515.353 421.621 515.353L419.844 515.353C418.126 515.353 416.615 515.048 415.312 514.438C414.008 513.821 413.009 512.949 412.315 511.823C411.613 510.698 411.262 509.394 411.262 507.913C411.262 505.95 411.812 504.375 412.912 503.19C414.004 502.006 415.519 501.316 417.457 501.121L417.457 503.571C415.984 503.783 414.918 504.244 414.258 504.955C413.598 505.658 413.268 506.644 413.268 507.913C413.268 509.47 413.843 510.693 414.994 511.582C416.145 512.462 417.783 512.902 419.907 512.902L421.697 512.902C423.703 512.902 425.299 512.483 426.483 511.645C427.668 510.808 428.261 509.635 428.261 508.129C428.261 506.775 427.956 505.738 427.347 505.019C426.729 504.291 425.658 503.808 424.135 503.571L424.135 501.121ZM421.354 483.563C423.166 483.563 424.748 483.868 426.103 484.478C427.448 485.087 428.477 485.95 429.187 487.067C429.898 488.185 430.254 489.488 430.254 490.978C430.254 492.433 429.898 493.724 429.187 494.85C428.468 495.975 427.448 496.851 426.128 497.478C424.799 498.095 423.263 498.413 421.52 498.43L420.187 498.43C418.409 498.43 416.839 498.121 415.477 497.503C414.114 496.885 413.073 496.013 412.354 494.888C411.626 493.754 411.262 492.459 411.262 491.003C411.262 489.522 411.621 488.218 412.341 487.093C413.052 485.959 414.089 485.087 415.451 484.478C416.805 483.868 418.384 483.563 420.187 483.563L421.354 483.563ZM420.161 485.988C417.969 485.988 416.289 486.428 415.121 487.309C413.945 488.189 413.356 489.42 413.356 491.003C413.356 492.543 413.945 493.758 415.121 494.646C416.289 495.527 417.914 495.979 419.996 496.005L421.354 496.005C423.479 496.005 425.15 495.561 426.369 494.672C427.579 493.775 428.185 492.543 428.185 490.978C428.185 489.403 427.613 488.185 426.471 487.321C425.32 486.458 423.674 486.014 421.532 485.988L420.161 485.988ZM430 465.701L430 468.151L415.756 477.457L430 477.457L430 479.907L411.516 479.907L411.516 477.457L425.823 468.126L411.516 468.126L411.516 465.701L430 465.701ZM430 447.166L430 449.616L415.756 458.922L430 458.922L430 461.372L411.516 461.372L411.516 458.922L425.823 449.591L411.516 449.591L411.516 447.166L430 447.166ZM421.456 432.389L421.456 440.399L428.007 440.399L428.007 431.094L430 431.094L430 442.837L411.516 442.837L411.516 431.221L413.521 431.221L413.521 440.399L419.463 440.399L419.463 432.389L421.456 432.389ZM424.135 414.463C426.09 414.691 427.601 415.415 428.667 416.634C429.725 417.844 430.254 419.456 430.254 421.471C430.254 423.654 429.471 425.406 427.905 426.727C426.34 428.038 424.245 428.694 421.621 428.694L419.844 428.694C418.126 428.694 416.615 428.39 415.312 427.78C414.008 427.162 413.009 426.291 412.315 425.165C411.613 424.039 411.262 422.736 411.262 421.255C411.262 419.291 411.812 417.717 412.912 416.532C414.004 415.347 415.519 414.658 417.457 414.463L417.457 416.913C415.984 417.125 414.918 417.586 414.258 418.297C413.598 418.999 413.268 419.985 413.268 421.255C413.268 422.812 413.843 424.035 414.994 424.924C416.145 425.804 417.783 426.244 419.907 426.244L421.697 426.244C423.703 426.244 425.298 425.825 426.483 424.987C427.668 424.149 428.261 422.977 428.261 421.471C428.261 420.117 427.956 419.08 427.347 418.36C426.729 417.632 425.658 417.15 424.135 416.913L424.135 414.463ZM413.521 398.733L413.521 404.675L430 404.675L430 407.1L413.521 407.1L413.521 413.028L411.516 413.028L411.516 398.733L413.521 398.733Z" fill="white"/>
</g>
<g id="aboutButton">
<path id="life" d="M317.723 631.246L311.54 634.858L312.417 639.329L309.534 641.013L306.241 621.53L308.729 620.077L324.092 632.511L321.198 634.201L317.723 631.246ZM311.012 632.167L315.638 629.465L309.458 624.194L311.012 632.167ZM325.912 631.448L316.589 615.486L322.06 612.291C323.865 611.237 325.45 610.796 326.815 610.969C328.181 611.142 329.282 611.945 330.118 613.377C330.545 614.108 330.732 614.881 330.679 615.696C330.626 616.511 330.313 617.302 329.741 618.067C330.74 617.797 331.663 617.851 332.511 618.228C333.361 618.594 334.051 619.23 334.581 620.136C335.456 621.634 335.646 623.067 335.15 624.435C334.663 625.798 333.523 627.002 331.733 628.048L325.912 631.448ZM324.479 622.625L327.392 627.613L330.472 625.814C331.342 625.306 331.896 624.694 332.134 623.977C332.371 623.259 332.266 622.517 331.818 621.75C330.849 620.091 329.506 619.738 327.789 620.692L324.479 622.625ZM323.288 620.586L326.006 618.999C326.869 618.495 327.428 617.909 327.684 617.239C327.943 616.559 327.864 615.86 327.445 615.144C326.984 614.355 326.425 613.917 325.767 613.831C325.116 613.741 324.316 613.973 323.366 614.528L320.669 616.103L323.288 620.586ZM348.396 608.171C349.309 609.735 349.841 611.267 349.992 612.767C350.138 614.26 349.893 615.618 349.256 616.843C348.622 618.056 347.651 619.045 346.342 619.809C345.049 620.565 343.71 620.925 342.328 620.89C340.948 620.843 339.638 620.397 338.4 619.552C337.169 618.703 336.104 617.517 335.204 615.994L334.679 615.095C333.77 613.538 333.242 612.004 333.094 610.493C332.954 608.977 333.201 607.612 333.835 606.399C334.472 605.174 335.441 604.182 336.742 603.422C338.043 602.662 339.377 602.304 340.746 602.348C342.117 602.38 343.421 602.825 344.656 603.681C345.887 604.53 346.961 605.731 347.877 607.283L348.396 608.171ZM345.136 608.958C344.103 607.189 342.975 606.03 341.752 605.48C340.536 604.926 339.314 605.007 338.087 605.724C336.888 606.424 336.224 607.444 336.095 608.784C335.969 610.112 336.4 611.639 337.389 613.365L337.927 614.286C338.951 616.04 340.083 617.197 341.322 617.758C342.568 618.314 343.797 618.238 345.011 617.529C346.238 616.812 346.908 615.794 347.019 614.474C347.138 613.15 346.672 611.589 345.622 609.791L345.136 608.958ZM357.929 591.342L364.159 602.008C365.149 603.704 365.39 605.367 364.882 606.996C364.376 608.615 363.221 609.951 361.416 611.005C359.589 612.073 357.854 612.434 356.212 612.089C354.566 611.737 353.237 610.696 352.225 608.963L346.002 598.308L348.764 596.694L355.001 607.372C355.624 608.439 356.37 609.096 357.24 609.343C358.109 609.59 359.07 609.406 360.122 608.791C362.256 607.545 362.666 605.796 361.351 603.545L355.166 592.955L357.929 591.342ZM373.739 585.107L368.762 588.014L376.778 601.739L374.026 603.346L366.01 589.621L361.077 592.502L359.771 590.266L372.432 582.871L373.739 585.107Z" fill="white"/>
</g>
<g id="lifeButton">
<path id="About" d="M67.4248 420.059C66.5277 419.432 65.8548 418.556 65.4062 417.431C64.9661 416.313 64.7461 415.01 64.7461 413.521C64.7461 412.014 65.0973 410.677 65.7998 409.509C66.5107 408.341 67.5179 407.435 68.8213 406.792C70.1247 406.157 71.6354 405.831 73.3535 405.814L74.9658 405.814C77.7503 405.814 79.9085 406.462 81.4404 407.757C82.9723 409.06 83.7383 410.888 83.7383 413.241C83.7383 415.171 83.2432 416.724 82.2529 417.9C81.2712 419.077 79.8747 419.796 78.0635 420.059L78.0635 417.621C80.5094 417.164 81.7324 415.708 81.7324 413.254C81.7324 411.62 81.1569 410.381 80.0059 409.534C78.8633 408.696 77.2044 408.273 75.0293 408.265L73.5186 408.265C71.445 408.265 69.7946 408.739 68.5674 409.687C67.3486 410.634 66.7393 411.917 66.7393 413.533C66.7393 414.447 66.8408 415.247 67.0439 415.933C67.2471 416.618 67.5898 417.185 68.0723 417.634L72.2236 417.634L72.2236 413.355L74.2041 413.355L74.2041 420.059L67.4248 420.059ZM69.8242 434.341L69.8242 426.597L65 424.857L65 422.344L83.4844 429.402L83.4844 431.535L65 438.606L65 436.105L69.8242 434.341ZM71.8301 427.333L71.8301 433.617L80.4756 430.469L71.8301 427.333ZM66.9932 443.545L66.9932 452.305L65 452.305L65 441.095L83.4844 441.095L83.4844 443.545L66.9932 443.545ZM66.9932 457.535L66.9932 466.295L65 466.295L65 455.085L83.4844 455.085L83.4844 457.535L66.9932 457.535ZM73.5439 479.523L73.5439 471.513L66.9932 471.513L66.9932 480.818L65 480.818L65 469.075L83.4844 469.075L83.4844 480.691L81.4785 480.691L81.4785 471.513L75.5371 471.513L75.5371 479.523L73.5439 479.523ZM72.4775 490.632L72.4775 486.29L65 486.29L65 483.84L83.4844 483.84L83.4844 489.959C83.4844 492.041 83.0104 493.641 82.0625 494.758C81.1146 495.883 79.735 496.446 77.9238 496.446C76.7728 496.446 75.7699 496.133 74.915 495.507C74.0602 494.889 73.4212 494.026 72.998 492.917L65.1523 497.259L65 497.259L65 494.644L72.4775 490.632ZM74.4707 486.29L74.4707 490.035C74.4707 491.245 74.7838 492.206 75.4102 492.917C76.0365 493.636 76.8743 493.996 77.9238 493.996C79.0664 493.996 79.9424 493.653 80.5518 492.968C81.1611 492.291 81.47 491.309 81.4785 490.022L81.4785 486.29L74.4707 486.29ZM74.2041 504.901L83.4844 509.726L83.4844 512.493L71.8935 506.12L65 506.12L65 503.683L71.8935 503.683L83.4844 497.31L83.4844 500.103L74.2041 504.901Z" fill="white"/>
</g>
</g>
</g>
<path id="Vector_12" d="M248.981 606L248.985 783.787" stroke="white" stroke-miterlimit="10"/>
<defs>
<filter id="filter0_d" x="300.14" y="325.063" width="182.36" height="276.008" filterUnits="userSpaceOnUse" color-interpolation-filters="sRGB">
<feFlood flood-opacity="0" result="BackgroundImageFix"/>
<feColorMatrix in="SourceAlpha" type="matrix" values="0 0 0 0 0 0 0 0 0 0 0 0 0 0 0 0 0 0 127 0"/>
<feOffset dy="4"/>
<feGaussianBlur stdDeviation="2"/>
<feColorMatrix type="matrix" values="0 0 0 0 0.0886458 0 0 0 0 0.166942 0 0 0 0 0.191667 0 0 0 0.25 0"/>
<feBlend mode="normal" in2="BackgroundImageFix" result="effect1_dropShadow"/>
<feBlend mode="normal" in="SourceGraphic" in2="effect1_dropShadow" result="shape"/>
</filter>
<filter id="filter1_d" x="13" y="318.929" width="182.36" height="283.096" filterUnits="userSpaceOnUse" color-interpolation-filters="sRGB">
<feFlood flood-opacity="0" result="BackgroundImageFix"/>
<feColorMatrix in="SourceAlpha" type="matrix" values="0 0 0 0 0 0 0 0 0 0 0 0 0 0 0 0 0 0 127 0"/>
<feOffset dy="4"/>
<feGaussianBlur stdDeviation="2"/>
<feColorMatrix type="matrix" values="0 0 0 0 0.0886458 0 0 0 0 0.166942 0 0 0 0 0.191667 0 0 0 0.25 0"/>
<feBlend mode="normal" in2="BackgroundImageFix" result="effect1_dropShadow"/>
<feBlend mode="normal" in="SourceGraphic" in2="effect1_dropShadow" result="shape"/>
</filter>
<filter id="filter2_d" x="13.507" y="438.073" width="330.027" height="299.325" filterUnits="userSpaceOnUse" color-interpolation-filters="sRGB">
<feFlood flood-opacity="0" result="BackgroundImageFix"/>
<feColorMatrix in="SourceAlpha" type="matrix" values="0 0 0 0 0 0 0 0 0 0 0 0 0 0 0 0 0 0 127 0"/>
<feOffset dy="4"/>
<feGaussianBlur stdDeviation="2"/>
<feColorMatrix type="matrix" values="0 0 0 0 0.0886458 0 0 0 0 0.166942 0 0 0 0 0.191667 0 0 0 0.25 0"/>
<feBlend mode="normal" in2="BackgroundImageFix" result="effect1_dropShadow"/>
<feBlend mode="normal" in="SourceGraphic" in2="effect1_dropShadow" result="shape"/>
</filter>
<filter id="filter3_d" x="157.624" y="438.72" width="330.286" height="296.609" filterUnits="userSpaceOnUse" color-interpolation-filters="sRGB">
<feFlood flood-opacity="0" result="BackgroundImageFix"/>
<feColorMatrix in="SourceAlpha" type="matrix" values="0 0 0 0 0 0 0 0 0 0 0 0 0 0 0 0 0 0 127 0"/>
<feOffset dy="4"/>
<feGaussianBlur stdDeviation="2"/>
<feColorMatrix type="matrix" values="0 0 0 0 0.0886458 0 0 0 0 0.166942 0 0 0 0 0.191667 0 0 0 0.25 0"/>
<feBlend mode="normal" in2="BackgroundImageFix" result="effect1_dropShadow"/>
<feBlend mode="normal" in="SourceGraphic" in2="effect1_dropShadow" result="shape"/>
</filter>
<clipPath id="clip0">
<rect width="498.9" height="708.66" fill="white"/>
</clipPath>
</defs>
</svg>
