<svg
            width="499"
            height="785"
            viewBox="0 0 499 785"
            fill="none"
            xmlns="http://www.w3.org/2000/svg"
          >
            <g id="newSVG_frame">
              <g clip-path="url(#clip0)">
                <g id="web-dev">
                  <path
                    id="FRONTEND DEVELOPER"
                    d="M153.836 75.7309H147.551V82.3452H145.576V67.368H154.855V68.9932H147.551V74.116H153.836V75.7309ZM162.714 76.2864H159.196V82.3452H157.21V67.368H162.169C163.856 67.368 165.152 67.752 166.057 68.5201C166.969 69.2881 167.425 70.4059 167.425 71.8735C167.425 72.8061 167.171 73.6188 166.664 74.3114C166.163 75.004 165.464 75.5218 164.565 75.8647L168.083 82.2218V82.3452H165.964L162.714 76.2864ZM159.196 74.6714H162.23C163.211 74.6714 163.989 74.4177 164.565 73.9102C165.148 73.4028 165.44 72.7238 165.44 71.8735C165.44 70.9477 165.162 70.2379 164.606 69.7442C164.058 69.2504 163.262 69.0001 162.22 68.9932H159.196V74.6714ZM181.723 75.3401C181.723 76.8076 181.476 78.09 180.983 79.1872C180.489 80.2776 179.789 81.1108 178.884 81.6869C177.979 82.2629 176.923 82.5509 175.716 82.5509C174.536 82.5509 173.491 82.2629 172.579 81.6869C171.667 81.104 170.957 80.2776 170.449 79.2078C169.949 78.1311 169.691 76.8865 169.678 75.4738V74.3937C169.678 72.9536 169.928 71.6815 170.429 70.5774C170.929 69.4733 171.636 68.6298 172.548 68.0469C173.467 67.4571 174.516 67.1622 175.695 67.1622C176.896 67.1622 177.952 67.4537 178.864 68.0366C179.783 68.6126 180.489 69.4527 180.983 70.5568C181.476 71.654 181.723 72.933 181.723 74.3937V75.3401ZM179.759 74.3731C179.759 72.597 179.402 71.2357 178.689 70.2894C177.976 69.3361 176.978 68.8595 175.695 68.8595C174.447 68.8595 173.463 69.3361 172.743 70.2894C172.03 71.2357 171.663 72.5524 171.643 74.2394V75.3401C171.643 77.0613 172.003 78.4157 172.723 79.4033C173.45 80.3839 174.447 80.8742 175.716 80.8742C176.992 80.8742 177.979 80.4113 178.679 79.4855C179.378 78.5529 179.738 77.2191 179.759 75.4841V74.3731ZM196.197 82.3452H194.211L186.671 70.8037V82.3452H184.686V67.368H186.671L194.232 78.9609V67.368H196.197V82.3452ZM209.744 68.9932H204.93V82.3452H202.965V68.9932H198.161V67.368H209.744V68.9932ZM220.432 75.4224H213.941V80.7302H221.481V82.3452H211.966V67.368H221.378V68.9932H213.941V73.8074H220.432V75.4224ZM235.45 82.3452H233.465L225.925 70.8037V82.3452H223.939V67.368H225.925L233.485 78.9609V67.368H235.45V82.3452ZM238.958 82.3452V67.368H243.186C244.489 67.368 245.641 67.656 246.642 68.232C247.643 68.8081 248.415 69.6276 248.956 70.6905C249.505 71.7535 249.783 72.9741 249.79 74.3525V75.3092C249.79 76.7219 249.515 77.9597 248.967 79.0227C248.425 80.0856 247.647 80.9017 246.632 81.4709C245.624 82.04 244.447 82.3315 243.103 82.3452H238.958ZM240.933 68.9932V80.7302H243.011C244.533 80.7302 245.716 80.257 246.56 79.3107C247.41 78.3643 247.835 77.0168 247.835 75.2681V74.3937C247.835 72.693 247.434 71.3729 246.632 70.4334C245.836 69.487 244.705 69.007 243.237 68.9932H240.933ZM258.009 82.3452V67.368H262.236C263.539 67.368 264.691 67.656 265.693 68.232C266.694 68.8081 267.465 69.6276 268.007 70.6905C268.556 71.7535 268.833 72.9741 268.84 74.3525V75.3092C268.84 76.7219 268.566 77.9597 268.017 79.0227C267.476 80.0856 266.697 80.9017 265.682 81.4709C264.674 82.04 263.498 82.3315 262.154 82.3452H258.009ZM259.984 68.9932V80.7302H262.061C263.584 80.7302 264.767 80.257 265.61 79.3107C266.461 78.3643 266.886 77.0168 266.886 75.2681V74.3937C266.886 72.693 266.485 71.3729 265.682 70.4334C264.887 69.487 263.755 69.007 262.288 68.9932H259.984ZM280.3 75.4224H273.809V80.7302H281.349V82.3452H271.834V67.368H281.246V68.9932H273.809V73.8074H280.3V75.4224ZM288.765 79.7221L293.045 67.368H295.205L289.65 82.3452H287.901L282.357 67.368H284.507L288.765 79.7221ZM305.687 75.4224H299.196V80.7302H306.736V82.3452H297.221V67.368H306.633V68.9932H299.196V73.8074H305.687V75.4224ZM311.18 80.7302H318.278V82.3452H309.195V67.368H311.18V80.7302ZM331.372 75.3401C331.372 76.8076 331.126 78.09 330.632 79.1872C330.138 80.2776 329.439 81.1108 328.533 81.6869C327.628 82.2629 326.572 82.5509 325.365 82.5509C324.186 82.5509 323.14 82.2629 322.228 81.6869C321.316 81.104 320.606 80.2776 320.098 79.2078C319.598 78.1311 319.341 76.8865 319.327 75.4738V74.3937C319.327 72.9536 319.577 71.6815 320.078 70.5774C320.578 69.4733 321.285 68.6298 322.197 68.0469C323.116 67.4571 324.165 67.1622 325.344 67.1622C326.545 67.1622 327.601 67.4537 328.513 68.0366C329.432 68.6126 330.138 69.4527 330.632 70.5568C331.126 71.654 331.372 72.933 331.372 74.3937V75.3401ZM329.408 74.3731C329.408 72.597 329.051 71.2357 328.338 70.2894C327.625 69.3361 326.627 68.8595 325.344 68.8595C324.096 68.8595 323.112 69.3361 322.392 70.2894C321.679 71.2357 321.312 72.5524 321.292 74.2394V75.3401C321.292 77.0613 321.652 78.4157 322.372 79.4033C323.099 80.3839 324.096 80.8742 325.365 80.8742C326.641 80.8742 327.628 80.4113 328.328 79.4855C329.027 78.5529 329.387 77.2191 329.408 75.4841V74.3731ZM336.31 76.4819V82.3452H334.335V67.368H339.859C341.498 67.368 342.78 67.7863 343.706 68.6229C344.639 69.4596 345.105 70.5671 345.105 71.9455C345.105 73.3993 344.649 74.5206 343.737 75.3092C342.832 76.091 341.532 76.4819 339.838 76.4819H336.31ZM336.31 74.8669H339.859C340.915 74.8669 341.724 74.62 342.286 74.1262C342.849 73.6256 343.13 72.9056 343.13 71.9661C343.13 71.0746 342.849 70.3614 342.286 69.8265C341.724 69.2916 340.953 69.0138 339.972 68.9932H336.31V74.8669ZM356.091 75.4224H349.6V80.7302H357.14V82.3452H347.625V67.368H357.037V68.9932H349.6V73.8074H356.091V75.4224ZM365.092 76.2864H361.574V82.3452H359.588V67.368H364.547C366.234 67.368 367.53 67.752 368.435 68.5201C369.347 69.2881 369.803 70.4059 369.803 71.8735C369.803 72.8061 369.549 73.6188 369.042 74.3114C368.541 75.004 367.842 75.5218 366.943 75.8647L370.461 82.2218V82.3452H368.342L365.092 76.2864ZM361.574 74.6714H364.608C365.589 74.6714 366.367 74.4177 366.943 73.9102C367.526 73.4028 367.818 72.7238 367.818 71.8735C367.818 70.9477 367.54 70.2379 366.985 69.7442C366.436 69.2504 365.64 69.0001 364.598 68.9932H361.574V74.6714Z"
                    fill="#B5C1C6"
                  />
                </g>
                <g id="frame1">
                  <path
                    id="Vector"
                    d="M476.62 325.95L250.75 456.36L24.87 325.95"
                    stroke="white"
                    stroke-miterlimit="10"
                  />
                  <path
                    id="Vector_2"
                    d="M247.8 543.45C295.898 543.45 334.89 504.458 334.89 456.36C334.89 408.262 295.898 369.27 247.8 369.27C199.702 369.27 160.71 408.262 160.71 456.36C160.71 504.458 199.702 543.45 247.8 543.45Z"
                    stroke="#939598"
                    stroke-width="0.25"
                    stroke-miterlimit="10"
                  />
                  <path
                    id="Vector_3"
                    d="M322.65 499.85L476.62 588.74"
                    stroke="white"
                    stroke-miterlimit="10"
                  />
                  <path
                    id="Vector_4"
                    d="M173.65 412.85L327.62 501.74"
                    stroke="white"
                    stroke-miterlimit="10"
                  />
                  <path
                    id="Vector_5"
                    d="M24.87 588.74L189.5 489"
                    stroke="white"
                    stroke-miterlimit="10"
                  />
                </g>
                <g id="2020">
                  <path
                    id="2020_2"
                    d="M239.069 37.9718H229.133V36.5866L234.382 30.7543C235.16 29.8726 235.695 29.1574 235.986 28.6089C236.285 28.0534 236.434 27.4806 236.434 26.8905C236.434 26.0989 236.194 25.4497 235.715 24.9429C235.236 24.436 234.597 24.1826 233.799 24.1826C232.841 24.1826 232.094 24.4569 231.56 25.0054C231.032 25.547 230.768 26.3038 230.768 27.2758H228.842C228.842 25.8802 229.289 24.752 230.185 23.891C231.088 23.03 232.292 22.5996 233.799 22.5996C235.208 22.5996 236.323 22.971 237.142 23.7139C237.961 24.4499 238.371 25.4324 238.371 26.6613C238.371 28.1541 237.42 29.9316 235.517 31.9937L231.456 36.3992H239.069V37.9718ZM250.619 31.5042C250.619 33.7608 250.234 35.4375 249.463 36.5346C248.692 37.6316 247.488 38.1801 245.849 38.1801C244.231 38.1801 243.033 37.6455 242.256 36.5762C241.478 35.5 241.075 33.8961 241.048 31.7646V29.1921C241.048 26.9634 241.433 25.3074 242.204 24.2243C242.974 23.1411 244.183 22.5996 245.828 22.5996C247.46 22.5996 248.661 23.1238 249.432 24.1722C250.202 25.2137 250.598 26.8245 250.619 29.0047V31.5042ZM248.692 28.8693C248.692 27.2376 248.463 26.0503 248.005 25.3074C247.547 24.5575 246.821 24.1826 245.828 24.1826C244.842 24.1826 244.124 24.5541 243.672 25.297C243.221 26.0399 242.988 27.1821 242.974 28.7235V31.8062C242.974 33.4448 243.211 34.6564 243.683 35.441C244.162 36.2186 244.884 36.6075 245.849 36.6075C246.8 36.6075 247.505 36.2395 247.963 35.5035C248.428 34.7675 248.671 33.608 248.692 32.025V28.8693ZM263.023 37.9718H253.087V36.5866L258.336 30.7543C259.114 29.8726 259.649 29.1574 259.94 28.6089C260.239 28.0534 260.388 27.4806 260.388 26.8905C260.388 26.0989 260.148 25.4497 259.669 24.9429C259.19 24.436 258.552 24.1826 257.753 24.1826C256.795 24.1826 256.048 24.4569 255.514 25.0054C254.986 25.547 254.722 26.3038 254.722 27.2758H252.796C252.796 25.8802 253.243 24.752 254.139 23.891C255.042 23.03 256.246 22.5996 257.753 22.5996C259.163 22.5996 260.277 22.971 261.096 23.7139C261.915 24.4499 262.325 25.4324 262.325 26.6613C262.325 28.1541 261.374 29.9316 259.471 31.9937L255.41 36.3992H263.023V37.9718ZM274.573 31.5042C274.573 33.7608 274.188 35.4375 273.417 36.5346C272.646 37.6316 271.442 38.1801 269.803 38.1801C268.185 38.1801 266.988 37.6455 266.21 36.5762C265.432 35.5 265.03 33.8961 265.002 31.7646V29.1921C265.002 26.9634 265.387 25.3074 266.158 24.2243C266.928 23.1411 268.137 22.5996 269.782 22.5996C271.414 22.5996 272.615 23.1238 273.386 24.1722C274.156 25.2137 274.552 26.8245 274.573 29.0047V31.5042ZM272.646 28.8693C272.646 27.2376 272.417 26.0503 271.959 25.3074C271.501 24.5575 270.775 24.1826 269.782 24.1826C268.796 24.1826 268.078 24.5541 267.626 25.297C267.175 26.0399 266.942 27.1821 266.928 28.7235V31.8062C266.928 33.4448 267.165 34.6564 267.637 35.441C268.116 36.2186 268.838 36.6075 269.803 36.6075C270.754 36.6075 271.459 36.2395 271.917 35.5035C272.382 34.7675 272.625 33.608 272.646 32.025V28.8693Z"
                    fill="#525556"
                  />
                </g>
                <path
                  id="hexagon"
                  d="M119.13 381.39L248.98 306.42L378.83 381.39V531.33L248.98 606.3L119.13 531.33V381.39Z"
                  stroke="white"
                  stroke-width="0.5"
                  stroke-miterlimit="10"
                />
                <g id="head">
                  <g id="Group">
                    <path
                      id="Vector_6"
                      d="M345.027 249.15H345.23V352.828L249.955 300.93L345.027 249.15Z"
                      fill="#353535"
                      stroke="#DAA520"
                    />
                    <g id="Group_2">
                      <path
                        id="Vector_7"
                        d="M247.865 300.93L152.78 352.728V249.138L247.865 300.93Z"
                        fill="#353535"
                        stroke="#DAA520"
                      />
                    </g>
                  </g>
                  <path
                    id="rightpanel"
                    d="M364.42 248.8H345.73V353.67H364.42V248.8Z"
                    fill="#E03030"
                  />
                  <path
                    id="rightsquare"
                    d="M495.41 248.8H364.42V353.67H495.41V248.8Z"
                    fill="#FFD700"
                  />
                  <path
                    id="leftpanel"
                    d="M152.28 248.8H133.59V353.67H152.28V248.8Z"
                    fill="#E03030"
                  />
                  <path
                    id="leftsquare"
                    d="M133.59 248.8H3.32999V353.67H133.59V248.8Z"
                    fill="#FFD700"
                  />
                </g>
                <g id="ring2">
                  <g id="Group_3">
                    <path
                      id="Vector_8"
                      d="M336.593 437.514C335.962 433.941 335.119 430.4 334.032 426.898C331.288 418.077 327.19 409.704 321.91 402.116C311.348 386.949 296.18 375.173 278.837 368.779L278.837 368.779C260.778 362.116 240.667 361.43 222.179 366.8C204.379 371.971 188.396 382.702 176.8 397.153C167.439 408.821 161.122 422.713 158.405 437.359C158.553 436.749 158.706 436.14 158.867 435.532M336.593 437.514L159.35 435.66M336.593 437.514C332.757 421.517 324.567 406.677 313.068 394.881L313.068 394.881C300.318 381.81 283.719 372.71 265.82 369.07L265.82 369.07C247.218 365.289 227.562 367.401 210.216 375.133L210.216 375.133C193.575 382.554 179.338 394.981 169.696 410.435M336.593 437.514L169.696 410.435M158.867 435.532L159.35 435.66M158.867 435.532C158.867 435.533 158.866 435.533 158.866 435.533L159.35 435.66M158.867 435.532C161.189 426.684 164.849 418.198 169.696 410.435M159.35 435.66C161.66 426.86 165.3 418.42 170.12 410.7L169.696 410.435C169.696 410.435 169.696 410.435 169.696 410.435M156.44 455.24C156.459 454.688 156.487 454.136 156.516 453.576L156.52 453.49C156.6 452.13 156.71 450.78 156.85 449.42C156.876 449.167 156.903 448.915 156.932 448.662C157.005 448.003 157.086 447.345 157.174 446.687L156.676 446.634C156.624 447.302 156.578 447.971 156.54 448.64C156.526 448.888 156.512 449.136 156.5 449.384C156.5 449.384 156.5 449.384 156.5 449.384C156.429 450.747 156.377 452.113 156.345 453.48C156.345 453.48 156.345 453.481 156.345 453.481C156.332 454.066 156.322 454.65 156.316 455.235L156.44 455.24ZM156.44 455.24C156.436 455.347 156.424 455.469 156.41 455.6L156.313 455.602C156.314 455.48 156.315 455.358 156.316 455.236L156.44 455.24ZM159.068 478.601C158.804 477.414 158.565 476.221 158.351 475.024C161.662 488.919 168.22 501.981 177.468 512.933L177.85 512.61L177.468 512.933C189.272 526.909 205.218 537.205 222.856 542.112C241.055 547.179 260.752 546.466 278.529 540.06C295.704 533.876 310.826 522.485 321.564 507.745C326.923 500.394 331.177 492.25 334.133 483.642C335.124 480.764 335.988 477.777 336.704 474.742C333.639 491.973 325.505 508.133 313.496 520.887L313.496 520.887C300.746 534.443 283.878 543.901 265.641 547.6C246.804 551.419 226.893 549.141 209.45 541.056C192.753 533.319 178.61 520.459 169.301 504.587L169.301 504.587C164.567 496.521 161.097 487.73 159.068 478.602L159.068 478.601Z"
                      fill="#DAA520"
                      stroke="#FFD700"
                    />
                  </g>
                </g>
                <g id="ring1">
                  <a class="logo" xlink:href="#">
                    <path
                      id="Vector_9"
                      d="M247.8 524.78C285.587 524.78 316.22 494.147 316.22 456.36C316.22 418.573 285.587 387.94 247.8 387.94C210.013 387.94 179.38 418.573 179.38 456.36C179.38 494.147 210.013 524.78 247.8 524.78Z"
                      fill="white"
                    />
                    <g id="Group_4">
                      <path
                        id="Vector_10"
                        d="M316.19 455.7C316.16 469.15 311.07 483.29 302.99 494.3C295 505.19 283.8 513.61 271.09 518.22C257.8 523.03 243.06 523.58 229.44 519.8C216.38 516.17 204.55 508.59 195.75 498.28C186.81 487.81 181.17 474.71 179.75 461.01C179.65 460.06 179.57 459.11 179.51 458.16C179.49 457.75 179.46 457.35 179.45 456.94C179.44 456.71 179.43 456.47 179.42 456.24C179.37 454.61 179.29 456.93 179.4 457.11C179.25 456.87 179.43 456.09 179.44 455.79C179.46 455.33 179.48 454.86 179.51 454.4C179.57 453.39 179.66 452.38 179.77 451.38C180.15 447.93 180.78 444.52 181.68 441.17C183.45 434.53 186.24 428.18 189.91 422.37C197.12 410.97 207.69 401.81 220.02 396.32C232.92 390.58 247.54 389.01 261.37 391.8C274.71 394.49 287.1 401.24 296.63 410.96C306.22 420.73 312.74 433.32 315.15 446.8C315.74 450.11 316.18 453.96 316.19 457.04C316.19 457.53 316.18 458.04 316.2 458.53C316.2 458.43 316.19 459.08 316.22 458.78C316.33 457.78 316.24 456.7 316.24 455.7C316.22 448.29 315.42 441.01 313.26 433.9C311.22 427.19 308.13 420.81 304.14 415.04C296.18 403.52 284.71 394.56 271.57 389.69C257.89 384.62 242.65 384.09 228.64 388.17C215.15 392.1 203.05 400.25 194.3 411.22C185.43 422.33 180.23 436.08 179.48 450.27C179.07 457.94 179.3 465.75 180.91 473.28C182.4 480.24 185 486.96 188.56 493.12C195.57 505.22 206.29 515.04 218.97 520.94C232.18 527.09 247.27 528.82 261.55 525.91C275.37 523.09 288.14 515.9 297.77 505.61C307.46 495.26 313.77 481.97 315.63 467.91C316.11 464.3 316.24 460.68 316.24 457.05C316.24 456.07 316.41 454.93 316.22 453.97C316.17 453.72 316.2 454.23 316.2 454.22C316.17 454.7 316.19 455.2 316.19 455.7Z"
                        fill="#FFD700"
                      />
                    </g>
                    <g id="icon">
                      <path
                        id="K"
                        d="M302.51 424.02H287.22C283.31 424.02 279.56 425.58 276.81 428.35L256.12 449.14V463.76L276.92 488.13C280.22 491.99 285.04 494.22 290.12 494.22H302.51L270.86 455.81L302.51 424.02Z"
                        fill="red"
                        stroke="#8D9CA5"
                        stroke-width="0.5"
                        stroke-miterlimit="10"
                      />
                      <path
                        id="Vector_11"
                        d="M231.95 492.95C252.324 492.95 268.84 476.434 268.84 456.06C268.84 435.686 252.324 419.17 231.95 419.17C211.576 419.17 195.06 435.686 195.06 456.06C195.06 476.434 211.576 492.95 231.95 492.95Z"
                        fill="black"
                        stroke="gold"
                        stroke-width="0.75"
                        stroke-miterlimit="10"
                      >
                        <animate
                          attributeType="XML"
                          attributeName="stroke-width"
                          from="0.75"
                          to="18"
                          begin="mouseover"
                          dur="1.5"
                          fill="freeze"
                        ></animate>
                      </path>
                      <path
                        id="JH"
                        d="M250.438 467.558C250.265 467.295 250.195 466.984 250.195 466.674V464.554V463.017V453.951C250.195 453.951 250.195 455.1 250.195 448.781C250.195 447.585 250.195 446.662 250.195 446.165C250.195 444.116 252.583 443.495 254.256 443.316C255.159 443.223 255.851 442.485 255.851 441.593V441.43C255.851 440.467 255.065 439.691 254.091 439.691H240.658C239.684 439.691 238.898 440.467 238.898 441.43V447.523C238.898 448.486 238.113 449.262 237.139 449.262H228.521C227.539 449.262 226.754 448.478 226.761 447.508C226.769 446.995 226.769 446.336 226.769 445.482C226.769 443.122 229.047 442.648 230.713 442.617C231.663 442.602 232.425 441.826 232.425 440.879V440.739C232.425 439.776 231.64 439 230.666 439H210.76C209.786 439 209 439.776 209 440.739V441.119C209 442.035 209.723 442.78 210.642 442.85C215.017 443.2 214.813 445.226 214.813 445.226C214.813 445.226 214.813 464.019 214.892 466.852C214.947 468.637 212.794 469.057 211.2 469.119C210.257 469.158 209.526 469.926 209.526 470.85V470.935C209.526 471.898 210.312 472.674 211.286 472.674H215.465C221.718 472.674 226.785 467.667 226.785 461.488V455.472C226.785 454.51 227.571 453.733 228.545 453.733H237.005C237.979 453.733 238.765 454.51 238.765 455.472V466.844C238.765 469.033 236.447 469.484 234.766 469.522C233.816 469.546 233.07 470.322 233.07 471.261C233.07 472.224 233.855 473 234.829 473H254.24C255.214 473 256 472.224 256 471.261V470.958C256 470.027 255.246 469.274 254.303 469.22C251.837 469.095 250.839 468.164 250.438 467.558Z"
                        fill="#FFD700"
                      />
                    </g>
                  </a>
                </g>
                <a xlink:href="projects.html">
                  <path
                    id="WEB"
                    d="M53.3477 309.617L56.793 291.406H62.0488L56.3711 317H51.0625L46.8965 299.879L42.7305 317H37.4219L31.7441 291.406H37L40.4629 309.582L44.6816 291.406H49.1465L53.3477 309.617ZM80.3125 305.908H70.1875V312.764H82.0703V317H64.9141V291.406H82.0352V295.678H70.1875V301.777H80.3125V305.908ZM85.1641 317V291.406H94.1289C97.2344 291.406 99.5898 292.004 101.195 293.199C102.801 294.383 103.604 296.123 103.604 298.42C103.604 299.674 103.281 300.781 102.637 301.742C101.992 302.691 101.096 303.389 99.9473 303.834C101.26 304.162 102.291 304.824 103.041 305.82C103.803 306.816 104.184 308.035 104.184 309.477C104.184 311.938 103.398 313.801 101.828 315.066C100.258 316.332 98.0195 316.977 95.1133 317H85.1641ZM90.4375 305.855V312.764H94.9551C96.1973 312.764 97.1641 312.471 97.8555 311.885C98.5586 311.287 98.9102 310.467 98.9102 309.424C98.9102 307.08 97.6973 305.891 95.2715 305.855H90.4375ZM90.4375 302.129H94.3398C97 302.082 98.3301 301.021 98.3301 298.947C98.3301 297.787 97.9902 296.955 97.3105 296.451C96.6426 295.936 95.582 295.678 94.1289 295.678H90.4375V302.129Z"
                    fill="black"
                  />
                </a>
                <path
                  id="GFX"
                  d="M414.461 313.766C413.512 314.902 412.17 315.787 410.436 316.42C408.701 317.041 406.779 317.352 404.67 317.352C402.455 317.352 400.51 316.871 398.834 315.91C397.17 314.938 395.881 313.531 394.967 311.691C394.064 309.852 393.602 307.689 393.578 305.205V303.465C393.578 300.91 394.006 298.701 394.861 296.838C395.729 294.963 396.971 293.533 398.588 292.549C400.217 291.553 402.121 291.055 404.301 291.055C407.336 291.055 409.709 291.781 411.42 293.234C413.131 294.676 414.145 296.779 414.461 299.545H409.328C409.094 298.08 408.572 297.008 407.764 296.328C406.967 295.648 405.865 295.309 404.459 295.309C402.666 295.309 401.301 295.982 400.363 297.33C399.426 298.678 398.951 300.682 398.939 303.342V304.977C398.939 307.66 399.449 309.688 400.469 311.059C401.488 312.43 402.982 313.115 404.951 313.115C406.932 313.115 408.344 312.693 409.188 311.85V307.438H404.389V303.553H414.461V313.766ZM434.148 306.541H424.023V317H418.75V291.406H435.414V295.678H424.023V302.287H434.148V306.541ZM447.631 300.23L452.43 291.406H458.494L451.041 304.098L458.688 317H452.553L447.631 308.035L442.709 317H436.574L444.221 304.098L436.768 291.406H442.832L447.631 300.23Z"
                  fill="black"
                />
                <path
                  id="OMPHALUS KUA"
                  d="M131.544 121.104C131.544 123.764 131.074 126.096 130.134 128.1C129.194 130.104 127.845 131.65 126.089 132.738C124.345 133.827 122.341 134.371 120.077 134.371C117.838 134.371 115.84 133.833 114.084 132.757C112.327 131.681 110.967 130.147 110.002 128.155C109.037 126.151 108.549 123.851 108.536 121.253V119.917C108.536 117.257 109.012 114.92 109.965 112.903C110.93 110.875 112.284 109.322 114.028 108.246C115.785 107.158 117.789 106.613 120.04 106.613C122.291 106.613 124.289 107.158 126.033 108.246C127.79 109.322 129.144 110.875 130.097 112.903C131.062 114.92 131.544 117.251 131.544 119.898V121.104ZM125.903 119.88C125.903 117.047 125.396 114.895 124.382 113.423C123.368 111.951 121.92 111.215 120.04 111.215C118.172 111.215 116.731 111.945 115.717 113.404C114.702 114.852 114.189 116.979 114.177 119.787V121.104C114.177 123.863 114.684 126.003 115.698 127.524C116.713 129.046 118.172 129.807 120.077 129.807C121.945 129.807 123.38 129.077 124.382 127.617C125.384 126.145 125.891 124.005 125.903 121.197V119.88ZM142.862 106.984L149.802 126.578L156.704 106.984H164.015V134H158.43V126.615L158.986 113.868L151.694 134H147.872L140.599 113.887L141.155 126.615V134H135.589V106.984H142.862ZM174.442 124.481V134H168.876V106.984H179.415C181.444 106.984 183.225 107.355 184.759 108.098C186.305 108.84 187.493 109.897 188.321 111.271C189.15 112.631 189.564 114.184 189.564 115.928C189.564 118.575 188.655 120.665 186.837 122.199C185.031 123.721 182.526 124.481 179.322 124.481H174.442ZM174.442 119.973H179.415C180.887 119.973 182.007 119.626 182.773 118.934C183.553 118.241 183.942 117.251 183.942 115.965C183.942 114.641 183.553 113.571 182.773 112.755C181.994 111.938 180.918 111.518 179.545 111.493H174.442V119.973ZM215.393 134H209.826V122.422H198.972V134H193.405V106.984H198.972V117.932H209.826V106.984H215.393V134ZM235.858 128.434H226.099L224.243 134H218.324L228.381 106.984H233.539L243.651 134H237.732L235.858 128.434ZM227.602 123.925H234.355L230.96 113.812L227.602 123.925ZM251.741 129.528H263.561V134L246.175 134V106.984H251.741V129.528ZM286.772 106.984V124.778C286.772 127.735 285.845 130.073 283.989 131.792C282.146 133.511 279.623 134.371 276.419 134.371C273.265 134.371 270.76 133.536 268.904 131.866C267.049 130.196 266.103 127.902 266.065 124.982V106.984H271.632V124.815C271.632 126.584 272.052 127.877 272.894 128.693C273.747 129.497 274.922 129.899 276.419 129.899C279.549 129.899 281.138 128.254 281.188 124.964V106.984H286.772ZM305.346 126.912C305.346 125.861 304.975 125.057 304.232 124.5C303.49 123.931 302.154 123.337 300.225 122.719C298.295 122.088 296.767 121.469 295.642 120.863C292.574 119.206 291.04 116.973 291.04 114.165C291.04 112.705 291.448 111.407 292.265 110.269C293.093 109.118 294.275 108.221 295.809 107.578C297.355 106.935 299.087 106.613 301.004 106.613C302.934 106.613 304.653 106.966 306.162 107.671C307.671 108.364 308.84 109.347 309.669 110.621C310.51 111.895 310.931 113.342 310.931 114.963H305.364C305.364 113.726 304.975 112.767 304.195 112.087C303.416 111.394 302.321 111.048 300.911 111.048C299.55 111.048 298.493 111.339 297.738 111.92C296.984 112.489 296.606 113.243 296.606 114.184C296.606 115.062 297.046 115.798 297.924 116.392C298.814 116.985 300.119 117.542 301.839 118.062C305.006 119.014 307.312 120.195 308.76 121.605C310.207 123.016 310.931 124.772 310.931 126.875C310.931 129.213 310.046 131.05 308.277 132.386C306.508 133.709 304.127 134.371 301.134 134.371C299.056 134.371 297.163 133.994 295.456 133.239C293.749 132.472 292.444 131.427 291.541 130.104C290.65 128.78 290.205 127.246 290.205 125.502H295.79C295.79 128.483 297.571 129.974 301.134 129.974C302.457 129.974 303.49 129.708 304.232 129.176C304.975 128.632 305.346 127.877 305.346 126.912ZM332.64 123.164L329.745 126.281V134H324.179V106.984L329.745 106.984V119.23L332.194 115.872L339.078 106.984H345.925L336.332 118.989L346.203 134H339.579L332.64 123.164ZM368.747 106.984V124.778C368.747 127.735 367.819 130.073 365.964 131.792C364.121 133.511 361.597 134.371 358.394 134.371C355.239 134.371 352.734 133.536 350.879 131.866C349.023 130.196 348.077 127.902 348.04 124.982V106.984H353.606V124.815C353.606 126.584 354.027 127.877 354.868 128.693C355.722 129.497 356.897 129.899 358.394 129.899C361.523 129.899 363.113 128.254 363.162 124.964V106.984H368.747ZM388.155 128.434H378.396L376.54 134H370.621L380.678 106.984H385.836L395.948 134H390.029L388.155 128.434ZM379.898 123.925H386.652L383.257 113.812L379.898 123.925Z"
                  fill="white"
                />

                <g id="projectsButton">
                  <a xlink:href="projects.html">
                    <path
                      d="M115.031 571.158L111.344 577.385L109.247 576.143L118.664 560.237L124.53 563.71C126.271 564.741 127.369 565.991 127.827 567.462C128.291 568.937 128.09 570.406 127.223 571.87C126.309 573.414 125.12 574.318 123.655 574.582C122.203 574.843 120.577 574.441 118.778 573.376L115.031 571.158ZM116.046 569.443L119.815 571.674C120.937 572.338 121.951 572.585 122.859 572.414C123.771 572.236 124.522 571.648 125.113 570.65C125.673 569.703 125.823 568.769 125.562 567.848C125.301 566.926 124.657 566.146 123.628 565.507L119.739 563.205L116.046 569.443ZM133.004 581.518L129.268 579.307L125.458 585.741L123.35 584.493L132.767 568.587L138.032 571.704C139.824 572.765 140.959 573.988 141.437 575.373C141.923 576.762 141.705 578.236 140.782 579.794C140.195 580.785 139.415 581.488 138.441 581.905C137.474 582.325 136.405 582.435 135.235 582.235L134.975 591.198L134.897 591.329L132.647 589.997L133.004 581.518ZM130.283 577.591L133.506 579.499C134.547 580.116 135.533 580.336 136.464 580.159C137.402 579.987 138.139 579.449 138.673 578.546C139.256 577.563 139.407 576.634 139.127 575.761C138.855 574.891 138.168 574.125 137.065 573.463L133.853 571.561L130.283 577.591ZM153.787 592.466C152.864 594.024 151.796 595.231 150.582 596.086C149.372 596.933 148.105 597.378 146.781 597.421C145.458 597.464 144.155 597.105 142.873 596.347C141.621 595.605 140.691 594.641 140.085 593.456C139.483 592.264 139.248 590.94 139.382 589.485C139.527 588.026 140.037 586.543 140.911 585.034L141.59 583.887C142.495 582.358 143.561 581.164 144.787 580.306C146.013 579.448 147.293 578.997 148.628 578.951C149.975 578.903 151.275 579.249 152.527 579.991C153.802 580.745 154.74 581.719 155.342 582.911C155.956 584.101 156.178 585.437 156.008 586.92C155.842 588.396 155.3 589.909 154.382 591.461L153.787 592.466ZM152.308 590.203C153.425 588.317 153.902 586.647 153.74 585.194C153.582 583.733 152.822 582.6 151.46 581.793C150.135 581.009 148.79 580.896 147.426 581.456C146.073 582.012 144.856 583.18 143.773 584.958L143.081 586.127C141.999 587.955 141.53 589.62 141.674 591.122C141.829 592.62 142.58 593.768 143.928 594.566C145.282 595.368 146.622 595.497 147.947 594.954C149.276 594.403 150.497 593.213 151.61 591.383L152.308 590.203ZM168.61 589.807L170.718 591.056L164.05 602.319C163.149 603.841 161.985 604.76 160.558 605.076C159.139 605.396 157.669 605.106 156.146 604.205C154.566 603.269 153.575 602.136 153.172 600.806C152.769 599.476 152.999 598.083 153.862 596.626L155.959 597.868C155.42 598.778 155.247 599.635 155.441 600.438C155.641 601.245 156.215 601.929 157.162 602.49C158.029 603.003 158.889 603.144 159.744 602.912C160.607 602.685 161.333 602.082 161.922 601.103L168.61 589.807ZM178.217 607.047L171.323 602.966L167.986 608.603L175.994 613.344L174.978 615.059L164.873 609.076L174.29 593.171L184.286 599.088L183.264 600.814L175.366 596.138L172.339 601.251L179.232 605.332L178.217 607.047ZM192.277 618.485C191.084 620.05 189.692 620.982 188.1 621.279C186.52 621.572 184.863 621.206 183.129 620.18C181.25 619.067 180.142 617.501 179.803 615.481C179.472 613.466 179.975 611.329 181.312 609.071L182.217 607.542C183.092 606.063 184.124 604.919 185.313 604.108C186.508 603.301 187.767 602.885 189.089 602.862C190.416 602.831 191.716 603.193 192.991 603.947C194.68 604.947 195.755 606.223 196.214 607.773C196.677 609.316 196.499 610.971 195.679 612.738L193.571 611.49C194.139 610.115 194.285 608.962 194.01 608.032C193.742 607.106 193.061 606.32 191.969 605.673C190.629 604.88 189.283 604.752 187.932 605.29C186.588 605.832 185.375 607.017 184.293 608.845L183.381 610.385C182.359 612.111 181.907 613.697 182.024 615.144C182.142 616.59 182.849 617.697 184.145 618.465C185.31 619.155 186.357 619.421 187.287 619.263C188.228 619.102 189.189 618.426 190.169 617.236L192.277 618.485ZM211.219 617.365L206.107 614.338L197.712 628.518L195.625 627.283L204.02 613.103L198.918 610.083L199.94 608.357L212.241 615.639L211.219 617.365ZM213.893 628.523C212.4 626.941 211.465 625.531 211.086 624.294C210.718 623.054 210.863 621.88 211.518 620.773C212.26 619.52 213.371 618.782 214.851 618.557C216.344 618.329 217.891 618.689 219.493 619.638C220.586 620.284 221.433 621.071 222.035 621.998C222.644 622.929 222.962 623.904 222.988 624.923C223.022 625.946 222.778 626.898 222.256 627.78L220.148 626.531C220.717 625.57 220.857 624.635 220.569 623.727C220.285 622.811 219.586 622.023 218.471 621.364C217.437 620.751 216.493 620.502 215.639 620.616C214.796 620.727 214.135 621.187 213.657 621.995C213.273 622.643 213.22 623.355 213.499 624.13C213.79 624.902 214.484 625.864 215.583 627.015C216.688 628.172 217.479 629.195 217.954 630.087C218.441 630.975 218.686 631.823 218.69 632.632C218.7 633.445 218.466 634.255 217.988 635.064C217.225 636.353 216.11 637.089 214.643 637.274C213.181 637.451 211.609 637.041 209.927 636.045C208.834 635.398 207.938 634.587 207.237 633.611C206.54 632.629 206.149 631.62 206.063 630.585C205.984 629.555 206.219 628.578 206.766 627.653L208.875 628.901C208.305 629.862 208.208 630.833 208.582 631.812C208.968 632.788 209.755 633.627 210.942 634.33C212.049 634.985 213.031 635.262 213.889 635.16C214.746 635.057 215.405 634.617 215.866 633.837C216.328 633.058 216.41 632.296 216.114 631.55C215.822 630.797 215.082 629.788 213.893 628.523Z"
                      fill="white"
                    />
                  </a>
                </g>
                <g id="contactButtom">
                  <path
                    id="contact"
                    d="M411.135 500.928C413.09 501.156 414.601 501.88 415.667 503.099C416.725 504.309 417.254 505.921 417.254 507.936C417.254 510.119 416.471 511.871 414.905 513.191C413.34 514.503 411.245 515.159 408.621 515.159L406.844 515.159C405.126 515.159 403.615 514.855 402.312 514.245C401.008 513.627 400.009 512.756 399.315 511.63C398.613 510.504 398.262 509.201 398.262 507.72C398.262 505.756 398.812 504.182 399.912 502.997C401.004 501.812 402.519 501.122 404.457 500.928L404.457 503.378C402.984 503.59 401.918 504.051 401.258 504.762C400.598 505.464 400.268 506.45 400.268 507.72C400.268 509.277 400.843 510.5 401.994 511.389C403.145 512.269 404.783 512.709 406.907 512.709L408.697 512.709C410.703 512.709 412.299 512.29 413.483 511.452C414.668 510.614 415.261 509.442 415.261 507.936C415.261 506.581 414.956 505.545 414.347 504.825C413.729 504.097 412.658 503.615 411.135 503.378L411.135 500.928ZM408.354 483.37C410.166 483.37 411.748 483.675 413.103 484.284C414.448 484.894 415.477 485.757 416.187 486.874C416.898 487.991 417.254 489.295 417.254 490.784C417.254 492.24 416.898 493.531 416.187 494.656C415.468 495.782 414.448 496.658 413.128 497.284C411.799 497.902 410.263 498.219 408.52 498.236L407.187 498.236C405.409 498.236 403.839 497.927 402.477 497.31C401.114 496.692 400.073 495.82 399.354 494.694C398.626 493.56 398.262 492.265 398.262 490.81C398.262 489.328 398.621 488.025 399.341 486.899C400.052 485.765 401.089 484.894 402.451 484.284C403.805 483.675 405.384 483.37 407.187 483.37L408.354 483.37ZM407.161 485.795C404.969 485.795 403.289 486.235 402.121 487.115C400.945 487.995 400.356 489.227 400.356 490.81C400.356 492.35 400.945 493.564 402.121 494.453C403.289 495.333 404.914 495.786 406.996 495.812L408.354 495.812C410.479 495.812 412.15 495.367 413.369 494.479C414.579 493.581 415.185 492.35 415.185 490.784C415.185 489.21 414.613 487.991 413.471 487.128C412.32 486.265 410.674 485.82 408.532 485.795L407.161 485.795ZM417 465.508L417 467.958L402.756 477.264L417 477.264L417 479.714L398.516 479.714L398.516 477.264L412.823 467.933L398.516 467.933L398.516 465.508L417 465.508ZM400.521 448.788L400.521 454.73L417 454.73L417 457.154L400.521 457.154L400.521 463.083L398.516 463.083L398.516 448.788L400.521 448.788ZM412.176 436.855L412.176 444.599L417 446.338L417 448.852L398.516 441.793L398.516 439.66L417 432.589L417 435.09L412.176 436.855ZM410.17 443.862L410.17 437.578L401.524 440.727L410.17 443.862ZM411.135 416.656C413.09 416.885 414.601 417.608 415.667 418.827C416.725 420.037 417.254 421.65 417.254 423.664C417.254 425.848 416.471 427.6 414.905 428.92C413.34 430.232 411.245 430.888 408.621 430.888L406.844 430.888C405.126 430.888 403.615 430.583 402.312 429.974C401.008 429.356 400.009 428.484 399.315 427.358C398.613 426.233 398.262 424.929 398.262 423.448C398.262 421.485 398.812 419.91 399.912 418.726C401.004 417.541 402.519 416.851 404.457 416.656L404.457 419.106C402.984 419.318 401.918 419.779 401.258 420.49C400.598 421.193 400.268 422.179 400.268 423.448C400.268 425.006 400.843 426.229 401.994 427.117C403.145 427.997 404.783 428.438 406.907 428.438L408.697 428.438C410.703 428.438 412.298 428.019 413.483 427.181C414.668 426.343 415.261 425.171 415.261 423.664C415.261 422.31 414.956 421.273 414.347 420.554C413.729 419.826 412.658 419.343 411.135 419.106L411.135 416.656ZM400.521 400.927L400.521 406.868L417 406.868L417 409.293L400.521 409.293L400.521 415.222L398.516 415.222L398.516 400.927L400.521 400.927Z"
                    fill="white"
                  />
                </g>
                <g id="aboutButton">
                  <path
                    id="life"
                    d="M307.723 619.246L301.54 622.858L302.417 627.329L299.534 629.013L296.241 609.53L298.729 608.077L314.092 620.511L311.198 622.201L307.723 619.246ZM301.012 620.167L305.638 617.465L299.458 612.194L301.012 620.167ZM315.912 619.448L306.589 603.486L312.06 600.291C313.865 599.237 315.45 598.796 316.815 598.969C318.181 599.142 319.282 599.945 320.118 601.377C320.545 602.108 320.732 602.881 320.679 603.696C320.626 604.511 320.313 605.302 319.741 606.067C320.74 605.797 321.663 605.851 322.511 606.228C323.361 606.594 324.051 607.23 324.581 608.136C325.456 609.634 325.646 611.067 325.15 612.435C324.663 613.798 323.523 615.002 321.733 616.048L315.912 619.448ZM314.479 610.625L317.392 615.613L320.472 613.814C321.342 613.306 321.896 612.694 322.134 611.977C322.371 611.259 322.266 610.517 321.818 609.75C320.849 608.091 319.506 607.738 317.789 608.692L314.479 610.625ZM313.288 608.586L316.006 606.999C316.869 606.495 317.428 605.908 317.684 605.239C317.943 604.559 317.864 603.86 317.445 603.144C316.984 602.355 316.425 601.917 315.767 601.831C315.116 601.741 314.316 601.973 313.366 602.528L310.669 604.103L313.288 608.586ZM338.396 596.171C339.309 597.735 339.841 599.267 339.992 600.767C340.138 602.26 339.893 603.618 339.256 604.843C338.622 606.056 337.651 607.045 336.342 607.809C335.049 608.565 333.71 608.925 332.328 608.89C330.948 608.843 329.638 608.397 328.4 607.552C327.169 606.703 326.104 605.517 325.204 603.994L324.679 603.095C323.77 601.538 323.242 600.004 323.094 598.492C322.954 596.977 323.201 595.612 323.835 594.399C324.472 593.174 325.441 592.182 326.742 591.422C328.043 590.662 329.377 590.304 330.746 590.348C332.117 590.38 333.421 590.824 334.656 591.681C335.887 592.53 336.961 593.731 337.877 595.283L338.396 596.171ZM335.136 596.958C334.103 595.189 332.975 594.03 331.752 593.48C330.536 592.926 329.314 593.007 328.087 593.724C326.888 594.424 326.224 595.444 326.095 596.784C325.969 598.112 326.4 599.639 327.389 601.365L327.927 602.286C328.951 604.04 330.083 605.197 331.322 605.758C332.568 606.314 333.797 606.238 335.011 605.529C336.238 604.812 336.908 603.793 337.019 602.474C337.138 601.15 336.672 599.589 335.622 597.791L335.136 596.958ZM347.929 579.342L354.159 590.008C355.149 591.704 355.39 593.367 354.882 594.996C354.376 596.615 353.221 597.951 351.416 599.005C349.589 600.073 347.854 600.434 346.212 600.089C344.566 599.737 343.237 598.695 342.225 596.963L336.002 586.308L338.764 584.694L345.001 595.372C345.624 596.439 346.37 597.096 347.24 597.343C348.109 597.59 349.07 597.406 350.122 596.791C352.256 595.545 352.666 593.796 351.351 591.545L345.166 580.955L347.929 579.342ZM363.739 573.107L358.762 576.014L366.778 589.739L364.026 591.346L356.01 577.621L351.077 580.502L349.771 578.266L362.432 570.871L363.739 573.107Z"
                    fill="white"
                  />
                </g>
                <g id="lifeButton">
                  <path
                    id="About"
                    d="M80.9932 437.984L80.9932 446.744L79 446.744L79 435.534L97.4844 435.534L97.4844 437.984L80.9932 437.984ZM79 452.14L79 449.702L97.4844 449.702L97.4844 452.14L79 452.14ZM87.1631 466.803L87.1631 459.046L79 459.046L79 456.608L97.4844 456.608L97.4844 468.06L95.4785 468.06L95.4785 459.046L89.1562 459.046L89.1562 466.803L87.1631 466.803ZM87.5439 481.428L87.5439 473.417L80.9932 473.417L80.9932 482.723L79 482.723L79 470.98L97.4844 470.98L97.4844 482.596L95.4785 482.596L95.4785 473.417L89.5371 473.417L89.5371 481.428L87.5439 481.428Z"
                    fill="white"
                  />
                </g>
              </g>
            </g>
            <path
              id="Vector_12"
              d="M248.981 606L248.985 783.787"
              stroke="white"
              stroke-miterlimit="10"
            />
            <defs>
              <clipPath id="clip0">
                <rect width="498.9" height="708.66" fill="white" />
              </clipPath>
            </defs>
          </svg>