 <svg
            width="499"
            height="785"
            viewBox="0 0 499 785"
            fill="none"
            xmlns="http://www.w3.org/2000/svg"
          >
            <g id="newSVG_frame">
              <g clip-path="url(#clip0)">
                <g id="web-dev">
                  <path
                    id="FRONTEND DEVELOPER"
                    d="M153.836 75.7309H147.551V82.3452H145.576V67.368H154.855V68.9932H147.551V74.116H153.836V75.7309ZM162.714 76.2864H159.196V82.3452H157.21V67.368H162.169C163.856 67.368 165.152 67.752 166.057 68.5201C166.969 69.2881 167.425 70.4059 167.425 71.8735C167.425 72.8061 167.171 73.6188 166.664 74.3114C166.163 75.004 165.464 75.5218 164.565 75.8647L168.083 82.2218V82.3452H165.964L162.714 76.2864ZM159.196 74.6714H162.23C163.211 74.6714 163.989 74.4177 164.565 73.9102C165.148 73.4028 165.44 72.7238 165.44 71.8735C165.44 70.9477 165.162 70.2379 164.606 69.7442C164.058 69.2504 163.262 69.0001 162.22 68.9932H159.196V74.6714ZM181.723 75.3401C181.723 76.8076 181.476 78.09 180.983 79.1872C180.489 80.2776 179.789 81.1108 178.884 81.6869C177.979 82.2629 176.923 82.5509 175.716 82.5509C174.536 82.5509 173.491 82.2629 172.579 81.6869C171.667 81.104 170.957 80.2776 170.449 79.2078C169.949 78.1311 169.691 76.8865 169.678 75.4738V74.3937C169.678 72.9536 169.928 71.6815 170.429 70.5774C170.929 69.4733 171.636 68.6298 172.548 68.0469C173.467 67.4571 174.516 67.1622 175.695 67.1622C176.896 67.1622 177.952 67.4537 178.864 68.0366C179.783 68.6126 180.489 69.4527 180.983 70.5568C181.476 71.654 181.723 72.933 181.723 74.3937V75.3401ZM179.759 74.3731C179.759 72.597 179.402 71.2357 178.689 70.2894C177.976 69.3361 176.978 68.8595 175.695 68.8595C174.447 68.8595 173.463 69.3361 172.743 70.2894C172.03 71.2357 171.663 72.5524 171.643 74.2394V75.3401C171.643 77.0613 172.003 78.4157 172.723 79.4033C173.45 80.3839 174.447 80.8742 175.716 80.8742C176.992 80.8742 177.979 80.4113 178.679 79.4855C179.378 78.5529 179.738 77.2191 179.759 75.4841V74.3731ZM196.197 82.3452H194.211L186.671 70.8037V82.3452H184.686V67.368H186.671L194.232 78.9609V67.368H196.197V82.3452ZM209.744 68.9932H204.93V82.3452H202.965V68.9932H198.161V67.368H209.744V68.9932ZM220.432 75.4224H213.941V80.7302H221.481V82.3452H211.966V67.368H221.378V68.9932H213.941V73.8074H220.432V75.4224ZM235.45 82.3452H233.465L225.925 70.8037V82.3452H223.939V67.368H225.925L233.485 78.9609V67.368H235.45V82.3452ZM238.958 82.3452V67.368H243.186C244.489 67.368 245.641 67.656 246.642 68.232C247.643 68.8081 248.415 69.6276 248.956 70.6905C249.505 71.7535 249.783 72.9741 249.79 74.3525V75.3092C249.79 76.7219 249.515 77.9597 248.967 79.0227C248.425 80.0856 247.647 80.9017 246.632 81.4709C245.624 82.04 244.447 82.3315 243.103 82.3452H238.958ZM240.933 68.9932V80.7302H243.011C244.533 80.7302 245.716 80.257 246.56 79.3107C247.41 78.3643 247.835 77.0168 247.835 75.2681V74.3937C247.835 72.693 247.434 71.3729 246.632 70.4334C245.836 69.487 244.705 69.007 243.237 68.9932H240.933ZM258.009 82.3452V67.368H262.236C263.539 67.368 264.691 67.656 265.693 68.232C266.694 68.8081 267.465 69.6276 268.007 70.6905C268.556 71.7535 268.833 72.9741 268.84 74.3525V75.3092C268.84 76.7219 268.566 77.9597 268.017 79.0227C267.476 80.0856 266.697 80.9017 265.682 81.4709C264.674 82.04 263.498 82.3315 262.154 82.3452H258.009ZM259.984 68.9932V80.7302H262.061C263.584 80.7302 264.767 80.257 265.61 79.3107C266.461 78.3643 266.886 77.0168 266.886 75.2681V74.3937C266.886 72.693 266.485 71.3729 265.682 70.4334C264.887 69.487 263.755 69.007 262.288 68.9932H259.984ZM280.3 75.4224H273.809V80.7302H281.349V82.3452H271.834V67.368H281.246V68.9932H273.809V73.8074H280.3V75.4224ZM288.765 79.7221L293.045 67.368H295.205L289.65 82.3452H287.901L282.357 67.368H284.507L288.765 79.7221ZM305.687 75.4224H299.196V80.7302H306.736V82.3452H297.221V67.368H306.633V68.9932H299.196V73.8074H305.687V75.4224ZM311.18 80.7302H318.278V82.3452H309.195V67.368H311.18V80.7302ZM331.372 75.3401C331.372 76.8076 331.126 78.09 330.632 79.1872C330.138 80.2776 329.439 81.1108 328.533 81.6869C327.628 82.2629 326.572 82.5509 325.365 82.5509C324.186 82.5509 323.14 82.2629 322.228 81.6869C321.316 81.104 320.606 80.2776 320.098 79.2078C319.598 78.1311 319.341 76.8865 319.327 75.4738V74.3937C319.327 72.9536 319.577 71.6815 320.078 70.5774C320.578 69.4733 321.285 68.6298 322.197 68.0469C323.116 67.4571 324.165 67.1622 325.344 67.1622C326.545 67.1622 327.601 67.4537 328.513 68.0366C329.432 68.6126 330.138 69.4527 330.632 70.5568C331.126 71.654 331.372 72.933 331.372 74.3937V75.3401ZM329.408 74.3731C329.408 72.597 329.051 71.2357 328.338 70.2894C327.625 69.3361 326.627 68.8595 325.344 68.8595C324.096 68.8595 323.112 69.3361 322.392 70.2894C321.679 71.2357 321.312 72.5524 321.292 74.2394V75.3401C321.292 77.0613 321.652 78.4157 322.372 79.4033C323.099 80.3839 324.096 80.8742 325.365 80.8742C326.641 80.8742 327.628 80.4113 328.328 79.4855C329.027 78.5529 329.387 77.2191 329.408 75.4841V74.3731ZM336.31 76.4819V82.3452H334.335V67.368H339.859C341.498 67.368 342.78 67.7863 343.706 68.6229C344.639 69.4596 345.105 70.5671 345.105 71.9455C345.105 73.3993 344.649 74.5206 343.737 75.3092C342.832 76.091 341.532 76.4819 339.838 76.4819H336.31ZM336.31 74.8669H339.859C340.915 74.8669 341.724 74.62 342.286 74.1262C342.849 73.6256 343.13 72.9056 343.13 71.9661C343.13 71.0746 342.849 70.3614 342.286 69.8265C341.724 69.2916 340.953 69.0138 339.972 68.9932H336.31V74.8669ZM356.091 75.4224H349.6V80.7302H357.14V82.3452H347.625V67.368H357.037V68.9932H349.6V73.8074H356.091V75.4224ZM365.092 76.2864H361.574V82.3452H359.588V67.368H364.547C366.234 67.368 367.53 67.752 368.435 68.5201C369.347 69.2881 369.803 70.4059 369.803 71.8735C369.803 72.8061 369.549 73.6188 369.042 74.3114C368.541 75.004 367.842 75.5218 366.943 75.8647L370.461 82.2218V82.3452H368.342L365.092 76.2864ZM361.574 74.6714H364.608C365.589 74.6714 366.367 74.4177 366.943 73.9102C367.526 73.4028 367.818 72.7238 367.818 71.8735C367.818 70.9477 367.54 70.2379 366.985 69.7442C366.436 69.2504 365.64 69.0001 364.598 68.9932H361.574V74.6714Z"
                    fill="#B5C1C6"
                  />
                </g>
                <g id="frame1">
                  <path
                    id="Vector"
                    d="M476.62 325.95L250.75 456.36L24.87 325.95"
                    stroke="white"
                    stroke-miterlimit="10"
                  />
                  <path
                    id="Vector_2"
                    d="M247.8 543.45C295.898 543.45 334.89 504.458 334.89 456.36C334.89 408.262 295.898 369.27 247.8 369.27C199.702 369.27 160.71 408.262 160.71 456.36C160.71 504.458 199.702 543.45 247.8 543.45Z"
                    stroke="#939598"
                    stroke-width="0.25"
                    stroke-miterlimit="10"
                  />
                  <path
                    id="Vector_3"
                    d="M322.65 499.85L476.62 588.74"
                    stroke="white"
                    stroke-miterlimit="10"
                  />
                  <path
                    id="Vector_4"
                    d="M173.65 412.85L327.62 501.74"
                    stroke="white"
                    stroke-miterlimit="10"
                  />
                  <path
                    id="Vector_5"
                    d="M24.87 588.74L189.5 489"
                    stroke="white"
                    stroke-miterlimit="10"
                  />
                </g>
                <g id="2020">
                  <path
                    id="2020_2"
                    d="M239.069 37.9718H229.133V36.5866L234.382 30.7543C235.16 29.8726 235.695 29.1574 235.986 28.6089C236.285 28.0534 236.434 27.4806 236.434 26.8905C236.434 26.0989 236.194 25.4497 235.715 24.9429C235.236 24.436 234.597 24.1826 233.799 24.1826C232.841 24.1826 232.094 24.4569 231.56 25.0054C231.032 25.547 230.768 26.3038 230.768 27.2758H228.842C228.842 25.8802 229.289 24.752 230.185 23.891C231.088 23.03 232.292 22.5996 233.799 22.5996C235.208 22.5996 236.323 22.971 237.142 23.7139C237.961 24.4499 238.371 25.4324 238.371 26.6613C238.371 28.1541 237.42 29.9316 235.517 31.9937L231.456 36.3992H239.069V37.9718ZM250.619 31.5042C250.619 33.7608 250.234 35.4375 249.463 36.5346C248.692 37.6316 247.488 38.1801 245.849 38.1801C244.231 38.1801 243.033 37.6455 242.256 36.5762C241.478 35.5 241.075 33.8961 241.048 31.7646V29.1921C241.048 26.9634 241.433 25.3074 242.204 24.2243C242.974 23.1411 244.183 22.5996 245.828 22.5996C247.46 22.5996 248.661 23.1238 249.432 24.1722C250.202 25.2137 250.598 26.8245 250.619 29.0047V31.5042ZM248.692 28.8693C248.692 27.2376 248.463 26.0503 248.005 25.3074C247.547 24.5575 246.821 24.1826 245.828 24.1826C244.842 24.1826 244.124 24.5541 243.672 25.297C243.221 26.0399 242.988 27.1821 242.974 28.7235V31.8062C242.974 33.4448 243.211 34.6564 243.683 35.441C244.162 36.2186 244.884 36.6075 245.849 36.6075C246.8 36.6075 247.505 36.2395 247.963 35.5035C248.428 34.7675 248.671 33.608 248.692 32.025V28.8693ZM263.023 37.9718H253.087V36.5866L258.336 30.7543C259.114 29.8726 259.649 29.1574 259.94 28.6089C260.239 28.0534 260.388 27.4806 260.388 26.8905C260.388 26.0989 260.148 25.4497 259.669 24.9429C259.19 24.436 258.552 24.1826 257.753 24.1826C256.795 24.1826 256.048 24.4569 255.514 25.0054C254.986 25.547 254.722 26.3038 254.722 27.2758H252.796C252.796 25.8802 253.243 24.752 254.139 23.891C255.042 23.03 256.246 22.5996 257.753 22.5996C259.163 22.5996 260.277 22.971 261.096 23.7139C261.915 24.4499 262.325 25.4324 262.325 26.6613C262.325 28.1541 261.374 29.9316 259.471 31.9937L255.41 36.3992H263.023V37.9718ZM274.573 31.5042C274.573 33.7608 274.188 35.4375 273.417 36.5346C272.646 37.6316 271.442 38.1801 269.803 38.1801C268.185 38.1801 266.988 37.6455 266.21 36.5762C265.432 35.5 265.03 33.8961 265.002 31.7646V29.1921C265.002 26.9634 265.387 25.3074 266.158 24.2243C266.928 23.1411 268.137 22.5996 269.782 22.5996C271.414 22.5996 272.615 23.1238 273.386 24.1722C274.156 25.2137 274.552 26.8245 274.573 29.0047V31.5042ZM272.646 28.8693C272.646 27.2376 272.417 26.0503 271.959 25.3074C271.501 24.5575 270.775 24.1826 269.782 24.1826C268.796 24.1826 268.078 24.5541 267.626 25.297C267.175 26.0399 266.942 27.1821 266.928 28.7235V31.8062C266.928 33.4448 267.165 34.6564 267.637 35.441C268.116 36.2186 268.838 36.6075 269.803 36.6075C270.754 36.6075 271.459 36.2395 271.917 35.5035C272.382 34.7675 272.625 33.608 272.646 32.025V28.8693Z"
                    fill="#525556"
                  />
                </g>
                <path
                  id="hexagon"
                  d="M119.13 381.39L248.98 306.42L378.83 381.39V531.33L248.98 606.3L119.13 531.33V381.39Z"
                  stroke="white"
                  stroke-width="0.5"
                  stroke-miterlimit="10"
                />
                <g id="head">
                  <g id="Group">
                    <path
                      id="Vector_6"
                      d="M345.73 353.67V248.65H344.9L248.91 300.93L345.73 353.67Z"
                      fill="black"
                    />
                    <g id="Group_2">
                      <path
                        id="Vector_7"
                        d="M248.91 300.93L152.93 248.65L152.28 248.55V353.57L248.91 300.93Z"
                        fill="black"
                      />
                    </g>
                  </g>
                  <path
                    id="rightpanel"
                    d="M364.42 248.8H345.73V353.67H364.42V248.8Z"
                    fill="red"
                  />
                  <path
                    id="rightsquare"
                    d="M495.41 248.8H364.42V353.67H495.41V248.8Z"
                    fill="gold"
                  />
                  <path
                    id="leftpanel"
                    d="M152.28 248.8H133.59V353.67H152.28V248.8Z"
                    fill="red"
                  />
                  <path
                    id="leftsquare"
                    d="M133.59 248.8H3.32999V353.67H133.59V248.8Z"
                    fill="gold"
                  />
                </g>
                <g id="ring2">
                  <g id="Group_3">
                    <path
                      id="Vector_8"
                      d="M338.56 455.7C338.54 464.79 336.7 474.65 333.66 483.48C330.72 492.04 326.49 500.14 321.16 507.45C310.48 522.11 295.44 533.44 278.36 539.59C260.68 545.96 241.09 546.67 222.99 541.63C205.45 536.75 189.59 526.51 177.85 512.61C165.96 498.53 158.54 480.94 156.79 462.59C156.68 461.41 156.59 460.22 156.52 459.04C156.49 458.46 156.46 457.88 156.44 457.29C156.43 457 156.42 456.71 156.41 456.41C156.4 456.14 156.4 455.87 156.39 455.61C156.39 456.11 156.39 456.61 156.39 457.1C156.22 456.64 156.42 455.76 156.44 455.24C156.46 454.66 156.49 454.08 156.52 453.49C156.6 452.13 156.71 450.78 156.85 449.42C157.33 444.78 158.16 440.17 159.35 435.66C161.66 426.86 165.3 418.42 170.12 410.7C179.71 395.33 193.87 382.97 210.42 375.59C227.67 367.9 247.22 365.8 265.72 369.56C283.52 373.18 300.03 382.23 312.71 395.23C325.49 408.34 334.16 425.23 337.27 443.28C338.04 447.75 338.56 452.74 338.57 457C338.57 457.49 338.56 458 338.58 458.49C338.58 458.39 338.57 459.04 338.6 458.74C338.71 457.74 338.62 456.66 338.62 455.66C338.6 445.84 337.43 436.16 334.51 426.75C331.75 417.88 327.63 409.46 322.32 401.83C311.7 386.58 296.45 374.74 279.01 368.31C260.85 361.61 240.63 360.92 222.04 366.32C204.14 371.52 188.07 382.31 176.41 396.84C164.6 411.56 157.61 429.8 156.54 448.64C155.97 458.68 156.39 468.88 158.58 478.71C160.62 487.89 164.11 496.73 168.87 504.84C178.23 520.8 192.45 533.73 209.24 541.51C226.78 549.64 246.8 551.93 265.74 548.09C284.08 544.37 301.04 534.86 313.86 521.23C326.75 507.54 335.2 489.95 337.75 471.31C338.4 466.55 338.62 461.77 338.63 456.97C338.63 455.99 338.8 454.85 338.61 453.89C338.56 453.64 338.59 454.15 338.59 454.14C338.54 454.7 338.56 455.2 338.56 455.7Z"
                      fill="gold"
                    />
                  </g>
                </g>
                <g id="ring1">
                  <a class="logo" xlink:href="#">
                    <path
                      id="Vector_9"
                      d="M247.8 524.78C285.587 524.78 316.22 494.147 316.22 456.36C316.22 418.573 285.587 387.94 247.8 387.94C210.013 387.94 179.38 418.573 179.38 456.36C179.38 494.147 210.013 524.78 247.8 524.78Z"
                      fill="white"
                    />
                    <g id="Group_4">
                      <path
                        id="Vector_10"
                        d="M316.19 455.7C316.16 469.15 311.07 483.29 302.99 494.3C295 505.19 283.8 513.61 271.09 518.22C257.8 523.03 243.06 523.58 229.44 519.8C216.38 516.17 204.55 508.59 195.75 498.28C186.81 487.81 181.17 474.71 179.75 461.01C179.65 460.06 179.57 459.11 179.51 458.16C179.49 457.75 179.46 457.35 179.45 456.94C179.44 456.71 179.43 456.47 179.42 456.24C179.37 454.61 179.29 456.93 179.4 457.11C179.25 456.87 179.43 456.09 179.44 455.79C179.46 455.33 179.48 454.86 179.51 454.4C179.57 453.39 179.66 452.38 179.77 451.38C180.15 447.93 180.78 444.52 181.68 441.17C183.45 434.53 186.24 428.18 189.91 422.37C197.12 410.97 207.69 401.81 220.02 396.32C232.92 390.58 247.54 389.01 261.37 391.8C274.71 394.49 287.1 401.24 296.63 410.96C306.22 420.73 312.74 433.32 315.15 446.8C315.74 450.11 316.18 453.96 316.19 457.04C316.19 457.53 316.18 458.04 316.2 458.53C316.2 458.43 316.19 459.08 316.22 458.78C316.33 457.78 316.24 456.7 316.24 455.7C316.22 448.29 315.42 441.01 313.26 433.9C311.22 427.19 308.13 420.81 304.14 415.04C296.18 403.52 284.71 394.56 271.57 389.69C257.89 384.62 242.65 384.09 228.64 388.17C215.15 392.1 203.05 400.25 194.3 411.22C185.43 422.33 180.23 436.08 179.48 450.27C179.07 457.94 179.3 465.75 180.91 473.28C182.4 480.24 185 486.96 188.56 493.12C195.57 505.22 206.29 515.04 218.97 520.94C232.18 527.09 247.27 528.82 261.55 525.91C275.37 523.09 288.14 515.9 297.77 505.61C307.46 495.26 313.77 481.97 315.63 467.91C316.11 464.3 316.24 460.68 316.24 457.05C316.24 456.07 316.41 454.93 316.22 453.97C316.17 453.72 316.2 454.23 316.2 454.22C316.17 454.7 316.19 455.2 316.19 455.7Z"
                        fill="gold"
                      />
                    </g>
                    <g id="icon">
                      <path
                        id="K"
                        d="M302.51 424.02H287.22C283.31 424.02 279.56 425.58 276.81 428.35L256.12 449.14V463.76L276.92 488.13C280.22 491.99 285.04 494.22 290.12 494.22H302.51L270.86 455.81L302.51 424.02Z"
                        fill="red"
                        stroke="#8D9CA5"
                        stroke-width="0.5"
                        stroke-miterlimit="10"
                      />
                      <path
                        id="Vector_11"
                        d="M231.95 492.95C252.324 492.95 268.84 476.434 268.84 456.06C268.84 435.686 252.324 419.17 231.95 419.17C211.576 419.17 195.06 435.686 195.06 456.06C195.06 476.434 211.576 492.95 231.95 492.95Z"
                        fill="black"
                        stroke="gold"
                        stroke-width="0.75"
                        stroke-miterlimit="10"
                      >
                        <animate
                          attributeType="XML"
                          attributeName="stroke-width"
                          from="0.75"
                          to="18"
                          begin="mouseover"
                          dur="1.5"
                          fill="freeze"
                        ></animate>
                      </path>
                      <path
                        id="JH"
                        d="M250.438 467.558C250.265 467.295 250.195 466.984 250.195 466.674V464.554V463.017V453.951C250.195 453.951 250.195 455.1 250.195 448.781C250.195 447.585 250.195 446.662 250.195 446.165C250.195 444.116 252.583 443.495 254.256 443.316C255.159 443.223 255.851 442.485 255.851 441.593V441.43C255.851 440.467 255.065 439.691 254.091 439.691H240.658C239.684 439.691 238.898 440.467 238.898 441.43V447.523C238.898 448.486 238.113 449.262 237.139 449.262H228.521C227.539 449.262 226.754 448.478 226.761 447.508C226.769 446.995 226.769 446.336 226.769 445.482C226.769 443.122 229.047 442.648 230.713 442.617C231.663 442.602 232.425 441.826 232.425 440.879V440.739C232.425 439.776 231.64 439 230.666 439H210.76C209.786 439 209 439.776 209 440.739V441.119C209 442.035 209.723 442.78 210.642 442.85C215.017 443.2 214.813 445.226 214.813 445.226C214.813 445.226 214.813 464.019 214.892 466.852C214.947 468.637 212.794 469.057 211.2 469.119C210.257 469.158 209.526 469.926 209.526 470.85V470.935C209.526 471.898 210.312 472.674 211.286 472.674H215.465C221.718 472.674 226.785 467.667 226.785 461.488V455.472C226.785 454.51 227.571 453.733 228.545 453.733H237.005C237.979 453.733 238.765 454.51 238.765 455.472V466.844C238.765 469.033 236.447 469.484 234.766 469.522C233.816 469.546 233.07 470.322 233.07 471.261C233.07 472.224 233.855 473 234.829 473H254.24C255.214 473 256 472.224 256 471.261V470.958C256 470.027 255.246 469.274 254.303 469.22C251.837 469.095 250.839 468.164 250.438 467.558Z"
                        fill="gold"
                      />
                    </g>
                  </a>
                </g>

                <path
                  id="About"
                  d="M72.9932 434.484L72.9932 443.244L71 443.244L71 432.034L89.4844 432.034L89.4844 434.484L72.9932 434.484ZM71 448.64L71 446.202L89.4844 446.202L89.4844 448.64L71 448.64ZM79.1631 463.303L79.1631 455.546L71 455.546L71 453.108L89.4844 453.108L89.4844 464.56L87.4785 464.56L87.4785 455.546L81.1562 455.546L81.1562 463.303L79.1631 463.303ZM79.5439 477.928L79.5439 469.917L72.9932 469.917L72.9932 479.223L71 479.223L71 467.479L89.4844 467.479L89.4844 479.096L87.4785 479.096L87.4785 469.917L81.5371 469.917L81.5371 477.928L79.5439 477.928Z"
                  fill="white"
                  stroke-width="1"
                >
                  <animate
                    attributeType="XML"
                    attributeName="stroke-width"
                    from="1"
                    to="30"
                    begin=""
                    dur="3"
                    fill="freeze"
                  ></animate>
                </path>

                <path
                  id="contact"
                  d="M413.865 416.072C411.91 415.844 410.399 415.12 409.333 413.901C408.275 412.691 407.746 411.079 407.746 409.064C407.746 406.881 408.529 405.129 410.095 403.809C411.66 402.497 413.755 401.841 416.379 401.841L418.156 401.841C419.874 401.841 421.385 402.146 422.688 402.755C423.992 403.373 424.991 404.244 425.685 405.37C426.387 406.496 426.738 407.799 426.738 409.28C426.738 411.244 426.188 412.818 425.088 414.003C423.996 415.188 422.481 415.878 420.543 416.072L420.543 413.622C422.016 413.41 423.082 412.949 423.742 412.238C424.402 411.536 424.732 410.55 424.732 409.28C424.732 407.723 424.157 406.5 423.006 405.611C421.855 404.731 420.217 404.291 418.093 404.291L416.303 404.291C414.297 404.291 412.701 404.71 411.517 405.548C410.332 406.386 409.739 407.558 409.739 409.064C409.739 410.419 410.044 411.455 410.653 412.175C411.271 412.903 412.342 413.385 413.865 413.622L413.865 416.072ZM416.646 433.63C414.834 433.63 413.252 433.325 411.897 432.716C410.552 432.106 409.523 431.243 408.812 430.126C408.102 429.009 407.746 427.705 407.746 426.216C407.746 424.76 408.102 423.469 408.812 422.344C409.532 421.218 410.552 420.342 411.872 419.716C413.201 419.098 414.737 418.781 416.48 418.764L417.813 418.764C419.591 418.764 421.161 419.073 422.523 419.69C423.886 420.308 424.927 421.18 425.646 422.306C426.374 423.44 426.738 424.735 426.738 426.19C426.738 427.672 426.379 428.975 425.659 430.101C424.948 431.235 423.911 432.106 422.549 432.716C421.195 433.325 419.616 433.63 417.813 433.63L416.646 433.63ZM417.839 431.205C420.031 431.205 421.711 430.765 422.879 429.885C424.055 429.005 424.644 427.773 424.644 426.19C424.644 424.65 424.055 423.436 422.879 422.547C421.711 421.667 420.086 421.214 418.004 421.188L416.646 421.188C414.521 421.188 412.85 421.633 411.631 422.521C410.421 423.419 409.815 424.65 409.815 426.216C409.815 427.79 410.387 429.009 411.529 429.872C412.68 430.735 414.326 431.18 416.468 431.205L417.839 431.205ZM408 451.492L408 449.042L422.244 439.736L408 439.736L408 437.286L426.484 437.286L426.484 439.736L412.177 449.067L426.484 449.067L426.484 451.492L408 451.492ZM424.479 468.212L424.479 462.271L408 462.271L408 459.846L424.479 459.846L424.479 453.917L426.484 453.917L426.484 468.212L424.479 468.212ZM412.824 480.146L412.824 472.401L408 470.662L408 468.148L426.484 475.207L426.484 477.34L408 484.411L408 481.91L412.824 480.146ZM414.83 473.138L414.83 479.422L423.476 476.273L414.83 473.138ZM413.865 500.344C411.91 500.115 410.399 499.392 409.333 498.173C408.275 496.963 407.746 495.35 407.746 493.336C407.746 491.152 408.529 489.4 410.095 488.08C411.66 486.768 413.755 486.112 416.379 486.112L418.156 486.112C419.874 486.112 421.385 486.417 422.688 487.026C423.992 487.644 424.991 488.516 425.685 489.642C426.387 490.767 426.738 492.071 426.738 493.552C426.738 495.515 426.188 497.09 425.088 498.274C423.996 499.459 422.481 500.149 420.543 500.344L420.543 497.894C422.016 497.682 423.082 497.221 423.742 496.51C424.402 495.807 424.732 494.821 424.732 493.552C424.732 491.994 424.157 490.771 423.006 489.883C421.855 489.003 420.217 488.562 418.093 488.562L416.303 488.562C414.297 488.562 412.701 488.981 411.517 489.819C410.332 490.657 409.739 491.829 409.739 493.336C409.739 494.69 410.044 495.727 410.653 496.446C411.271 497.174 412.342 497.657 413.865 497.894L413.865 500.344ZM424.479 516.073L424.479 510.132L408 510.132L408 507.707L424.479 507.707L424.479 501.778L426.484 501.778L426.484 516.073L424.479 516.073Z"
                  fill="white"
                />
                <path
                  id="life"
                  d="M311.06 624.992L304.877 628.603L305.754 633.074L302.871 634.758L299.578 615.275L302.066 613.822L317.429 626.256L314.535 627.946L311.06 624.992ZM304.349 625.912L308.975 623.21L302.795 617.939L304.349 625.912ZM319.249 625.193L309.926 609.231L315.397 606.036C317.202 604.982 318.787 604.541 320.152 604.714C321.518 604.887 322.619 605.69 323.455 607.122C323.882 607.853 324.069 608.626 324.016 609.441C323.963 610.256 323.65 611.047 323.078 611.812C324.077 611.542 325 611.596 325.848 611.973C326.698 612.339 327.388 612.975 327.917 613.881C328.793 615.379 328.982 616.812 328.487 618.18C327.999 619.543 326.86 620.747 325.07 621.793L319.249 625.193ZM317.816 616.37L320.729 621.358L323.809 619.559C324.679 619.051 325.233 618.439 325.47 617.722C325.708 617.004 325.603 616.262 325.155 615.495C324.186 613.836 322.843 613.483 321.126 614.437L317.816 616.37ZM316.625 614.331L319.343 612.744C320.206 612.24 320.765 611.654 321.021 610.984C321.28 610.304 321.201 609.605 320.782 608.889C320.321 608.1 319.762 607.662 319.104 607.576C318.453 607.486 317.653 607.718 316.703 608.273L314.006 609.848L316.625 614.331ZM341.733 601.916C342.646 603.48 343.178 605.012 343.329 606.512C343.475 608.005 343.23 609.363 342.593 610.588C341.959 611.801 340.987 612.79 339.679 613.554C338.386 614.31 337.047 614.67 335.664 614.635C334.284 614.588 332.975 614.142 331.737 613.297C330.506 612.448 329.441 611.262 328.541 609.739L328.016 608.84C327.107 607.283 326.579 605.749 326.431 604.238C326.291 602.722 326.538 601.357 327.172 600.144C327.809 598.919 328.778 597.927 330.079 597.167C331.38 596.407 332.714 596.049 334.083 596.093C335.454 596.125 336.757 596.57 337.993 597.426C339.224 598.275 340.298 599.476 341.214 601.028L341.733 601.916ZM338.473 602.703C337.44 600.935 336.312 599.775 335.089 599.225C333.873 598.671 332.651 598.752 331.423 599.469C330.225 600.169 329.561 601.189 329.432 602.529C329.306 603.857 329.737 605.384 330.726 607.11L331.264 608.031C332.288 609.785 333.42 610.942 334.658 611.503C335.905 612.059 337.134 611.983 338.347 611.274C339.575 610.557 340.245 609.539 340.356 608.219C340.475 606.895 340.009 605.334 338.959 603.536L338.473 602.703ZM351.266 585.087L357.496 595.753C358.486 597.449 358.727 599.112 358.218 600.741C357.713 602.36 356.558 603.696 354.753 604.75C352.926 605.818 351.191 606.179 349.549 605.834C347.903 605.482 346.574 604.441 345.562 602.708L339.339 592.053L342.101 590.439L348.337 601.117C348.961 602.184 349.707 602.841 350.576 603.088C351.446 603.335 352.407 603.151 353.459 602.536C355.593 601.29 356.003 599.541 354.688 597.29L348.503 586.7L351.266 585.087ZM367.075 578.852L362.098 581.759L370.115 595.484L367.363 597.091L359.347 583.366L354.414 586.247L353.108 584.011L365.769 576.616L367.075 578.852Z"
                  fill="white"
                />
                <a xlink:href="projects.html">
                  <path
                    id="projects"
                    d="M114.106 571.274L110.42 577.501L108.322 576.259L117.739 560.353L123.606 563.826C125.346 564.857 126.445 566.107 126.902 567.578C127.367 569.053 127.166 570.522 126.299 571.986C125.385 573.53 124.195 574.434 122.731 574.698C121.278 574.959 119.652 574.557 117.853 573.492L114.106 571.274ZM115.122 569.559L118.891 571.79C120.012 572.454 121.027 572.701 121.934 572.53C122.846 572.352 123.598 571.764 124.188 570.766C124.749 569.819 124.899 568.885 124.638 567.964C124.377 567.042 123.732 566.262 122.704 565.623L118.815 563.321L115.122 569.559ZM132.08 581.634L128.343 579.423L124.534 585.857L122.426 584.609L131.843 568.703L137.108 571.82C138.9 572.881 140.035 574.104 140.513 575.489C140.999 576.878 140.78 578.352 139.858 579.91C139.271 580.901 138.491 581.604 137.516 582.021C136.549 582.441 135.481 582.551 134.311 582.351L134.05 591.314L133.973 591.445L131.722 590.113L132.08 581.634ZM129.359 577.707L132.582 579.615C133.623 580.232 134.609 580.452 135.54 580.275C136.478 580.103 137.214 579.565 137.749 578.662C138.331 577.679 138.483 576.75 138.203 575.877C137.931 575.007 137.243 574.241 136.141 573.579L132.929 571.677L129.359 577.707ZM152.863 592.582C151.94 594.14 150.871 595.347 149.657 596.202C148.447 597.049 147.181 597.494 145.857 597.537C144.533 597.58 143.231 597.221 141.949 596.463C140.696 595.721 139.767 594.757 139.16 593.572C138.558 592.38 138.324 591.056 138.458 589.601C138.603 588.143 139.113 586.659 139.986 585.15L140.665 584.003C141.571 582.474 142.636 581.28 143.862 580.422C145.088 579.564 146.369 579.113 147.704 579.067C149.05 579.019 150.35 579.365 151.603 580.107C152.877 580.861 153.816 581.835 154.418 583.027C155.031 584.217 155.253 585.553 155.084 587.036C154.918 588.512 154.376 590.025 153.458 591.577L152.863 592.582ZM151.384 590.32C152.501 588.433 152.978 586.763 152.816 585.31C152.658 583.849 151.898 582.716 150.536 581.909C149.21 581.125 147.865 581.012 146.501 581.572C145.149 582.128 143.931 583.296 142.849 585.074L142.157 586.243C141.075 588.071 140.605 589.736 140.749 591.238C140.905 592.736 141.656 593.884 143.003 594.682C144.358 595.484 145.698 595.613 147.023 595.07C148.352 594.519 149.573 593.329 150.686 591.499L151.384 590.32ZM167.685 589.923L169.794 591.172L163.125 602.435C162.224 603.957 161.06 604.876 159.634 605.192C158.215 605.512 156.744 605.222 155.222 604.321C153.642 603.385 152.65 602.252 152.248 600.922C151.845 599.592 152.075 598.199 152.937 596.742L155.035 597.984C154.496 598.894 154.323 599.751 154.516 600.554C154.717 601.361 155.291 602.045 156.237 602.606C157.104 603.119 157.965 603.26 158.82 603.028C159.682 602.801 160.408 602.198 160.998 601.219L167.685 589.923ZM177.292 607.163L170.399 603.082L167.062 608.719L175.069 613.46L174.054 615.175L163.949 609.192L173.366 593.287L183.361 599.204L182.34 600.931L174.441 596.254L171.414 601.367L178.308 605.448L177.292 607.163ZM191.353 618.601C190.16 620.166 188.768 621.098 187.176 621.395C185.595 621.688 183.938 621.322 182.205 620.296C180.326 619.183 179.217 617.617 178.879 615.597C178.548 613.582 179.051 611.445 180.387 609.187L181.293 607.658C182.168 606.179 183.2 605.035 184.388 604.224C185.584 603.417 186.843 603.001 188.165 602.978C189.491 602.947 190.792 603.309 192.066 604.063C193.756 605.063 194.83 606.339 195.289 607.889C195.753 609.432 195.575 611.087 194.755 612.854L192.646 611.606C193.214 610.231 193.361 609.078 193.085 608.148C192.817 607.222 192.137 606.436 191.045 605.789C189.704 604.996 188.359 604.868 187.008 605.406C185.664 605.948 184.451 607.133 183.369 608.961L182.457 610.501C181.435 612.227 180.983 613.813 181.1 615.26C181.217 616.706 181.924 617.813 183.22 618.581C184.386 619.271 185.433 619.537 186.363 619.379C187.304 619.218 188.264 618.542 189.244 617.352L191.353 618.601ZM210.295 617.481L205.182 614.454L196.787 628.634L194.701 627.399L203.096 613.219L197.994 610.199L199.016 608.473L211.317 615.755L210.295 617.481ZM212.969 628.639C211.476 627.057 210.54 625.647 210.161 624.41C209.794 623.17 209.938 621.996 210.594 620.889C211.335 619.636 212.446 618.898 213.927 618.673C215.419 618.445 216.967 618.805 218.569 619.754C219.661 620.4 220.508 621.187 221.11 622.114C221.72 623.045 222.038 624.02 222.064 625.039C222.097 626.062 221.853 627.014 221.332 627.896L219.223 626.647C219.792 625.686 219.933 624.751 219.644 623.843C219.36 622.927 218.661 622.139 217.547 621.48C216.513 620.867 215.568 620.618 214.714 620.732C213.872 620.843 213.211 621.303 212.732 622.111C212.349 622.759 212.296 623.471 212.575 624.246C212.865 625.018 213.56 625.98 214.658 627.131C215.764 628.288 216.554 629.311 217.03 630.203C217.517 631.091 217.762 631.939 217.765 632.748C217.776 633.561 217.542 634.371 217.063 635.18C216.3 636.469 215.185 637.205 213.719 637.39C212.257 637.567 210.685 637.157 209.002 636.161C207.91 635.514 207.013 634.703 206.312 633.727C205.616 632.745 205.224 631.736 205.138 630.701C205.06 629.671 205.294 628.694 205.842 627.769L207.95 629.017C207.381 629.978 207.284 630.949 207.658 631.928C208.044 632.904 208.831 633.743 210.018 634.446C211.125 635.101 212.107 635.378 212.964 635.276C213.821 635.173 214.481 634.733 214.942 633.953C215.403 633.174 215.486 632.412 215.19 631.666C214.898 630.913 214.158 629.904 212.969 628.639Z"
                    fill="white"
                    stroke-width="4"
                  />
                </a>
                <path
                  id="WEB"
                  d="M53.3477 314.617L56.793 296.406H62.0488L56.3711 322H51.0625L46.8965 304.879L42.7305 322H37.4219L31.7441 296.406H37L40.4629 314.582L44.6816 296.406H49.1465L53.3477 314.617ZM80.3125 310.908H70.1875V317.764H82.0703V322H64.9141V296.406H82.0352V300.678H70.1875V306.777H80.3125V310.908ZM85.1641 322V296.406H94.1289C97.2344 296.406 99.5898 297.004 101.195 298.199C102.801 299.383 103.604 301.123 103.604 303.42C103.604 304.674 103.281 305.781 102.637 306.742C101.992 307.691 101.096 308.389 99.9473 308.834C101.26 309.162 102.291 309.824 103.041 310.82C103.803 311.816 104.184 313.035 104.184 314.477C104.184 316.938 103.398 318.801 101.828 320.066C100.258 321.332 98.0195 321.977 95.1133 322H85.1641ZM90.4375 310.855V317.764H94.9551C96.1973 317.764 97.1641 317.471 97.8555 316.885C98.5586 316.287 98.9102 315.467 98.9102 314.424C98.9102 312.08 97.6973 310.891 95.2715 310.855H90.4375ZM90.4375 307.129H94.3398C97 307.082 98.3301 306.021 98.3301 303.947C98.3301 302.787 97.9902 301.955 97.3105 301.451C96.6426 300.936 95.582 300.678 94.1289 300.678H90.4375V307.129Z"
                  fill="black"
                />
                <path
                  id="GFX"
                  d="M414.461 318.766C413.512 319.902 412.17 320.787 410.436 321.42C408.701 322.041 406.779 322.352 404.67 322.352C402.455 322.352 400.51 321.871 398.834 320.91C397.17 319.938 395.881 318.531 394.967 316.691C394.064 314.852 393.602 312.689 393.578 310.205V308.465C393.578 305.91 394.006 303.701 394.861 301.838C395.729 299.963 396.971 298.533 398.588 297.549C400.217 296.553 402.121 296.055 404.301 296.055C407.336 296.055 409.709 296.781 411.42 298.234C413.131 299.676 414.145 301.779 414.461 304.545H409.328C409.094 303.08 408.572 302.008 407.764 301.328C406.967 300.648 405.865 300.309 404.459 300.309C402.666 300.309 401.301 300.982 400.363 302.33C399.426 303.678 398.951 305.682 398.939 308.342V309.977C398.939 312.66 399.449 314.688 400.469 316.059C401.488 317.43 402.982 318.115 404.951 318.115C406.932 318.115 408.344 317.693 409.188 316.85V312.438H404.389V308.553H414.461V318.766ZM434.148 311.541H424.023V322H418.75V296.406H435.414V300.678H424.023V307.287H434.148V311.541ZM447.631 305.23L452.43 296.406H458.494L451.041 309.098L458.688 322H452.553L447.631 313.035L442.709 322H436.574L444.221 309.098L436.768 296.406H442.832L447.631 305.23Z"
                  fill="black"
                />
                <path
                  id="OMPHALUS KUA"
                  d="M131.544 121.104C131.544 123.764 131.074 126.096 130.134 128.1C129.194 130.104 127.845 131.65 126.089 132.738C124.345 133.827 122.341 134.371 120.077 134.371C117.838 134.371 115.84 133.833 114.084 132.757C112.327 131.681 110.967 130.147 110.002 128.155C109.037 126.151 108.549 123.851 108.536 121.253V119.917C108.536 117.257 109.012 114.92 109.965 112.903C110.93 110.875 112.284 109.322 114.028 108.246C115.785 107.158 117.789 106.613 120.04 106.613C122.291 106.613 124.289 107.158 126.033 108.246C127.79 109.322 129.144 110.875 130.097 112.903C131.062 114.92 131.544 117.251 131.544 119.898V121.104ZM125.903 119.88C125.903 117.047 125.396 114.895 124.382 113.423C123.368 111.951 121.92 111.215 120.04 111.215C118.172 111.215 116.731 111.945 115.717 113.404C114.702 114.852 114.189 116.979 114.177 119.787V121.104C114.177 123.863 114.684 126.003 115.698 127.524C116.713 129.046 118.172 129.807 120.077 129.807C121.945 129.807 123.38 129.077 124.382 127.617C125.384 126.145 125.891 124.005 125.903 121.197V119.88ZM142.862 106.984L149.802 126.578L156.704 106.984H164.015V134H158.43V126.615L158.986 113.868L151.694 134H147.872L140.599 113.887L141.155 126.615V134H135.589V106.984H142.862ZM174.442 124.481V134H168.876V106.984H179.415C181.444 106.984 183.225 107.355 184.759 108.098C186.305 108.84 187.493 109.897 188.321 111.271C189.15 112.631 189.564 114.184 189.564 115.928C189.564 118.575 188.655 120.665 186.837 122.199C185.031 123.721 182.526 124.481 179.322 124.481H174.442ZM174.442 119.973H179.415C180.887 119.973 182.007 119.626 182.773 118.934C183.553 118.241 183.942 117.251 183.942 115.965C183.942 114.641 183.553 113.571 182.773 112.755C181.994 111.938 180.918 111.518 179.545 111.493H174.442V119.973ZM215.393 134H209.826V122.422H198.972V134H193.405V106.984H198.972V117.932H209.826V106.984H215.393V134ZM235.858 128.434H226.099L224.243 134H218.324L228.381 106.984H233.539L243.651 134H237.732L235.858 128.434ZM227.602 123.925H234.355L230.96 113.812L227.602 123.925ZM251.741 129.528H263.561V134L246.175 134V106.984H251.741V129.528ZM286.772 106.984V124.778C286.772 127.735 285.845 130.073 283.989 131.792C282.146 133.511 279.623 134.371 276.419 134.371C273.265 134.371 270.76 133.536 268.904 131.866C267.049 130.196 266.103 127.902 266.065 124.982V106.984H271.632V124.815C271.632 126.584 272.052 127.877 272.894 128.693C273.747 129.497 274.922 129.899 276.419 129.899C279.549 129.899 281.138 128.254 281.188 124.964V106.984H286.772ZM305.346 126.912C305.346 125.861 304.975 125.057 304.232 124.5C303.49 123.931 302.154 123.337 300.225 122.719C298.295 122.088 296.767 121.469 295.642 120.863C292.574 119.206 291.04 116.973 291.04 114.165C291.04 112.705 291.448 111.407 292.265 110.269C293.093 109.118 294.275 108.221 295.809 107.578C297.355 106.935 299.087 106.613 301.004 106.613C302.934 106.613 304.653 106.966 306.162 107.671C307.671 108.364 308.84 109.347 309.669 110.621C310.51 111.895 310.931 113.342 310.931 114.963H305.364C305.364 113.726 304.975 112.767 304.195 112.087C303.416 111.394 302.321 111.048 300.911 111.048C299.55 111.048 298.493 111.339 297.738 111.92C296.984 112.489 296.606 113.243 296.606 114.184C296.606 115.062 297.046 115.798 297.924 116.392C298.814 116.985 300.119 117.542 301.839 118.062C305.006 119.014 307.312 120.195 308.76 121.605C310.207 123.016 310.931 124.772 310.931 126.875C310.931 129.213 310.046 131.05 308.277 132.386C306.508 133.709 304.127 134.371 301.134 134.371C299.056 134.371 297.163 133.994 295.456 133.239C293.749 132.472 292.444 131.427 291.541 130.104C290.65 128.78 290.205 127.246 290.205 125.502H295.79C295.79 128.483 297.571 129.974 301.134 129.974C302.457 129.974 303.49 129.708 304.232 129.176C304.975 128.632 305.346 127.877 305.346 126.912ZM332.64 123.164L329.745 126.281V134H324.179V106.984L329.745 106.984V119.23L332.194 115.872L339.078 106.984H345.925L336.332 118.989L346.203 134H339.579L332.64 123.164ZM368.747 106.984V124.778C368.747 127.735 367.819 130.073 365.964 131.792C364.121 133.511 361.597 134.371 358.394 134.371C355.239 134.371 352.734 133.536 350.879 131.866C349.023 130.196 348.077 127.902 348.04 124.982V106.984H353.606V124.815C353.606 126.584 354.027 127.877 354.868 128.693C355.722 129.497 356.897 129.899 358.394 129.899C361.523 129.899 363.113 128.254 363.162 124.964V106.984H368.747ZM388.155 128.434H378.396L376.54 134H370.621L380.678 106.984H385.836L395.948 134H390.029L388.155 128.434ZM379.898 123.925H386.652L383.257 113.812L379.898 123.925Z"
                  fill="white"
                />
              </g>
            </g>
            <path
              id="Vector_12"
              d="M248.981 606L248.985 783.787"
              stroke="white"
              stroke-miterlimit="10"
            />
            <defs>
              <clipPath id="clip0">
                <rect width="498.9" height="708.66" fill="white" />
              </clipPath>
            </defs>
          </svg>