<svg width="499" height="785" viewBox="0 0 499 785" fill="none" xmlns="http://www.w3.org/2000/svg">
<rect width="499" height="785" fill="#E5E5E5"/>
<g id="svg_named 1">
<g clip-path="url(#clip0)">
<g id="Group">
<path id="FRONTEND DEVELOPER" d="M153.836 75.7309H147.551V82.3452H145.576V67.368H154.855V68.9932H147.551V74.116H153.836V75.7309ZM162.714 76.2864H159.196V82.3452H157.21V67.368H162.169C163.856 67.368 165.152 67.752 166.057 68.5201C166.969 69.2881 167.425 70.4059 167.425 71.8735C167.425 72.8061 167.171 73.6188 166.664 74.3114C166.163 75.004 165.464 75.5218 164.565 75.8647L168.083 82.2218V82.3452H165.964L162.714 76.2864ZM159.196 74.6714H162.23C163.211 74.6714 163.989 74.4177 164.565 73.9102C165.148 73.4028 165.44 72.7238 165.44 71.8735C165.44 70.9477 165.162 70.2379 164.606 69.7442C164.058 69.2504 163.262 69.0001 162.22 68.9932H159.196V74.6714ZM181.723 75.3401C181.723 76.8076 181.476 78.09 180.983 79.1872C180.489 80.2776 179.789 81.1108 178.884 81.6869C177.979 82.2629 176.923 82.5509 175.716 82.5509C174.536 82.5509 173.491 82.2629 172.579 81.6869C171.667 81.104 170.957 80.2776 170.449 79.2078C169.949 78.1311 169.691 76.8865 169.678 75.4738V74.3937C169.678 72.9536 169.928 71.6815 170.429 70.5774C170.929 69.4733 171.636 68.6298 172.548 68.0469C173.467 67.4571 174.516 67.1622 175.695 67.1622C176.896 67.1622 177.952 67.4537 178.864 68.0366C179.783 68.6126 180.489 69.4527 180.983 70.5568C181.476 71.654 181.723 72.933 181.723 74.3937V75.3401ZM179.759 74.3731C179.759 72.597 179.402 71.2357 178.689 70.2894C177.976 69.3361 176.978 68.8595 175.695 68.8595C174.447 68.8595 173.463 69.3361 172.743 70.2894C172.03 71.2357 171.663 72.5524 171.643 74.2394V75.3401C171.643 77.0613 172.003 78.4157 172.723 79.4033C173.45 80.3839 174.447 80.8742 175.716 80.8742C176.992 80.8742 177.979 80.4113 178.679 79.4855C179.378 78.5529 179.738 77.2191 179.759 75.4841V74.3731ZM196.197 82.3452H194.211L186.671 70.8037V82.3452H184.686V67.368H186.671L194.232 78.9609V67.368H196.197V82.3452ZM209.744 68.9932H204.93V82.3452H202.965V68.9932H198.161V67.368H209.744V68.9932ZM220.432 75.4224H213.941V80.7302H221.481V82.3452H211.966V67.368H221.378V68.9932H213.941V73.8074H220.432V75.4224ZM235.45 82.3452H233.465L225.925 70.8037V82.3452H223.939V67.368H225.925L233.485 78.9609V67.368H235.45V82.3452ZM238.958 82.3452V67.368H243.186C244.489 67.368 245.641 67.656 246.642 68.232C247.643 68.8081 248.415 69.6276 248.956 70.6905C249.505 71.7535 249.783 72.9741 249.79 74.3525V75.3092C249.79 76.7219 249.515 77.9597 248.967 79.0227C248.425 80.0856 247.647 80.9017 246.632 81.4709C245.624 82.04 244.447 82.3315 243.103 82.3452H238.958ZM240.933 68.9932V80.7302H243.011C244.533 80.7302 245.716 80.257 246.56 79.3107C247.41 78.3643 247.835 77.0168 247.835 75.2681V74.3937C247.835 72.693 247.434 71.3729 246.632 70.4334C245.836 69.487 244.705 69.007 243.237 68.9932H240.933ZM258.009 82.3452V67.368H262.236C263.539 67.368 264.691 67.656 265.693 68.232C266.694 68.8081 267.465 69.6276 268.007 70.6905C268.556 71.7535 268.833 72.9741 268.84 74.3525V75.3092C268.84 76.7219 268.566 77.9597 268.017 79.0227C267.476 80.0856 266.697 80.9017 265.682 81.4709C264.674 82.04 263.498 82.3315 262.154 82.3452H258.009ZM259.984 68.9932V80.7302H262.061C263.584 80.7302 264.767 80.257 265.61 79.3107C266.461 78.3643 266.886 77.0168 266.886 75.2681V74.3937C266.886 72.693 266.485 71.3729 265.682 70.4334C264.887 69.487 263.755 69.007 262.288 68.9932H259.984ZM280.3 75.4224H273.809V80.7302H281.349V82.3452H271.834V67.368H281.246V68.9932H273.809V73.8074H280.3V75.4224ZM288.765 79.7221L293.045 67.368H295.205L289.65 82.3452H287.901L282.357 67.368H284.507L288.765 79.7221ZM305.687 75.4224H299.196V80.7302H306.736V82.3452H297.221V67.368H306.633V68.9932H299.196V73.8074H305.687V75.4224ZM311.18 80.7302H318.278V82.3452H309.195V67.368H311.18V80.7302ZM331.372 75.3401C331.372 76.8076 331.126 78.09 330.632 79.1872C330.138 80.2776 329.439 81.1108 328.533 81.6869C327.628 82.2629 326.572 82.5509 325.365 82.5509C324.186 82.5509 323.14 82.2629 322.228 81.6869C321.316 81.104 320.606 80.2776 320.098 79.2078C319.598 78.1311 319.341 76.8865 319.327 75.4738V74.3937C319.327 72.9536 319.577 71.6815 320.078 70.5774C320.578 69.4733 321.285 68.6298 322.197 68.0469C323.116 67.4571 324.165 67.1622 325.344 67.1622C326.545 67.1622 327.601 67.4537 328.513 68.0366C329.432 68.6126 330.138 69.4527 330.632 70.5568C331.126 71.654 331.372 72.933 331.372 74.3937V75.3401ZM329.408 74.3731C329.408 72.597 329.051 71.2357 328.338 70.2894C327.625 69.3361 326.627 68.8595 325.344 68.8595C324.096 68.8595 323.112 69.3361 322.392 70.2894C321.679 71.2357 321.312 72.5524 321.292 74.2394V75.3401C321.292 77.0613 321.652 78.4157 322.372 79.4033C323.099 80.3839 324.096 80.8742 325.365 80.8742C326.641 80.8742 327.628 80.4113 328.328 79.4855C329.027 78.5529 329.387 77.2191 329.408 75.4841V74.3731ZM336.31 76.4819V82.3452H334.335V67.368H339.859C341.498 67.368 342.78 67.7863 343.706 68.6229C344.639 69.4596 345.105 70.5671 345.105 71.9455C345.105 73.3993 344.649 74.5206 343.737 75.3092C342.832 76.091 341.532 76.4819 339.838 76.4819H336.31ZM336.31 74.8669H339.859C340.915 74.8669 341.724 74.62 342.286 74.1262C342.849 73.6256 343.13 72.9056 343.13 71.9661C343.13 71.0746 342.849 70.3614 342.286 69.8265C341.724 69.2916 340.953 69.0138 339.972 68.9932H336.31V74.8669ZM356.091 75.4224H349.6V80.7302H357.14V82.3452H347.625V67.368H357.037V68.9932H349.6V73.8074H356.091V75.4224ZM365.092 76.2864H361.574V82.3452H359.588V67.368H364.547C366.234 67.368 367.53 67.752 368.435 68.5201C369.347 69.2881 369.803 70.4059 369.803 71.8735C369.803 72.8061 369.549 73.6188 369.042 74.3114C368.541 75.004 367.842 75.5218 366.943 75.8647L370.461 82.2218V82.3452H368.342L365.092 76.2864ZM361.574 74.6714H364.608C365.589 74.6714 366.367 74.4177 366.943 73.9102C367.526 73.4028 367.818 72.7238 367.818 71.8735C367.818 70.9477 367.54 70.2379 366.985 69.7442C366.436 69.2504 365.64 69.0001 364.598 68.9932H361.574V74.6714Z" fill="#B5C1C6"/>
</g>
<g id="frame1">
<path id="Vector" d="M476.62 325.95L250.75 456.36L24.87 325.95" stroke="white" stroke-miterlimit="10"/>
<path id="Vector_2" d="M247.8 543.45C295.898 543.45 334.89 504.458 334.89 456.36C334.89 408.262 295.898 369.27 247.8 369.27C199.702 369.27 160.71 408.262 160.71 456.36C160.71 504.458 199.702 543.45 247.8 543.45Z" stroke="#939598" stroke-width="0.25" stroke-miterlimit="10"/>
<path id="Vector_3" d="M322.65 499.85L476.62 588.74" stroke="white" stroke-miterlimit="10"/>
<path id="Vector_4" d="M173.65 412.85L327.62 501.74" stroke="white" stroke-miterlimit="10"/>
<path id="Vector_5" d="M24.87 588.74L183.34 497.25" stroke="white" stroke-miterlimit="10"/>
</g>
<g id="Group_2">
<path id="2020" d="M239.069 37.9718H229.133V36.5866L234.382 30.7543C235.16 29.8726 235.695 29.1574 235.986 28.6089C236.285 28.0534 236.434 27.4806 236.434 26.8905C236.434 26.0989 236.194 25.4497 235.715 24.9429C235.236 24.436 234.597 24.1826 233.799 24.1826C232.841 24.1826 232.094 24.4569 231.56 25.0054C231.032 25.547 230.768 26.3038 230.768 27.2758H228.842C228.842 25.8802 229.289 24.752 230.185 23.891C231.088 23.03 232.292 22.5996 233.799 22.5996C235.208 22.5996 236.323 22.971 237.142 23.7139C237.961 24.4499 238.371 25.4324 238.371 26.6613C238.371 28.1541 237.42 29.9316 235.517 31.9937L231.456 36.3992H239.069V37.9718ZM250.619 31.5042C250.619 33.7608 250.234 35.4375 249.463 36.5346C248.692 37.6316 247.488 38.1801 245.849 38.1801C244.231 38.1801 243.033 37.6455 242.256 36.5762C241.478 35.5 241.075 33.8961 241.048 31.7646V29.1921C241.048 26.9634 241.433 25.3074 242.204 24.2243C242.974 23.1411 244.183 22.5996 245.828 22.5996C247.46 22.5996 248.661 23.1238 249.432 24.1722C250.202 25.2137 250.598 26.8245 250.619 29.0047V31.5042ZM248.692 28.8693C248.692 27.2376 248.463 26.0503 248.005 25.3074C247.547 24.5575 246.821 24.1826 245.828 24.1826C244.842 24.1826 244.124 24.5541 243.672 25.297C243.221 26.0399 242.988 27.1821 242.974 28.7235V31.8062C242.974 33.4448 243.211 34.6564 243.683 35.441C244.162 36.2186 244.884 36.6075 245.849 36.6075C246.8 36.6075 247.505 36.2395 247.963 35.5035C248.428 34.7675 248.671 33.608 248.692 32.025V28.8693ZM263.023 37.9718H253.087V36.5866L258.336 30.7543C259.114 29.8726 259.649 29.1574 259.94 28.6089C260.239 28.0534 260.388 27.4806 260.388 26.8905C260.388 26.0989 260.148 25.4497 259.669 24.9429C259.19 24.436 258.552 24.1826 257.753 24.1826C256.795 24.1826 256.048 24.4569 255.514 25.0054C254.986 25.547 254.722 26.3038 254.722 27.2758H252.796C252.796 25.8802 253.243 24.752 254.139 23.891C255.042 23.03 256.246 22.5996 257.753 22.5996C259.163 22.5996 260.277 22.971 261.096 23.7139C261.915 24.4499 262.325 25.4324 262.325 26.6613C262.325 28.1541 261.374 29.9316 259.471 31.9937L255.41 36.3992H263.023V37.9718ZM274.573 31.5042C274.573 33.7608 274.188 35.4375 273.417 36.5346C272.646 37.6316 271.442 38.1801 269.803 38.1801C268.185 38.1801 266.988 37.6455 266.21 36.5762C265.432 35.5 265.03 33.8961 265.002 31.7646V29.1921C265.002 26.9634 265.387 25.3074 266.158 24.2243C266.928 23.1411 268.137 22.5996 269.782 22.5996C271.414 22.5996 272.615 23.1238 273.386 24.1722C274.156 25.2137 274.552 26.8245 274.573 29.0047V31.5042ZM272.646 28.8693C272.646 27.2376 272.417 26.0503 271.959 25.3074C271.501 24.5575 270.775 24.1826 269.782 24.1826C268.796 24.1826 268.078 24.5541 267.626 25.297C267.175 26.0399 266.942 27.1821 266.928 28.7235V31.8062C266.928 33.4448 267.165 34.6564 267.637 35.441C268.116 36.2186 268.838 36.6075 269.803 36.6075C270.754 36.6075 271.459 36.2395 271.917 35.5035C272.382 34.7675 272.625 33.608 272.646 32.025V28.8693Z" fill="#525556"/>
</g>
<g id="Group_3">
<path id="OMPHALUS HARKIE KUA" d="M76.1227 113.473C76.1227 115.776 75.7353 117.789 74.9604 119.511C74.1856 121.222 73.0879 122.529 71.6673 123.433C70.2467 124.337 68.5894 124.789 66.6953 124.789C64.8442 124.789 63.203 124.337 61.7717 123.433C60.3403 122.519 59.2265 121.222 58.4301 119.543C57.6445 117.853 57.2409 115.9 57.2194 113.683V111.988C57.2194 109.728 57.6122 107.732 58.3978 105.999C59.1834 104.266 60.2919 102.943 61.7232 102.028C63.1653 101.102 64.8119 100.64 66.663 100.64C68.5463 100.64 70.2037 101.097 71.635 102.012C73.0771 102.916 74.1856 104.234 74.9604 105.967C75.7353 107.689 76.1227 109.696 76.1227 111.988V113.473ZM73.0394 111.956C73.0394 109.169 72.4798 107.032 71.3606 105.547C70.2413 104.051 68.6755 103.303 66.663 103.303C64.7043 103.303 63.16 104.051 62.03 105.547C60.9107 107.032 60.3349 109.099 60.3027 111.746V113.473C60.3027 116.175 60.8677 118.3 61.9977 119.85C63.1384 121.389 64.7043 122.158 66.6953 122.158C68.697 122.158 70.2467 121.432 71.3444 119.979C72.4421 118.515 73.0071 116.422 73.0394 113.699V111.956ZM84.7753 100.963L92.4594 120.14L100.143 100.963H104.163V124.467H101.064V115.314L101.354 105.434L93.6378 124.467H91.2648L83.5646 105.483L83.8713 115.314V124.467H80.7719V100.963H84.7753ZM112.735 115.265V124.467H109.635V100.963H118.304C120.876 100.963 122.889 101.619 124.342 102.932C125.805 104.245 126.537 105.983 126.537 108.146C126.537 110.428 125.821 112.187 124.39 113.425C122.969 114.652 120.93 115.265 118.272 115.265H112.735ZM112.735 112.731H118.304C119.962 112.731 121.231 112.343 122.114 111.568C122.996 110.783 123.438 109.653 123.438 108.178C123.438 106.779 122.996 105.66 122.114 104.821C121.231 103.981 120.021 103.545 118.482 103.513H112.735V112.731ZM148.556 124.467H145.44V113.602H133.592V124.467H130.492V100.963H133.592V111.068H145.44V100.963H148.556V124.467ZM167.33 118.332H157.483L155.271 124.467H152.075L161.051 100.963H163.763L172.754 124.467H169.574L167.33 118.332ZM158.419 115.782H166.41L162.407 104.788L158.419 115.782ZM179.034 121.932H190.172V124.467H175.918V100.963H179.034V121.932ZM209.383 100.963V116.944C209.372 119.161 208.672 120.974 207.284 122.384C205.906 123.794 204.034 124.585 201.666 124.757L200.843 124.789C198.271 124.789 196.221 124.095 194.692 122.707C193.164 121.319 192.389 119.408 192.368 116.976V100.963H195.435V116.879C195.435 118.58 195.903 119.904 196.839 120.851C197.776 121.787 199.11 122.255 200.843 122.255C202.597 122.255 203.937 121.787 204.863 120.851C205.799 119.914 206.267 118.596 206.267 116.896V100.963H209.383ZM221.199 113.99C218.541 113.226 216.604 112.289 215.388 111.181C214.182 110.062 213.58 108.684 213.58 107.048C213.58 105.197 214.317 103.669 215.791 102.464C217.276 101.248 219.203 100.64 221.57 100.64C223.185 100.64 224.621 100.952 225.881 101.576C227.15 102.2 228.13 103.061 228.819 104.159C229.518 105.257 229.868 106.456 229.868 107.759H226.752C226.752 106.338 226.3 105.224 225.396 104.417C224.492 103.599 223.217 103.19 221.57 103.19C220.042 103.19 218.848 103.529 217.987 104.207C217.137 104.874 216.711 105.805 216.711 107C216.711 107.958 217.115 108.77 217.922 109.438C218.74 110.094 220.123 110.697 222.071 111.246C224.03 111.794 225.558 112.402 226.655 113.07C227.764 113.726 228.582 114.496 229.109 115.378C229.647 116.261 229.916 117.299 229.916 118.494C229.916 120.399 229.174 121.927 227.689 123.078C226.203 124.219 224.218 124.789 221.732 124.789C220.118 124.789 218.611 124.483 217.212 123.869C215.813 123.245 214.731 122.395 213.967 121.319C213.214 120.243 212.837 119.021 212.837 117.654H215.953C215.953 119.075 216.475 120.2 217.519 121.028C218.573 121.846 219.978 122.255 221.732 122.255C223.368 122.255 224.621 121.921 225.493 121.254C226.365 120.587 226.801 119.678 226.801 118.526C226.801 117.374 226.397 116.487 225.59 115.862C224.783 115.227 223.319 114.603 221.199 113.99ZM260.168 124.467H257.053V113.602H245.204V124.467H242.104V100.963H245.204V111.068H257.053V100.963H260.168V124.467ZM278.942 118.332H269.095L266.884 124.467H263.687L272.663 100.963H275.375L284.366 124.467H281.186L278.942 118.332ZM270.031 115.782H278.022L274.019 104.788L270.031 115.782ZM296.151 114.958H290.63V124.467H287.514V100.963H295.295C297.943 100.963 299.977 101.565 301.397 102.771C302.829 103.976 303.544 105.73 303.544 108.033C303.544 109.497 303.146 110.772 302.35 111.859C301.564 112.946 300.466 113.758 299.056 114.297L304.577 124.273V124.467H301.252L296.151 114.958ZM290.63 112.424H295.392C296.931 112.424 298.152 112.026 299.056 111.229C299.971 110.433 300.429 109.368 300.429 108.033C300.429 106.58 299.993 105.466 299.121 104.692C298.26 103.917 297.012 103.524 295.376 103.513H290.63V112.424ZM313.876 113.538L311.002 116.524V124.467H307.903V100.963H311.002V112.585L321.447 100.963H325.192L315.942 111.342L325.918 124.467H322.205L313.876 113.538ZM331.956 124.467H328.856V100.963H331.956V124.467ZM350.924 113.602H340.737V121.932H352.57V124.467H337.638V100.963H352.409V103.513H340.737V111.068H350.924V113.602ZM370.602 113.538L367.728 116.524V124.467H364.629V100.963H367.728V112.585L378.173 100.963H381.918L372.668 111.342L382.644 124.467H378.932L370.602 113.538ZM401.903 100.963V116.944C401.892 119.161 401.193 120.974 399.804 122.384C398.427 123.794 396.554 124.585 394.187 124.757L393.363 124.789C390.791 124.789 388.741 124.095 387.213 122.707C385.685 121.319 384.91 119.408 384.888 116.976V100.963H387.956V116.879C387.956 118.58 388.424 119.904 389.36 120.851C390.296 121.787 391.631 122.255 393.363 122.255C395.118 122.255 396.457 121.787 397.383 120.851C398.319 119.914 398.787 118.596 398.787 116.896V100.963H401.903ZM419.418 118.332H409.571L407.359 124.467H404.163L413.138 100.963H415.85L424.842 124.467H421.662L419.418 118.332ZM410.507 115.782H418.498L414.494 104.788L410.507 115.782Z" fill="#5CC9E2"/>
</g>
<path id="hexagon" d="M119.13 381.39L248.98 306.42L378.83 381.39V531.33L248.98 606.3L119.13 531.33V381.39Z" stroke="white" stroke-width="0.5" stroke-miterlimit="10"/>
<g id="head">
<g id="Group_4">
<path id="Vector_6" d="M345.73 353.67V248.65H344.9L248.91 300.93L345.73 353.67Z" fill="#868687"/>
<g id="Group_5">
<path id="Vector_7" d="M248.91 300.93L152.93 248.65L152.28 248.55V353.57L248.91 300.93Z" fill="#868687"/>
</g>
</g>
<path id="rightpanel" d="M364.42 248.8H345.73V353.67H364.42V248.8Z" fill="#5CC9E2"/>
<path id="rightsquare" d="M495.41 248.8H364.42V353.67H495.41V248.8Z" fill="#353535"/>
<path id="leftpanel" d="M152.28 248.8H133.59V353.67H152.28V248.8Z" fill="#5CC9E2"/>
<path id="leftsquare" d="M133.59 248.8H3.32999V353.67H133.59V248.8Z" fill="#353535"/>
</g>
<g id="ring2">
<g id="Group_6">
<path id="Vector_8" d="M338.56 455.7C338.54 464.79 336.7 474.65 333.66 483.48C330.72 492.04 326.49 500.14 321.16 507.45C310.48 522.11 295.44 533.44 278.36 539.59C260.68 545.96 241.09 546.67 222.99 541.63C205.45 536.75 189.59 526.51 177.85 512.61C165.96 498.53 158.54 480.94 156.79 462.59C156.68 461.41 156.59 460.22 156.52 459.04C156.49 458.46 156.46 457.88 156.44 457.29C156.43 457 156.42 456.71 156.41 456.41C156.4 456.14 156.4 455.87 156.39 455.61C156.39 456.11 156.39 456.61 156.39 457.1C156.22 456.64 156.42 455.76 156.44 455.24C156.46 454.66 156.49 454.08 156.52 453.49C156.6 452.13 156.71 450.78 156.85 449.42C157.33 444.78 158.16 440.17 159.35 435.66C161.66 426.86 165.3 418.42 170.12 410.7C179.71 395.33 193.87 382.97 210.42 375.59C227.67 367.9 247.22 365.8 265.72 369.56C283.52 373.18 300.03 382.23 312.71 395.23C325.49 408.34 334.16 425.23 337.27 443.28C338.04 447.75 338.56 452.74 338.57 457C338.57 457.49 338.56 458 338.58 458.49C338.58 458.39 338.57 459.04 338.6 458.74C338.71 457.74 338.62 456.66 338.62 455.66C338.6 445.84 337.43 436.16 334.51 426.75C331.75 417.88 327.63 409.46 322.32 401.83C311.7 386.58 296.45 374.74 279.01 368.31C260.85 361.61 240.63 360.92 222.04 366.32C204.14 371.52 188.07 382.31 176.41 396.84C164.6 411.56 157.61 429.8 156.54 448.64C155.97 458.68 156.39 468.88 158.58 478.71C160.62 487.89 164.11 496.73 168.87 504.84C178.23 520.8 192.45 533.73 209.24 541.51C226.78 549.64 246.8 551.93 265.74 548.09C284.08 544.37 301.04 534.86 313.86 521.23C326.75 507.54 335.2 489.95 337.75 471.31C338.4 466.55 338.62 461.77 338.63 456.97C338.63 455.99 338.8 454.85 338.61 453.89C338.56 453.64 338.59 454.15 338.59 454.14C338.54 454.7 338.56 455.2 338.56 455.7Z" fill="#5CC9E2"/>
</g>
</g>
<g id="ring1">
<path id="Vector_9" d="M247.8 524.78C285.587 524.78 316.22 494.147 316.22 456.36C316.22 418.573 285.587 387.94 247.8 387.94C210.013 387.94 179.38 418.573 179.38 456.36C179.38 494.147 210.013 524.78 247.8 524.78Z" fill="white"/>
<g id="Group_7">
<path id="Vector_10" d="M316.19 455.7C316.16 469.15 311.07 483.29 302.99 494.3C295 505.19 283.8 513.61 271.09 518.22C257.8 523.03 243.06 523.58 229.44 519.8C216.38 516.17 204.55 508.59 195.75 498.28C186.81 487.81 181.17 474.71 179.75 461.01C179.65 460.06 179.57 459.11 179.51 458.16C179.49 457.75 179.46 457.35 179.45 456.94C179.44 456.71 179.43 456.47 179.42 456.24C179.37 454.61 179.29 456.93 179.4 457.11C179.25 456.87 179.43 456.09 179.44 455.79C179.46 455.33 179.48 454.86 179.51 454.4C179.57 453.39 179.66 452.38 179.77 451.38C180.15 447.93 180.78 444.52 181.68 441.17C183.45 434.53 186.24 428.18 189.91 422.37C197.12 410.97 207.69 401.81 220.02 396.32C232.92 390.58 247.54 389.01 261.37 391.8C274.71 394.49 287.1 401.24 296.63 410.96C306.22 420.73 312.74 433.32 315.15 446.8C315.74 450.11 316.18 453.96 316.19 457.04C316.19 457.53 316.18 458.04 316.2 458.53C316.2 458.43 316.19 459.08 316.22 458.78C316.33 457.78 316.24 456.7 316.24 455.7C316.22 448.29 315.42 441.01 313.26 433.9C311.22 427.19 308.13 420.81 304.14 415.04C296.18 403.52 284.71 394.56 271.57 389.69C257.89 384.62 242.65 384.09 228.64 388.17C215.15 392.1 203.05 400.25 194.3 411.22C185.43 422.33 180.23 436.08 179.48 450.27C179.07 457.94 179.3 465.75 180.91 473.28C182.4 480.24 185 486.96 188.56 493.12C195.57 505.22 206.29 515.04 218.97 520.94C232.18 527.09 247.27 528.82 261.55 525.91C275.37 523.09 288.14 515.9 297.77 505.61C307.46 495.26 313.77 481.97 315.63 467.91C316.11 464.3 316.24 460.68 316.24 457.05C316.24 456.07 316.41 454.93 316.22 453.97C316.17 453.72 316.2 454.23 316.2 454.22C316.17 454.7 316.19 455.2 316.19 455.7Z" fill="#98AFB7"/>
</g>
</g>
<g id="Group_8">
<g id="Group_9">
<path id="Vector_11" d="M262.158 276.181C261.234 275.265 260.363 274.341 259.104 272.985C256.295 275.6 253.144 276.71 249.561 276.71C243.213 276.71 239.533 272.449 239.533 267.554C239.533 263.099 242.2 260.045 245.925 258.011V257.87C244.234 255.739 243.213 253.363 243.213 251.038C243.213 247.068 246.074 243 251.498 243C255.565 243 258.716 245.712 258.716 249.928C258.716 253.37 256.727 256.082 251.55 258.644V258.786C254.314 261.982 257.413 265.565 259.491 267.89C260.989 265.61 262.009 262.466 262.635 258.346H266.509C265.637 263.479 264.237 267.547 261.815 270.407C263.559 272.248 265.257 274.088 267.187 276.174H262.158V276.181ZM257.025 270.564C255.088 268.433 251.453 264.463 247.825 260.298C246.082 261.416 243.608 263.494 243.608 266.936C243.608 270.668 246.372 273.521 250.291 273.521C253.107 273.514 255.476 272.255 257.025 270.564ZM247.102 250.658C247.102 252.983 248.168 254.778 249.576 256.521C252.868 254.629 254.999 252.886 254.999 250.129C254.999 248.14 253.881 245.913 251.222 245.913C248.503 245.913 247.102 248.14 247.102 250.658Z" fill="#D1D3D4"/>
</g>
</g>
<g id="icon">
<path id="K" d="M302.51 424.02H287.22C283.31 424.02 279.56 425.58 276.81 428.35L256.12 449.14V463.76L276.92 488.13C280.22 491.99 285.04 494.22 290.12 494.22H302.51L270.86 455.81L302.51 424.02Z" fill="#5CC9E2" stroke="#8D9CA5" stroke-width="0.5" stroke-miterlimit="10"/>
<path id="Vector_12" d="M231.95 492.95C252.324 492.95 268.84 476.434 268.84 456.06C268.84 435.686 252.324 419.17 231.95 419.17C211.576 419.17 195.06 435.686 195.06 456.06C195.06 476.434 211.576 492.95 231.95 492.95Z" fill="black" stroke="#5CC9E2" stroke-width="0.75" stroke-miterlimit="10"/>
<path id="JH" d="M255.23 470.68C255.01 470.34 254.92 469.94 254.92 469.54V466.81V464.83V453.15C254.92 453.15 254.92 454.63 254.92 446.49C254.92 444.95 254.92 443.76 254.92 443.12C254.92 440.48 257.96 439.68 260.09 439.45C261.24 439.33 262.12 438.38 262.12 437.23V437.02C262.12 435.78 261.12 434.78 259.88 434.78H242.78C241.54 434.78 240.54 435.78 240.54 437.02V444.87C240.54 446.11 239.54 447.11 238.3 447.11H227.33C226.08 447.11 225.08 446.1 225.09 444.85C225.1 444.19 225.1 443.34 225.1 442.24C225.1 439.2 228 438.59 230.12 438.55C231.33 438.53 232.3 437.53 232.3 436.31V436.13C232.3 434.89 231.3 433.89 230.06 433.89H204.72C203.48 433.89 202.48 434.89 202.48 436.13V436.62C202.48 437.8 203.4 438.76 204.57 438.85C210.14 439.3 209.88 441.91 209.88 441.91C209.88 441.91 209.88 466.12 209.98 469.77C210.05 472.07 207.31 472.61 205.28 472.69C204.08 472.74 203.15 473.73 203.15 474.92V475.03C203.15 476.27 204.15 477.27 205.39 477.27H210.71C218.67 477.27 225.12 470.82 225.12 462.86V455.11C225.12 453.87 226.12 452.87 227.36 452.87H238.13C239.37 452.87 240.37 453.87 240.37 455.11V469.76C240.37 472.58 237.42 473.16 235.28 473.21C234.07 473.24 233.12 474.24 233.12 475.45C233.12 476.69 234.12 477.69 235.36 477.69H260.07C261.31 477.69 262.31 476.69 262.31 475.45V475.06C262.31 473.86 261.35 472.89 260.15 472.82C257.01 472.66 255.74 471.46 255.23 470.68Z" fill="white"/>
</g>
<path id="Work-Life" d="M410.724 405.896L407.911 406.307L410.445 406.907L425.328 411.126L425.328 413.499L410.445 417.615L407.867 418.201L410.738 418.655L425.328 421.966L425.328 424.793L404 419.622L404 417.059L419.542 412.664L421.168 412.327L419.542 411.99L404 407.435L404 404.871L425.328 399.715L425.328 402.527L410.724 405.896ZM412.071 426.316C413.624 426.316 415.021 426.619 416.261 427.225C417.501 427.84 418.458 428.689 419.132 429.773C419.806 430.867 420.143 432.112 420.143 433.509C420.143 435.667 419.396 437.41 417.901 438.738C416.407 440.076 414.42 440.745 411.939 440.745L411.749 440.745C410.206 440.745 408.819 440.447 407.589 439.852C406.368 439.266 405.416 438.421 404.732 437.317C404.049 436.224 403.707 434.964 403.707 433.538C403.707 431.39 404.454 429.646 405.948 428.309C407.442 426.98 409.42 426.316 411.881 426.316L412.071 426.316ZM411.749 429.041C409.991 429.041 408.58 429.446 407.516 430.257C406.451 431.077 405.919 432.171 405.919 433.538C405.919 434.915 406.456 436.009 407.53 436.819C408.614 437.63 410.128 438.035 412.071 438.035C413.81 438.035 415.216 437.62 416.29 436.79C417.374 435.97 417.916 434.876 417.916 433.509C417.916 432.171 417.384 431.092 416.319 430.271C415.255 429.451 413.731 429.041 411.749 429.041ZM417.418 451.805C417.486 451.395 417.521 450.95 417.521 450.472C417.521 448.694 416.764 447.488 415.25 446.854L404 446.854L404 444.144L419.85 444.144L419.85 446.78L418.019 446.824C419.435 447.713 420.143 448.973 420.143 450.604C420.143 451.131 420.074 451.531 419.937 451.805L417.418 451.805ZM411.339 458.733L409.566 457.034L404 457.034L404 454.324L426.5 454.324L426.5 457.034L412.892 457.034L414.635 458.484L419.85 463.421L419.85 466.717L413.229 460.55L404 467.435L404 464.256L411.339 458.733ZM411.954 475.154L411.954 468.006L414.166 468.006L414.166 475.154L411.954 475.154ZM406.3 481.058L406.3 491.165L404 491.165L404 478.23L425.328 478.23L425.328 481.058L406.3 481.058ZM404 496.893L404 494.183L419.85 494.183L419.85 496.893L404 496.893ZM424.054 493.963C424.493 493.963 424.864 494.095 425.167 494.358C425.47 494.632 425.621 495.032 425.621 495.56C425.621 496.087 425.47 496.487 425.167 496.761C424.864 497.034 424.493 497.171 424.054 497.171C423.614 497.171 423.248 497.034 422.955 496.761C422.662 496.487 422.516 496.087 422.516 495.56C422.516 495.032 422.662 494.632 422.955 494.358C423.248 494.095 423.614 493.963 424.054 493.963ZM404 502.576L417.755 502.576L417.755 500.071L419.85 500.071L419.85 502.576L421.476 502.576C423.175 502.576 424.488 503.03 425.416 503.938C426.344 504.847 426.808 506.131 426.808 507.791C426.808 508.416 426.725 509.036 426.559 509.651L424.361 509.505C424.449 509.046 424.493 508.558 424.493 508.04C424.493 507.161 424.234 506.482 423.717 506.004C423.209 505.525 422.477 505.286 421.52 505.286L419.85 505.286L419.85 508.67L417.755 508.67L417.755 505.286L404 505.286L404 502.576ZM403.707 517.898C403.707 515.75 404.41 514.002 405.816 512.654C407.232 511.307 409.122 510.633 411.485 510.633L411.983 510.633C413.556 510.633 414.957 510.931 416.187 511.526C417.428 512.132 418.395 512.972 419.088 514.046C419.791 515.13 420.143 516.302 420.143 517.562C420.143 519.622 419.464 521.224 418.106 522.366C416.749 523.509 414.806 524.08 412.276 524.08L411.148 524.08L411.148 513.343C409.586 513.382 408.321 513.836 407.354 514.705C406.397 515.584 405.919 516.697 405.919 518.045C405.919 519.002 406.114 519.812 406.505 520.477C406.896 521.141 407.413 521.722 408.058 522.22L406.769 523.875C404.728 522.547 403.707 520.555 403.707 517.898ZM417.916 517.562C417.916 516.468 417.516 515.55 416.715 514.808C415.924 514.065 414.811 513.606 413.375 513.431L413.375 521.37L413.58 521.37C414.957 521.292 416.021 520.921 416.773 520.257C417.535 519.593 417.916 518.694 417.916 517.562Z" fill="#5CC9E2"/>
<path id="Education" d="M88.8584 407.513L88.8584 398.27L81.2998 398.27L81.2998 409.007L79 409.007L79 395.457L100.328 395.457L100.328 408.86L98.0137 408.86L98.0137 398.27L91.1582 398.27L91.1582 407.513L88.8584 407.513ZM87.0566 411.131C89.4883 411.131 91.4414 411.707 92.916 412.859C94.4004 414.012 95.1426 415.521 95.1426 417.386C95.1426 419.241 94.5078 420.711 93.2383 421.795L101.5 421.795L101.5 424.505L79 424.505L79 422.015L80.6992 421.883C79.3711 420.799 78.707 419.29 78.707 417.356C78.707 415.521 79.459 414.021 80.9629 412.859C82.4668 411.707 84.4297 411.131 86.8516 411.131L87.0566 411.131ZM86.749 413.841C84.9521 413.841 83.5459 414.212 82.5303 414.954C81.5146 415.696 81.0068 416.722 81.0068 418.03C81.0068 419.749 81.7783 421.004 83.3213 421.795L90.6016 421.795C92.0957 420.984 92.8428 419.739 92.8428 418.06C92.8428 416.731 92.3301 415.696 91.3047 414.954C90.2793 414.212 88.7607 413.841 86.749 413.841ZM80.5674 438.509C79.3271 437.454 78.707 435.906 78.707 433.865C78.707 432.176 79.1953 430.887 80.1719 429.998C81.1582 429.119 82.6133 428.675 84.5371 428.665L94.8496 428.665L94.8496 431.375L84.6103 431.375C82.208 431.375 81.0068 432.352 81.0068 434.305C81.0068 436.375 81.7783 437.752 83.3213 438.436L94.8496 438.436L94.8496 441.146L79 441.146L79 438.567L80.5674 438.509ZM80.9189 451.634C80.9189 452.601 81.2119 453.445 81.7978 454.168C82.3838 454.891 83.1162 455.291 83.9951 455.369L83.9951 457.933C83.0869 457.884 82.2227 457.571 81.4023 456.995C80.582 456.419 79.9277 455.647 79.4395 454.681C78.9512 453.724 78.707 452.708 78.707 451.634C78.707 449.476 79.4248 447.757 80.8603 446.478C82.3057 445.208 84.2783 444.573 86.7783 444.573L87.2324 444.573C88.7754 444.573 90.1475 444.856 91.3486 445.423C92.5498 445.989 93.4824 446.8 94.1465 447.854C94.8105 448.919 95.1426 450.174 95.1426 451.619C95.1426 453.396 94.6103 454.871 93.5459 456.043C92.4814 457.225 91.0996 457.854 89.4004 457.933L89.4004 455.369C90.4258 455.291 91.2656 454.9 91.9199 454.197C92.584 453.504 92.916 452.645 92.916 451.619C92.916 450.242 92.418 449.173 91.4219 448.411C90.4355 447.659 89.0049 447.283 87.1299 447.283L86.6172 447.283C84.791 447.283 83.3848 447.659 82.3984 448.411C81.4121 449.163 80.9189 450.237 80.9189 451.634ZM79 470.765C79.3125 470.608 79.8691 470.481 80.6699 470.384C79.3613 469.124 78.707 467.62 78.707 465.872C78.707 464.31 79.1465 463.025 80.0254 462.02C80.9141 461.023 82.0371 460.525 83.3945 460.525C85.0449 460.525 86.3242 461.15 87.2324 462.4C88.1504 463.66 88.6094 465.428 88.6094 467.703L88.6094 470.34L89.8545 470.34C90.8018 470.34 91.5537 470.057 92.1103 469.49C92.6768 468.924 92.96 468.089 92.96 466.985C92.96 466.019 92.7158 465.208 92.2275 464.554C91.7393 463.899 91.1484 463.572 90.4551 463.572L90.4551 460.848C91.2461 460.848 92.0078 461.126 92.7402 461.683C93.4824 462.249 94.0684 463.011 94.498 463.968C94.9277 464.935 95.1426 465.994 95.1426 467.146C95.1426 468.973 94.6836 470.403 93.7656 471.438C92.8574 472.474 91.6025 473.011 90.001 473.05L82.7061 473.05C81.251 473.05 80.0937 473.235 79.2344 473.606L79 473.606L79 470.765ZM81.0654 466.268C81.0654 467.117 81.2852 467.923 81.7246 468.685C82.1641 469.446 82.7353 469.998 83.4385 470.34L86.6904 470.34L86.6904 468.216C86.6904 464.896 85.7187 463.235 83.7754 463.235C82.9258 463.235 82.2617 463.519 81.7832 464.085C81.3047 464.651 81.0654 465.379 81.0654 466.268ZM98.6875 480.975L94.8496 480.975L94.8496 483.934L92.7549 483.934L92.7549 480.975L82.9258 480.975C82.291 480.975 81.8125 481.106 81.4902 481.37C81.1777 481.634 81.0215 482.083 81.0215 482.718C81.0215 483.03 81.0801 483.46 81.1973 484.007L79 484.007C78.8047 483.294 78.707 482.601 78.707 481.927C78.707 480.716 79.0732 479.803 79.8057 479.187C80.5381 478.572 81.5781 478.265 82.9258 478.265L92.7549 478.265L92.7549 475.379L94.8496 475.379L94.8496 478.265L98.6875 478.265L98.6875 480.975ZM79 490.057L79 487.347L94.8496 487.347L94.8496 490.057L79 490.057ZM99.0537 487.127C99.4932 487.127 99.8643 487.259 100.167 487.522C100.47 487.796 100.621 488.196 100.621 488.724C100.621 489.251 100.47 489.651 100.167 489.925C99.8643 490.198 99.4932 490.335 99.0537 490.335C98.6143 490.335 98.248 490.198 97.9551 489.925C97.6621 489.651 97.5156 489.251 97.5156 488.724C97.5156 488.196 97.6621 487.796 97.9551 487.522C98.248 487.259 98.6143 487.127 99.0537 487.127ZM87.0713 493.689C88.624 493.689 90.0205 493.992 91.2607 494.598C92.501 495.213 93.458 496.062 94.1318 497.146C94.8057 498.24 95.1426 499.485 95.1426 500.882C95.1426 503.04 94.3955 504.783 92.9014 506.111C91.4072 507.449 89.4199 508.118 86.9394 508.118L86.749 508.118C85.206 508.118 83.8193 507.82 82.5889 507.225C81.3682 506.639 80.416 505.794 79.7324 504.69C79.0488 503.597 78.707 502.337 78.707 500.911C78.707 498.763 79.4541 497.02 80.9482 495.682C82.4424 494.354 84.4199 493.689 86.8809 493.689L87.0713 493.689ZM86.749 496.414C84.9912 496.414 83.5801 496.819 82.5156 497.63C81.4512 498.45 80.9189 499.544 80.9189 500.911C80.9189 502.288 81.456 503.382 82.5303 504.192C83.6143 505.003 85.1279 505.408 87.0713 505.408C88.8096 505.408 90.2158 504.993 91.29 504.163C92.374 503.343 92.916 502.249 92.916 500.882C92.916 499.544 92.3838 498.465 91.3193 497.645C90.2549 496.824 88.7314 496.414 86.749 496.414ZM94.8496 514.08L92.8574 514.168C94.3809 515.379 95.1426 516.961 95.1426 518.914C95.1426 522.264 93.2529 523.953 89.4736 523.982L79 523.982L79 521.272L89.4883 521.272C90.6309 521.263 91.4756 520.999 92.0225 520.481C92.5693 519.974 92.8428 519.178 92.8428 518.094C92.8428 517.215 92.6084 516.443 92.1396 515.779C91.6709 515.115 91.0557 514.598 90.2939 514.227L79 514.227L79 511.517L94.8496 511.517L94.8496 514.08Z" fill="#5CC9E2"/>
<path id="About" d="M42.8066 311.434H33.8711L31.8643 317H28.9639L37.1084 295.672H39.5693L47.7285 317H44.8428L42.8066 311.434ZM34.7207 309.119H41.9717L38.3389 299.144L34.7207 309.119ZM63.5928 309.251C63.5928 311.673 63.0361 313.621 61.9229 315.096C60.8096 316.561 59.3154 317.293 57.4404 317.293C55.4385 317.293 53.8906 316.585 52.7969 315.169L52.665 317H50.1748L50.1748 294.5H52.8848V302.894C53.9785 301.536 55.4873 300.857 57.4111 300.857C59.335 300.857 60.8438 301.585 61.9375 303.04C63.041 304.495 63.5928 306.487 63.5928 309.017V309.251ZM60.8828 308.943C60.8828 307.098 60.5264 305.672 59.8135 304.666C59.1006 303.66 58.0752 303.157 56.7373 303.157C54.9502 303.157 53.666 303.987 52.8848 305.647L52.8848 312.503C53.7148 314.163 55.0088 314.993 56.7666 314.993C58.0654 314.993 59.0762 314.49 59.7988 313.484C60.5215 312.479 60.8828 310.965 60.8828 308.943ZM66.3027 308.929C66.3027 307.376 66.6055 305.979 67.2109 304.739C67.8262 303.499 68.6758 302.542 69.7598 301.868C70.8535 301.194 72.0986 300.857 73.4951 300.857C75.6533 300.857 77.3965 301.604 78.7246 303.099C80.0625 304.593 80.7314 306.58 80.7314 309.061V309.251C80.7314 310.794 80.4336 312.181 79.8379 313.411C79.252 314.632 78.4072 315.584 77.3037 316.268C76.21 316.951 74.9502 317.293 73.5244 317.293C71.376 317.293 69.6328 316.546 68.2949 315.052C66.9668 313.558 66.3027 311.58 66.3027 309.119V308.929ZM69.0273 309.251C69.0273 311.009 69.4326 312.42 70.2432 313.484C71.0635 314.549 72.1572 315.081 73.5244 315.081C74.9014 315.081 75.9951 314.544 76.8057 313.47C77.6162 312.386 78.0215 310.872 78.0215 308.929C78.0215 307.19 77.6064 305.784 76.7764 304.71C75.9561 303.626 74.8623 303.084 73.4951 303.084C72.1572 303.084 71.0781 303.616 70.2578 304.681C69.4375 305.745 69.0273 307.269 69.0273 309.251ZM93.915 315.433C92.8604 316.673 91.3125 317.293 89.2715 317.293C87.582 317.293 86.293 316.805 85.4043 315.828C84.5254 314.842 84.0811 313.387 84.0713 311.463V301.15H86.7812V311.39C86.7812 313.792 87.7578 314.993 89.7109 314.993C91.7812 314.993 93.1582 314.222 93.8418 312.679V301.15H96.5518V317H93.9736L93.915 315.433ZM104.359 297.312V301.15H107.318V303.245H104.359V313.074C104.359 313.709 104.491 314.188 104.755 314.51C105.019 314.822 105.468 314.979 106.103 314.979C106.415 314.979 106.845 314.92 107.392 314.803V317C106.679 317.195 105.985 317.293 105.312 317.293C104.101 317.293 103.188 316.927 102.572 316.194C101.957 315.462 101.649 314.422 101.649 313.074V303.245H98.7637V301.15H101.649V297.312H104.359Z" fill="#5CC9E2"/>
<path id="Contact" d="M391.237 310.232C390.974 312.488 390.139 314.231 388.732 315.462C387.336 316.683 385.476 317.293 383.151 317.293C380.632 317.293 378.61 316.39 377.087 314.583C375.573 312.776 374.816 310.359 374.816 307.332V305.281C374.816 303.299 375.168 301.556 375.871 300.052C376.584 298.548 377.59 297.396 378.889 296.595C380.188 295.784 381.691 295.379 383.4 295.379C385.666 295.379 387.482 296.014 388.85 297.283C390.217 298.543 391.013 300.291 391.237 302.527H388.41C388.166 300.828 387.634 299.598 386.813 298.836C386.003 298.074 384.865 297.693 383.4 297.693C381.604 297.693 380.192 298.357 379.167 299.686C378.151 301.014 377.644 302.903 377.644 305.354V307.42C377.644 309.734 378.127 311.575 379.094 312.942C380.061 314.31 381.413 314.993 383.151 314.993C384.714 314.993 385.91 314.642 386.74 313.938C387.58 313.226 388.137 311.99 388.41 310.232H391.237ZM393.947 308.929C393.947 307.376 394.25 305.979 394.855 304.739C395.471 303.499 396.32 302.542 397.404 301.868C398.498 301.194 399.743 300.857 401.14 300.857C403.298 300.857 405.041 301.604 406.369 303.099C407.707 304.593 408.376 306.58 408.376 309.061V309.251C408.376 310.794 408.078 312.181 407.482 313.411C406.896 314.632 406.052 315.584 404.948 316.268C403.854 316.951 402.595 317.293 401.169 317.293C399.021 317.293 397.277 316.546 395.939 315.052C394.611 313.558 393.947 311.58 393.947 309.119V308.929ZM396.672 309.251C396.672 311.009 397.077 312.42 397.888 313.484C398.708 314.549 399.802 315.081 401.169 315.081C402.546 315.081 403.64 314.544 404.45 313.47C405.261 312.386 405.666 310.872 405.666 308.929C405.666 307.19 405.251 305.784 404.421 304.71C403.601 303.626 402.507 303.084 401.14 303.084C399.802 303.084 398.723 303.616 397.902 304.681C397.082 305.745 396.672 307.269 396.672 309.251ZM414.338 301.15L414.426 303.143C415.637 301.619 417.219 300.857 419.172 300.857C422.521 300.857 424.211 302.747 424.24 306.526V317H421.53V306.512C421.521 305.369 421.257 304.524 420.739 303.978C420.231 303.431 419.436 303.157 418.352 303.157C417.473 303.157 416.701 303.392 416.037 303.86C415.373 304.329 414.855 304.944 414.484 305.706V317H411.774V301.15H414.338ZM432.004 297.312V301.15H434.963V303.245H432.004V313.074C432.004 313.709 432.136 314.188 432.399 314.51C432.663 314.822 433.112 314.979 433.747 314.979C434.06 314.979 434.489 314.92 435.036 314.803V317C434.323 317.195 433.63 317.293 432.956 317.293C431.745 317.293 430.832 316.927 430.217 316.194C429.602 315.462 429.294 314.422 429.294 313.074V303.245H426.408V301.15H429.294V297.312H432.004ZM447.927 317C447.771 316.688 447.644 316.131 447.546 315.33C446.286 316.639 444.782 317.293 443.034 317.293C441.472 317.293 440.188 316.854 439.182 315.975C438.186 315.086 437.688 313.963 437.688 312.605C437.688 310.955 438.312 309.676 439.562 308.768C440.822 307.85 442.59 307.391 444.865 307.391H447.502V306.146C447.502 305.198 447.219 304.446 446.652 303.89C446.086 303.323 445.251 303.04 444.147 303.04C443.181 303.04 442.37 303.284 441.716 303.772C441.062 304.261 440.734 304.852 440.734 305.545H438.01C438.01 304.754 438.288 303.992 438.845 303.26C439.411 302.518 440.173 301.932 441.13 301.502C442.097 301.072 443.156 300.857 444.309 300.857C446.135 300.857 447.565 301.316 448.601 302.234C449.636 303.143 450.173 304.397 450.212 305.999V313.294C450.212 314.749 450.397 315.906 450.769 316.766V317H447.927ZM443.43 314.935C444.279 314.935 445.085 314.715 445.847 314.275C446.608 313.836 447.16 313.265 447.502 312.562V309.31H445.378C442.058 309.31 440.397 310.281 440.397 312.225C440.397 313.074 440.681 313.738 441.247 314.217C441.813 314.695 442.541 314.935 443.43 314.935ZM460.817 315.081C461.784 315.081 462.629 314.788 463.352 314.202C464.074 313.616 464.475 312.884 464.553 312.005H467.116C467.067 312.913 466.755 313.777 466.179 314.598C465.603 315.418 464.831 316.072 463.864 316.561C462.907 317.049 461.892 317.293 460.817 317.293C458.659 317.293 456.94 316.575 455.661 315.14C454.392 313.694 453.757 311.722 453.757 309.222V308.768C453.757 307.225 454.04 305.853 454.606 304.651C455.173 303.45 455.983 302.518 457.038 301.854C458.103 301.189 459.357 300.857 460.803 300.857C462.58 300.857 464.055 301.39 465.227 302.454C466.408 303.519 467.038 304.9 467.116 306.6H464.553C464.475 305.574 464.084 304.734 463.381 304.08C462.688 303.416 461.828 303.084 460.803 303.084C459.426 303.084 458.356 303.582 457.595 304.578C456.843 305.564 456.467 306.995 456.467 308.87V309.383C456.467 311.209 456.843 312.615 457.595 313.602C458.347 314.588 459.421 315.081 460.817 315.081ZM473.84 297.312V301.15H476.799V303.245H473.84V313.074C473.84 313.709 473.972 314.188 474.235 314.51C474.499 314.822 474.948 314.979 475.583 314.979C475.896 314.979 476.325 314.92 476.872 314.803V317C476.159 317.195 475.466 317.293 474.792 317.293C473.581 317.293 472.668 316.927 472.053 316.194C471.438 315.462 471.13 314.422 471.13 313.074V303.245H468.244V301.15H471.13V297.312H473.84Z" fill="#5CC9E2"/>
<path id="Projects" d="M120.614 580.308L116.426 587.531L113.993 586.12L124.692 567.67L131.497 571.616C133.516 572.787 134.797 574.218 135.34 575.91C135.891 577.607 135.674 579.305 134.689 581.003C133.651 582.794 132.288 583.849 130.601 584.169C128.928 584.485 127.047 584.039 124.961 582.829L120.614 580.308ZM121.768 578.318L126.14 580.854C127.441 581.608 128.614 581.882 129.659 581.676C130.71 581.461 131.571 580.774 132.242 579.617C132.879 578.519 133.042 577.439 132.731 576.379C132.421 575.318 131.669 574.425 130.475 573.699L125.964 571.083L121.768 578.318ZM143.356 587.637C143.035 587.372 142.668 587.12 142.254 586.88C140.717 585.988 139.294 586.038 137.985 587.029L132.341 596.761L129.997 595.401L137.948 581.69L140.229 583.013L139.349 584.619C140.828 583.84 142.273 583.859 143.684 584.678C144.14 584.942 144.452 585.202 144.62 585.458L143.356 587.637ZM141.966 593.012C142.745 591.669 143.708 590.612 144.853 589.843C146.008 589.079 147.223 588.677 148.499 588.638C149.783 588.604 151.029 588.937 152.237 589.638C154.104 590.721 155.237 592.241 155.637 594.2C156.044 596.164 155.626 598.218 154.382 600.364L154.286 600.529C153.512 601.864 152.559 602.914 151.426 603.68C150.307 604.442 149.099 604.841 147.801 604.879C146.512 604.922 145.251 604.586 144.017 603.87C142.159 602.793 141.026 601.272 140.618 599.308C140.218 597.349 140.636 595.305 141.871 593.177L141.966 593.012ZM144.161 594.657C143.28 596.178 142.922 597.602 143.089 598.93C143.265 600.262 143.944 601.271 145.127 601.957C146.318 602.648 147.534 602.732 148.774 602.209C150.019 601.678 151.129 600.572 152.104 598.891C152.976 597.387 153.322 595.962 153.143 594.617C152.977 593.267 152.303 592.25 151.12 591.564C149.963 590.893 148.762 590.812 147.519 591.321C146.275 591.83 145.156 592.943 144.161 594.657ZM163.71 596.63L154.84 611.925C153.312 614.561 151.352 615.185 148.962 613.799C148.446 613.5 148.013 613.147 147.662 612.74L148.75 610.865C148.981 611.089 149.316 611.329 149.755 611.584C150.279 611.887 150.759 611.974 151.196 611.843C151.637 611.726 152.06 611.317 152.467 610.616L161.366 595.27L163.71 596.63ZM163.234 591.494C163.45 591.122 163.747 590.872 164.127 590.742C164.521 590.609 164.941 590.672 165.389 590.932C165.845 591.196 166.116 591.528 166.2 591.927C166.285 592.326 166.217 592.716 165.997 593.096C165.776 593.476 165.474 593.724 165.091 593.841C164.707 593.957 164.287 593.883 163.831 593.618C163.375 593.354 163.106 593.029 163.025 592.643C162.944 592.257 163.014 591.874 163.234 591.494ZM165.091 616.091C163.232 615.013 162.073 613.528 161.612 611.635C161.157 609.734 161.522 607.762 162.707 605.717L162.957 605.287C163.746 603.926 164.707 602.864 165.839 602.098C166.985 601.329 168.197 600.914 169.474 600.853C170.764 600.788 171.954 601.072 173.044 601.704C174.827 602.738 175.872 604.128 176.179 605.876C176.487 607.623 176.006 609.591 174.737 611.779L174.171 612.755L164.883 607.368C164.133 608.74 163.891 610.061 164.158 611.334C164.438 612.603 165.161 613.575 166.327 614.251C167.155 614.731 167.954 614.969 168.724 614.964C169.495 614.959 170.257 614.803 171.011 614.495L171.797 616.441C169.624 617.54 167.388 617.424 165.091 616.091ZM171.927 603.63C170.981 603.082 169.986 602.967 168.942 603.288C167.903 603.6 166.948 604.333 166.076 605.486L172.944 609.469L173.047 609.292C173.67 608.061 173.883 606.954 173.686 605.971C173.493 604.979 172.907 604.199 171.927 603.63ZM179.772 622.048C180.608 622.533 181.486 622.703 182.405 622.559C183.324 622.415 184.038 621.982 184.546 621.261L186.764 622.547C186.266 623.308 185.562 623.899 184.652 624.319C183.742 624.74 182.747 624.919 181.665 624.856C180.592 624.799 179.591 624.5 178.662 623.961C176.795 622.879 175.668 621.395 175.282 619.512C174.909 617.625 175.349 615.6 176.603 613.437L176.831 613.044C177.605 611.71 178.539 610.665 179.631 609.91C180.724 609.155 181.893 608.755 183.138 608.709C184.392 608.669 185.644 609.011 186.895 609.736C188.432 610.628 189.441 611.828 189.92 613.337C190.409 614.85 190.26 616.362 189.475 617.871L187.258 616.585C187.705 615.659 187.788 614.736 187.508 613.817C187.241 612.895 186.665 612.177 185.778 611.662C184.586 610.972 183.412 610.866 182.253 611.345C181.108 611.821 180.065 612.87 179.124 614.492L178.867 614.936C177.951 616.516 177.57 617.921 177.726 619.151C177.882 620.382 178.564 621.347 179.772 622.048ZM199.951 613.21L198.025 616.53L200.585 618.014L199.534 619.826L196.975 618.342L192.044 626.845C191.725 627.394 191.599 627.874 191.666 628.285C191.737 628.688 192.047 629.048 192.596 629.367C192.867 629.523 193.268 629.688 193.8 629.861L192.697 631.762C191.983 631.573 191.334 631.31 190.751 630.972C189.704 630.364 189.097 629.589 188.933 628.647C188.768 627.705 189.023 626.651 189.699 625.485L194.63 616.982L192.134 615.535L193.185 613.723L195.681 615.17L197.607 611.85L199.951 613.21ZM205.476 634.313C205.844 633.679 205.887 633.049 205.606 632.424C205.339 631.795 204.683 631.008 203.639 630.064C202.603 629.124 201.838 628.274 201.342 627.513C200.855 626.756 200.585 626.035 200.531 625.349C200.486 624.668 200.659 623.989 201.051 623.314C201.703 622.19 202.727 621.514 204.124 621.285C205.529 621.062 206.971 621.379 208.449 622.236C210.004 623.137 211.03 624.269 211.527 625.63C212.034 626.996 211.924 628.304 211.199 629.554L208.842 628.187C209.214 627.545 209.261 626.833 208.981 626.05C208.71 625.271 208.16 624.642 207.332 624.162C206.479 623.667 205.704 623.466 205.007 623.559C204.31 623.651 203.787 623.997 203.439 624.597C203.111 625.163 203.088 625.72 203.369 626.266C203.65 626.813 204.298 627.556 205.312 628.494C206.334 629.436 207.103 630.3 207.619 631.085C208.135 631.869 208.416 632.62 208.464 633.336C208.525 634.049 208.342 634.772 207.916 635.507C207.206 636.732 206.145 637.432 204.734 637.607C203.328 637.774 201.843 637.404 200.28 636.498C199.182 635.861 198.323 635.103 197.704 634.225C197.084 633.346 196.735 632.421 196.655 631.449C196.588 630.474 196.79 629.58 197.261 628.769L199.605 630.129C199.192 630.939 199.142 631.745 199.455 632.548C199.782 633.347 200.427 634.026 201.39 634.585C202.277 635.099 203.089 635.333 203.827 635.287C204.579 635.237 205.128 634.912 205.476 634.313Z" fill="#5CC9E2"/>
<path id="Inspiration" d="M283.431 645.322L280.995 646.728L270.331 628.258L272.766 626.851L283.431 645.322ZM281.823 627.948L282.896 629.63C283.183 627.705 284.172 626.254 285.863 625.278C288.764 623.603 291.172 624.395 293.087 627.653L298.324 636.723L295.977 638.078L290.733 628.995C290.153 628.011 289.502 627.411 288.781 627.196C288.067 626.976 287.241 627.138 286.303 627.68C285.542 628.119 284.991 628.708 284.65 629.446C284.309 630.184 284.169 630.975 284.228 631.82L289.875 641.601L287.528 642.956L279.603 629.23L281.823 627.948ZM307.753 626.425C307.387 625.791 306.863 625.439 306.181 625.371C305.502 625.289 304.493 625.465 303.154 625.9C301.824 626.33 300.705 626.57 299.798 626.62C298.899 626.665 298.139 626.54 297.518 626.245C296.905 625.945 296.403 625.457 296.012 624.78C295.363 623.655 295.287 622.43 295.785 621.105C296.292 619.776 297.285 618.683 298.765 617.829C300.321 616.931 301.813 616.605 303.241 616.851C304.677 617.093 305.757 617.84 306.48 619.092L304.12 620.454C303.749 619.811 303.154 619.416 302.336 619.268C301.526 619.116 300.707 619.279 299.878 619.757C299.024 620.25 298.463 620.822 298.196 621.473C297.929 622.123 297.968 622.749 298.315 623.349C298.642 623.916 299.113 624.213 299.727 624.242C300.341 624.271 301.308 624.079 302.626 623.668C303.953 623.251 305.085 623.015 306.023 622.959C306.96 622.902 307.751 623.032 308.395 623.348C309.044 623.65 309.58 624.169 310.005 624.905C310.713 626.131 310.791 627.4 310.24 628.71C309.684 630.013 308.623 631.115 307.059 632.019C305.959 632.653 304.874 633.02 303.804 633.12C302.734 633.219 301.757 633.061 300.875 632.646C299.996 632.217 299.322 631.597 298.853 630.785L301.2 629.43C301.697 630.192 302.371 630.637 303.223 630.766C304.079 630.881 304.989 630.66 305.953 630.103C306.841 629.59 307.449 629.003 307.776 628.34C308.108 627.664 308.1 627.025 307.753 626.425ZM322.98 613.54C324.186 615.629 324.68 617.588 324.461 619.417C324.243 621.246 323.318 622.631 321.686 623.574C320.019 624.536 318.403 624.764 316.837 624.259L320.653 630.868L318.306 632.223L307.335 613.219L309.479 611.982L310.472 613.438C310.744 611.702 311.73 610.344 313.43 609.362C315.079 608.41 316.74 608.28 318.414 608.971C320.096 609.658 321.576 611.109 322.855 613.325L322.98 613.54ZM320.479 614.629C319.586 613.081 318.55 612.05 317.373 611.534C316.196 611.018 315.032 611.093 313.882 611.757C312.461 612.577 311.759 613.822 311.776 615.493L315.563 622.051C316.988 622.898 318.423 622.903 319.869 622.068C320.994 621.419 321.63 620.46 321.777 619.191C321.927 617.909 321.495 616.388 320.479 614.629ZM332.398 617.051L330.051 618.406L322.126 604.679L324.473 603.324L332.398 617.051ZM319.834 601.148C319.614 600.768 319.543 600.38 319.62 599.986C319.705 599.588 319.977 599.256 320.433 598.993C320.89 598.729 321.312 598.66 321.701 598.785C322.089 598.911 322.393 599.164 322.612 599.544C322.832 599.925 322.897 600.31 322.806 600.701C322.716 601.091 322.443 601.418 321.986 601.682C321.529 601.946 321.109 602.019 320.726 601.902C320.351 601.78 320.054 601.529 319.834 601.148ZM336.092 599.424C335.702 599.57 335.3 599.763 334.886 600.002C333.347 600.891 332.681 602.149 332.888 603.777L338.513 613.52L336.166 614.875L328.241 601.149L330.525 599.831L331.478 601.394C331.54 599.724 332.277 598.481 333.689 597.665C334.146 597.402 334.527 597.261 334.832 597.242L336.092 599.424ZM352.937 605.193C352.645 605 352.257 604.582 351.772 603.937C351.335 605.7 350.36 607.019 348.846 607.893C347.493 608.674 346.161 608.935 344.851 608.677C343.544 608.406 342.551 607.682 341.872 606.506C341.047 605.077 340.948 603.657 341.577 602.245C342.209 600.82 343.51 599.539 345.481 598.401L347.764 597.083L347.142 596.005C346.668 595.184 346.047 594.675 345.278 594.476C344.504 594.269 343.639 594.441 342.684 594.993C341.846 595.476 341.267 596.093 340.944 596.843C340.622 597.593 340.634 598.268 340.98 598.868L338.621 600.231C338.225 599.546 338.085 598.747 338.201 597.834C338.321 596.908 338.687 596.02 339.301 595.169C339.924 594.314 340.734 593.598 341.732 593.022C343.314 592.109 344.782 591.791 346.137 592.068C347.488 592.337 348.581 593.155 349.415 594.523L353.063 600.841C353.79 602.101 354.53 603.01 355.281 603.569L355.398 603.772L352.937 605.193ZM348.009 605.652C348.745 605.228 349.333 604.635 349.773 603.873C350.213 603.112 350.405 602.341 350.35 601.561L348.724 598.745L346.884 599.807C344.009 601.467 343.057 603.139 344.028 604.822C344.453 605.557 345.031 605.991 345.76 606.122C346.49 606.253 347.24 606.097 348.009 605.652ZM351.935 583.038L353.854 586.361L356.417 584.882L357.464 586.696L354.901 588.176L359.816 596.688C360.133 597.238 360.487 597.586 360.876 597.733C361.261 597.872 361.728 597.783 362.278 597.465C362.548 597.309 362.891 597.044 363.306 596.669L364.405 598.572C363.885 599.097 363.333 599.528 362.75 599.865C361.701 600.471 360.727 600.61 359.828 600.283C358.929 599.957 358.143 599.21 357.469 598.043L352.554 589.531L350.055 590.973L349.008 589.159L351.507 587.716L349.588 584.393L351.935 583.038ZM369.644 595.547L367.297 596.902L359.372 583.175L361.719 581.82L369.644 595.547ZM357.08 579.644C356.86 579.264 356.789 578.877 356.866 578.483C356.951 578.084 357.222 577.752 357.679 577.489C358.136 577.225 358.558 577.156 358.946 577.281C359.335 577.407 359.639 577.66 359.858 578.04C360.078 578.421 360.143 578.807 360.052 579.197C359.962 579.587 359.689 579.914 359.232 580.178C358.775 580.442 358.355 580.515 357.972 580.398C357.597 580.276 357.3 580.025 357.08 579.644ZM368.755 586.74C367.978 585.396 367.542 584.035 367.446 582.658C367.359 581.276 367.616 580.023 368.218 578.897C368.828 577.767 369.738 576.852 370.948 576.154C372.817 575.075 374.7 574.85 376.597 575.48C378.503 576.105 380.076 577.492 381.316 579.64L381.411 579.805C382.183 581.141 382.618 582.491 382.718 583.855C382.82 585.205 382.565 586.452 381.951 587.595C381.346 588.734 380.426 589.66 379.191 590.373C377.33 591.447 375.447 591.672 373.541 591.047C371.644 590.417 370.08 589.036 368.85 586.905L368.755 586.74ZM371.275 585.657C372.154 587.179 373.211 588.199 374.445 588.715C375.688 589.227 376.901 589.141 378.085 588.458C379.277 587.769 379.956 586.757 380.121 585.421C380.281 584.077 379.875 582.564 378.903 580.881C378.034 579.376 376.972 578.365 375.716 577.85C374.463 577.321 373.245 577.399 372.061 578.082C370.902 578.751 370.234 579.752 370.056 581.084C369.878 582.416 370.284 583.94 371.275 585.657ZM382.524 569.809L383.596 571.49C383.883 569.565 384.873 568.115 386.564 567.138C389.465 565.463 391.873 566.255 393.788 569.513L399.025 578.584L396.678 579.939L391.434 570.856C390.854 569.871 390.203 569.271 389.481 569.056C388.768 568.837 387.942 568.998 387.004 569.54C386.242 569.979 385.691 570.568 385.351 571.306C385.01 572.044 384.869 572.836 384.929 573.681L390.576 583.462L388.229 584.817L380.304 571.09L382.524 569.809Z" fill="#5CC9E2"/>
</g>
</g>
<path id="Vector_13" d="M248.981 606L248.985 783.787" stroke="white" stroke-miterlimit="10"/>
<defs>
<clipPath id="clip0">
<rect width="498.9" height="708.66" fill="white"/>
</clipPath>
</defs>
</svg>
